<?xml version="1.0" encoding="UTF-8" standalone="no"?>
<svg
   xmlns:dc="http://purl.org/dc/elements/1.1/"
   xmlns:cc="http://creativecommons.org/ns#"
   xmlns:rdf="http://www.w3.org/1999/02/22-rdf-syntax-ns#"
   xmlns:svg="http://www.w3.org/2000/svg"
   xmlns="http://www.w3.org/2000/svg"
   xmlns:sodipodi="http://sodipodi.sourceforge.net/DTD/sodipodi-0.dtd"
   xmlns:inkscape="http://www.inkscape.org/namespaces/inkscape"
   style="font-style:normal;font-weight:normal;font-size:12px;font-family:Dialog;color-interpolation:auto;fill:#000000;fill-opacity:1;stroke:#000000;stroke-width:1;stroke-linecap:square;stroke-linejoin:miter;stroke-miterlimit:10;stroke-dasharray:none;stroke-dashoffset:0;stroke-opacity:1;color-rendering:auto;image-rendering:auto;shape-rendering:auto;text-rendering:auto"
   width="534.70111"
   height="394.29681"
   version="1.1"
   id="svg479"
   sodipodi:docname="fnr_02.svg"
   inkscape:version="0.92.4 (f8dce91, 2019-08-02)">
  <metadata
     id="metadata483">
    <rdf:RDF>
      <cc:Work
         rdf:about="">
        <dc:format>image/svg+xml</dc:format>
        <dc:type
           rdf:resource="http://purl.org/dc/dcmitype/StillImage" />
        <dc:title></dc:title>
      </cc:Work>
    </rdf:RDF>
  </metadata>
  <sodipodi:namedview
     pagecolor="#ffffff"
     bordercolor="#666666"
     borderopacity="1"
     objecttolerance="10"
     gridtolerance="10"
     guidetolerance="10"
     inkscape:pageopacity="0"
     inkscape:pageshadow="2"
     inkscape:window-width="759"
     inkscape:window-height="480"
     id="namedview481"
     showgrid="false"
     fit-margin-top="0"
     fit-margin-left="0"
     fit-margin-right="0"
     fit-margin-bottom="0"
     inkscape:zoom="0.56190476"
     inkscape:cx="183.81749"
     inkscape:cy="196.9062"
     inkscape:window-x="691"
     inkscape:window-y="222"
     inkscape:window-maximized="0"
     inkscape:current-layer="g477" />
  <!--Generated by the Batik Graphics2D SVG Generator-->
  <defs
     id="genericDefs" />
  <g
     id="g477"
     transform="translate(-22.8614,-12.6094)">
    <defs
       id="defs1">
      <clipPath
         clipPathUnits="userSpaceOnUse"
         id="clipPath1">
        <path
           d="M 0,0 H 560 V 420 H 0 Z"
           id="path3"
           inkscape:connector-curvature="0" />
      </clipPath>
    </defs>
    <g
       style="color-interpolation:linearRGB;fill:#262626;fill-opacity:0.14900004;stroke:#262626;stroke-width:0.66670001;stroke-linecap:butt;stroke-linejoin:round;stroke-opacity:0.14900004;color-rendering:optimizeQuality;image-rendering:optimizeQuality;text-rendering:geometricPrecision"
       id="g77">
      <line
         y2="238.9124"
         style="fill:none"
         x1="167.5903"
         x2="502"
         y1="200.7019"
         id="line17" />
      <line
         y2="272.6843"
         style="fill:none"
         x1="143.9427"
         x2="478.35239"
         y1="234.4738"
         id="line19" />
      <line
         y2="306.45621"
         style="fill:none"
         x1="120.2951"
         x2="454.7049"
         y1="268.2457"
         id="line21" />
      <line
         y2="340.22809"
         style="fill:none"
         x1="96.647598"
         x2="431.05731"
         y1="302.01761"
         id="line23" />
      <line
         y2="374"
         style="fill:none"
         x1="73"
         x2="407.40979"
         y1="335.78949"
         id="line25" />
      <line
         y2="200.7019"
         style="fill:none"
         x1="167.5903"
         x2="167.5903"
         y1="31"
         id="line27" />
      <line
         y2="234.4738"
         style="fill:none"
         x1="143.9427"
         x2="143.9427"
         y1="64.771896"
         id="line29" />
      <line
         y2="268.2457"
         style="fill:none"
         x1="120.2951"
         x2="120.2951"
         y1="98.5438"
         id="line31" />
      <line
         y2="302.01761"
         style="fill:none"
         x1="96.647598"
         x2="96.647598"
         y1="132.3157"
         id="line33" />
      <line
         y2="335.78949"
         style="fill:none"
         x1="73"
         x2="73"
         y1="166.0876"
         id="line35" />
      <line
         y2="200.7019"
         style="fill:none"
         x1="73"
         x2="167.5903"
         y1="335.78949"
         id="line37" />
      <line
         y2="210.2545"
         style="fill:none"
         x1="156.6024"
         x2="251.1927"
         y1="345.3421"
         id="line39" />
      <line
         y2="219.80721"
         style="fill:none"
         x1="240.2049"
         x2="334.7951"
         y1="354.89471"
         id="line41" />
      <line
         y2="229.3598"
         style="fill:none"
         x1="323.80731"
         x2="418.39761"
         y1="364.44739"
         id="line43" />
      <line
         y2="238.9124"
         style="fill:none"
         x1="407.40979"
         x2="502"
         y1="374"
         id="line45" />
      <line
         y2="31"
         style="fill:none"
         x1="167.5903"
         x2="167.5903"
         y1="200.7019"
         id="line47" />
      <line
         y2="40.552601"
         style="fill:none"
         x1="251.1927"
         x2="251.1927"
         y1="210.2545"
         id="line49" />
      <line
         y2="50.105301"
         style="fill:none"
         x1="334.7951"
         x2="334.7951"
         y1="219.80721"
         id="line51" />
      <line
         y2="59.657902"
         style="fill:none"
         x1="418.39761"
         x2="418.39761"
         y1="229.3598"
         id="line53" />
      <line
         y2="69.210503"
         style="fill:none"
         x1="502"
         x2="502"
         y1="238.9124"
         id="line55" />
      <line
         y2="335.78949"
         style="fill:none"
         x1="167.5903"
         x2="73"
         y1="200.7019"
         id="line57" />
      <line
         y2="293.36401"
         style="fill:none"
         x1="167.5903"
         x2="73"
         y1="158.2764"
         id="line59" />
      <line
         y2="250.93851"
         style="fill:none"
         x1="167.5903"
         x2="73"
         y1="115.851"
         id="line61" />
      <line
         y2="208.51311"
         style="fill:none"
         x1="167.5903"
         x2="73"
         y1="73.425499"
         id="line63" />
      <line
         y2="166.0876"
         style="fill:none"
         x1="167.5903"
         x2="73"
         y1="31"
         id="line65" />
      <line
         y2="200.7019"
         style="fill:none"
         x1="502"
         x2="167.5903"
         y1="238.9124"
         id="line67" />
      <line
         y2="158.2764"
         style="fill:none"
         x1="502"
         x2="167.5903"
         y1="196.487"
         id="line69" />
      <line
         y2="115.851"
         style="fill:none"
         x1="502"
         x2="167.5903"
         y1="154.06149"
         id="line71" />
      <line
         y2="73.425499"
         style="fill:none"
         x1="502"
         x2="167.5903"
         y1="111.636"
         id="line73" />
      <line
         y2="31"
         style="fill:none"
         x1="502"
         x2="167.5903"
         y1="69.210503"
         id="line75" />
    </g>
    <g
       style="color-interpolation:sRGB;fill:#3e6ffe;stroke:#3e6ffe;color-rendering:optimizeSpeed;image-rendering:optimizeSpeed;shape-rendering:crispEdges;text-rendering:optimizeSpeed"
       id="g81">
      <path
         style="stroke:none"
         d="m 167.5903,160.3084 83.6024,-93.2902 -23.6476,51.138 -83.6024,93.1168 z"
         id="path79"
         inkscape:connector-curvature="0" />
    </g>
    <g
       style="color-interpolation:linearRGB;stroke-width:0.66670001;stroke-linecap:butt;stroke-linejoin:round;color-rendering:optimizeQuality;image-rendering:optimizeQuality;text-rendering:geometricPrecision"
       id="g91">
      <line
         y2="211.27299"
         style="fill:none"
         x1="167.5903"
         x2="143.9427"
         y1="160.3084"
         id="line83" />
      <line
         y2="67.018204"
         style="fill:none"
         x1="167.5903"
         x2="251.1927"
         y1="160.3084"
         id="line85" />
      <line
         x1="502"
         x2="407.40979"
         y1="238.9124"
         style="fill:none;stroke:#262626"
         y2="374"
         id="line87" />
      <line
         x1="502"
         x2="510.3602"
         y1="238.9124"
         style="fill:none;stroke:#262626"
         y2="239.86771"
         id="line89" />
    </g>
    <g
       transform="translate(515.6591,240.4731)"
       style="font-size:13.33329964px;font-family:SansSerif;color-interpolation:linearRGB;fill:#262626;stroke:#262626;color-rendering:optimizeQuality;image-rendering:optimizeQuality;text-rendering:geometricPrecision"
       id="g95">
      <path
         style="stroke:none"
         d="m 4.125,4.3594 q -0.9844,0 -1.4844,0.9765 -0.5,0.9766 -0.5,2.9297 0,1.9532 0.5,2.9297 0.5,0.9766 1.4844,0.9766 1,0 1.5,-0.9766 0.5,-0.9765 0.5,-2.9297 0,-1.9531 -0.5,-2.9297 -0.5,-0.9765 -1.5,-0.9765 z m 0,-1.0156 q 1.5938,0 2.4375,1.2656 0.8437,1.2656 0.8437,3.6562 0,2.3906 -0.8437,3.6563 -0.8437,1.2656 -2.4375,1.2656 -1.5781,0 -2.4219,-1.2656 Q 0.8594,10.6562 0.8594,8.2656 0.8594,5.875 1.7031,4.6094 2.5469,3.3438 4.125,3.3438 Z m 5.7354,8.0468 h 1.3438 V 13 H 9.8604 Z M 16.9984,7.75 q -0.875,0 -1.375,0.5938 -0.5,0.5937 -0.5,1.6093 0,1.0313 0.5,1.625 0.5,0.5938 1.375,0.5938 0.8593,0 1.3593,-0.5938 0.5,-0.5937 0.5,-1.625 0,-1.0156 -0.5,-1.6093 Q 17.8577,7.75 16.9984,7.75 Z M 19.5452,3.7344 V 4.9062 Q 19.0609,4.6719 18.5687,4.5547 18.0765,4.4375 17.5921,4.4375 q -1.2656,0 -1.9375,0.8516 -0.6719,0.8515 -0.7656,2.5859 0.375,-0.5469 0.9375,-0.8438 0.5625,-0.2968 1.25,-0.2968 1.4219,0 2.25,0.8672 0.8281,0.8672 0.8281,2.3515 0,1.4688 -0.8672,2.3516 -0.8672,0.8828 -2.289,0.8828 -1.6563,0 -2.5235,-1.2656 -0.8672,-1.2657 -0.8672,-3.6563 0,-2.2344 1.0703,-3.5781 1.0704,-1.3437 2.8672,-1.3437 0.4688,0 0.961,0.1015 0.4922,0.1016 1.039,0.2891 z"
         id="path93"
         inkscape:connector-curvature="0" />
    </g>
    <g
       style="color-interpolation:sRGB;fill:#4641e5;stroke:#4641e5;color-rendering:optimizeSpeed;image-rendering:optimizeSpeed;shape-rendering:crispEdges;text-rendering:optimizeSpeed"
       id="g99">
      <path
         style="stroke:none"
         d="m 203.8976,163.8297 -83.6025,90.7714 23.6476,-43.3281 z"
         id="path97"
         inkscape:connector-curvature="0" />
    </g>
    <g
       style="color-interpolation:linearRGB;stroke-width:0.66670001;stroke-linecap:round;stroke-linejoin:round;color-rendering:optimizeQuality;image-rendering:optimizeQuality;text-rendering:geometricPrecision"
       id="g103">
      <line
         y2="254.6011"
         style="fill:none"
         x1="143.9427"
         x2="120.2951"
         y1="211.27299"
         id="line101" />
    </g>
    <g
       style="color-interpolation:sRGB;fill:#4641e5;stroke:#4641e5;color-rendering:optimizeSpeed;image-rendering:optimizeSpeed;shape-rendering:crispEdges;text-rendering:optimizeSpeed"
       id="g107">
      <path
         style="stroke:none"
         d="m 143.9427,211.273 83.6024,-93.1168 -23.6475,45.6735 z"
         id="path105"
         inkscape:connector-curvature="0" />
    </g>
    <g
       style="color-interpolation:linearRGB;stroke-width:0.66670001;stroke-linecap:round;stroke-linejoin:round;color-rendering:optimizeQuality;image-rendering:optimizeQuality;text-rendering:geometricPrecision"
       id="g113">
      <line
         y2="118.1562"
         style="fill:none"
         x1="143.9427"
         x2="227.5451"
         y1="211.27299"
         id="line109" />
      <line
         x1="478.35239"
         x2="486.71271"
         y1="272.6843"
         style="fill:none;stroke:#262626"
         y2="273.63959"
         id="line111" />
    </g>
    <g
       transform="translate(492.0115,274.245)"
       style="font-size:13.33329964px;font-family:SansSerif;color-interpolation:linearRGB;fill:#262626;stroke:#262626;color-rendering:optimizeQuality;image-rendering:optimizeQuality;text-rendering:geometricPrecision"
       id="g117">
      <path
         style="stroke:none"
         d="m 4.125,4.3594 q -0.9844,0 -1.4844,0.9765 -0.5,0.9766 -0.5,2.9297 0,1.9532 0.5,2.9297 0.5,0.9766 1.4844,0.9766 1,0 1.5,-0.9766 0.5,-0.9765 0.5,-2.9297 0,-1.9531 -0.5,-2.9297 -0.5,-0.9765 -1.5,-0.9765 z m 0,-1.0156 q 1.5938,0 2.4375,1.2656 0.8437,1.2656 0.8437,3.6562 0,2.3906 -0.8437,3.6563 -0.8437,1.2656 -2.4375,1.2656 -1.5781,0 -2.4219,-1.2656 Q 0.8594,10.6562 0.8594,8.2656 0.8594,5.875 1.7031,4.6094 2.5469,3.3438 4.125,3.3438 Z m 5.7354,8.0468 h 1.3438 V 13 H 9.8604 Z m 3.9036,-7.875 h 6.0937 V 4.0625 L 16.4202,13 h -1.3437 l 3.25,-8.3906 H 13.764 Z"
         id="path115"
         inkscape:connector-curvature="0" />
    </g>
    <g
       style="color-interpolation:sRGB;fill:#412ebf;stroke:#412ebf;color-rendering:optimizeSpeed;image-rendering:optimizeSpeed;shape-rendering:crispEdges;text-rendering:optimizeSpeed"
       id="g121">
      <path
         style="stroke:none"
         d="M 120.2951,254.6011 203.8976,163.8297 180.25,205.2825 Z"
         id="path119"
         inkscape:connector-curvature="0" />
    </g>
    <g
       style="color-interpolation:linearRGB;stroke-width:0.66670001;stroke-linecap:round;stroke-linejoin:round;color-rendering:optimizeQuality;image-rendering:optimizeQuality;text-rendering:geometricPrecision"
       id="g125">
      <line
         y2="163.8297"
         style="fill:none"
         x1="120.2951"
         x2="203.8976"
         y1="254.6011"
         id="line123" />
    </g>
    <g
       style="color-interpolation:sRGB;fill:#412ebf;stroke:#412ebf;color-rendering:optimizeSpeed;image-rendering:optimizeSpeed;shape-rendering:crispEdges;text-rendering:optimizeSpeed"
       id="g129">
      <path
         style="stroke:none"
         d="M 180.25,205.2825 96.6476,290.777 120.2951,254.6011 Z"
         id="path127"
         inkscape:connector-curvature="0" />
    </g>
    <g
       style="color-interpolation:linearRGB;stroke-width:0.66670001;stroke-linecap:round;stroke-linejoin:round;color-rendering:optimizeQuality;image-rendering:optimizeQuality;text-rendering:geometricPrecision"
       id="g133">
      <line
         y2="290.77701"
         style="fill:none"
         x1="120.2951"
         x2="96.647598"
         y1="254.6011"
         id="line131" />
    </g>
    <g
       style="color-interpolation:sRGB;fill:#23c1ae;stroke:#23c1ae;color-rendering:optimizeSpeed;image-rendering:optimizeSpeed;shape-rendering:crispEdges;text-rendering:optimizeSpeed"
       id="g139">
      <path
         style="stroke:none"
         d="m 478.3524,182.3305 -83.6024,1.312 23.6476,-38.5598 z"
         id="path135"
         inkscape:connector-curvature="0" />
      <path
         d="m 334.7951,90.0463 83.6025,55.0364 -23.6476,38.5598 z"
         style="fill:#fec338;stroke:none"
         id="path137"
         inkscape:connector-curvature="0" />
    </g>
    <g
       style="color-interpolation:linearRGB;stroke-width:0.66670001;stroke-linecap:round;stroke-linejoin:round;color-rendering:optimizeQuality;image-rendering:optimizeQuality;text-rendering:geometricPrecision"
       id="g145">
      <line
         y2="183.6425"
         style="fill:none"
         x1="418.39761"
         x2="394.75"
         y1="145.0827"
         id="line141" />
      <line
         y2="145.0827"
         style="fill:none"
         x1="334.7951"
         x2="418.39761"
         y1="90.046303"
         id="line143" />
    </g>
    <g
       style="color-interpolation:sRGB;fill:#23c1ae;stroke:#23c1ae;color-rendering:optimizeSpeed;image-rendering:optimizeSpeed;shape-rendering:crispEdges;text-rendering:optimizeSpeed"
       id="g149">
      <path
         style="stroke:none"
         d="M 418.3976,145.0827 502,135.3713 478.3524,182.3305 Z"
         id="path147"
         inkscape:connector-curvature="0" />
    </g>
    <g
       style="color-interpolation:linearRGB;stroke-width:0.66670001;stroke-linecap:round;stroke-linejoin:round;color-rendering:optimizeQuality;image-rendering:optimizeQuality;text-rendering:geometricPrecision"
       id="g153">
      <line
         y2="135.37131"
         style="fill:none"
         x1="418.39761"
         x2="502"
         y1="145.0827"
         id="line151" />
    </g>
    <g
       transform="translate(477,380)"
       style="font-size:14.66670036px;font-family:SansSerif;color-interpolation:linearRGB;fill:#262626;stroke:#262626;color-rendering:optimizeQuality;image-rendering:optimizeQuality;text-rendering:geometricPrecision"
       id="g157">
      <path
         style="stroke:none"
         d="m 6.6562,-5.125 q 0.4844,0.1562 0.9297,0.6875 0.4453,0.5313 0.8985,1.4531 L 9.9844,0 H 8.4062 L 7,-2.8125 Q 6.4531,-3.9062 5.9453,-4.2656 5.4375,-4.625 4.5625,-4.625 H 2.9531 V 0 H 1.4688 v -10.9375 h 3.3437 q 1.875,0 2.7969,0.7813 0.9218,0.7812 0.9218,2.375 0,1.0312 -0.4765,1.7109 -0.4766,0.6797 -1.3985,0.9453 z M 2.9531,-9.7188 v 3.875 h 1.8594 q 1.0625,0 1.6094,-0.4921 0.5469,-0.4922 0.5469,-1.4453 0,-0.9688 -0.5469,-1.4532 Q 5.875,-9.7188 4.8125,-9.7188 Z m 15.6679,5.2813 v 0.6563 h -6.2031 q 0.0937,1.3906 0.8437,2.1171 0.75,0.7266 2.0782,0.7266 0.7812,0 1.5078,-0.1875 0.7265,-0.1875 1.4453,-0.5625 v 1.2656 q -0.7188,0.3125 -1.4844,0.4766 -0.7656,0.1641 -1.5469,0.1641 -1.9531,0 -3.1015,-1.1485 -1.1485,-1.1484 -1.1485,-3.0859 0,-2.0156 1.086,-3.2032 1.0859,-1.1874 2.9297,-1.1874 1.6562,0 2.625,1.0703 0.9687,1.0703 0.9687,2.8984 z m -1.3594,-0.3906 q -0.0156,-1.1094 -0.6171,-1.7735 -0.6016,-0.664 -1.6016,-0.664 -1.125,0 -1.8047,0.6406 -0.6797,0.6406 -0.7734,1.7969 z m 2.5639,-3.375 h 1.3594 l 1.6719,6.4062 1.6875,-6.4062 h 1.5781 l 1.6875,6.4062 1.6875,-6.4062 h 1.3438 L 28.7005,0 H 27.1068 L 25.3412,-6.7188 23.5599,0 h -1.5781 z m 16.5026,4.0781 q -1.625,0 -2.2578,0.375 -0.6328,0.375 -0.6328,1.2812 0,0.7032 0.4687,1.125 0.4688,0.4219 1.2813,0.4219 1.125,0 1.8047,-0.789 0.6796,-0.7891 0.6796,-2.1172 V -4.125 Z m 2.6875,-0.5625 V 0 h -1.3438 v -1.25 q -0.4687,0.75 -1.1562,1.1094 -0.6875,0.3594 -1.6875,0.3594 -1.25,0 -1.9922,-0.711 -0.7422,-0.7109 -0.7422,-1.8984 0,-1.375 0.9219,-2.0782 0.9219,-0.7031 2.7656,-0.7031 h 1.8906 v -0.1406 q 0,-0.9219 -0.6093,-1.4375 -0.6094,-0.5156 -1.7188,-0.5156 -0.7031,0 -1.375,0.1718 -0.6719,0.1719 -1.2812,0.5157 v -1.25 q 0.7343,-0.2813 1.4375,-0.4297 0.7031,-0.1484 1.3593,-0.1484 1.7813,0 2.6563,0.9218 0.875,0.9219 0.875,2.7969 z m 7.325,-2.25 q -0.2344,-0.1406 -0.5,-0.2031 -0.2656,-0.0625 -0.5938,-0.0625 -1.1406,0 -1.75,0.7422 -0.6093,0.7421 -0.6093,2.1328 V 0 h -1.3594 v -8.2031 h 1.3594 v 1.2812 q 0.4218,-0.75 1.1015,-1.1172 0.6797,-0.3671 1.6641,-0.3671 0.1406,0 0.3047,0.0234 0.164,0.0234 0.3672,0.0547 z m 6.6663,-0.0156 v -4.4375 h 1.3437 V 0 h -1.3437 v -1.2344 q -0.4219,0.7344 -1.0703,1.0938 -0.6485,0.3594 -1.5547,0.3594 -1.4844,0 -2.4219,-1.1876 -0.9375,-1.1874 -0.9375,-3.125 0,-1.9374 0.9375,-3.125 0.9375,-1.1874 2.4219,-1.1874 0.9062,0 1.5547,0.3593 0.6484,0.3594 1.0703,1.0938 z m -4.5938,2.8593 q 0,1.4844 0.6094,2.3282 0.6094,0.8437 1.6875,0.8437 1.0625,0 1.6797,-0.8437 0.6172,-0.8438 0.6172,-2.3282 0,-1.4843 -0.6172,-2.3281 -0.6172,-0.8437 -1.6797,-0.8437 -1.0781,0 -1.6875,0.8437 -0.6094,0.8438 -0.6094,2.3281 z m 16.3996,-7.2812 q -0.9844,1.6719 -1.4609,3.3203 -0.4766,1.6485 -0.4766,3.3516 0,1.6875 0.4766,3.3437 0.4765,1.6563 1.4609,3.3438 H 63.6408 Q 62.5315,0.25 61.9924,-1.4062 q -0.5391,-1.6563 -0.5391,-3.2969 0,-1.6407 0.5391,-3.2969 0.5391,-1.6562 1.6484,-3.375 z"
         id="path155"
         inkscape:connector-curvature="0" />
    </g>
    <g
       transform="translate(543,380)"
       style="font-size:14.66670036px;font-family:mwb_cmmi10;color-interpolation:linearRGB;fill:#262626;stroke:#262626;color-rendering:optimizeQuality;image-rendering:optimizeQuality;text-rendering:geometricPrecision"
       id="g161">
      <path
         style="stroke:none"
         d="m 3.0156,0.1719 q -0.7031,0 -1.2578,-0.336 Q 1.2031,-0.5 0.8984,-1.0703 0.5938,-1.6406 0.5938,-2.375 q 0,-1.0156 0.5703,-2.0156 0.5703,-1 1.5156,-1.6172 0.9453,-0.6172 1.9765,-0.6172 0.75,0 1.3282,0.3984 0.5781,0.3985 0.8828,1.0625 Q 7.1719,-4.5 7.1719,-3.75 l 0.0156,1 q 0.5156,-0.7031 0.8672,-1.4688 0.3515,-0.7656 0.5391,-1.5937 0.0312,-0.0781 0.125,-0.0781 h 0.1718 q 0.1406,0 0.1406,0.1406 0,0 -0.0156,0.0312 -0.1718,0.6876 -0.4375,1.3282 -0.2656,0.6406 -0.6172,1.2265 -0.3515,0.586 -0.7734,1.0703 0,1.8594 0.4375,1.8594 0.2656,0 0.4453,-0.164 Q 8.25,-0.5625 8.3906,-0.8047 8.5312,-1.0469 8.5625,-1.0469 H 8.75 q 0.1094,0 0.1094,0.1407 0,0.375 -0.4297,0.7265 Q 8,0.1719 7.5938,0.1719 7.0469,0.1719 6.6875,-0.1797 6.3281,-0.5312 6.2031,-1.0938 5.5,-0.5 4.6797,-0.1641 3.8594,0.1719 3.0156,0.1719 Z m 0.0313,-0.4063 q 1.6093,0 3.0781,-1.3125 Q 6.1094,-1.6406 6.1016,-1.7656 6.0938,-1.8906 6.0938,-1.9062 v -1.6094 q 0,-2.7188 -1.4688,-2.7188 -0.875,0 -1.5391,0.75 -0.664,0.75 -0.9921,1.7891 -0.3282,1.0391 -0.3282,1.9141 0,0.6406 0.3282,1.0937 0.3281,0.4531 0.9531,0.4531 z"
         id="path159"
         inkscape:connector-curvature="0" />
    </g>
    <g
       transform="translate(553,380)"
       style="font-size:14.66670036px;font-family:SansSerif;color-interpolation:linearRGB;fill:#262626;stroke:#262626;color-rendering:optimizeQuality;image-rendering:optimizeQuality;text-rendering:geometricPrecision"
       id="g165">
      <path
         style="stroke:none"
         d="M 1.2031,-11.375 H 2.375 q 1.0938,1.7188 1.6406,3.375 0.5469,1.6562 0.5469,3.2969 0,1.6406 -0.5469,3.2969 Q 3.4688,0.25 2.375,1.9844 H 1.2031 q 0.9688,-1.6875 1.4531,-3.3438 0.4844,-1.6562 0.4844,-3.3437 0,-1.7031 -0.4844,-3.3516 -0.4843,-1.6484 -1.4531,-3.3203 z"
         id="path163"
         inkscape:connector-curvature="0" />
    </g>
    <g
       style="color-interpolation:linearRGB;fill:#262626;stroke:#262626;stroke-width:0.66670001;stroke-linecap:round;stroke-linejoin:round;color-rendering:optimizeQuality;image-rendering:optimizeQuality;text-rendering:geometricPrecision"
       id="g169">
      <line
         y2="307.4115"
         style="fill:none"
         x1="454.7049"
         x2="463.06509"
         y1="306.45621"
         id="line167" />
    </g>
    <g
       transform="translate(468.364,308.0169)"
       style="font-size:13.33329964px;font-family:SansSerif;color-interpolation:linearRGB;fill:#262626;stroke:#262626;color-rendering:optimizeQuality;image-rendering:optimizeQuality;text-rendering:geometricPrecision"
       id="g173">
      <path
         style="stroke:none"
         d="m 4.125,4.3594 q -0.9844,0 -1.4844,0.9765 -0.5,0.9766 -0.5,2.9297 0,1.9532 0.5,2.9297 0.5,0.9766 1.4844,0.9766 1,0 1.5,-0.9766 0.5,-0.9765 0.5,-2.9297 0,-1.9531 -0.5,-2.9297 -0.5,-0.9765 -1.5,-0.9765 z m 0,-1.0156 q 1.5938,0 2.4375,1.2656 0.8437,1.2656 0.8437,3.6562 0,2.3906 -0.8437,3.6563 -0.8437,1.2656 -2.4375,1.2656 -1.5781,0 -2.4219,-1.2656 Q 0.8594,10.6562 0.8594,8.2656 0.8594,5.875 1.7031,4.6094 2.5469,3.3438 4.125,3.3438 Z m 5.7354,8.0468 h 1.3438 V 13 H 9.8604 Z M 16.8265,8.5 q -0.9063,0 -1.4297,0.4922 -0.5234,0.4922 -0.5234,1.3359 0,0.8594 0.5234,1.3516 0.5234,0.4922 1.4297,0.4922 0.9219,0 1.4453,-0.4922 0.5234,-0.4922 0.5234,-1.3516 0,-0.8437 -0.5234,-1.3359 Q 17.7484,8.5 16.8265,8.5 Z M 15.5452,7.9531 Q 14.7327,7.75 14.2718,7.1875 13.8109,6.625 13.8109,5.8125 q 0,-1.1406 0.8046,-1.8047 0.8047,-0.664 2.211,-0.664 1.4219,0 2.2265,0.664 0.8047,0.6641 0.8047,1.8047 0,0.8125 -0.4609,1.375 -0.4609,0.5625 -1.2734,0.7656 0.9218,0.2188 1.4375,0.8438 0.5156,0.625 0.5156,1.5312 0,1.3907 -0.836,2.125 -0.8359,0.7344 -2.414,0.7344 -1.5625,0 -2.4063,-0.7344 -0.8437,-0.7343 -0.8437,-2.125 0,-0.9062 0.5234,-1.5312 0.5235,-0.625 1.4453,-0.8438 z M 15.0765,5.9219 q 0,0.75 0.4609,1.1562 0.461,0.4063 1.2891,0.4063 0.8281,0 1.2969,-0.4063 0.4687,-0.4062 0.4687,-1.1562 0,-0.7344 -0.4687,-1.1485 -0.4688,-0.414 -1.2969,-0.414 -0.8281,0 -1.2891,0.414 -0.4609,0.4141 -0.4609,1.1485 z"
         id="path171"
         inkscape:connector-curvature="0" />
    </g>
    <g
       style="color-interpolation:sRGB;fill:#f4e824;stroke:#f4e824;color-rendering:optimizeSpeed;image-rendering:optimizeSpeed;shape-rendering:crispEdges;text-rendering:optimizeSpeed"
       id="g177">
      <path
         style="stroke:none"
         d="m 251.1927,67.0182 83.6024,23.0281 -23.6475,11.6135 -83.6025,16.4964 z"
         id="path175"
         inkscape:connector-curvature="0" />
    </g>
    <g
       style="color-interpolation:linearRGB;stroke-width:0.66670001;stroke-linecap:round;stroke-linejoin:round;color-rendering:optimizeQuality;image-rendering:optimizeQuality;text-rendering:geometricPrecision"
       id="g183">
      <line
         y2="118.1562"
         style="fill:none"
         x1="251.1927"
         x2="227.5451"
         y1="67.018204"
         id="line179" />
      <line
         y2="90.046303"
         style="fill:none"
         x1="251.1927"
         x2="334.7951"
         y1="67.018204"
         id="line181" />
    </g>
    <g
       style="color-interpolation:sRGB;fill:#fec338;stroke:#fec338;color-rendering:optimizeSpeed;image-rendering:optimizeSpeed;shape-rendering:crispEdges;text-rendering:optimizeSpeed"
       id="g187">
      <path
         style="stroke:none"
         d="M 394.75,183.6425 311.1476,101.6598 334.7951,90.0463 Z"
         id="path185"
         inkscape:connector-curvature="0" />
    </g>
    <g
       style="color-interpolation:linearRGB;stroke-width:0.66670001;stroke-linecap:round;stroke-linejoin:round;color-rendering:optimizeQuality;image-rendering:optimizeQuality;text-rendering:geometricPrecision"
       id="g191">
      <line
         y2="101.6598"
         style="fill:none"
         x1="334.7951"
         x2="311.14761"
         y1="90.046303"
         id="line189" />
    </g>
    <g
       style="color-interpolation:sRGB;fill:#3f2ab4;stroke:#3f2ab4;color-rendering:optimizeSpeed;image-rendering:optimizeSpeed;shape-rendering:crispEdges;text-rendering:optimizeSpeed"
       id="g195">
      <path
         style="stroke:none"
         d="M 96.6476,290.777 180.25,205.2825 156.6024,267.7712 Z"
         id="path193"
         inkscape:connector-curvature="0" />
    </g>
    <g
       style="color-interpolation:linearRGB;stroke-width:0.66670001;stroke-linecap:round;stroke-linejoin:round;color-rendering:optimizeQuality;image-rendering:optimizeQuality;text-rendering:geometricPrecision"
       id="g199">
      <line
         y2="205.2825"
         style="fill:none"
         x1="96.647598"
         x2="180.25"
         y1="290.77701"
         id="line197" />
    </g>
    <g
       style="color-interpolation:sRGB;fill:#3f2ab4;stroke:#3f2ab4;color-rendering:optimizeSpeed;image-rendering:optimizeSpeed;shape-rendering:crispEdges;text-rendering:optimizeSpeed"
       id="g203">
      <path
         style="stroke:none"
         d="M 156.6024,267.7712 73,326.9102 96.6476,290.777 Z"
         id="path201"
         inkscape:connector-curvature="0" />
    </g>
    <g
       style="color-interpolation:linearRGB;stroke-width:0.66670001;stroke-linecap:round;stroke-linejoin:round;color-rendering:optimizeQuality;image-rendering:optimizeQuality;text-rendering:geometricPrecision"
       id="g209">
      <line
         y2="326.91019"
         style="fill:none"
         x1="96.647598"
         x2="73"
         y1="290.77701"
         id="line205" />
      <line
         y2="182.33051"
         style="fill:none"
         x1="502"
         x2="478.35239"
         y1="135.37131"
         id="line207" />
    </g>
    <g
       style="color-interpolation:sRGB;fill:#0bbcbc;stroke:#0bbcbc;color-rendering:optimizeSpeed;image-rendering:optimizeSpeed;shape-rendering:crispEdges;text-rendering:optimizeSpeed"
       id="g215">
      <path
         style="stroke:none"
         d="M 454.7049,226.55 371.1024,219.7431 394.75,183.6425 Z"
         id="path211"
         inkscape:connector-curvature="0" />
      <path
         d="m 311.1476,101.6598 83.6024,81.9827 -23.6476,36.1006 z"
         style="fill:#f9fa14;stroke:none"
         id="path213"
         inkscape:connector-curvature="0" />
    </g>
    <g
       style="color-interpolation:linearRGB;stroke-width:0.66670001;stroke-linecap:round;stroke-linejoin:round;color-rendering:optimizeQuality;image-rendering:optimizeQuality;text-rendering:geometricPrecision"
       id="g219">
      <line
         y2="219.7431"
         style="fill:none"
         x1="394.75"
         x2="371.10239"
         y1="183.6425"
         id="line217" />
    </g>
    <g
       style="color-interpolation:sRGB;fill:#0bbcbc;stroke:#0bbcbc;color-rendering:optimizeSpeed;image-rendering:optimizeSpeed;shape-rendering:crispEdges;text-rendering:optimizeSpeed"
       id="g223">
      <path
         style="stroke:none"
         d="m 394.75,183.6425 83.6024,-1.312 -23.6475,44.2195 z"
         id="path221"
         inkscape:connector-curvature="0" />
    </g>
    <g
       style="color-interpolation:linearRGB;stroke-width:0.66670001;stroke-linecap:round;stroke-linejoin:round;color-rendering:optimizeQuality;image-rendering:optimizeQuality;text-rendering:geometricPrecision"
       id="g229">
      <line
         y2="182.33051"
         style="fill:none"
         x1="394.75"
         x2="478.35239"
         y1="183.6425"
         id="line225" />
      <line
         y2="183.6425"
         style="fill:none"
         x1="311.14761"
         x2="394.75"
         y1="101.6598"
         id="line227" />
    </g>
    <g
       style="color-interpolation:sRGB;fill:#f8ba3d;stroke:#f8ba3d;color-rendering:optimizeSpeed;image-rendering:optimizeSpeed;shape-rendering:crispEdges;text-rendering:optimizeSpeed"
       id="g233">
      <path
         style="stroke:none"
         d="m 287.5,143.9013 -83.6024,19.9284 23.6475,-45.6735 z"
         id="path231"
         inkscape:connector-curvature="0" />
    </g>
    <g
       style="color-interpolation:linearRGB;stroke-width:0.66670001;stroke-linecap:round;stroke-linejoin:round;color-rendering:optimizeQuality;image-rendering:optimizeQuality;text-rendering:geometricPrecision"
       id="g237">
      <line
         y2="163.8297"
         style="fill:none"
         x1="227.5451"
         x2="203.8976"
         y1="118.1562"
         id="line235" />
    </g>
    <g
       style="color-interpolation:sRGB;fill:#f8ba3d;stroke:#f8ba3d;color-rendering:optimizeSpeed;image-rendering:optimizeSpeed;shape-rendering:crispEdges;text-rendering:optimizeSpeed"
       id="g241">
      <path
         style="stroke:none"
         d="M 227.5451,118.1562 311.1476,101.6598 287.5,143.9013 Z"
         id="path239"
         inkscape:connector-curvature="0" />
    </g>
    <g
       style="color-interpolation:linearRGB;stroke-width:0.66670001;stroke-linecap:round;stroke-linejoin:round;color-rendering:optimizeQuality;image-rendering:optimizeQuality;text-rendering:geometricPrecision"
       id="g245">
      <line
         y2="101.6598"
         style="fill:none"
         x1="227.5451"
         x2="311.14761"
         y1="118.1562"
         id="line243" />
    </g>
    <g
       transform="translate(59.3409,334.2288)"
       style="font-size:13.33329964px;font-family:SansSerif;color-interpolation:linearRGB;fill:#262626;stroke:#262626;color-rendering:optimizeQuality;image-rendering:optimizeQuality;text-rendering:geometricPrecision"
       id="g249">
      <path
         style="stroke:none"
         d="m -15.3906,3.4219 h 2.0937 v -7.2344 l -2.2812,0.4531 v -1.1562 l 2.2656,-0.4688 h 1.2969 v 8.4063 h 2.0937 V 4.5 h -5.4687 z M -4.4052,0 q -0.9062,0 -1.4297,0.4922 -0.5234,0.4922 -0.5234,1.3359 0,0.8594 0.5234,1.3516 0.5235,0.4922 1.4297,0.4922 0.9219,0 1.4453,-0.4922 0.5235,-0.4922 0.5235,-1.3516 0,-0.8437 -0.5235,-1.3359 Q -3.4833,0 -4.4052,0 Z m -1.2812,-0.5469 q -0.8125,-0.2031 -1.2735,-0.7656 -0.4609,-0.5625 -0.4609,-1.375 0,-1.1406 0.8047,-1.8047 0.8047,-0.664 2.2109,-0.664 1.4219,0 2.2266,0.664 0.8047,0.6641 0.8047,1.8047 0,0.8125 -0.461,1.375 -0.4609,0.5625 -1.2734,0.7656 0.9219,0.2188 1.4375,0.8438 0.5156,0.625 0.5156,1.5312 0,1.3907 -0.8359,2.125 -0.836,0.7344 -2.4141,0.7344 -1.5625,0 -2.4062,-0.7344 -0.8438,-0.7343 -0.8438,-2.125 0,-0.9062 0.5235,-1.5312 0.5234,-0.625 1.4453,-0.8438 z m -0.4688,-2.0312 q 0,0.75 0.461,1.1562 0.4609,0.4063 1.289,0.4063 0.8281,0 1.2969,-0.4063 0.4687,-0.4062 0.4687,-1.1562 0,-0.7344 -0.4687,-1.1485 -0.4688,-0.414 -1.2969,-0.414 -0.8281,0 -1.289,0.414 -0.461,0.4141 -0.461,1.1485 z"
         id="path247"
         inkscape:connector-curvature="0" />
    </g>
    <g
       style="color-interpolation:linearRGB;stroke-width:0.66670001;stroke-linecap:round;stroke-linejoin:round;color-rendering:optimizeQuality;image-rendering:optimizeQuality;text-rendering:geometricPrecision"
       id="g263">
      <line
         y2="226.55"
         style="fill:none"
         x1="478.35239"
         x2="454.7049"
         y1="182.33051"
         id="line251" />
      <line
         x1="73"
         x2="64.639801"
         y1="335.78949"
         style="fill:none;stroke:#262626;stroke-linecap:square"
         y2="334.8342"
         id="line253" />
      <line
         x1="73"
         x2="73"
         y1="335.78949"
         style="fill:none;stroke:#262626;stroke-linecap:square"
         y2="166.0876"
         id="line255" />
      <line
         x1="73"
         x2="407.40979"
         y1="335.78949"
         style="fill:none;stroke:#262626;stroke-linecap:square"
         y2="374"
         id="line257" />
      <line
         x1="73"
         x2="68.1735"
         y1="335.78949"
         style="fill:none;stroke:#262626;stroke-linecap:square"
         y2="342.68231"
         id="line259" />
      <line
         x1="431.05731"
         x2="439.41751"
         y1="340.22809"
         style="fill:none;stroke:#262626"
         y2="341.18329"
         id="line261" />
    </g>
    <g
       transform="translate(444.7164,341.7888)"
       style="font-size:13.33329964px;font-family:SansSerif;color-interpolation:linearRGB;fill:#262626;stroke:#262626;color-rendering:optimizeQuality;image-rendering:optimizeQuality;text-rendering:geometricPrecision"
       id="g267">
      <path
         style="stroke:none"
         d="m 4.125,4.3594 q -0.9844,0 -1.4844,0.9765 -0.5,0.9766 -0.5,2.9297 0,1.9532 0.5,2.9297 0.5,0.9766 1.4844,0.9766 1,0 1.5,-0.9766 0.5,-0.9765 0.5,-2.9297 0,-1.9531 -0.5,-2.9297 -0.5,-0.9765 -1.5,-0.9765 z m 0,-1.0156 q 1.5938,0 2.4375,1.2656 0.8437,1.2656 0.8437,3.6562 0,2.3906 -0.8437,3.6563 -0.8437,1.2656 -2.4375,1.2656 -1.5781,0 -2.4219,-1.2656 Q 0.8594,10.6562 0.8594,8.2656 0.8594,5.875 1.7031,4.6094 2.5469,3.3438 4.125,3.3438 Z m 5.7354,8.0468 h 1.3438 V 13 H 9.8604 Z m 4.263,1.4063 v -1.1563 q 0.4843,0.2188 0.9843,0.3438 0.5,0.125 0.9688,0.125 1.2656,0 1.9375,-0.8594 0.6719,-0.8594 0.7656,-2.5938 -0.3594,0.5469 -0.9297,0.836 -0.5703,0.289 -1.2578,0.289 -1.4219,0 -2.25,-0.8593 -0.8281,-0.8594 -0.8281,-2.3438 0,-1.4687 0.8672,-2.3515 0.8672,-0.8828 2.3047,-0.8828 1.6406,0 2.5078,1.2656 0.8672,1.2656 0.8672,3.6562 0,2.25 -1.0625,3.586 -1.0625,1.3359 -2.8594,1.3359 -0.4844,0 -0.9766,-0.0937 Q 14.6702,13 14.1234,12.7969 Z m 2.5625,-4.0157 q 0.8593,0 1.3671,-0.5859 0.5079,-0.5859 0.5079,-1.6172 0,-1.0312 -0.5079,-1.625 -0.5078,-0.5937 -1.3671,-0.5937 -0.875,0 -1.375,0.5937 -0.5,0.5938 -0.5,1.625 0,1.0313 0.5,1.6172 0.5,0.5859 1.375,0.5859 z"
         id="path265"
         inkscape:connector-curvature="0" />
    </g>
    <g
       style="color-interpolation:linearRGB;stroke-width:0.66670001;stroke-linecap:butt;stroke-linejoin:round;color-rendering:optimizeQuality;image-rendering:optimizeQuality;text-rendering:geometricPrecision"
       id="g273">
      <line
         y2="267.77121"
         style="fill:none"
         x1="73"
         x2="156.6024"
         y1="326.91019"
         id="line269" />
      <line
         x1="156.6024"
         x2="151.776"
         y1="345.3421"
         style="fill:none;stroke:#262626;stroke-linecap:round"
         y2="352.23499"
         id="line271" />
    </g>
    <g
       transform="translate(73,24)"
       style="font-weight:bold;font-size:14.66670036px;font-family:SansSerif;color-interpolation:linearRGB;color-rendering:optimizeQuality;image-rendering:optimizeQuality;text-rendering:geometricPrecision"
       id="g277">
      <path
         style="stroke:none"
         d="m 1.375,-10.9375 h 7.6094 v 2.1406 H 4.2031 v 2.0313 h 4.5 v 2.125 h -4.5 V 0 H 1.375 Z m 13.5743,7.25 q -0.8282,0 -1.2422,0.2734 -0.4141,0.2735 -0.4141,0.8203 0,0.5 0.336,0.7813 0.3359,0.2813 0.9296,0.2813 0.7344,0 1.2422,-0.5313 0.5078,-0.5313 0.5078,-1.3281 v -0.2969 z m 4,-1 V 0 h -2.6407 v -1.2188 q -0.5312,0.75 -1.1875,1.0938 -0.6562,0.3438 -1.5937,0.3438 -1.2813,0 -2.0781,-0.75 -0.7969,-0.75 -0.7969,-1.9376 0,-1.4374 0.9922,-2.1093 0.9922,-0.6719 3.1172,-0.6719 h 1.5468 v -0.2031 q 0,-0.625 -0.4921,-0.9141 -0.4922,-0.289 -1.5235,-0.289 -0.8437,0 -1.5703,0.164 -0.7266,0.1641 -1.3516,0.5078 v -2 q 0.8438,-0.2031 1.6954,-0.3125 0.8515,-0.1093 1.6953,-0.1093 2.2187,0 3.2031,0.875 0.9844,0.875 0.9844,2.8437 z m 2.2182,-6.7031 h 2.6094 V 0 h -2.6094 z m 11.43,3.4375 v 2 q -0.8437,-0.3594 -1.625,-0.5313 -0.7812,-0.1718 -1.4844,-0.1718 -0.75,0 -1.1093,0.1874 -0.3594,0.1876 -0.3594,0.5782 0,0.3125 0.2734,0.4765 0.2735,0.1641 0.9766,0.2579 l 0.4687,0.0624 q 2.0157,0.25 2.711,0.836 0.6953,0.5859 0.6953,1.8359 0,1.3125 -0.9688,1.9766 -0.9687,0.6641 -2.8906,0.6641 -0.8125,0 -1.6797,-0.1329 -0.8672,-0.1328 -1.7734,-0.3828 v -2 q 0.7812,0.3907 1.6016,0.5781 0.8203,0.1876 1.6796,0.1876 0.7657,0 1.1563,-0.211 0.3906,-0.2109 0.3906,-0.6328 0,-0.3438 -0.2734,-0.5156 -0.2735,-0.1719 -1.0703,-0.2813 l -0.4532,-0.0469 q -1.75,-0.2187 -2.4531,-0.8124 -0.7031,-0.5938 -0.7031,-1.8126 0,-1.2968 0.8906,-1.9296 0.8906,-0.6328 2.7344,-0.6328 0.7344,0 1.5312,0.1093 0.7969,0.1094 1.7344,0.3438 z m 10.5049,3.8281 v 0.75 h -6.1406 q 0.0937,0.9219 0.6718,1.3828 0.5782,0.461 1.5938,0.461 0.8281,0 1.6953,-0.2422 0.8672,-0.2422 1.7891,-0.7422 V -0.5 q -0.9375,0.3594 -1.8672,0.5391 -0.9297,0.1797 -1.8516,0.1797 -2.2344,0 -3.4687,-1.1329 -1.2344,-1.1328 -1.2344,-3.1797 0,-2 1.2109,-3.1562 1.211,-1.1562 3.336,-1.1562 1.9375,0 3.1015,1.164 1.1641,1.1641 1.1641,3.1172 z M 40.3993,-5 q 0,-0.75 -0.4375,-1.2031 -0.4375,-0.4531 -1.1407,-0.4531 -0.75,0 -1.2265,0.4296 Q 37.118,-5.7969 36.993,-5 Z m 9.6677,-5.9375 h 3.1562 l 3.9688,7.5 v -7.5 h 2.6718 V 0 H 56.7232 L 52.7388,-7.5 V 0 H 50.067 Z m 20.3441,6.8125 v 0.75 h -6.1406 q 0.0937,0.9219 0.6719,1.3828 0.5781,0.461 1.5937,0.461 0.8281,0 1.6953,-0.2422 0.8672,-0.2422 1.7891,-0.7422 V -0.5 q -0.9375,0.3594 -1.8672,0.5391 -0.9297,0.1797 -1.8516,0.1797 -2.2343,0 -3.4687,-1.1329 -1.2344,-1.1328 -1.2344,-3.1797 0,-2 1.2109,-3.1562 1.211,-1.1562 3.336,-1.1562 1.9375,0 3.1015,1.164 1.1641,1.1641 1.1641,3.1172 z M 67.708,-5 q 0,-0.75 -0.4375,-1.2031 -0.4375,-0.4531 -1.1406,-0.4531 -0.75,0 -1.2266,0.4296 Q 64.4267,-5.7969 64.3017,-5 Z m 10.0339,3.6094 Q 77.1951,-0.6719 76.5466,-0.3359 75.8982,0 75.0388,0 q -1.5,0 -2.4844,-1.1797 -0.9843,-1.1797 -0.9843,-3.0234 0,-1.8281 0.9843,-3.0078 0.9844,-1.1797 2.4844,-1.1797 0.8594,0 1.5078,0.3359 0.6485,0.3359 1.1953,1.0703 v -1.2187 h 2.6407 v 7.375 q 0,1.9843 -1.25,3.0234 -1.25,1.0391 -3.625,1.0391 -0.7657,0 -1.4844,-0.1172 Q 73.3044,3 72.5701,2.7656 V 0.7188 q 0.6875,0.3906 1.3515,0.5859 0.6641,0.1953 1.3203,0.1953 1.2969,0 1.8985,-0.5625 0.6015,-0.5625 0.6015,-1.7656 z M 76.0076,-6.5 q -0.8125,0 -1.2657,0.6016 -0.4531,0.6015 -0.4531,1.6953 0,1.1406 0.4375,1.7187 0.4375,0.5782 1.2813,0.5782 0.8281,0 1.2812,-0.6016 0.4531,-0.6016 0.4531,-1.6953 0,-1.0938 -0.4531,-1.6953 Q 76.8357,-6.5 76.0076,-6.5 Z m 10.3193,2.8125 q -0.8281,0 -1.2422,0.2734 -0.414,0.2735 -0.414,0.8203 0,0.5 0.3359,0.7813 0.3359,0.2813 0.9297,0.2813 0.7344,0 1.2422,-0.5313 0.5078,-0.5313 0.5078,-1.3281 v -0.2969 z m 4,-1 V 0 h -2.6406 v -1.2188 q -0.5313,0.75 -1.1875,1.0938 -0.6563,0.3438 -1.5938,0.3438 -1.2812,0 -2.0781,-0.75 -0.7969,-0.75 -0.7969,-1.9376 0,-1.4374 0.9922,-2.1093 0.9922,-0.6719 3.1172,-0.6719 h 1.5469 v -0.2031 q 0,-0.625 -0.4922,-0.9141 -0.4922,-0.289 -1.5234,-0.289 -0.8438,0 -1.5703,0.164 -0.7266,0.1641 -1.3516,0.5078 v -2 q 0.8437,-0.2031 1.6953,-0.3125 0.8516,-0.1093 1.6953,-0.1093 2.2188,0 3.2031,0.875 0.9844,0.875 0.9844,2.8437 z m 5.0776,-5.8437 v 2.3281 h 2.7032 v 1.875 h -2.7032 v 3.4843 q 0,0.5626 0.2266,0.7657 0.2266,0.2031 0.8984,0.2031 h 1.3438 V 0 h -2.25 Q 94.0764,0 93.428,-0.6484 92.7795,-1.2969 92.7795,-2.8438 v -3.4843 h -1.2968 v -1.875 h 1.2968 v -2.3281 z m 4.1467,2.3281 h 2.6094 V 0 h -2.6094 z m 0,-3.1875 h 2.6094 v 2.125 h -2.6094 z m 3.9926,3.1875 h 2.6093 l 2.0469,5.6719 2.0313,-5.6719 h 2.6406 L 109.6375,0 h -2.875 z m 18.7725,4.0781 v 0.75 h -6.1407 q 0.0938,0.9219 0.6719,1.3828 0.5781,0.461 1.5938,0.461 0.8281,0 1.6953,-0.2422 0.8672,-0.2422 1.789,-0.7422 V -0.5 q -0.9375,0.3594 -1.8671,0.5391 -0.9297,0.1797 -1.8516,0.1797 -2.2344,0 -3.4688,-1.1329 -1.2343,-1.1328 -1.2343,-3.1797 0,-2 1.2109,-3.1562 1.2109,-1.1562 3.3359,-1.1562 1.9375,0 3.1016,1.164 1.1641,1.1641 1.1641,3.1172 z M 119.6131,-5 q 0,-0.75 -0.4375,-1.2031 -0.4375,-0.4531 -1.1406,-0.4531 -0.75,0 -1.2265,0.4296 -0.4766,0.4297 -0.6016,1.2266 z m 13.6834,-1.0938 q 0.875,0 1.2578,-0.3281 0.3828,-0.3281 0.3828,-1.0781 0,-0.75 -0.3828,-1.0703 -0.3828,-0.3203 -1.2578,-0.3203 h -1.1875 v 2.7968 z m -1.1875,1.9532 V 0 h -2.8282 v -10.9375 h 4.3125 q 2.1563,0 3.1641,0.7266 1.0078,0.7265 1.0078,2.289 0,1.0938 -0.5234,1.7891 -0.5235,0.6953 -1.586,1.0234 0.5782,0.125 1.0391,0.5938 0.4609,0.4687 0.9297,1.4062 L 139.1558,0 h -3 l -1.3281,-2.7188 q -0.4062,-0.8124 -0.8203,-1.1171 -0.4141,-0.3047 -1.1016,-0.3047 z m 12.0199,0.4531 q -0.8281,0 -1.2422,0.2734 -0.414,0.2735 -0.414,0.8203 0,0.5 0.3359,0.7813 0.336,0.2813 0.9297,0.2813 0.7344,0 1.2422,-0.5313 0.5078,-0.5313 0.5078,-1.3281 v -0.2969 z m 4,-1 V 0 h -2.6406 v -1.2188 q -0.5312,0.75 -1.1875,1.0938 -0.6562,0.3438 -1.5937,0.3438 -1.2813,0 -2.0782,-0.75 -0.7968,-0.75 -0.7968,-1.9376 0,-1.4374 0.9921,-2.1093 0.9922,-0.6719 3.1172,-0.6719 h 1.5469 v -0.2031 q 0,-0.625 -0.4922,-0.9141 -0.4922,-0.289 -1.5234,-0.289 -0.8438,0 -1.5703,0.164 -0.7266,0.1641 -1.3516,0.5078 v -2 q 0.8438,-0.2031 1.6953,-0.3125 0.8516,-0.1093 1.6953,-0.1093 2.2188,0 3.2032,0.875 0.9843,0.875 0.9843,2.8437 z m 5.0776,-5.8437 v 2.3281 h 2.7032 v 1.875 h -2.7032 v 3.4843 q 0,0.5626 0.2266,0.7657 0.2266,0.2031 0.8984,0.2031 h 1.3438 V 0 h -2.25 q -1.5469,0 -2.1953,-0.6484 -0.6485,-0.6485 -0.6485,-2.1954 v -3.4843 h -1.2968 v -1.875 h 1.2968 v -2.3281 z m 12.3343,6.4062 v 0.75 h -6.1407 q 0.0938,0.9219 0.6719,1.3828 0.5781,0.461 1.5938,0.461 0.8281,0 1.6953,-0.2422 0.8672,-0.2422 1.789,-0.7422 V -0.5 q -0.9375,0.3594 -1.8672,0.5391 -0.9296,0.1797 -1.8515,0.1797 -2.2344,0 -3.4688,-1.1329 -1.2343,-1.1328 -1.2343,-3.1797 0,-2 1.2109,-3.1562 1.2109,-1.1562 3.3359,-1.1562 1.9375,0 3.1016,1.164 1.1641,1.1641 1.1641,3.1172 z M 162.8376,-5 q 0,-0.75 -0.4375,-1.2031 -0.4375,-0.4531 -1.1406,-0.4531 -0.75,0 -1.2266,0.4296 -0.4765,0.4297 -0.6015,1.2266 z m 13.449,-1.5312 q -0.8594,0 -1.3203,0.625 -0.461,0.625 -0.461,1.8124 0,1.1719 0.461,1.8047 0.4609,0.6329 1.3203,0.6329 0.8594,0 1.3125,-0.6329 0.4531,-0.6328 0.4531,-1.8047 0,-1.1874 -0.4531,-1.8124 -0.4531,-0.625 -1.3125,-0.625 z m 0,-1.875 q 2.125,0 3.3125,1.1484 1.1875,1.1484 1.1875,3.164 0,2.0157 -1.1875,3.1641 -1.1875,1.1485 -3.3125,1.1485 -2.1094,0 -3.3125,-1.1485 -1.2031,-1.1484 -1.2031,-3.1641 0,-2.0156 1.2031,-3.164 1.2031,-1.1484 3.3125,-1.1484 z m 11.569,-2.9844 v 1.7187 h -1.4531 q -0.5469,0 -0.7657,0.2031 -0.2187,0.2032 -0.2187,0.6876 v 0.5781 h 2.2344 v 1.875 h -2.2344 V 0 h -2.625 v -6.3281 h -1.3125 v -1.875 h 1.3125 v -0.5781 q 0,-1.3282 0.7422,-1.9688 0.7422,-0.6406 2.3203,-0.6406 z m 13.8069,0.7968 v 2.3126 q -0.8906,-0.3907 -1.75,-0.6016 -0.8593,-0.211 -1.625,-0.211 -1.0156,0 -1.4922,0.2813 -0.4765,0.2813 -0.4765,0.8594 0,0.4531 0.3203,0.6953 0.3203,0.2422 1.1797,0.414 l 1.2031,0.25 q 1.8281,0.3594 2.5938,1.1094 0.7656,0.75 0.7656,2.125 0,1.8125 -1.0703,2.6953 -1.0703,0.8829 -3.2735,0.8829 -1.0468,0 -2.0937,-0.2032 -1.0469,-0.2031 -2.0938,-0.5937 v -2.375 q 1.0469,0.5625 2.0235,0.8437 0.9765,0.2813 1.8828,0.2813 0.9219,0 1.414,-0.3125 0.4922,-0.3125 0.4922,-0.875 0,-0.5156 -0.3281,-0.7969 -0.3281,-0.2813 -1.3281,-0.5 l -1.0938,-0.2344 q -1.6406,-0.3593 -2.3984,-1.125 -0.7578,-0.7656 -0.7578,-2.0625 0,-1.6406 1.0547,-2.5234 1.0547,-0.8828 3.0234,-0.8828 0.9063,0 1.8594,0.1406 0.9531,0.1406 1.9687,0.4062 z m 1.7588,2.3907 h 2.625 l 2.2031,5.5625 1.875,-5.5625 h 2.6094 l -3.4375,8.9843 q -0.5312,1.3594 -1.2187,1.9063 -0.6875,0.5469 -1.8282,0.5469 h -1.5156 V 1.5156 h 0.8281 q 0.6563,0 0.961,-0.2109 0.3047,-0.2109 0.4765,-0.7578 l 0.0782,-0.2344 z m 17.0381,0.25 v 2 q -0.8437,-0.3594 -1.625,-0.5313 -0.7812,-0.1718 -1.4843,-0.1718 -0.75,0 -1.1094,0.1874 -0.3594,0.1876 -0.3594,0.5782 0,0.3125 0.2735,0.4765 0.2734,0.1641 0.9765,0.2579 l 0.4688,0.0624 q 2.0156,0.25 2.7109,0.836 0.6953,0.5859 0.6953,1.8359 0,1.3125 -0.9687,1.9766 -0.9688,0.6641 -2.8907,0.6641 -0.8125,0 -1.6796,-0.1329 -0.8672,-0.1328 -1.7735,-0.3828 v -2 q 0.7813,0.3907 1.6016,0.5781 0.8203,0.1876 1.6797,0.1876 0.7656,0 1.1562,-0.211 0.3906,-0.2109 0.3906,-0.6328 0,-0.3438 -0.2734,-0.5156 -0.2734,-0.1719 -1.0703,-0.2813 l -0.4531,-0.0469 q -1.75,-0.2187 -2.4532,-0.8124 -0.7031,-0.5938 -0.7031,-1.8126 0,-1.2968 0.8906,-1.9296 0.8907,-0.6328 2.7344,-0.6328 0.7344,0 1.5313,0.1093 0.7968,0.1094 1.7343,0.3438 z m 5.1768,-2.5781 v 2.3281 h 2.7031 v 1.875 h -2.7031 v 3.4843 q 0,0.5626 0.2265,0.7657 0.2266,0.2031 0.8985,0.2031 h 1.3437 V 0 h -2.25 q -1.5468,0 -2.1953,-0.6484 -0.6484,-0.6485 -0.6484,-2.1954 v -3.4843 h -1.2969 v -1.875 h 1.2969 v -2.3281 z m 12.3342,6.4062 v 0.75 h -6.1406 q 0.0937,0.9219 0.6718,1.3828 0.5782,0.461 1.5938,0.461 0.8281,0 1.6953,-0.2422 0.8672,-0.2422 1.7891,-0.7422 V -0.5 q -0.9375,0.3594 -1.8672,0.5391 -0.9297,0.1797 -1.8516,0.1797 -2.2344,0 -3.4687,-1.1329 -1.2344,-1.1328 -1.2344,-3.1797 0,-2 1.2109,-3.1562 1.211,-1.1562 3.336,-1.1562 1.9375,0 3.1015,1.164 1.1641,1.1641 1.1641,3.1172 z M 235.2673,-5 q 0,-0.75 -0.4375,-1.2031 -0.4375,-0.4531 -1.1407,-0.4531 -0.75,0 -1.2265,0.4296 Q 231.986,-5.7969 231.861,-5 Z m 12.0495,-1.8438 q 0.5,-0.7656 1.1875,-1.164 0.6875,-0.3984 1.5,-0.3984 1.4219,0 2.1563,0.875 0.7344,0.875 0.7344,2.5312 v 5 h -2.625 v -4.2812 q 0,-0.0938 0.008,-0.1954 0.008,-0.1015 0.008,-0.289 0,-0.875 -0.2578,-1.2656 -0.2578,-0.3907 -0.836,-0.3907 -0.75,0 -1.1562,0.6172 -0.4063,0.6172 -0.4219,1.7735 V 0 h -2.625 v -4.2812 q 0,-1.3594 -0.2344,-1.75 -0.2343,-0.3907 -0.8437,-0.3907 -0.75,0 -1.1641,0.6172 -0.414,0.6172 -0.414,1.7735 V 0 h -2.625 v -8.2031 h 2.625 V -7 q 0.4843,-0.7031 1.1172,-1.0547 0.6328,-0.3515 1.3828,-0.3515 0.8437,0 1.5,0.414 0.6562,0.4141 0.9843,1.1484 z m 16.4524,3.1563 q -0.8282,0 -1.2422,0.2734 -0.4141,0.2735 -0.4141,0.8203 0,0.5 0.336,0.7813 0.3359,0.2813 0.9296,0.2813 0.7344,0 1.2422,-0.5313 0.5078,-0.5313 0.5078,-1.3281 v -0.2969 z m 4,-1 V 0 h -2.6407 v -1.2188 q -0.5312,0.75 -1.1875,1.0938 -0.6562,0.3438 -1.5937,0.3438 -1.2813,0 -2.0781,-0.75 -0.7969,-0.75 -0.7969,-1.9376 0,-1.4374 0.9922,-2.1093 0.9922,-0.6719 3.1172,-0.6719 h 1.5468 v -0.2031 q 0,-0.625 -0.4921,-0.9141 -0.4922,-0.289 -1.5235,-0.289 -0.8437,0 -1.5703,0.164 -0.7266,0.1641 -1.3516,0.5078 v -2 q 0.8438,-0.2031 1.6954,-0.3125 0.8515,-0.1093 1.6953,-0.1093 2.2187,0 3.2031,0.875 0.9844,0.875 0.9844,2.8437 z m 5.0776,-5.8437 v 2.3281 h 2.7031 v 1.875 h -2.7031 v 3.4843 q 0,0.5626 0.2265,0.7657 0.2266,0.2031 0.8985,0.2031 h 1.3437 V 0 h -2.25 q -1.5469,0 -2.1953,-0.6484 -0.6484,-0.6485 -0.6484,-2.1954 v -3.4843 h -1.2969 v -1.875 h 1.2969 v -2.3281 z m 8.0616,-0.4063 h 10.0782 v 2.1406 h -3.625 V 0 h -2.8282 v -8.7969 h -3.625 z M 300.3278,-5 v 5 h -2.625 v -0.8125 -3 q 0,-1.0781 -0.0469,-1.4766 -0.0469,-0.3984 -0.1719,-0.5859 -0.1562,-0.2656 -0.4141,-0.4062 -0.2578,-0.1407 -0.6015,-0.1407 -0.8281,0 -1.2969,0.6328 -0.4687,0.6329 -0.4687,1.7579 V 0 h -2.6094 v -11.3906 h 2.6094 V -7 q 0.5937,-0.7188 1.2656,-1.0625 0.6719,-0.3437 1.4687,-0.3437 1.4219,0 2.1563,0.875 0.7344,0.875 0.7344,2.5312 z m 8.2933,-0.9688 q -0.3437,-0.1562 -0.6875,-0.2343 -0.3437,-0.0781 -0.6875,-0.0781 -1.0156,0 -1.5625,0.6484 -0.5469,0.6484 -0.5469,1.8516 V 0 h -2.6093 v -8.2031 h 2.6093 v 1.3437 q 0.5157,-0.7968 1.1719,-1.1718 0.6563,-0.375 1.5625,-0.375 0.1406,0 0.2891,0.0156 0.1484,0.0156 0.4453,0.0468 z m 9.3217,1.8438 v 0.75 h -6.1406 q 0.0937,0.9219 0.6719,1.3828 0.5781,0.461 1.5937,0.461 0.8281,0 1.6953,-0.2422 0.8672,-0.2422 1.7891,-0.7422 V -0.5 q -0.9375,0.3594 -1.8672,0.5391 -0.9297,0.1797 -1.8516,0.1797 -2.2343,0 -3.4687,-1.1329 -1.2344,-1.1328 -1.2344,-3.1797 0,-2 1.2109,-3.1562 1.211,-1.1562 3.336,-1.1562 1.9375,0 3.1015,1.164 1.1641,1.1641 1.1641,3.1172 z M 315.2397,-5 q 0,-0.75 -0.4375,-1.2031 -0.4375,-0.4531 -1.1406,-0.4531 -0.75,0 -1.2266,0.4296 -0.4766,0.4297 -0.6016,1.2266 z m 10.862,-2.9531 v 2 q -0.8437,-0.3594 -1.625,-0.5313 -0.7812,-0.1718 -1.4843,-0.1718 -0.75,0 -1.1094,0.1874 -0.3594,0.1876 -0.3594,0.5782 0,0.3125 0.2735,0.4765 0.2734,0.1641 0.9765,0.2579 l 0.4688,0.0624 q 2.0156,0.25 2.7109,0.836 0.6953,0.5859 0.6953,1.8359 0,1.3125 -0.9687,1.9766 -0.9688,0.6641 -2.8907,0.6641 -0.8125,0 -1.6796,-0.1329 -0.8672,-0.1328 -1.7735,-0.3828 v -2 q 0.7813,0.3907 1.6016,0.5781 0.8203,0.1876 1.6797,0.1876 0.7656,0 1.1562,-0.211 0.3906,-0.2109 0.3906,-0.6328 0,-0.3438 -0.2734,-0.5156 -0.2734,-0.1719 -1.0703,-0.2813 l -0.4531,-0.0469 q -1.75,-0.2187 -2.4532,-0.8124 -0.7031,-0.5938 -0.7031,-1.8126 0,-1.2968 0.8906,-1.9296 0.8907,-0.6328 2.7344,-0.6328 0.7344,0 1.5313,0.1093 0.7968,0.1094 1.7343,0.3438 z M 336.6535,-5 v 5 h -2.625 v -0.8125 -3 q 0,-1.0781 -0.0469,-1.4766 -0.0468,-0.3984 -0.1718,-0.5859 -0.1563,-0.2656 -0.4141,-0.4062 -0.2578,-0.1407 -0.6016,-0.1407 -0.8281,0 -1.2968,0.6328 -0.4688,0.6329 -0.4688,1.7579 V 0 h -2.6094 v -11.3906 h 2.6094 V -7 q 0.5938,-0.7188 1.2656,-1.0625 0.6719,-0.3437 1.4688,-0.3437 1.4219,0 2.1562,0.875 0.7344,0.875 0.7344,2.5312 z m 6.0902,-1.5312 q -0.8593,0 -1.3203,0.625 -0.4609,0.625 -0.4609,1.8124 0,1.1719 0.4609,1.8047 0.461,0.6329 1.3203,0.6329 0.8594,0 1.3125,-0.6329 0.4532,-0.6328 0.4532,-1.8047 0,-1.1874 -0.4532,-1.8124 -0.4531,-0.625 -1.3125,-0.625 z m 0,-1.875 q 2.125,0 3.3125,1.1484 1.1875,1.1484 1.1875,3.164 0,2.0157 -1.1875,3.1641 -1.1875,1.1485 -3.3125,1.1485 -2.1093,0 -3.3125,-1.1485 -1.2031,-1.1484 -1.2031,-3.1641 0,-2.0156 1.2031,-3.164 1.2032,-1.1484 3.3125,-1.1484 z m 6.1784,-2.9844 h 2.6094 V 0 h -2.6094 z M 359.524,-7 v -4.3906 h 2.6406 V 0 h -2.6406 v -1.1875 q -0.5469,0.7187 -1.1953,1.0625 -0.6484,0.3438 -1.5078,0.3438 -1.5156,0 -2.4922,-1.211 -0.9766,-1.2109 -0.9766,-3.1016 0,-1.8906 0.9766,-3.1015 0.9766,-1.2109 2.4922,-1.2109 0.8437,0 1.5,0.3437 0.6562,0.3437 1.2031,1.0625 z m -1.7344,5.3125 q 0.8438,0 1.2891,-0.6172 0.4453,-0.6172 0.4453,-1.7891 0,-1.1718 -0.4453,-1.789 -0.4453,-0.6172 -1.2891,-0.6172 -0.8281,0 -1.2734,0.6172 -0.4453,0.6172 -0.4453,1.789 0,1.1719 0.4453,1.7891 0.4453,0.6172 1.2734,0.6172 z m 16.1406,3.6719 h -2.1718 q -1.125,-1.8125 -1.6563,-3.4453 -0.5312,-1.6329 -0.5312,-3.2266 0,-1.6094 0.5312,-3.2578 0.5313,-1.6485 1.6563,-3.4297 h 2.1718 q -0.9375,1.7344 -1.4062,3.3906 -0.4688,1.6563 -0.4688,3.2813 0,1.6093 0.461,3.2734 0.4609,1.6641 1.414,3.4141 z"
         id="path275"
         inkscape:connector-curvature="0" />
    </g>
    <g
       transform="translate(448,24)"
       style="font-weight:bold;font-size:14.66670036px;font-family:mwb_cmmi10;color-interpolation:linearRGB;color-rendering:optimizeQuality;image-rendering:optimizeQuality;text-rendering:geometricPrecision"
       id="g281">
      <path
         style="stroke:none"
         d="m 4.4219,2.9375 q 0,-0.3437 0.1484,-0.9844 Q 4.7188,1.3125 4.9375,0.5859 5.1562,-0.1406 5.3125,-0.6094 5.375,-1.3594 5.375,-1.75 5.375,-2.7031 5.1797,-3.5391 4.9844,-4.375 4.4609,-4.9375 3.9375,-5.5 2.9844,-5.5 q 0,0 -0.2422,0.2188 Q 2.5,-5.0625 2.1484,-4.6875 1.7969,-4.3125 1.6562,-3.8281 1.625,-3.7344 0.5469,-3.7344 H 0.3594 q -0.125,0 -0.125,-0.1406 V -3.9219 Q 0.4062,-4.5938 0.8359,-5.2188 1.2656,-5.8438 1.8828,-6.2344 2.5,-6.625 3.1875,-6.625 q 1.7031,0 2.2187,0.4766 0.5157,0.4765 0.8204,1.2031 0.3046,0.7265 0.2734,1.4765 -0.0312,0.75 -0.0312,0.75 Q 6.5625,-4.1094 7.5,-5.9375 l 0.2344,-0.4844 q 0.0312,-0.0469 0.0937,-0.0469 h 0.1875 q 1.1094,0 1.1094,0.1407 0,0.0312 -0.0312,0.0937 L 8.875,-5.7656 Q 8.2188,-4.4688 7.6719,-3.1406 7.125,-1.8125 6.75,-0.5781 6.6875,-0.0625 6.5234,0.8125 6.3594,1.6875 6.125,2.4453 5.8906,3.2031 5.6562,3.2344 q -1.2343,0 -1.2343,-0.2969 z"
         id="path279"
         inkscape:connector-curvature="0" />
    </g>
    <g
       transform="translate(457,24)"
       style="font-weight:bold;font-size:14.66670036px;font-family:SansSerif;color-interpolation:linearRGB;color-rendering:optimizeQuality;image-rendering:optimizeQuality;text-rendering:geometricPrecision"
       id="g285">
      <path
         style="stroke:none"
         d="m 1.2031,1.9844 q 0.9375,-1.75 1.4063,-3.4141 0.4687,-1.6641 0.4687,-3.2734 0,-1.625 -0.4687,-3.2813 Q 2.1406,-9.6406 1.2031,-11.375 H 3.375 q 1.1094,1.7812 1.6484,3.4297 0.5391,1.6484 0.5391,3.2578 0,1.5937 -0.5313,3.2266 Q 4.5,0.1719 3.375,1.9844 Z m 7.089,-9.2188 h 9.3906 v 1.7188 H 8.2921 Z m 0,3.3438 h 9.3906 v 1.7344 H 8.2921 Z m 17.5928,-1.5938 q 0,-2.0468 -0.3906,-2.8828 -0.3906,-0.8359 -1.2969,-0.8359 -0.9062,0 -1.2968,0.8359 -0.3907,0.836 -0.3907,2.8828 0,2.0782 0.3907,2.9297 0.3906,0.8516 1.2968,0.8516 0.9063,0 1.2969,-0.8516 0.3906,-0.8515 0.3906,-2.9297 z m 2.8125,0.0313 q 0,2.7187 -1.1718,4.1953 -1.1719,1.4766 -3.3282,1.4766 -2.1562,0 -3.3281,-1.4766 -1.1719,-1.4766 -1.1719,-4.1953 0,-2.7344 1.1719,-4.211 1.1719,-1.4765 3.3281,-1.4765 2.1563,0 3.3282,1.4765 1.1718,1.4766 1.1718,4.211 z m 2.0104,2.625 h 2.6406 V 0 h -2.6406 z m 8.3645,0.75 h 4.8125 V 0 h -7.9531 v -2.0781 l 3.9844,-3.5157 q 0.5468,-0.4843 0.7968,-0.9453 0.25,-0.4609 0.25,-0.9609 0,-0.7656 -0.5156,-1.2344 -0.5156,-0.4687 -1.3594,-0.4687 -0.6718,0 -1.4531,0.2812 -0.7812,0.2813 -1.6719,0.8281 v -2.3906 q 0.9532,-0.3125 1.8828,-0.4844 0.9297,-0.1718 1.8204,-0.1718 1.9687,0 3.0546,0.8672 1.086,0.8672 1.086,2.414 0,0.8906 -0.461,1.6641 -0.4609,0.7734 -1.9453,2.0703 z"
         id="path283"
         inkscape:connector-curvature="0" />
    </g>
    <g
       transform="translate(65.1144,347.0511)"
       style="font-size:13.33329964px;font-family:SansSerif;color-interpolation:linearRGB;fill:#262626;stroke:#262626;color-rendering:optimizeQuality;image-rendering:optimizeQuality;text-rendering:geometricPrecision"
       id="g289">
      <path
         style="stroke:none"
         d="m -17.875,4.3594 q -0.9844,0 -1.4844,0.9765 -0.5,0.9766 -0.5,2.9297 0,1.9532 0.5,2.9297 0.5,0.9766 1.4844,0.9766 1,0 1.5,-0.9766 0.5,-0.9765 0.5,-2.9297 0,-1.9531 -0.5,-2.9297 -0.5,-0.9765 -1.5,-0.9765 z m 0,-1.0156 q 1.5938,0 2.4375,1.2656 0.8437,1.2656 0.8437,3.6562 0,2.3906 -0.8437,3.6563 -0.8437,1.2656 -2.4375,1.2656 -1.5781,0 -2.4219,-1.2656 -0.8437,-1.2657 -0.8437,-3.6563 0,-2.3906 0.8437,-3.6562 0.8438,-1.2656 2.4219,-1.2656 z m 5.7354,8.0468 h 1.3438 V 13 h -1.3438 z m 4.4505,0.5313 h 2.0937 V 4.6875 L -7.8766,5.1406 V 3.9844 L -5.611,3.5156 h 1.2969 v 8.4063 h 2.0937 V 13 h -5.4687 z"
         id="path287"
         inkscape:connector-curvature="0" />
    </g>
    <g
       style="color-interpolation:sRGB;fill:#01bac3;stroke:#01bac3;color-rendering:optimizeSpeed;image-rendering:optimizeSpeed;shape-rendering:crispEdges;text-rendering:optimizeSpeed"
       id="g295">
      <path
         style="stroke:none"
         d="m 431.0573,259.1862 -83.6024,-14.8594 23.6475,-24.5837 z"
         id="path291"
         inkscape:connector-curvature="0" />
      <path
         d="m 287.5,143.9013 83.6024,75.8418 -23.6475,24.5837 z"
         style="fill:#f4e824;stroke:none"
         id="path293"
         inkscape:connector-curvature="0" />
    </g>
    <g
       style="color-interpolation:linearRGB;stroke-width:0.66670001;stroke-linecap:round;stroke-linejoin:round;color-rendering:optimizeQuality;image-rendering:optimizeQuality;text-rendering:geometricPrecision"
       id="g299">
      <line
         y2="244.3268"
         style="fill:none"
         x1="371.10239"
         x2="347.4549"
         y1="219.7431"
         id="line297" />
    </g>
    <g
       style="color-interpolation:sRGB;fill:#01bac3;stroke:#01bac3;color-rendering:optimizeSpeed;image-rendering:optimizeSpeed;shape-rendering:crispEdges;text-rendering:optimizeSpeed"
       id="g303">
      <path
         style="stroke:none"
         d="m 371.1024,219.7431 83.6025,6.8069 -23.6476,32.6362 z"
         id="path301"
         inkscape:connector-curvature="0" />
    </g>
    <g
       style="color-interpolation:linearRGB;stroke-width:0.66670001;stroke-linecap:round;stroke-linejoin:round;color-rendering:optimizeQuality;image-rendering:optimizeQuality;text-rendering:geometricPrecision"
       id="g307">
      <line
         y2="226.55"
         style="fill:none"
         x1="371.10239"
         x2="454.7049"
         y1="219.7431"
         id="line305" />
    </g>
    <g
       style="color-interpolation:sRGB;fill:#f9fa14;stroke:#f9fa14;color-rendering:optimizeSpeed;image-rendering:optimizeSpeed;shape-rendering:crispEdges;text-rendering:optimizeSpeed"
       id="g311">
      <path
         style="stroke:none"
         d="M 371.1024,219.7431 287.5,143.9013 311.1476,101.6598 Z"
         id="path309"
         inkscape:connector-curvature="0" />
    </g>
    <g
       style="color-interpolation:linearRGB;stroke-width:0.66670001;stroke-linecap:round;stroke-linejoin:round;color-rendering:optimizeQuality;image-rendering:optimizeQuality;text-rendering:geometricPrecision"
       id="g317">
      <line
         y2="219.7431"
         style="fill:none"
         x1="287.5"
         x2="371.10239"
         y1="143.90131"
         id="line313" />
      <line
         x1="240.2049"
         x2="235.3784"
         y1="354.89471"
         style="fill:none;stroke:#262626"
         y2="361.7876"
         id="line315" />
    </g>
    <g
       transform="translate(164,404)"
       style="font-size:14.66670036px;font-family:SansSerif;color-interpolation:linearRGB;fill:#262626;stroke:#262626;color-rendering:optimizeQuality;image-rendering:optimizeQuality;text-rendering:geometricPrecision"
       id="g321">
      <path
         style="stroke:none"
         d="m 2.9531,-9.7188 v 4.1094 h 1.8594 q 1.0313,0 1.5937,-0.539 0.5626,-0.5391 0.5626,-1.5235 0,-0.9843 -0.5626,-1.5156 -0.5624,-0.5313 -1.5937,-0.5313 z m -1.4843,-1.2187 h 3.3437 q 1.8437,0 2.7813,0.8359 0.9374,0.836 0.9374,2.4297 0,1.625 -0.9374,2.4531 -0.9376,0.8282 -2.7813,0.8282 H 2.9531 V 0 H 1.4688 Z m 8.6506,7.7031 v -4.9687 h 1.3437 v 4.9219 q 0,1.1562 0.4531,1.7421 0.4532,0.586 1.3594,0.586 1.0938,0 1.7266,-0.6953 0.6328,-0.6954 0.6328,-1.8985 v -4.6562 h 1.3437 V 0 H 15.635 v -1.2656 q -0.4844,0.75 -1.1328,1.1172 -0.6485,0.3672 -1.5078,0.3672 -1.4219,0 -2.1485,-0.8829 -0.7265,-0.8828 -0.7265,-2.5703 z M 26.3615,-4.9531 V 0 h -1.3438 v -4.9062 q 0,-1.1719 -0.4531,-1.75 -0.4531,-0.5782 -1.375,-0.5782 -1.0781,0 -1.7109,0.6953 -0.6329,0.6953 -0.6329,1.8985 V 0 h -1.3593 v -8.2031 h 1.3593 v 1.2812 q 0.4844,-0.75 1.1407,-1.1172 0.6562,-0.3671 1.5156,-0.3671 1.4062,0 2.1328,0.875 0.7266,0.875 0.7266,2.5781 z m 2.4608,-3.25 h 1.3594 V 0 h -1.3594 z m 0,-3.1875 h 1.3594 v 1.7031 h -1.3594 z m 9.3064,3.4218 v 1.2813 q -0.5625,-0.2969 -1.1797,-0.4375 -0.6172,-0.1406 -1.2735,-0.1406 -1.0156,0 -1.5156,0.3047 -0.5,0.3047 -0.5,0.914 0,0.4688 0.3594,0.7344 0.3594,0.2656 1.4531,0.5156 l 0.4531,0.1094 q 1.4375,0.2969 2.0391,0.8594 0.6016,0.5625 0.6016,1.5625 0,1.1406 -0.8985,1.8125 -0.8984,0.6719 -2.4922,0.6719 -0.6562,0 -1.3672,-0.1329 -0.7109,-0.1328 -1.5078,-0.3828 v -1.3906 q 0.75,0.3906 1.4766,0.5781 0.7266,0.1875 1.4297,0.1875 0.9531,0 1.4687,-0.3203 0.5157,-0.3203 0.5157,-0.914 0,-0.5469 -0.375,-0.8438 -0.375,-0.2969 -1.625,-0.5625 l -0.4688,-0.1094 q -1.25,-0.2656 -1.8047,-0.8125 -0.5547,-0.5468 -0.5547,-1.5 0,-1.1562 0.8203,-1.789 0.8204,-0.6328 2.3204,-0.6328 0.75,0 1.414,0.1093 0.6641,0.1094 1.211,0.3281 z m 9.2296,3.0157 V 0 h -1.3438 v -4.9062 q 0,-1.1719 -0.4531,-1.75 -0.4531,-0.5782 -1.375,-0.5782 -1.0781,0 -1.711,0.6953 -0.6328,0.6953 -0.6328,1.8985 V 0 h -1.3593 v -11.3906 h 1.3593 v 4.4687 q 0.4844,-0.75 1.1407,-1.1172 0.6562,-0.3671 1.5156,-0.3671 1.4062,0 2.1328,0.875 0.7266,0.875 0.7266,2.5781 z m 8.8514,-1.6719 q 0.5157,-0.9062 1.2188,-1.3438 0.7031,-0.4374 1.6562,-0.4374 1.2813,0 1.9766,0.8984 0.6953,0.8984 0.6953,2.5547 V 0 h -1.3594 v -4.9062 q 0,-1.1876 -0.4218,-1.7579 -0.4219,-0.5703 -1.2657,-0.5703 -1.0468,0 -1.6562,0.6953 -0.6094,0.6953 -0.6094,1.8985 V 0 h -1.3594 v -4.9062 q 0,-1.1876 -0.414,-1.7579 -0.4141,-0.5703 -1.2891,-0.5703 -1.0312,0 -1.6406,0.7032 -0.6094,0.7031 -0.6094,1.8906 V 0 h -1.3594 v -8.2031 h 1.3594 v 1.2812 q 0.4531,-0.7656 1.1016,-1.125 0.6484,-0.3593 1.539,-0.3593 0.8907,0 1.5157,0.4531 0.625,0.4531 0.9218,1.3281 z m 14.9176,2.1875 v 0.6563 h -6.2031 q 0.0937,1.3906 0.8437,2.1171 0.75,0.7266 2.0782,0.7266 0.7812,0 1.5078,-0.1875 0.7265,-0.1875 1.4453,-0.5625 v 1.2656 q -0.7188,0.3125 -1.4844,0.4766 -0.7656,0.1641 -1.5469,0.1641 -1.9531,0 -3.1015,-1.1485 -1.1485,-1.1484 -1.1485,-3.0859 0,-2.0156 1.086,-3.2032 1.0859,-1.1874 2.9297,-1.1874 1.6562,0 2.625,1.0703 0.9687,1.0703 0.9687,2.8984 z m -1.3594,-0.3906 q -0.0156,-1.1094 -0.6171,-1.7735 -0.6016,-0.664 -1.6016,-0.664 -1.125,0 -1.8047,0.6406 -0.6797,0.6406 -0.7734,1.7969 z m 10.1733,-0.125 V 0 h -1.3437 v -4.9062 q 0,-1.1719 -0.4532,-1.75 -0.4531,-0.5782 -1.375,-0.5782 -1.0781,0 -1.7109,0.6953 -0.6328,0.6953 -0.6328,1.8985 V 0 h -1.3594 v -8.2031 h 1.3594 v 1.2812 q 0.4844,-0.75 1.1406,-1.1172 0.6563,-0.3671 1.5156,-0.3671 1.4063,0 2.1329,0.875 0.7265,0.875 0.7265,2.5781 z m 3.8046,-5.5781 v 2.3281 h 2.7656 v 1.0469 h -2.7656 v 4.4531 q 0,1 0.2735,1.289 0.2734,0.2891 1.1171,0.2891 h 1.375 V 0 h -1.375 q -1.5625,0 -2.1562,-0.5859 -0.5938,-0.586 -0.5938,-2.1172 v -4.4531 h -0.9843 v -1.0469 h 0.9843 v -2.3281 z m 12.3116,-0.8438 q -0.9843,1.6719 -1.4609,3.3203 -0.4766,1.6485 -0.4766,3.3516 0,1.6875 0.4766,3.3437 0.4766,1.6563 1.4609,3.3438 H 94.8856 Q 93.7762,0.25 93.2371,-1.4062 q -0.539,-1.6563 -0.539,-3.2969 0,-1.6407 0.539,-3.2969 0.5391,-1.6562 1.6485,-3.375 z"
         id="path319"
         inkscape:connector-curvature="0" />
    </g>
    <g
       transform="translate(262,404)"
       style="font-size:14.66670036px;font-family:mwb_cmmi10;color-interpolation:linearRGB;fill:#262626;stroke:#262626;color-rendering:optimizeQuality;image-rendering:optimizeQuality;text-rendering:geometricPrecision"
       id="g325">
      <path
         style="stroke:none"
         d="M 0.4062,2.9062 Q 0.3594,2.9062 0.3203,2.8594 0.2812,2.8125 0.2812,2.7656 l 2.3126,-9.2812 q 0.2031,-0.75 0.5781,-1.4532 0.375,-0.7031 0.9531,-1.3046 0.5781,-0.6016 1.2656,-0.9532 0.6875,-0.3515 1.4688,-0.3515 0.5468,0 1,0.25 0.4531,0.25 0.7109,0.6875 0.2578,0.4375 0.2578,1 0,0.5312 -0.2031,1.0156 -0.2031,0.4844 -0.5703,0.9062 -0.3672,0.4219 -0.7891,0.6876 0.25,0.1562 0.4375,0.3984 0.1875,0.2422 0.3047,0.5 0.1172,0.2578 0.1875,0.5781 0.0703,0.3203 0.0703,0.5859 0,0.7813 -0.3281,1.5235 Q 7.6094,-1.7031 7.0391,-1.0938 6.4688,-0.4844 5.7344,-0.125 5,0.2344 4.2344,0.2344 q -0.8438,0 -1.5156,-0.4688 -0.6719,-0.4687 -0.9376,-1.25 L 0.7031,2.8125 q 0,0.0937 -0.1093,0.0937 z m 3.8594,-3.0937 q 0.6719,0 1.2188,-0.4375 0.5468,-0.4375 0.8984,-1.1094 0.3516,-0.6718 0.5391,-1.4218 0.1875,-0.75 0.1875,-1.375 0,-0.75 -0.4375,-1.2032 -0.5157,0.2032 -1,0.2032 -1.1875,0 -1.1875,-0.4063 0,-0.5313 1.3594,-0.5313 0.4843,0 0.875,0.1563 0.3281,-0.25 0.5937,-0.7344 0.2656,-0.4843 0.3984,-1.0078 0.1329,-0.5234 0.1329,-0.9922 0,-0.4843 -0.2579,-0.8125 -0.2578,-0.3281 -0.7578,-0.3281 -0.9219,0 -1.7031,0.5625 -0.7812,0.5625 -1.3281,1.4219 -0.5469,0.8593 -0.7813,1.7812 l -0.8281,3.3125 q -0.0781,0.3438 -0.0937,0.7656 0,0.9376 0.6093,1.5469 0.6094,0.6094 1.5625,0.6094 z m 0.6719,-5.7969 q 0.2187,0.0625 0.75,0.0625 0.25,0 0.5156,-0.0937 -0.0156,-0.0156 -0.0625,-0.0156 -0.1562,-0.0469 -0.3437,-0.0469 -0.6875,0 -0.8594,0.0937 z"
         id="path323"
         inkscape:connector-curvature="0" />
    </g>
    <g
       transform="translate(271,404)"
       style="font-size:14.66670036px;font-family:SansSerif;color-interpolation:linearRGB;fill:#262626;stroke:#262626;color-rendering:optimizeQuality;image-rendering:optimizeQuality;text-rendering:geometricPrecision"
       id="g329">
      <path
         style="stroke:none"
         d="M 1.2031,-11.375 H 2.375 q 1.0938,1.7188 1.6406,3.375 0.5469,1.6562 0.5469,3.2969 0,1.6406 -0.5469,3.2969 Q 3.4688,0.25 2.375,1.9844 H 1.2031 q 0.9688,-1.6875 1.4531,-3.3438 0.4844,-1.6562 0.4844,-3.3437 0,-1.7031 -0.4844,-3.3516 -0.4843,-1.6484 -1.4531,-3.3203 z"
         id="path327"
         inkscape:connector-curvature="0" />
    </g>
    <g
       style="color-interpolation:sRGB;fill:#c5c129;stroke:#c5c129;color-rendering:optimizeSpeed;image-rendering:optimizeSpeed;shape-rendering:crispEdges;text-rendering:optimizeSpeed"
       id="g333">
      <path
         style="stroke:none"
         d="m 263.8524,173.3825 -83.6024,31.9 23.6476,-41.4528 z"
         id="path331"
         inkscape:connector-curvature="0" />
    </g>
    <g
       style="color-interpolation:linearRGB;stroke-width:0.66670001;stroke-linecap:round;stroke-linejoin:round;color-rendering:optimizeQuality;image-rendering:optimizeQuality;text-rendering:geometricPrecision"
       id="g337">
      <line
         y2="205.2825"
         style="fill:none"
         x1="203.8976"
         x2="180.25"
         y1="163.8297"
         id="line335" />
    </g>
    <g
       style="color-interpolation:sRGB;fill:#c5c129;stroke:#c5c129;color-rendering:optimizeSpeed;image-rendering:optimizeSpeed;shape-rendering:crispEdges;text-rendering:optimizeSpeed"
       id="g341">
      <path
         style="stroke:none"
         d="M 203.8976,163.8297 287.5,143.9013 263.8524,173.3825 Z"
         id="path339"
         inkscape:connector-curvature="0" />
    </g>
    <g
       style="color-interpolation:linearRGB;stroke-width:0.66670001;stroke-linecap:round;stroke-linejoin:round;color-rendering:optimizeQuality;image-rendering:optimizeQuality;text-rendering:geometricPrecision"
       id="g345">
      <line
         y2="143.90131"
         style="fill:none"
         x1="203.8976"
         x2="287.5"
         y1="163.8297"
         id="line343" />
    </g>
    <g
       transform="translate(148.7169,356.6038)"
       style="font-size:13.33329964px;font-family:SansSerif;color-interpolation:linearRGB;fill:#262626;stroke:#262626;color-rendering:optimizeQuality;image-rendering:optimizeQuality;text-rendering:geometricPrecision"
       id="g349">
      <path
         style="stroke:none"
         d="m -17.875,4.3594 q -0.9844,0 -1.4844,0.9765 -0.5,0.9766 -0.5,2.9297 0,1.9532 0.5,2.9297 0.5,0.9766 1.4844,0.9766 1,0 1.5,-0.9766 0.5,-0.9765 0.5,-2.9297 0,-1.9531 -0.5,-2.9297 -0.5,-0.9765 -1.5,-0.9765 z m 0,-1.0156 q 1.5938,0 2.4375,1.2656 0.8437,1.2656 0.8437,3.6562 0,2.3906 -0.8437,3.6563 -0.8437,1.2656 -2.4375,1.2656 -1.5781,0 -2.4219,-1.2656 -0.8437,-1.2657 -0.8437,-3.6563 0,-2.3906 0.8437,-3.6562 0.8438,-1.2656 2.4219,-1.2656 z m 5.7354,8.0468 h 1.3438 V 13 h -1.3438 z m 5.3411,0.5313 h 4.4687 V 13 h -6.0156 v -1.0781 q 0.7344,-0.75 1.9922,-2.0235 1.2578,-1.2734 1.5859,-1.6484 0.6094,-0.6875 0.8516,-1.1719 0.2422,-0.4843 0.2422,-0.9375 0,-0.7656 -0.5235,-1.2344 -0.5234,-0.4687 -1.3828,-0.4687 -0.6093,0 -1.2734,0.2031 -0.6641,0.2032 -1.4297,0.6406 V 3.9844 q 0.7813,-0.3125 1.4531,-0.4766 0.6719,-0.164 1.2188,-0.164 1.4844,0 2.3594,0.7421 0.875,0.7422 0.875,1.9766 0,0.5781 -0.2188,1.1016 -0.2187,0.5234 -0.7969,1.2265 -0.1562,0.1875 -1.0078,1.0703 -0.8515,0.8829 -2.3984,2.461 z"
         id="path347"
         inkscape:connector-curvature="0" />
    </g>
    <g
       style="color-interpolation:linearRGB;stroke-width:0.66670001;stroke-linecap:round;stroke-linejoin:round;color-rendering:optimizeQuality;image-rendering:optimizeQuality;text-rendering:geometricPrecision"
       id="g355">
      <line
         y2="143.90131"
         style="fill:none"
         x1="311.14761"
         x2="287.5"
         y1="101.6598"
         id="line351" />
      <line
         y2="259.18619"
         style="fill:none"
         x1="454.7049"
         x2="431.05731"
         y1="226.55"
         id="line353" />
    </g>
    <g
       transform="translate(59.3409,291.8033)"
       style="font-size:13.33329964px;font-family:SansSerif;color-interpolation:linearRGB;fill:#262626;stroke:#262626;color-rendering:optimizeQuality;image-rendering:optimizeQuality;text-rendering:geometricPrecision"
       id="g359">
      <path
         style="stroke:none"
         d="m -15.3906,3.4219 h 2.0937 v -7.2344 l -2.2812,0.4531 v -1.1562 l 2.2656,-0.4688 h 1.2969 v 8.4063 h 2.0937 V 4.5 h -5.4687 z m 8.2823,0.875 V 3.1406 q 0.4844,0.2188 0.9844,0.3438 0.5,0.125 0.9687,0.125 1.2656,0 1.9375,-0.8594 0.6719,-0.8594 0.7656,-2.5938 -0.3593,0.5469 -0.9296,0.836 -0.5704,0.289 -1.2579,0.289 -1.4218,0 -2.25,-0.8593 -0.8281,-0.8594 -0.8281,-2.3438 0,-1.4687 0.8672,-2.3515 0.8672,-0.8828 2.3047,-0.8828 1.6406,0 2.5078,1.2656 0.8672,1.2656 0.8672,3.6562 0,2.25 -1.0625,3.586 -1.0625,1.3359 -2.8594,1.3359 -0.4844,0 -0.9765,-0.0937 Q -6.5614,4.5 -7.1083,4.2969 Z m 2.5625,-4.0157 q 0.8594,0 1.3672,-0.5859 0.5078,-0.5859 0.5078,-1.6172 0,-1.0312 -0.5078,-1.625 -0.5078,-0.5937 -1.3672,-0.5937 -0.875,0 -1.375,0.5937 -0.5,0.5938 -0.5,1.625 0,1.0313 0.5,1.6172 0.5,0.5859 1.375,0.5859 z"
         id="path357"
         inkscape:connector-curvature="0" />
    </g>
    <g
       style="color-interpolation:linearRGB;fill:#262626;stroke:#262626;stroke-width:0.66670001;stroke-linecap:round;stroke-linejoin:round;color-rendering:optimizeQuality;image-rendering:optimizeQuality;text-rendering:geometricPrecision"
       id="g365">
      <line
         y2="292.40881"
         style="fill:none"
         x1="73"
         x2="64.639801"
         y1="293.36401"
         id="line361" />
      <line
         y2="371.34021"
         style="fill:none"
         x1="323.80731"
         x2="318.9808"
         y1="364.44739"
         id="line363" />
    </g>
    <g
       transform="translate(232.3193,366.1564)"
       style="font-size:13.33329964px;font-family:SansSerif;color-interpolation:linearRGB;fill:#262626;stroke:#262626;color-rendering:optimizeQuality;image-rendering:optimizeQuality;text-rendering:geometricPrecision"
       id="g369">
      <path
         style="stroke:none"
         d="m -17.875,4.3594 q -0.9844,0 -1.4844,0.9765 -0.5,0.9766 -0.5,2.9297 0,1.9532 0.5,2.9297 0.5,0.9766 1.4844,0.9766 1,0 1.5,-0.9766 0.5,-0.9765 0.5,-2.9297 0,-1.9531 -0.5,-2.9297 -0.5,-0.9765 -1.5,-0.9765 z m 0,-1.0156 q 1.5938,0 2.4375,1.2656 0.8437,1.2656 0.8437,3.6562 0,2.3906 -0.8437,3.6563 -0.8437,1.2656 -2.4375,1.2656 -1.5781,0 -2.4219,-1.2656 -0.8437,-1.2657 -0.8437,-3.6563 0,-2.3906 0.8437,-3.6562 0.8438,-1.2656 2.4219,-1.2656 z m 5.7354,8.0468 h 1.3438 V 13 h -1.3438 z m 8.1223,-3.5 q 0.9219,0.2032 1.4375,0.8203 0.5157,0.6172 0.5157,1.5391 0,1.3906 -0.9688,2.1641 -0.9687,0.7734 -2.75,0.7734 -0.5937,0 -1.2266,-0.1172 -0.6328,-0.1172 -1.3046,-0.3515 v -1.25 q 0.5468,0.3124 1.1796,0.4765 0.6329,0.1641 1.3204,0.1641 1.2031,0 1.8359,-0.4766 0.6328,-0.4766 0.6328,-1.3828 0,-0.8438 -0.5859,-1.3125 -0.586,-0.4687 -1.6328,-0.4687 H -6.6735 V 7.4062 h 1.1562 q 0.9532,0 1.4532,-0.375 0.5,-0.375 0.5,-1.0937 0,-0.7187 -0.5157,-1.1094 -0.5156,-0.3906 -1.4843,-0.3906 -0.5313,0 -1.1329,0.1094 -0.6015,0.1093 -1.3203,0.3593 V 3.75 q 0.7188,-0.2031 1.3594,-0.3047 0.6406,-0.1015 1.2031,-0.1015 1.4688,0 2.3203,0.664 0.8516,0.6641 0.8516,1.8047 0,0.7813 -0.4531,1.3281 -0.4531,0.5469 -1.2813,0.75 z"
         id="path367"
         inkscape:connector-curvature="0" />
    </g>
    <g
       style="color-interpolation:linearRGB;fill:#262626;stroke:#262626;stroke-width:0.66670001;stroke-linejoin:round;color-rendering:optimizeQuality;image-rendering:optimizeQuality;text-rendering:geometricPrecision"
       id="g375">
      <line
         y2="380.89291"
         style="fill:none"
         x1="407.40979"
         x2="402.58331"
         y1="374"
         id="line371" />
      <line
         y2="374.95529"
         style="fill:none"
         x1="407.40979"
         x2="415.76999"
         y1="374"
         id="line373" />
    </g>
    <g
       transform="translate(421.0688,375.5607)"
       style="font-size:13.33329964px;font-family:SansSerif;color-interpolation:linearRGB;fill:#262626;stroke:#262626;color-rendering:optimizeQuality;image-rendering:optimizeQuality;text-rendering:geometricPrecision"
       id="g379">
      <path
         style="stroke:none"
         d="M 1.6094,11.9219 H 3.7031 V 4.6875 L 1.4219,5.1406 V 3.9844 L 3.6875,3.5156 h 1.2969 v 8.4063 H 7.0781 V 13 H 1.6094 Z"
         id="path377"
         inkscape:connector-curvature="0" />
    </g>
    <g
       transform="translate(315.9218,375.709)"
       style="font-size:13.33329964px;font-family:SansSerif;color-interpolation:linearRGB;fill:#262626;stroke:#262626;color-rendering:optimizeQuality;image-rendering:optimizeQuality;text-rendering:geometricPrecision"
       id="g383">
      <path
         style="stroke:none"
         d="m -17.875,4.3594 q -0.9844,0 -1.4844,0.9765 -0.5,0.9766 -0.5,2.9297 0,1.9532 0.5,2.9297 0.5,0.9766 1.4844,0.9766 1,0 1.5,-0.9766 0.5,-0.9765 0.5,-2.9297 0,-1.9531 -0.5,-2.9297 -0.5,-0.9765 -1.5,-0.9765 z m 0,-1.0156 q 1.5938,0 2.4375,1.2656 0.8437,1.2656 0.8437,3.6562 0,2.3906 -0.8437,3.6563 -0.8437,1.2656 -2.4375,1.2656 -1.5781,0 -2.4219,-1.2656 -0.8437,-1.2657 -0.8437,-3.6563 0,-2.3906 0.8437,-3.6562 0.8438,-1.2656 2.4219,-1.2656 z m 5.7354,8.0468 h 1.3438 V 13 h -1.3438 z m 7.7473,-6.75 -3.2343,5.0625 h 3.2343 z m -0.3281,-1.125 h 1.6094 v 6.1875 h 1.3594 v 1.0625 H -3.111 V 13 H -4.3923 V 10.7656 H -8.6579 V 9.5312 Z"
         id="path381"
         inkscape:connector-curvature="0" />
    </g>
    <g
       style="color-interpolation:sRGB;fill:#8fca4d;stroke:#8fca4d;color-rendering:optimizeSpeed;image-rendering:optimizeSpeed;shape-rendering:crispEdges;text-rendering:optimizeSpeed"
       id="g387">
      <path
         style="stroke:none"
         d="m 180.25,205.2825 83.6024,-31.9 -23.6475,56.1693 -83.6025,38.2194 z"
         id="path385"
         inkscape:connector-curvature="0" />
    </g>
    <g
       style="color-interpolation:linearRGB;stroke-width:0.66670001;stroke-linejoin:round;color-rendering:optimizeQuality;image-rendering:optimizeQuality;text-rendering:geometricPrecision"
       id="g393">
      <line
         y2="267.77121"
         style="fill:none"
         x1="180.25"
         x2="156.6024"
         y1="205.2825"
         id="line389" />
      <line
         x1="180.25"
         x2="263.85239"
         y1="205.2825"
         style="fill:none;stroke-linecap:round"
         y2="173.38251"
         id="line391" />
    </g>
    <g
       transform="translate(399.5242,385.2616)"
       style="font-size:13.33329964px;font-family:SansSerif;color-interpolation:linearRGB;fill:#262626;stroke:#262626;color-rendering:optimizeQuality;image-rendering:optimizeQuality;text-rendering:geometricPrecision"
       id="g397">
      <path
         style="stroke:none"
         d="m -17.875,4.3594 q -0.9844,0 -1.4844,0.9765 -0.5,0.9766 -0.5,2.9297 0,1.9532 0.5,2.9297 0.5,0.9766 1.4844,0.9766 1,0 1.5,-0.9766 0.5,-0.9765 0.5,-2.9297 0,-1.9531 -0.5,-2.9297 -0.5,-0.9765 -1.5,-0.9765 z m 0,-1.0156 q 1.5938,0 2.4375,1.2656 0.8437,1.2656 0.8437,3.6562 0,2.3906 -0.8437,3.6563 -0.8437,1.2656 -2.4375,1.2656 -1.5781,0 -2.4219,-1.2656 -0.8437,-1.2657 -0.8437,-3.6563 0,-2.3906 0.8437,-3.6562 0.8438,-1.2656 2.4219,-1.2656 z m 5.7354,8.0468 h 1.3438 V 13 h -1.3438 z m 4.2473,-7.875 h 5.0313 v 1.0938 h -3.8594 v 2.3125 q 0.2813,-0.0938 0.5625,-0.1407 0.2813,-0.0468 0.5469,-0.0468 1.5937,0 2.5234,0.8672 0.9297,0.8672 0.9297,2.3515 0,1.5313 -0.9531,2.3828 -0.9531,0.8516 -2.6875,0.8516 -0.5938,0 -1.2188,-0.1016 -0.625,-0.1015 -1.2812,-0.3047 v -1.2968 q 0.5781,0.3125 1.1875,0.4687 0.6094,0.1563 1.2812,0.1563 1.1094,0 1.75,-0.5782 0.6407,-0.5781 0.6407,-1.5781 0,-0.9843 -0.6407,-1.5625 -0.6406,-0.5781 -1.75,-0.5781 -0.5156,0 -1.0234,0.1172 -0.5078,0.1172 -1.0391,0.3515 z"
         id="path395"
         inkscape:connector-curvature="0" />
    </g>
    <g
       style="color-interpolation:sRGB;fill:#f4e824;stroke:#f4e824;color-rendering:optimizeSpeed;image-rendering:optimizeSpeed;shape-rendering:crispEdges;text-rendering:optimizeSpeed"
       id="g401">
      <path
         style="stroke:none"
         d="M 347.4549,244.3268 263.8524,173.3825 287.5,143.9013 Z"
         id="path399"
         inkscape:connector-curvature="0" />
    </g>
    <g
       style="color-interpolation:linearRGB;stroke-width:0.66670001;stroke-linecap:round;stroke-linejoin:round;color-rendering:optimizeQuality;image-rendering:optimizeQuality;text-rendering:geometricPrecision"
       id="g405">
      <line
         y2="173.38251"
         style="fill:none"
         x1="287.5"
         x2="263.85239"
         y1="143.90131"
         id="line403" />
    </g>
    <g
       style="color-interpolation:sRGB;fill:#f7f41b;stroke:#f7f41b;color-rendering:optimizeSpeed;image-rendering:optimizeSpeed;shape-rendering:crispEdges;text-rendering:optimizeSpeed"
       id="g409">
      <path
         style="stroke:none"
         d="m 263.8524,173.3825 83.6025,70.9443 -23.6476,37.9003 z"
         id="path407"
         inkscape:connector-curvature="0" />
    </g>
    <g
       style="color-interpolation:linearRGB;stroke-width:0.66670001;stroke-linecap:round;stroke-linejoin:round;color-rendering:optimizeQuality;image-rendering:optimizeQuality;text-rendering:geometricPrecision"
       id="g413">
      <line
         y2="244.3268"
         style="fill:none"
         x1="263.85239"
         x2="347.4549"
         y1="173.38251"
         id="line411" />
    </g>
    <g
       style="color-interpolation:sRGB;fill:#2bc3a7;stroke:#2bc3a7;color-rendering:optimizeSpeed;image-rendering:optimizeSpeed;shape-rendering:crispEdges;text-rendering:optimizeSpeed"
       id="g417">
      <path
         style="stroke:none"
         d="m 347.4549,244.3268 83.6024,14.8594 -23.6475,31.2492 z"
         id="path415"
         inkscape:connector-curvature="0" />
    </g>
    <g
       style="color-interpolation:linearRGB;stroke-width:0.66670001;stroke-linecap:round;stroke-linejoin:round;color-rendering:optimizeQuality;image-rendering:optimizeQuality;text-rendering:geometricPrecision"
       id="g421">
      <line
         y2="259.18619"
         style="fill:none"
         x1="347.4549"
         x2="431.05731"
         y1="244.3268"
         id="line419" />
    </g>
    <g
       style="color-interpolation:sRGB;fill:#2bc3a7;stroke:#2bc3a7;color-rendering:optimizeSpeed;image-rendering:optimizeSpeed;shape-rendering:crispEdges;text-rendering:optimizeSpeed"
       id="g425">
      <path
         style="stroke:none"
         d="m 407.4098,290.4354 -83.6025,-8.2083 23.6476,-37.9003 z"
         id="path423"
         inkscape:connector-curvature="0" />
    </g>
    <g
       style="color-interpolation:linearRGB;stroke-width:0.66670001;stroke-linecap:round;stroke-linejoin:round;color-rendering:optimizeQuality;image-rendering:optimizeQuality;text-rendering:geometricPrecision"
       id="g429">
      <line
         y2="282.22711"
         style="fill:none"
         x1="347.4549"
         x2="323.80731"
         y1="244.3268"
         id="line427" />
    </g>
    <g
       transform="translate(59.3409,249.3778)"
       style="font-size:13.33329964px;font-family:SansSerif;color-interpolation:linearRGB;fill:#262626;stroke:#262626;color-rendering:optimizeQuality;image-rendering:optimizeQuality;text-rendering:geometricPrecision"
       id="g433">
      <path
         style="stroke:none"
         d="m -14.5,3.4219 h 4.4688 V 4.5 h -6.0157 V 3.4219 q 0.7344,-0.75 1.9922,-2.0235 1.2578,-1.2734 1.5859,-1.6484 0.6094,-0.6875 0.8516,-1.1719 0.2422,-0.4843 0.2422,-0.9375 0,-0.7656 -0.5234,-1.2344 -0.5235,-0.4687 -1.3828,-0.4687 -0.6094,0 -1.2735,0.2031 -0.6641,0.2032 -1.4297,0.6406 v -1.2968 q 0.7813,-0.3125 1.4532,-0.4766 0.6718,-0.164 1.2187,-0.164 1.4844,0 2.3594,0.7421 0.875,0.7422 0.875,1.9766 0,0.5781 -0.2188,1.1016 -0.2187,0.5234 -0.7969,1.2265 -0.1562,0.1875 -1.0078,1.0703 -0.8515,0.8829 -2.3984,2.461 z m 10.0948,-7.5625 q -0.9844,0 -1.4844,0.9765 -0.5,0.9766 -0.5,2.9297 0,1.9532 0.5,2.9297 0.5,0.9766 1.4844,0.9766 1,0 1.5,-0.9766 0.5,-0.9765 0.5,-2.9297 0,-1.9531 -0.5,-2.9297 -0.5,-0.9765 -1.5,-0.9765 z m 0,-1.0156 q 1.5938,0 2.4375,1.2656 0.8438,1.2656 0.8438,3.6562 0,2.3906 -0.8438,3.6563 -0.8437,1.2656 -2.4375,1.2656 -1.5781,0 -2.4219,-1.2656 -0.8437,-1.2657 -0.8437,-3.6563 0,-2.3906 0.8437,-3.6562 0.8438,-1.2656 2.4219,-1.2656 z"
         id="path431"
         inkscape:connector-curvature="0" />
    </g>
    <g
       style="color-interpolation:linearRGB;fill:#262626;stroke:#262626;stroke-width:0.66670001;stroke-linecap:round;stroke-linejoin:round;color-rendering:optimizeQuality;image-rendering:optimizeQuality;text-rendering:geometricPrecision"
       id="g437">
      <line
         y2="249.98331"
         style="fill:none"
         x1="73"
         x2="64.639801"
         y1="250.93851"
         id="line435" />
    </g>
    <g
       transform="rotate(-90,144.5952,106.3432)"
       style="font-size:14.66670036px;font-family:SansSerif;color-interpolation:linearRGB;fill:#262626;stroke:#262626;color-rendering:optimizeQuality;image-rendering:optimizeQuality;text-rendering:geometricPrecision"
       id="g441">
      <path
         style="stroke:none"
         d="m -87.5312,-14.9375 h 6.2812 v 1.25 h -4.7969 v 3.2187 h 4.3281 v 1.25 h -4.3281 V -4 h -1.4843 z m 12.102,6.8125 q -1.625,0 -2.2578,0.375 -0.6328,0.375 -0.6328,1.2812 0,0.7032 0.4688,1.125 0.4687,0.4219 1.2812,0.4219 1.125,0 1.8047,-0.789 0.6797,-0.7891 0.6797,-2.1172 V -8.125 Z m 2.6875,-0.5625 V -4 h -1.3437 v -1.25 q -0.4688,0.75 -1.1563,1.1094 -0.6875,0.3594 -1.6875,0.3594 -1.25,0 -1.9922,-0.711 -0.7421,-0.7109 -0.7421,-1.8984 0,-1.375 0.9218,-2.0782 0.9219,-0.7031 2.7657,-0.7031 h 1.8906 v -0.1406 q 0,-0.9219 -0.6094,-1.4375 -0.6094,-0.5156 -1.7187,-0.5156 -0.7032,0 -1.375,0.1718 -0.6719,0.1719 -1.2813,0.5157 v -1.25 q 0.7344,-0.2813 1.4375,-0.4297 0.7031,-0.1484 1.3594,-0.1484 1.7812,0 2.6562,0.9218 0.875,0.9219 0.875,2.7969 z m 2.5594,-6.7031 h 1.3594 V -4 h -1.3594 z m 9.3064,3.4218 v 1.2813 q -0.5625,-0.2969 -1.1797,-0.4375 -0.6172,-0.1406 -1.2735,-0.1406 -1.0156,0 -1.5156,0.3047 -0.5,0.3047 -0.5,0.914 0,0.4688 0.3594,0.7344 0.3594,0.2656 1.4531,0.5156 l 0.4531,0.1094 q 1.4375,0.2969 2.0391,0.8594 0.6016,0.5625 0.6016,1.5625 0,1.1406 -0.8985,1.8125 -0.8984,0.6719 -2.4922,0.6719 -0.6562,0 -1.3672,-0.1329 -0.7109,-0.1328 -1.5078,-0.3828 v -1.3906 q 0.75,0.3906 1.4766,0.5781 0.7266,0.1875 1.4297,0.1875 0.9531,0 1.4687,-0.3203 0.5157,-0.3203 0.5157,-0.914 0,-0.5469 -0.375,-0.8438 -0.375,-0.2969 -1.625,-0.5625 l -0.4688,-0.1094 q -1.25,-0.2656 -1.8047,-0.8125 -0.5547,-0.5468 -0.5547,-1.5 0,-1.1562 0.8203,-1.789 0.8204,-0.6328 2.3204,-0.6328 0.75,0 1.414,0.1093 0.6641,0.1094 1.211,0.3281 z m 9.4327,3.5313 v 0.6563 h -6.2031 q 0.0937,1.3906 0.8437,2.1171 0.75,0.7266 2.0781,0.7266 0.7813,0 1.5078,-0.1875 0.7266,-0.1875 1.4454,-0.5625 v 1.2656 q -0.7188,0.3125 -1.4844,0.4766 -0.7656,0.1641 -1.5469,0.1641 -1.9531,0 -3.1016,-1.1485 -1.1484,-1.1484 -1.1484,-3.0859 0,-2.0156 1.0859,-3.2032 1.086,-1.1874 2.9297,-1.1874 1.6563,0 2.625,1.0703 0.9688,1.0703 0.9688,2.8984 z m -1.3594,-0.3906 q -0.0156,-1.1094 -0.6172,-1.7735 -0.6015,-0.664 -1.6015,-0.664 -1.125,0 -1.8047,0.6406 -0.6797,0.6406 -0.7735,1.7969 z m 8.0665,-6.1094 h 2 l 4.8437,9.1563 v -9.1563 h 1.4375 V -4 h -2 l -4.8437,-9.1406 V -4 h -1.4375 z m 17.9323,6.5 v 0.6563 h -6.2032 q 0.0938,1.3906 0.8438,2.1171 0.75,0.7266 2.0781,0.7266 0.7813,0 1.5078,-0.1875 0.7266,-0.1875 1.4453,-0.5625 v 1.2656 q -0.7187,0.3125 -1.4843,0.4766 -0.7657,0.1641 -1.5469,0.1641 -1.9531,0 -3.1016,-1.1485 -1.1484,-1.1484 -1.1484,-3.0859 0,-2.0156 1.0859,-3.2032 1.086,-1.1874 2.9297,-1.1874 1.6563,0 2.625,1.0703 0.9688,1.0703 0.9688,2.8984 z m -1.3594,-0.3906 q -0.0156,-1.1094 -0.6172,-1.7735 -0.6016,-0.664 -1.6016,-0.664 -1.125,0 -1.8046,0.6406 -0.6797,0.6406 -0.7735,1.7969 z m 8.7514,0.625 q 0,-1.4531 -0.6016,-2.2578 -0.6015,-0.8047 -1.6953,-0.8047 -1.0937,0 -1.6953,0.8047 -0.6016,0.8047 -0.6016,2.2578 0,1.4687 0.6016,2.2734 0.6016,0.8047 1.6953,0.8047 1.0938,0 1.6953,-0.8047 0.6016,-0.8047 0.6016,-2.2734 z m 1.3437,3.1875 q 0,2.0937 -0.9296,3.1172 -0.9297,1.0234 -2.8516,1.0234 -0.7031,0 -1.3359,-0.1094 -0.6329,-0.1094 -1.2266,-0.3281 V -2.625 q 0.5937,0.3281 1.1719,0.4766 0.5781,0.1484 1.1875,0.1484 1.3281,0 1.9843,-0.6875 0.6563,-0.6875 0.6563,-2.0937 v -0.6563 q -0.4219,0.7187 -1.0703,1.0781 Q -21.1306,-4 -22.0368,-4 q -1.5156,0 -2.4375,-1.1484 -0.9219,-1.1485 -0.9219,-3.0547 0,-1.8907 0.9219,-3.0469 0.9219,-1.1562 2.4375,-1.1562 0.9062,0 1.5547,0.3593 0.6484,0.3594 1.0703,1.0938 v -1.25 h 1.3437 z m 6.2877,-3.1094 q -1.625,0 -2.2578,0.375 -0.6328,0.375 -0.6328,1.2812 0,0.7032 0.4687,1.125 0.4688,0.4219 1.2813,0.4219 1.125,0 1.8047,-0.789 0.6797,-0.7891 0.6797,-2.1172 V -8.125 Z m 2.6875,-0.5625 V -4 h -1.3437 v -1.25 q -0.4688,0.75 -1.1563,1.1094 -0.6875,0.3594 -1.6875,0.3594 -1.25,0 -1.9922,-0.711 -0.7422,-0.7109 -0.7422,-1.8984 0,-1.375 0.9219,-2.0782 0.9219,-0.7031 2.7656,-0.7031 h 1.8907 v -0.1406 q 0,-0.9219 -0.6094,-1.4375 -0.6094,-0.5156 -1.7188,-0.5156 -0.7031,0 -1.375,0.1718 -0.6718,0.1719 -1.2812,0.5157 v -1.25 q 0.7344,-0.2813 1.4375,-0.4297 0.7031,-0.1484 1.3594,-0.1484 1.7812,0 2.6562,0.9218 0.875,0.9219 0.875,2.7969 z m 3.9031,-5.8437 v 2.3281 h 2.7657 v 1.0469 h -2.7657 v 4.4531 q 0,1 0.2735,1.289 0.2734,0.2891 1.1172,0.2891 h 1.375 V -4 h -1.375 q -1.5625,0 -2.1563,-0.5859 -0.5937,-0.586 -0.5937,-2.1172 v -4.4531 h -0.9844 v -1.0469 h 0.9844 v -2.3281 z m 4.4028,2.3281 H 0.5724 V -4 H -0.787 Z m 0,-3.1875 h 1.3594 v 1.7031 H -0.787 Z m 3.1189,3.1875 h 1.4219 l 2.5625,6.8906 2.5625,-6.8906 h 1.4375 L 7.2381,-4 H 5.3944 Z m 16.6579,3.7656 v 0.6563 h -6.2031 q 0.0937,1.3906 0.8437,2.1171 0.75,0.7266 2.0781,0.7266 0.7813,0 1.5079,-0.1875 0.7265,-0.1875 1.4453,-0.5625 v 1.2656 q -0.7188,0.3125 -1.4844,0.4766 -0.7656,0.1641 -1.5469,0.1641 -1.9531,0 -3.1015,-1.1485 -1.1485,-1.1484 -1.1485,-3.0859 0,-2.0156 1.086,-3.2032 1.0859,-1.1874 2.9296,-1.1874 1.6563,0 2.625,1.0703 0.9688,1.0703 0.9688,2.8984 z m -1.3594,-0.3906 q -0.0156,-1.1094 -0.6172,-1.7735 -0.6015,-0.664 -1.6015,-0.664 -1.125,0 -1.8047,0.6406 -0.6797,0.6406 -0.7735,1.7969 z m 13.254,-0.2969 q 0.4843,0.1562 0.9297,0.6875 0.4453,0.5313 0.8984,1.4531 L 34.2125,-4 H 32.6344 L 31.2281,-6.8125 Q 30.6812,-7.9062 30.1734,-8.2656 29.6656,-8.625 28.7906,-8.625 H 27.1812 V -4 h -1.4843 v -10.9375 h 3.3437 q 1.875,0 2.7969,0.7813 0.9219,0.7812 0.9219,2.375 0,1.0312 -0.4766,1.7109 -0.4766,0.6797 -1.3984,0.9453 z m -3.7032,-4.5938 v 3.875 h 1.8594 q 1.0625,0 1.6094,-0.4921 0.5469,-0.4922 0.5469,-1.4453 0,-0.9688 -0.5469,-1.4532 -0.5469,-0.4844 -1.6094,-0.4844 z m 12.3711,5.5938 q -1.625,0 -2.2579,0.375 -0.6328,0.375 -0.6328,1.2812 0,0.7032 0.4688,1.125 0.4687,0.4219 1.2812,0.4219 1.125,0 1.8047,-0.789 Q 40.896,-6.5 40.896,-7.8281 V -8.125 Z m 2.6875,-0.5625 V -4 H 40.896 v -1.25 q -0.4687,0.75 -1.1562,1.1094 -0.6875,0.3594 -1.6875,0.3594 -1.25,0 -1.9922,-0.711 -0.7422,-0.7109 -0.7422,-1.8984 0,-1.375 0.9219,-2.0782 0.9218,-0.7031 2.7656,-0.7031 h 1.8906 v -0.1406 q 0,-0.9219 -0.6094,-1.4375 -0.6093,-0.5156 -1.7187,-0.5156 -0.7031,0 -1.375,0.1718 -0.6719,0.1719 -1.2813,0.5157 v -1.25 q 0.7344,-0.2813 1.4375,-0.4297 0.7032,-0.1484 1.3594,-0.1484 1.7813,0 2.6563,0.9218 0.875,0.9219 0.875,2.7969 z m 3.9031,-5.8437 v 2.3281 h 2.7656 v 1.0469 h -2.7656 v 4.4531 q 0,1 0.2734,1.289 0.2735,0.2891 1.1172,0.2891 h 1.375 V -4 h -1.375 q -1.5625,0 -2.1562,-0.5859 -0.5938,-0.586 -0.5938,-2.1172 v -4.4531 h -0.9844 v -1.0469 h 0.9844 v -2.3281 z m 11.4341,6.0937 v 0.6563 h -6.2032 q 0.0938,1.3906 0.8438,2.1171 0.75,0.7266 2.0781,0.7266 0.7813,0 1.5078,-0.1875 0.7266,-0.1875 1.4453,-0.5625 v 1.2656 q -0.7187,0.3125 -1.4843,0.4766 -0.7657,0.1641 -1.5469,0.1641 -1.9531,0 -3.1016,-1.1485 -1.1484,-1.1484 -1.1484,-3.0859 0,-2.0156 1.0859,-3.2032 1.086,-1.1874 2.9297,-1.1874 1.6563,0 2.625,1.0703 0.9688,1.0703 0.9688,2.8984 z m -1.3594,-0.3906 q -0.0156,-1.1094 -0.6172,-1.7735 -0.6016,-0.664 -1.6016,-0.664 -1.125,0 -1.8047,0.6406 -0.6796,0.6406 -0.7734,1.7969 z m 11.2539,-6.5469 q -0.9843,1.6719 -1.4609,3.3203 -0.4766,1.6485 -0.4766,3.3516 0,1.6875 0.4766,3.3437 0.4766,1.6563 1.4609,3.3438 h -1.1718 q -1.1094,-1.7344 -1.6485,-3.3906 -0.539,-1.6563 -0.539,-3.2969 0,-1.6407 0.539,-3.2969 0.5391,-1.6562 1.6485,-3.375 z m 11.968,6.5625 q -0.6407,0 -1,0.5391 -0.3594,0.539 -0.3594,1.5078 0,0.9531 0.3594,1.5 0.3593,0.5468 1,0.5468 0.625,0 0.9843,-0.5468 0.3594,-0.5469 0.3594,-1.5 0,-0.9532 -0.3594,-1.5 -0.3593,-0.5469 -0.9843,-0.5469 z m 0,-0.9375 q 1.1562,0 1.8359,0.8125 0.6797,0.8125 0.6797,2.1719 0,1.375 -0.6797,2.1797 -0.6797,0.8047 -1.8359,0.8047 -1.1719,0 -1.8516,-0.8047 -0.6797,-0.8047 -0.6797,-2.1797 0,-1.375 0.6797,-2.1797 0.6797,-0.8047 1.8516,-0.8047 z m -7.5625,-4.4531 q -0.625,0 -0.9844,0.5469 -0.3594,0.5468 -0.3594,1.5 0,0.9687 0.3516,1.5078 0.3515,0.539 0.9922,0.539 0.6406,0 1,-0.539 0.3593,-0.5391 0.3593,-1.5078 0,-0.9532 -0.3593,-1.5 -0.3594,-0.5469 -1,-0.5469 z m 6.625,-0.9375 h 1.1718 l -6.8437,11.3594 h -1.1719 z m -6.625,0 q 1.1562,0 1.8437,0.8047 0.6875,0.8047 0.6875,2.1797 0,1.375 -0.6797,2.1796 -0.6797,0.8047 -1.8515,0.8047 -1.1563,0 -1.836,-0.8047 -0.6797,-0.8046 -0.6797,-2.1796 0,-1.3594 0.6797,-2.1719 0.6797,-0.8125 1.836,-0.8125 z m 11.7856,-0.2344 h 1.1719 q 1.0938,1.7188 1.6406,3.375 0.5469,1.6562 0.5469,3.2969 0,1.6406 -0.5469,3.2969 -0.5468,1.6562 -1.6406,3.3906 h -1.1719 q 0.9688,-1.6875 1.4532,-3.3438 0.4843,-1.6562 0.4843,-3.3437 0,-1.7031 -0.4843,-3.3516 -0.4844,-1.6484 -1.4532,-3.3203 z"
         id="path439"
         inkscape:connector-curvature="0" />
    </g>
    <g
       style="color-interpolation:linearRGB;stroke-width:0.66670001;stroke-linecap:butt;stroke-linejoin:round;color-rendering:optimizeQuality;image-rendering:optimizeQuality;text-rendering:geometricPrecision"
       id="g447">
      <line
         y2="290.43539"
         style="fill:none"
         x1="431.05731"
         x2="407.40979"
         y1="259.18619"
         id="line443" />
      <line
         x1="156.6024"
         x2="240.2049"
         y1="267.77121"
         style="fill:none;stroke-linecap:round"
         y2="229.5518"
         id="line445" />
    </g>
    <g
       style="color-interpolation:sRGB;fill:#f7f41b;stroke:#f7f41b;color-rendering:optimizeSpeed;image-rendering:optimizeSpeed;shape-rendering:crispEdges;text-rendering:optimizeSpeed"
       id="g451">
      <path
         style="stroke:none"
         d="m 323.8073,282.2271 -83.6024,-52.6753 23.6475,-56.1693 z"
         id="path449"
         inkscape:connector-curvature="0" />
    </g>
    <g
       style="color-interpolation:linearRGB;stroke-width:0.66670001;stroke-linecap:round;stroke-linejoin:round;color-rendering:optimizeQuality;image-rendering:optimizeQuality;text-rendering:geometricPrecision"
       id="g457">
      <line
         y2="282.22711"
         style="fill:none"
         x1="240.2049"
         x2="323.80731"
         y1="229.5518"
         id="line453" />
      <line
         x1="323.80731"
         x2="407.40979"
         y1="282.22711"
         style="fill:none;stroke-linecap:butt"
         y2="290.43539"
         id="line455" />
    </g>
    <g
       transform="translate(59.3409,206.9523)"
       style="font-size:13.33329964px;font-family:SansSerif;color-interpolation:linearRGB;fill:#262626;stroke:#262626;color-rendering:optimizeQuality;image-rendering:optimizeQuality;text-rendering:geometricPrecision"
       id="g461">
      <path
         style="stroke:none"
         d="m -14.5,3.4219 h 4.4688 V 4.5 h -6.0157 V 3.4219 q 0.7344,-0.75 1.9922,-2.0235 1.2578,-1.2734 1.5859,-1.6484 0.6094,-0.6875 0.8516,-1.1719 0.2422,-0.4843 0.2422,-0.9375 0,-0.7656 -0.5234,-1.2344 -0.5235,-0.4687 -1.3828,-0.4687 -0.6094,0 -1.2735,0.2031 -0.6641,0.2032 -1.4297,0.6406 v -1.2968 q 0.7813,-0.3125 1.4532,-0.4766 0.6718,-0.164 1.2187,-0.164 1.4844,0 2.3594,0.7421 0.875,0.7422 0.875,1.9766 0,0.5781 -0.2188,1.1016 -0.2187,0.5234 -0.7969,1.2265 -0.1562,0.1875 -1.0078,1.0703 -0.8515,0.8829 -2.3984,2.461 z m 7.5792,0 h 2.0937 v -7.2344 l -2.2812,0.4531 v -1.1562 l 2.2656,-0.4688 h 1.2969 v 8.4063 h 2.0937 V 4.5 h -5.4687 z"
         id="path459"
         inkscape:connector-curvature="0" />
    </g>
    <g
       style="color-interpolation:linearRGB;fill:#262626;stroke:#262626;stroke-width:0.66670001;stroke-linecap:round;stroke-linejoin:round;color-rendering:optimizeQuality;image-rendering:optimizeQuality;text-rendering:geometricPrecision"
       id="g467">
      <line
         y2="207.5578"
         style="fill:none"
         x1="73"
         x2="64.639801"
         y1="208.51311"
         id="line463" />
      <line
         x1="263.85239"
         x2="240.2049"
         y1="173.38251"
         style="fill:none;stroke:#000000;stroke-linecap:butt"
         y2="229.5518"
         id="line465" />
    </g>
    <g
       transform="translate(59.3409,164.5269)"
       style="font-size:13.33329964px;font-family:SansSerif;color-interpolation:linearRGB;fill:#262626;stroke:#262626;color-rendering:optimizeQuality;image-rendering:optimizeQuality;text-rendering:geometricPrecision"
       id="g471">
      <path
         style="stroke:none"
         d="m -14.5,3.4219 h 4.4688 V 4.5 h -6.0157 V 3.4219 q 0.7344,-0.75 1.9922,-2.0235 1.2578,-1.2734 1.5859,-1.6484 0.6094,-0.6875 0.8516,-1.1719 0.2422,-0.4843 0.2422,-0.9375 0,-0.7656 -0.5234,-1.2344 -0.5235,-0.4687 -1.3828,-0.4687 -0.6094,0 -1.2735,0.2031 -0.6641,0.2032 -1.4297,0.6406 v -1.2968 q 0.7813,-0.3125 1.4532,-0.4766 0.6718,-0.164 1.2187,-0.164 1.4844,0 2.3594,0.7421 0.875,0.7422 0.875,1.9766 0,0.5781 -0.2188,1.1016 -0.2187,0.5234 -0.7969,1.2265 -0.1562,0.1875 -1.0078,1.0703 -0.8515,0.8829 -2.3984,2.461 z m 8.4698,0 h 4.4688 V 4.5 H -7.5771 V 3.4219 q 0.7344,-0.75 1.9922,-2.0235 1.2578,-1.2734 1.586,-1.6484 0.6093,-0.6875 0.8515,-1.1719 0.2422,-0.4843 0.2422,-0.9375 0,-0.7656 -0.5234,-1.2344 -0.5235,-0.4687 -1.3828,-0.4687 -0.6094,0 -1.2735,0.2031 -0.664,0.2032 -1.4297,0.6406 v -1.2968 q 0.7813,-0.3125 1.4532,-0.4766 0.6718,-0.164 1.2187,-0.164 1.4844,0 2.3594,0.7421 0.875,0.7422 0.875,1.9766 0,0.5781 -0.2188,1.1016 -0.2187,0.5234 -0.7968,1.2265 -0.1563,0.1875 -1.0078,1.0703 -0.8516,0.8829 -2.3985,2.461 z"
         id="path469"
         inkscape:connector-curvature="0" />
    </g>
    <g
       style="color-interpolation:linearRGB;fill:#262626;stroke:#262626;stroke-width:0.66670001;stroke-linecap:butt;stroke-linejoin:round;color-rendering:optimizeQuality;image-rendering:optimizeQuality;text-rendering:geometricPrecision"
       id="g475">
      <line
         y2="165.13229"
         style="fill:none"
         x1="73"
         x2="64.639801"
         y1="166.0876"
         id="line473" />
    </g>
  </g>
</svg>
