<?xml version="1.0" encoding="UTF-8" standalone="no"?>
<svg
   xmlns:dc="http://purl.org/dc/elements/1.1/"
   xmlns:cc="http://creativecommons.org/ns#"
   xmlns:rdf="http://www.w3.org/1999/02/22-rdf-syntax-ns#"
   xmlns:svg="http://www.w3.org/2000/svg"
   xmlns="http://www.w3.org/2000/svg"
   xmlns:sodipodi="http://sodipodi.sourceforge.net/DTD/sodipodi-0.dtd"
   xmlns:inkscape="http://www.inkscape.org/namespaces/inkscape"
   style="font-style:normal;font-weight:normal;font-size:12px;font-family:Dialog;color-interpolation:auto;fill:#000000;fill-opacity:1;stroke:#000000;stroke-width:1;stroke-linecap:square;stroke-linejoin:miter;stroke-miterlimit:10;stroke-dasharray:none;stroke-dashoffset:0;stroke-opacity:1;color-rendering:auto;image-rendering:auto;shape-rendering:auto;text-rendering:auto"
   width="524.13062"
   height="390.29681"
   version="1.1"
   id="svg611"
   sodipodi:docname="energy_05.svg"
   inkscape:version="0.92.4 (f8dce91, 2019-08-02)">
  <metadata
     id="metadata615">
    <rdf:RDF>
      <cc:Work
         rdf:about="">
        <dc:format>image/svg+xml</dc:format>
        <dc:type
           rdf:resource="http://purl.org/dc/dcmitype/StillImage" />
        <dc:title></dc:title>
      </cc:Work>
    </rdf:RDF>
  </metadata>
  <sodipodi:namedview
     pagecolor="#ffffff"
     bordercolor="#666666"
     borderopacity="1"
     objecttolerance="10"
     gridtolerance="10"
     guidetolerance="10"
     inkscape:pageopacity="0"
     inkscape:pageshadow="2"
     inkscape:window-width="759"
     inkscape:window-height="480"
     id="namedview613"
     showgrid="false"
     fit-margin-top="0"
     fit-margin-left="0"
     fit-margin-right="0"
     fit-margin-bottom="0"
     inkscape:zoom="0.56190476"
     inkscape:cx="183.89117"
     inkscape:cy="192.9062"
     inkscape:window-x="67"
     inkscape:window-y="27"
     inkscape:window-maximized="0"
     inkscape:current-layer="g609" />
  <!--Generated by the Batik Graphics2D SVG Generator-->
  <defs
     id="genericDefs" />
  <g
     id="g609"
     transform="translate(-16.4319,-12.6094)">
    <defs
       id="defs1">
      <clipPath
         clipPathUnits="userSpaceOnUse"
         id="clipPath1">
        <path
           d="M 0,0 H 560 V 420 H 0 Z"
           id="path3"
           inkscape:connector-curvature="0" />
      </clipPath>
    </defs>
    <g
       style="color-interpolation:linearRGB;fill:#262626;fill-opacity:0.14900004;stroke:#262626;stroke-width:0.66670001;stroke-linecap:butt;stroke-linejoin:round;stroke-opacity:0.14900004;color-rendering:optimizeQuality;image-rendering:optimizeQuality;text-rendering:geometricPrecision"
       id="g57">
      <line
         y2="241.911"
         style="fill:none"
         x1="197.0891"
         x2="507"
         y1="189.02229"
         id="line17" />
      <line
         y2="274.93329"
         style="fill:none"
         x1="166.0668"
         x2="475.97769"
         y1="222.04449"
         id="line19" />
      <line
         y2="307.95551"
         style="fill:none"
         x1="135.0446"
         x2="444.95541"
         y1="255.0668"
         id="line21" />
      <line
         y2="340.97781"
         style="fill:none"
         x1="104.0223"
         x2="413.9332"
         y1="288.08899"
         id="line23" />
      <line
         y2="374"
         style="fill:none"
         x1="73"
         x2="382.91089"
         y1="321.11121"
         id="line25" />
      <line
         y2="189.02229"
         style="fill:none"
         x1="197.0891"
         x2="197.0891"
         y1="31"
         id="line27" />
      <line
         y2="222.04449"
         style="fill:none"
         x1="166.0668"
         x2="166.0668"
         y1="64.022202"
         id="line29" />
      <line
         y2="255.0668"
         style="fill:none"
         x1="135.0446"
         x2="135.0446"
         y1="97.044502"
         id="line31" />
      <line
         y2="288.08899"
         style="fill:none"
         x1="104.0223"
         x2="104.0223"
         y1="130.0667"
         id="line33" />
      <line
         y2="321.11121"
         style="fill:none"
         x1="73"
         x2="73"
         y1="163.089"
         id="line35" />
      <line
         y2="189.02229"
         style="fill:none"
         x1="73"
         x2="197.0891"
         y1="321.11121"
         id="line37" />
      <line
         y2="202.24451"
         style="fill:none"
         x1="150.47771"
         x2="274.5668"
         y1="334.3334"
         id="line39" />
      <line
         y2="215.46671"
         style="fill:none"
         x1="227.9554"
         x2="352.04459"
         y1="347.5556"
         id="line41" />
      <line
         y2="228.6889"
         style="fill:none"
         x1="305.4332"
         x2="429.52231"
         y1="360.7778"
         id="line43" />
      <line
         y2="241.911"
         style="fill:none"
         x1="382.91089"
         x2="507"
         y1="374"
         id="line45" />
      <line
         y2="31"
         style="fill:none"
         x1="197.0891"
         x2="197.0891"
         y1="189.02229"
         id="line47" />
      <line
         y2="44.222198"
         style="fill:none"
         x1="274.5668"
         x2="274.5668"
         y1="202.24451"
         id="line49" />
      <line
         y2="57.444401"
         style="fill:none"
         x1="352.04459"
         x2="352.04459"
         y1="215.46671"
         id="line51" />
      <line
         y2="70.666603"
         style="fill:none"
         x1="429.52231"
         x2="429.52231"
         y1="228.6889"
         id="line53" />
      <line
         y2="83.888702"
         style="fill:none"
         x1="507"
         x2="507"
         y1="241.911"
         id="line55" />
    </g>
    <g
       style="color-interpolation:linearRGB;fill:#1a1a1a;fill-opacity:0.25100002;stroke:#1a1a1a;stroke-width:0.66670001;stroke-linecap:butt;stroke-linejoin:bevel;stroke-miterlimit:1;stroke-dasharray:1, 3;stroke-opacity:0.25100002;color-rendering:optimizeQuality;image-rendering:optimizeQuality;text-rendering:geometricPrecision"
       id="g159">
      <line
         y2="310.10089"
         style="fill:none"
         x1="197.0891"
         x2="73"
         y1="178.01199"
         id="line59" />
      <line
         y2="301.12781"
         style="fill:none"
         x1="197.0891"
         x2="73"
         y1="169.0388"
         id="line61" />
      <line
         y2="294.7612"
         style="fill:none"
         x1="197.0891"
         x2="73"
         y1="162.6723"
         id="line63" />
      <line
         y2="289.82291"
         style="fill:none"
         x1="197.0891"
         x2="73"
         y1="157.73399"
         id="line65" />
      <line
         y2="285.78809"
         style="fill:none"
         x1="197.0891"
         x2="73"
         y1="153.6991"
         id="line67" />
      <line
         y2="282.37659"
         style="fill:none"
         x1="197.0891"
         x2="73"
         y1="150.2877"
         id="line69" />
      <line
         y2="279.42151"
         style="fill:none"
         x1="197.0891"
         x2="73"
         y1="147.3325"
         id="line71" />
      <line
         y2="276.81491"
         style="fill:none"
         x1="197.0891"
         x2="73"
         y1="144.72591"
         id="line73" />
      <line
         y2="259.14349"
         style="fill:none"
         x1="197.0891"
         x2="73"
         y1="127.0545"
         id="line75" />
      <line
         y2="250.1703"
         style="fill:none"
         x1="197.0891"
         x2="73"
         y1="118.0814"
         id="line77" />
      <line
         y2="243.8038"
         style="fill:none"
         x1="197.0891"
         x2="73"
         y1="111.7148"
         id="line79" />
      <line
         y2="238.86549"
         style="fill:none"
         x1="197.0891"
         x2="73"
         y1="106.7765"
         id="line81" />
      <line
         y2="234.8306"
         style="fill:none"
         x1="197.0891"
         x2="73"
         y1="102.7417"
         id="line83" />
      <line
         y2="231.4192"
         style="fill:none"
         x1="197.0891"
         x2="73"
         y1="99.3302"
         id="line85" />
      <line
         y2="228.4641"
         style="fill:none"
         x1="197.0891"
         x2="73"
         y1="96.375099"
         id="line87" />
      <line
         y2="225.8575"
         style="fill:none"
         x1="197.0891"
         x2="73"
         y1="93.768501"
         id="line89" />
      <line
         y2="223.5258"
         style="fill:none"
         x1="197.0891"
         x2="73"
         y1="91.436798"
         id="line91" />
      <line
         y2="208.1861"
         style="fill:none"
         x1="197.0891"
         x2="73"
         y1="76.097099"
         id="line93" />
      <line
         y2="199.21291"
         style="fill:none"
         x1="197.0891"
         x2="73"
         y1="67.123901"
         id="line95" />
      <line
         y2="192.8463"
         style="fill:none"
         x1="197.0891"
         x2="73"
         y1="60.757401"
         id="line97" />
      <line
         y2="187.908"
         style="fill:none"
         x1="197.0891"
         x2="73"
         y1="55.819099"
         id="line99" />
      <line
         y2="183.8732"
         style="fill:none"
         x1="197.0891"
         x2="73"
         y1="51.784199"
         id="line101" />
      <line
         y2="180.4617"
         style="fill:none"
         x1="197.0891"
         x2="73"
         y1="48.372799"
         id="line103" />
      <line
         y2="177.50661"
         style="fill:none"
         x1="197.0891"
         x2="73"
         y1="45.417702"
         id="line105" />
      <line
         y2="174.89999"
         style="fill:none"
         x1="197.0891"
         x2="73"
         y1="42.811001"
         id="line107" />
      <line
         y2="178.01199"
         style="fill:none"
         x1="507"
         x2="197.0891"
         y1="230.9007"
         id="line109" />
      <line
         y2="169.0388"
         style="fill:none"
         x1="507"
         x2="197.0891"
         y1="221.9276"
         id="line111" />
      <line
         y2="162.6723"
         style="fill:none"
         x1="507"
         x2="197.0891"
         y1="215.561"
         id="line113" />
      <line
         y2="157.73399"
         style="fill:none"
         x1="507"
         x2="197.0891"
         y1="210.6227"
         id="line115" />
      <line
         y2="153.6991"
         style="fill:none"
         x1="507"
         x2="197.0891"
         y1="206.5878"
         id="line117" />
      <line
         y2="150.2877"
         style="fill:none"
         x1="507"
         x2="197.0891"
         y1="203.17641"
         id="line119" />
      <line
         y2="147.3325"
         style="fill:none"
         x1="507"
         x2="197.0891"
         y1="200.2213"
         id="line121" />
      <line
         y2="144.72591"
         style="fill:none"
         x1="507"
         x2="197.0891"
         y1="197.6147"
         id="line123" />
      <line
         y2="127.0545"
         style="fill:none"
         x1="507"
         x2="197.0891"
         y1="179.9433"
         id="line125" />
      <line
         y2="118.0814"
         style="fill:none"
         x1="507"
         x2="197.0891"
         y1="170.97009"
         id="line127" />
      <line
         y2="111.7148"
         style="fill:none"
         x1="507"
         x2="197.0891"
         y1="164.60361"
         id="line129" />
      <line
         y2="106.7765"
         style="fill:none"
         x1="507"
         x2="197.0891"
         y1="159.6653"
         id="line131" />
      <line
         y2="102.7417"
         style="fill:none"
         x1="507"
         x2="197.0891"
         y1="155.6304"
         id="line133" />
      <line
         y2="99.3302"
         style="fill:none"
         x1="507"
         x2="197.0891"
         y1="152.21899"
         id="line135" />
      <line
         y2="96.375099"
         style="fill:none"
         x1="507"
         x2="197.0891"
         y1="149.26379"
         id="line137" />
      <line
         y2="93.768501"
         style="fill:none"
         x1="507"
         x2="197.0891"
         y1="146.6572"
         id="line139" />
      <line
         y2="91.436798"
         style="fill:none"
         x1="507"
         x2="197.0891"
         y1="144.32561"
         id="line141" />
      <line
         y2="76.097099"
         style="fill:none"
         x1="507"
         x2="197.0891"
         y1="128.98579"
         id="line143" />
      <line
         y2="67.123901"
         style="fill:none"
         x1="507"
         x2="197.0891"
         y1="120.0127"
         id="line145" />
      <line
         y2="60.757401"
         style="fill:none"
         x1="507"
         x2="197.0891"
         y1="113.6461"
         id="line147" />
      <line
         y2="55.819099"
         style="fill:none"
         x1="507"
         x2="197.0891"
         y1="108.7078"
         id="line149" />
      <line
         y2="51.784199"
         style="fill:none"
         x1="507"
         x2="197.0891"
         y1="104.673"
         id="line151" />
      <line
         y2="48.372799"
         style="fill:none"
         x1="507"
         x2="197.0891"
         y1="101.2615"
         id="line153" />
      <line
         y2="45.417702"
         style="fill:none"
         x1="507"
         x2="197.0891"
         y1="98.306396"
         id="line155" />
      <line
         y2="42.811001"
         style="fill:none"
         x1="507"
         x2="197.0891"
         y1="95.699799"
         id="line157" />
    </g>
    <g
       style="color-interpolation:linearRGB;fill:#262626;fill-opacity:0.14900004;stroke:#262626;stroke-width:0.66670001;stroke-linecap:butt;stroke-linejoin:round;stroke-opacity:0.14900004;color-rendering:optimizeQuality;image-rendering:optimizeQuality;text-rendering:geometricPrecision"
       id="g169">
      <line
         y2="274.48318"
         style="fill:none"
         x1="197.0891"
         x2="73"
         y1="142.3943"
         id="line161" />
      <line
         y2="172.5683"
         style="fill:none"
         x1="197.0891"
         x2="73"
         y1="40.479401"
         id="line163" />
      <line
         y2="142.3943"
         style="fill:none"
         x1="507"
         x2="197.0891"
         y1="195.283"
         id="line165" />
      <line
         y2="40.479401"
         style="fill:none"
         x1="507"
         x2="197.0891"
         y1="93.368103"
         id="line167" />
    </g>
    <g
       style="color-interpolation:sRGB;fill:#3d26a8;stroke:#3d26a8;color-rendering:optimizeSpeed;image-rendering:optimizeSpeed;shape-rendering:crispEdges;text-rendering:optimizeSpeed"
       id="g173">
      <path
         style="stroke:none"
         d="m 197.0891,183.0942 77.4777,12.7473 -31.0222,32.2668 -77.4778,-15.3179 z"
         id="path171"
         inkscape:connector-curvature="0" />
    </g>
    <g
       style="color-interpolation:linearRGB;stroke-width:0.66670001;stroke-linecap:butt;stroke-linejoin:round;color-rendering:optimizeQuality;image-rendering:optimizeQuality;text-rendering:geometricPrecision"
       id="g179">
      <line
         y2="212.79041"
         style="fill:none"
         x1="197.0891"
         x2="166.0668"
         y1="183.09419"
         id="line175" />
      <line
         y2="195.84151"
         style="fill:none"
         x1="197.0891"
         x2="274.5668"
         y1="183.09419"
         id="line177" />
    </g>
    <g
       style="color-interpolation:sRGB;fill:#3d26a8;stroke:#3d26a8;color-rendering:optimizeSpeed;image-rendering:optimizeSpeed;shape-rendering:crispEdges;text-rendering:optimizeSpeed"
       id="g183">
      <path
         style="stroke:none"
         d="m 321.0223,198.5147 -77.4777,29.5936 31.0222,-32.2668 z"
         id="path181"
         inkscape:connector-curvature="0" />
    </g>
    <g
       style="color-interpolation:linearRGB;stroke-width:0.66670001;stroke-linecap:butt;stroke-linejoin:round;color-rendering:optimizeQuality;image-rendering:optimizeQuality;text-rendering:geometricPrecision"
       id="g187">
      <line
         y2="228.10831"
         style="fill:none"
         x1="274.5668"
         x2="243.5446"
         y1="195.84151"
         id="line185" />
    </g>
    <g
       style="color-interpolation:sRGB;fill:#3d26a8;stroke:#3d26a8;color-rendering:optimizeSpeed;image-rendering:optimizeSpeed;shape-rendering:crispEdges;text-rendering:optimizeSpeed"
       id="g191">
      <path
         style="stroke:none"
         d="m 274.5668,195.8415 77.4778,-35.2473 -31.0223,37.9205 z"
         id="path189"
         inkscape:connector-curvature="0" />
    </g>
    <g
       style="color-interpolation:linearRGB;stroke-width:0.66670001;stroke-linecap:round;stroke-linejoin:round;color-rendering:optimizeQuality;image-rendering:optimizeQuality;text-rendering:geometricPrecision"
       id="g195">
      <line
         y2="160.59419"
         style="fill:none"
         x1="274.5668"
         x2="352.04459"
         y1="195.84151"
         id="line193" />
    </g>
    <g
       style="color-interpolation:sRGB;fill:#3d26a8;stroke:#3d26a8;color-rendering:optimizeSpeed;image-rendering:optimizeSpeed;shape-rendering:crispEdges;text-rendering:optimizeSpeed"
       id="g199">
      <path
         style="stroke:none"
         d="m 212.5223,264.1159 -77.4777,-21.8052 31.0222,-29.5203 z"
         id="path197"
         inkscape:connector-curvature="0" />
    </g>
    <g
       style="color-interpolation:linearRGB;stroke-width:0.66670001;stroke-linecap:round;stroke-linejoin:round;color-rendering:optimizeQuality;image-rendering:optimizeQuality;text-rendering:geometricPrecision"
       id="g203">
      <line
         y2="242.3107"
         style="fill:none"
         x1="166.0668"
         x2="135.0446"
         y1="212.79041"
         id="line201" />
    </g>
    <g
       style="color-interpolation:sRGB;fill:#3d26a8;stroke:#3d26a8;color-rendering:optimizeSpeed;image-rendering:optimizeSpeed;shape-rendering:crispEdges;text-rendering:optimizeSpeed"
       id="g207">
      <path
         style="stroke:none"
         d="m 166.0668,212.7904 77.4778,15.3179 -31.0223,36.0076 z"
         id="path205"
         inkscape:connector-curvature="0" />
    </g>
    <g
       style="color-interpolation:linearRGB;stroke-width:0.66670001;stroke-linecap:round;stroke-linejoin:round;color-rendering:optimizeQuality;image-rendering:optimizeQuality;text-rendering:geometricPrecision"
       id="g211">
      <line
         y2="228.10831"
         style="fill:none"
         x1="166.0668"
         x2="243.5446"
         y1="212.79041"
         id="line209" />
    </g>
    <g
       style="color-interpolation:sRGB;fill:#3d26a8;stroke:#3d26a8;color-rendering:optimizeSpeed;image-rendering:optimizeSpeed;shape-rendering:crispEdges;text-rendering:optimizeSpeed"
       id="g215">
      <path
         style="stroke:none"
         d="m 290,245.0901 -77.4777,19.0258 31.0223,-36.0076 z"
         id="path213"
         inkscape:connector-curvature="0" />
    </g>
    <g
       style="color-interpolation:linearRGB;stroke-width:0.66670001;stroke-linecap:round;stroke-linejoin:round;color-rendering:optimizeQuality;image-rendering:optimizeQuality;text-rendering:geometricPrecision"
       id="g219">
      <line
         y2="264.11591"
         style="fill:none"
         x1="243.5446"
         x2="212.52229"
         y1="228.10831"
         id="line217" />
    </g>
    <g
       style="color-interpolation:sRGB;fill:#3d26a8;stroke:#3d26a8;color-rendering:optimizeSpeed;image-rendering:optimizeSpeed;shape-rendering:crispEdges;text-rendering:optimizeSpeed"
       id="g223">
      <path
         style="stroke:none"
         d="M 243.5446,228.1083 321.0223,198.5147 290,245.0901 Z"
         id="path221"
         inkscape:connector-curvature="0" />
    </g>
    <g
       style="color-interpolation:linearRGB;stroke-width:0.66670001;stroke-linecap:round;stroke-linejoin:round;color-rendering:optimizeQuality;image-rendering:optimizeQuality;text-rendering:geometricPrecision"
       id="g231">
      <line
         y2="198.51469"
         style="fill:none"
         x1="243.5446"
         x2="321.02231"
         y1="228.10831"
         id="line225" />
      <line
         x1="507"
         x2="382.91089"
         y1="241.911"
         style="fill:none;stroke:#262626;stroke-linecap:square"
         y2="374"
         id="line227" />
      <line
         x1="507"
         x2="514.74768"
         y1="241.911"
         style="fill:none;stroke:#262626;stroke-linecap:square"
         y2="243.23331"
         id="line229" />
    </g>
    <g
       transform="translate(520.0051,244.1305)"
       style="font-size:13.33329964px;font-family:SansSerif;color-interpolation:linearRGB;fill:#262626;stroke:#262626;color-rendering:optimizeQuality;image-rendering:optimizeQuality;text-rendering:geometricPrecision"
       id="g235">
      <path
         style="stroke:none"
         d="m 4.125,4.3594 q -0.9844,0 -1.4844,0.9765 -0.5,0.9766 -0.5,2.9297 0,1.9532 0.5,2.9297 0.5,0.9766 1.4844,0.9766 1,0 1.5,-0.9766 0.5,-0.9765 0.5,-2.9297 0,-1.9531 -0.5,-2.9297 -0.5,-0.9765 -1.5,-0.9765 z m 0,-1.0156 q 1.5938,0 2.4375,1.2656 0.8437,1.2656 0.8437,3.6562 0,2.3906 -0.8437,3.6563 -0.8437,1.2656 -2.4375,1.2656 -1.5781,0 -2.4219,-1.2656 Q 0.8594,10.6562 0.8594,8.2656 0.8594,5.875 1.7031,4.6094 2.5469,3.3438 4.125,3.3438 Z m 5.7354,8.0468 h 1.3438 V 13 H 9.8604 Z M 16.9984,7.75 q -0.875,0 -1.375,0.5938 -0.5,0.5937 -0.5,1.6093 0,1.0313 0.5,1.625 0.5,0.5938 1.375,0.5938 0.8593,0 1.3593,-0.5938 0.5,-0.5937 0.5,-1.625 0,-1.0156 -0.5,-1.6093 Q 17.8577,7.75 16.9984,7.75 Z M 19.5452,3.7344 V 4.9062 Q 19.0609,4.6719 18.5687,4.5547 18.0765,4.4375 17.5921,4.4375 q -1.2656,0 -1.9375,0.8516 -0.6719,0.8515 -0.7656,2.5859 0.375,-0.5469 0.9375,-0.8438 0.5625,-0.2968 1.25,-0.2968 1.4219,0 2.25,0.8672 0.8281,0.8672 0.8281,2.3515 0,1.4688 -0.8672,2.3516 -0.8672,0.8828 -2.289,0.8828 -1.6563,0 -2.5235,-1.2656 -0.8672,-1.2657 -0.8672,-3.6563 0,-2.2344 1.0703,-3.5781 1.0704,-1.3437 2.8672,-1.3437 0.4688,0 0.961,0.1015 0.4922,0.1016 1.039,0.2891 z"
         id="path233"
         inkscape:connector-curvature="0" />
    </g>
    <g
       style="color-interpolation:sRGB;fill:#3d26a8;stroke:#3d26a8;color-rendering:optimizeSpeed;image-rendering:optimizeSpeed;shape-rendering:crispEdges;text-rendering:optimizeSpeed"
       id="g239">
      <path
         style="stroke:none"
         d="M 352.0446,160.5942 429.5223,119.1689 398.5,165.6783 Z"
         id="path237"
         inkscape:connector-curvature="0" />
    </g>
    <g
       style="color-interpolation:linearRGB;stroke-width:0.66670001;stroke-linecap:round;stroke-linejoin:round;color-rendering:optimizeQuality;image-rendering:optimizeQuality;text-rendering:geometricPrecision"
       id="g243">
      <line
         y2="119.1689"
         style="fill:none"
         x1="352.04459"
         x2="429.52231"
         y1="160.59419"
         id="line241" />
    </g>
    <g
       style="color-interpolation:sRGB;fill:#3d26a8;stroke:#3d26a8;color-rendering:optimizeSpeed;image-rendering:optimizeSpeed;shape-rendering:crispEdges;text-rendering:optimizeSpeed"
       id="g247">
      <path
         style="stroke:none"
         d="m 398.5,165.6783 -77.4777,32.8364 31.0223,-37.9205 z"
         id="path245"
         inkscape:connector-curvature="0" />
    </g>
    <g
       style="color-interpolation:linearRGB;stroke-width:0.66670001;stroke-linecap:round;stroke-linejoin:round;color-rendering:optimizeQuality;image-rendering:optimizeQuality;text-rendering:geometricPrecision"
       id="g251">
      <line
         y2="198.51469"
         style="fill:none"
         x1="352.04459"
         x2="321.02231"
         y1="160.59419"
         id="line249" />
    </g>
    <g
       style="color-interpolation:sRGB;fill:#3d26a8;stroke:#3d26a8;color-rendering:optimizeSpeed;image-rendering:optimizeSpeed;shape-rendering:crispEdges;text-rendering:optimizeSpeed"
       id="g255">
      <path
         style="stroke:none"
         d="M 135.0446,242.3107 212.5223,264.1159 181.5,298.9482 Z"
         id="path253"
         inkscape:connector-curvature="0" />
    </g>
    <g
       style="color-interpolation:linearRGB;stroke-width:0.66670001;stroke-linecap:round;stroke-linejoin:round;color-rendering:optimizeQuality;image-rendering:optimizeQuality;text-rendering:geometricPrecision"
       id="g259">
      <line
         y2="264.11591"
         style="fill:none"
         x1="135.0446"
         x2="212.52229"
         y1="242.3107"
         id="line257" />
    </g>
    <g
       style="color-interpolation:sRGB;fill:#3d26a8;stroke:#3d26a8;color-rendering:optimizeSpeed;image-rendering:optimizeSpeed;shape-rendering:crispEdges;text-rendering:optimizeSpeed"
       id="g263">
      <path
         style="stroke:none"
         d="m 181.5,298.9482 -77.4777,-29.9169 31.0223,-26.7206 z"
         id="path261"
         inkscape:connector-curvature="0" />
    </g>
    <g
       style="color-interpolation:linearRGB;stroke-width:0.66670001;stroke-linecap:round;stroke-linejoin:round;color-rendering:optimizeQuality;image-rendering:optimizeQuality;text-rendering:geometricPrecision"
       id="g267">
      <line
         y2="269.03131"
         style="fill:none"
         x1="135.0446"
         x2="104.0223"
         y1="242.3107"
         id="line265" />
    </g>
    <g
       style="color-interpolation:sRGB;fill:#3d26a8;stroke:#3d26a8;color-rendering:optimizeSpeed;image-rendering:optimizeSpeed;shape-rendering:crispEdges;text-rendering:optimizeSpeed"
       id="g271">
      <path
         style="stroke:none"
         d="M 212.5223,264.1159 290,245.0901 258.9777,274.5385 181.5,298.9482 Z"
         id="path269"
         inkscape:connector-curvature="0" />
    </g>
    <g
       style="color-interpolation:linearRGB;stroke-width:0.66670001;stroke-linecap:round;stroke-linejoin:round;color-rendering:optimizeQuality;image-rendering:optimizeQuality;text-rendering:geometricPrecision"
       id="g279">
      <line
         y2="298.94821"
         style="fill:none"
         x1="212.52229"
         x2="181.5"
         y1="264.11591"
         id="line273" />
      <line
         y2="245.0901"
         style="fill:none"
         x1="212.52229"
         x2="290"
         y1="264.11591"
         id="line275" />
      <line
         x1="475.97769"
         x2="483.72549"
         y1="274.93329"
         style="fill:none;stroke:#262626"
         y2="276.25549"
         id="line277" />
    </g>
    <g
       transform="translate(488.9828,277.1527)"
       style="font-size:13.33329964px;font-family:SansSerif;color-interpolation:linearRGB;fill:#262626;stroke:#262626;color-rendering:optimizeQuality;image-rendering:optimizeQuality;text-rendering:geometricPrecision"
       id="g283">
      <path
         style="stroke:none"
         d="m 4.125,4.3594 q -0.9844,0 -1.4844,0.9765 -0.5,0.9766 -0.5,2.9297 0,1.9532 0.5,2.9297 0.5,0.9766 1.4844,0.9766 1,0 1.5,-0.9766 0.5,-0.9765 0.5,-2.9297 0,-1.9531 -0.5,-2.9297 -0.5,-0.9765 -1.5,-0.9765 z m 0,-1.0156 q 1.5938,0 2.4375,1.2656 0.8437,1.2656 0.8437,3.6562 0,2.3906 -0.8437,3.6563 -0.8437,1.2656 -2.4375,1.2656 -1.5781,0 -2.4219,-1.2656 Q 0.8594,10.6562 0.8594,8.2656 0.8594,5.875 1.7031,4.6094 2.5469,3.3438 4.125,3.3438 Z m 5.7354,8.0468 h 1.3438 V 13 H 9.8604 Z m 3.9036,-7.875 h 6.0937 V 4.0625 L 16.4202,13 h -1.3437 l 3.25,-8.3906 H 13.764 Z"
         id="path281"
         inkscape:connector-curvature="0" />
    </g>
    <g
       style="color-interpolation:sRGB;fill:#3d26a8;stroke:#3d26a8;color-rendering:optimizeSpeed;image-rendering:optimizeSpeed;shape-rendering:crispEdges;text-rendering:optimizeSpeed"
       id="g287">
      <path
         style="stroke:none"
         d="M 321.0223,198.5147 398.5,165.6783 367.4777,241.6521 290,245.0901 Z"
         id="path285"
         inkscape:connector-curvature="0" />
    </g>
    <g
       style="color-interpolation:linearRGB;stroke-width:0.66670001;stroke-linecap:round;stroke-linejoin:round;color-rendering:optimizeQuality;image-rendering:optimizeQuality;text-rendering:geometricPrecision"
       id="g293">
      <line
         y2="245.0901"
         style="fill:none"
         x1="321.02231"
         x2="290"
         y1="198.51469"
         id="line289" />
      <line
         y2="165.6783"
         style="fill:none"
         x1="321.02231"
         x2="398.5"
         y1="198.51469"
         id="line291" />
    </g>
    <g
       style="color-interpolation:sRGB;fill:#3d26a8;stroke:#3d26a8;color-rendering:optimizeSpeed;image-rendering:optimizeSpeed;shape-rendering:crispEdges;text-rendering:optimizeSpeed"
       id="g297">
      <path
         style="stroke:none"
         d="m 181.5,298.9482 77.4777,-24.4097 -31.0223,36.2353 z"
         id="path295"
         inkscape:connector-curvature="0" />
    </g>
    <g
       style="color-interpolation:linearRGB;stroke-width:0.66670001;stroke-linecap:round;stroke-linejoin:round;color-rendering:optimizeQuality;image-rendering:optimizeQuality;text-rendering:geometricPrecision"
       id="g301">
      <line
         y2="274.53851"
         style="fill:none"
         x1="181.5"
         x2="258.97769"
         y1="298.94821"
         id="line299" />
    </g>
    <g
       style="color-interpolation:sRGB;fill:#3d26a8;stroke:#3d26a8;color-rendering:optimizeSpeed;image-rendering:optimizeSpeed;shape-rendering:crispEdges;text-rendering:optimizeSpeed"
       id="g307">
      <path
         style="stroke:none"
         d="M 104.0223,269.0313 181.5,298.9482 150.4777,334.3334 Z"
         id="path303"
         inkscape:connector-curvature="0" />
      <path
         style="stroke:none"
         d="M 227.9554,310.7738 150.4777,334.3334 181.5,298.9482 Z"
         id="path305"
         inkscape:connector-curvature="0" />
    </g>
    <g
       style="color-interpolation:linearRGB;stroke-width:0.66670001;stroke-linecap:round;stroke-linejoin:round;color-rendering:optimizeQuality;image-rendering:optimizeQuality;text-rendering:geometricPrecision"
       id="g313">
      <line
         y2="334.3334"
         style="fill:none"
         x1="181.5"
         x2="150.47771"
         y1="298.94821"
         id="line309" />
      <line
         y2="298.94821"
         style="fill:none"
         x1="104.0223"
         x2="181.5"
         y1="269.03131"
         id="line311" />
    </g>
    <g
       style="color-interpolation:sRGB;fill:#3d26a8;stroke:#3d26a8;color-rendering:optimizeSpeed;image-rendering:optimizeSpeed;shape-rendering:crispEdges;text-rendering:optimizeSpeed"
       id="g317">
      <path
         style="stroke:none"
         d="M 150.4777,334.3334 73,294.3033 l 31.0223,-25.272 z"
         id="path315"
         inkscape:connector-curvature="0" />
    </g>
    <g
       style="color-interpolation:linearRGB;stroke-width:0.66670001;stroke-linecap:round;stroke-linejoin:round;color-rendering:optimizeQuality;image-rendering:optimizeQuality;text-rendering:geometricPrecision"
       id="g321">
      <line
         y2="294.30331"
         style="fill:none"
         x1="104.0223"
         x2="73"
         y1="269.03131"
         id="line319" />
    </g>
    <g
       transform="translate(460,380)"
       style="font-size:14.66670036px;font-family:SansSerif;color-interpolation:linearRGB;fill:#262626;stroke:#262626;color-rendering:optimizeQuality;image-rendering:optimizeQuality;text-rendering:geometricPrecision"
       id="g325">
      <path
         style="stroke:none"
         d="m 6.6562,-5.125 q 0.4844,0.1562 0.9297,0.6875 0.4453,0.5313 0.8985,1.4531 L 9.9844,0 H 8.4062 L 7,-2.8125 Q 6.4531,-3.9062 5.9453,-4.2656 5.4375,-4.625 4.5625,-4.625 H 2.9531 V 0 H 1.4688 v -10.9375 h 3.3437 q 1.875,0 2.7969,0.7813 0.9218,0.7812 0.9218,2.375 0,1.0312 -0.4765,1.7109 -0.4766,0.6797 -1.3985,0.9453 z M 2.9531,-9.7188 v 3.875 h 1.8594 q 1.0625,0 1.6094,-0.4921 0.5469,-0.4922 0.5469,-1.4453 0,-0.9688 -0.5469,-1.4532 Q 5.875,-9.7188 4.8125,-9.7188 Z m 15.6679,5.2813 v 0.6563 h -6.2031 q 0.0937,1.3906 0.8437,2.1171 0.75,0.7266 2.0782,0.7266 0.7812,0 1.5078,-0.1875 0.7265,-0.1875 1.4453,-0.5625 v 1.2656 q -0.7188,0.3125 -1.4844,0.4766 -0.7656,0.1641 -1.5469,0.1641 -1.9531,0 -3.1015,-1.1485 -1.1485,-1.1484 -1.1485,-3.0859 0,-2.0156 1.086,-3.2032 1.0859,-1.1874 2.9297,-1.1874 1.6562,0 2.625,1.0703 0.9687,1.0703 0.9687,2.8984 z m -1.3594,-0.3906 q -0.0156,-1.1094 -0.6171,-1.7735 -0.6016,-0.664 -1.6016,-0.664 -1.125,0 -1.8047,0.6406 -0.6797,0.6406 -0.7734,1.7969 z m 2.5639,-3.375 h 1.3594 l 1.6719,6.4062 1.6875,-6.4062 h 1.5781 l 1.6875,6.4062 1.6875,-6.4062 h 1.3438 L 28.7005,0 H 27.1068 L 25.3412,-6.7188 23.5599,0 h -1.5781 z m 16.5026,4.0781 q -1.625,0 -2.2578,0.375 -0.6328,0.375 -0.6328,1.2812 0,0.7032 0.4687,1.125 0.4688,0.4219 1.2813,0.4219 1.125,0 1.8047,-0.789 0.6796,-0.7891 0.6796,-2.1172 V -4.125 Z m 2.6875,-0.5625 V 0 h -1.3438 v -1.25 q -0.4687,0.75 -1.1562,1.1094 -0.6875,0.3594 -1.6875,0.3594 -1.25,0 -1.9922,-0.711 -0.7422,-0.7109 -0.7422,-1.8984 0,-1.375 0.9219,-2.0782 0.9219,-0.7031 2.7656,-0.7031 h 1.8906 v -0.1406 q 0,-0.9219 -0.6093,-1.4375 -0.6094,-0.5156 -1.7188,-0.5156 -0.7031,0 -1.375,0.1718 -0.6719,0.1719 -1.2812,0.5157 v -1.25 q 0.7343,-0.2813 1.4375,-0.4297 0.7031,-0.1484 1.3593,-0.1484 1.7813,0 2.6563,0.9218 0.875,0.9219 0.875,2.7969 z m 7.325,-2.25 q -0.2344,-0.1406 -0.5,-0.2031 -0.2656,-0.0625 -0.5938,-0.0625 -1.1406,0 -1.75,0.7422 -0.6093,0.7421 -0.6093,2.1328 V 0 h -1.3594 v -8.2031 h 1.3594 v 1.2812 q 0.4218,-0.75 1.1015,-1.1172 0.6797,-0.3671 1.6641,-0.3671 0.1406,0 0.3047,0.0234 0.164,0.0234 0.3672,0.0547 z m 6.6663,-0.0156 v -4.4375 h 1.3437 V 0 h -1.3437 v -1.2344 q -0.4219,0.7344 -1.0703,1.0938 -0.6485,0.3594 -1.5547,0.3594 -1.4844,0 -2.4219,-1.1876 -0.9375,-1.1874 -0.9375,-3.125 0,-1.9374 0.9375,-3.125 0.9375,-1.1874 2.4219,-1.1874 0.9062,0 1.5547,0.3593 0.6484,0.3594 1.0703,1.0938 z m -4.5938,2.8593 q 0,1.4844 0.6094,2.3282 0.6094,0.8437 1.6875,0.8437 1.0625,0 1.6797,-0.8437 0.6172,-0.8438 0.6172,-2.3282 0,-1.4843 -0.6172,-2.3281 -0.6172,-0.8437 -1.6797,-0.8437 -1.0781,0 -1.6875,0.8437 -0.6094,0.8438 -0.6094,2.3281 z m 16.3996,-7.2812 q -0.9844,1.6719 -1.4609,3.3203 -0.4766,1.6485 -0.4766,3.3516 0,1.6875 0.4766,3.3437 0.4765,1.6563 1.4609,3.3438 H 63.6408 Q 62.5315,0.25 61.9924,-1.4062 q -0.5391,-1.6563 -0.5391,-3.2969 0,-1.6407 0.5391,-3.2969 0.5391,-1.6562 1.6484,-3.375 z"
         id="path323"
         inkscape:connector-curvature="0" />
    </g>
    <g
       transform="translate(526,380)"
       style="font-size:14.66670036px;font-family:mwb_cmmi10;color-interpolation:linearRGB;fill:#262626;stroke:#262626;color-rendering:optimizeQuality;image-rendering:optimizeQuality;text-rendering:geometricPrecision"
       id="g329">
      <path
         style="stroke:none"
         d="m 3.0156,0.1719 q -0.7031,0 -1.2578,-0.336 Q 1.2031,-0.5 0.8984,-1.0703 0.5938,-1.6406 0.5938,-2.375 q 0,-1.0156 0.5703,-2.0156 0.5703,-1 1.5156,-1.6172 0.9453,-0.6172 1.9765,-0.6172 0.75,0 1.3282,0.3984 0.5781,0.3985 0.8828,1.0625 Q 7.1719,-4.5 7.1719,-3.75 l 0.0156,1 q 0.5156,-0.7031 0.8672,-1.4688 0.3515,-0.7656 0.5391,-1.5937 0.0312,-0.0781 0.125,-0.0781 h 0.1718 q 0.1406,0 0.1406,0.1406 0,0 -0.0156,0.0312 -0.1718,0.6876 -0.4375,1.3282 -0.2656,0.6406 -0.6172,1.2265 -0.3515,0.586 -0.7734,1.0703 0,1.8594 0.4375,1.8594 0.2656,0 0.4453,-0.164 Q 8.25,-0.5625 8.3906,-0.8047 8.5312,-1.0469 8.5625,-1.0469 H 8.75 q 0.1094,0 0.1094,0.1407 0,0.375 -0.4297,0.7265 Q 8,0.1719 7.5938,0.1719 7.0469,0.1719 6.6875,-0.1797 6.3281,-0.5312 6.2031,-1.0938 5.5,-0.5 4.6797,-0.1641 3.8594,0.1719 3.0156,0.1719 Z m 0.0313,-0.4063 q 1.6093,0 3.0781,-1.3125 Q 6.1094,-1.6406 6.1016,-1.7656 6.0938,-1.8906 6.0938,-1.9062 v -1.6094 q 0,-2.7188 -1.4688,-2.7188 -0.875,0 -1.5391,0.75 -0.664,0.75 -0.9921,1.7891 -0.3282,1.0391 -0.3282,1.9141 0,0.6406 0.3282,1.0937 0.3281,0.4531 0.9531,0.4531 z"
         id="path327"
         inkscape:connector-curvature="0" />
    </g>
    <g
       transform="translate(536,380)"
       style="font-size:14.66670036px;font-family:SansSerif;color-interpolation:linearRGB;fill:#262626;stroke:#262626;color-rendering:optimizeQuality;image-rendering:optimizeQuality;text-rendering:geometricPrecision"
       id="g333">
      <path
         style="stroke:none"
         d="M 1.2031,-11.375 H 2.375 q 1.0938,1.7188 1.6406,3.375 0.5469,1.6562 0.5469,3.2969 0,1.6406 -0.5469,3.2969 Q 3.4688,0.25 2.375,1.9844 H 1.2031 q 0.9688,-1.6875 1.4531,-3.3438 0.4844,-1.6562 0.4844,-3.3437 0,-1.7031 -0.4844,-3.3516 -0.4843,-1.6484 -1.4531,-3.3203 z"
         id="path331"
         inkscape:connector-curvature="0" />
    </g>
    <g
       style="color-interpolation:linearRGB;fill:#262626;stroke:#262626;stroke-width:0.66670001;stroke-linecap:round;stroke-linejoin:round;color-rendering:optimizeQuality;image-rendering:optimizeQuality;text-rendering:geometricPrecision"
       id="g337">
      <line
         y2="309.27771"
         style="fill:none"
         x1="444.95541"
         x2="452.70319"
         y1="307.95551"
         id="line335" />
    </g>
    <g
       transform="translate(457.9605,310.175)"
       style="font-size:13.33329964px;font-family:SansSerif;color-interpolation:linearRGB;fill:#262626;stroke:#262626;color-rendering:optimizeQuality;image-rendering:optimizeQuality;text-rendering:geometricPrecision"
       id="g341">
      <path
         style="stroke:none"
         d="m 4.125,4.3594 q -0.9844,0 -1.4844,0.9765 -0.5,0.9766 -0.5,2.9297 0,1.9532 0.5,2.9297 0.5,0.9766 1.4844,0.9766 1,0 1.5,-0.9766 0.5,-0.9765 0.5,-2.9297 0,-1.9531 -0.5,-2.9297 -0.5,-0.9765 -1.5,-0.9765 z m 0,-1.0156 q 1.5938,0 2.4375,1.2656 0.8437,1.2656 0.8437,3.6562 0,2.3906 -0.8437,3.6563 -0.8437,1.2656 -2.4375,1.2656 -1.5781,0 -2.4219,-1.2656 Q 0.8594,10.6562 0.8594,8.2656 0.8594,5.875 1.7031,4.6094 2.5469,3.3438 4.125,3.3438 Z m 5.7354,8.0468 h 1.3438 V 13 H 9.8604 Z M 16.8265,8.5 q -0.9063,0 -1.4297,0.4922 -0.5234,0.4922 -0.5234,1.3359 0,0.8594 0.5234,1.3516 0.5234,0.4922 1.4297,0.4922 0.9219,0 1.4453,-0.4922 0.5234,-0.4922 0.5234,-1.3516 0,-0.8437 -0.5234,-1.3359 Q 17.7484,8.5 16.8265,8.5 Z M 15.5452,7.9531 Q 14.7327,7.75 14.2718,7.1875 13.8109,6.625 13.8109,5.8125 q 0,-1.1406 0.8046,-1.8047 0.8047,-0.664 2.211,-0.664 1.4219,0 2.2265,0.664 0.8047,0.6641 0.8047,1.8047 0,0.8125 -0.4609,1.375 -0.4609,0.5625 -1.2734,0.7656 0.9218,0.2188 1.4375,0.8438 0.5156,0.625 0.5156,1.5312 0,1.3907 -0.836,2.125 -0.8359,0.7344 -2.414,0.7344 -1.5625,0 -2.4063,-0.7344 -0.8437,-0.7343 -0.8437,-2.125 0,-0.9062 0.5234,-1.5312 0.5235,-0.625 1.4453,-0.8438 z M 15.0765,5.9219 q 0,0.75 0.4609,1.1562 0.461,0.4063 1.2891,0.4063 0.8281,0 1.2969,-0.4063 0.4687,-0.4062 0.4687,-1.1562 0,-0.7344 -0.4687,-1.1485 -0.4688,-0.414 -1.2969,-0.414 -0.8281,0 -1.2891,0.414 -0.4609,0.4141 -0.4609,1.1485 z"
         id="path339"
         inkscape:connector-curvature="0" />
    </g>
    <g
       style="color-interpolation:sRGB;fill:#3d26a8;stroke:#3d26a8;color-rendering:optimizeSpeed;image-rendering:optimizeSpeed;shape-rendering:crispEdges;text-rendering:optimizeSpeed"
       id="g345">
      <path
         style="stroke:none"
         d="M 336.4554,278.0143 258.9777,274.5385 290,245.0901 Z"
         id="path343"
         inkscape:connector-curvature="0" />
    </g>
    <g
       style="color-interpolation:linearRGB;stroke-width:0.66670001;stroke-linecap:round;stroke-linejoin:round;color-rendering:optimizeQuality;image-rendering:optimizeQuality;text-rendering:geometricPrecision"
       id="g349">
      <line
         y2="274.53851"
         style="fill:none"
         x1="290"
         x2="258.97769"
         y1="245.0901"
         id="line347" />
    </g>
    <g
       style="color-interpolation:sRGB;fill:#3d26a8;stroke:#3d26a8;color-rendering:optimizeSpeed;image-rendering:optimizeSpeed;shape-rendering:crispEdges;text-rendering:optimizeSpeed"
       id="g353">
      <path
         style="stroke:none"
         d="m 290,245.0901 77.4777,-3.438 -31.0223,36.3622 z"
         id="path351"
         inkscape:connector-curvature="0" />
    </g>
    <g
       style="color-interpolation:linearRGB;stroke-width:0.66670001;stroke-linecap:round;stroke-linejoin:round;color-rendering:optimizeQuality;image-rendering:optimizeQuality;text-rendering:geometricPrecision"
       id="g357">
      <line
         y2="241.6521"
         style="fill:none"
         x1="290"
         x2="367.47769"
         y1="245.0901"
         id="line355" />
    </g>
    <g
       style="color-interpolation:sRGB;fill:#4746eb;stroke:#4746eb;color-rendering:optimizeSpeed;image-rendering:optimizeSpeed;shape-rendering:crispEdges;text-rendering:optimizeSpeed"
       id="g361">
      <path
         style="stroke:none"
         d="M 429.5223,119.1689 507,83.8887 475.9777,153.2263 Z"
         id="path359"
         inkscape:connector-curvature="0" />
    </g>
    <g
       style="color-interpolation:linearRGB;stroke-width:0.66670001;stroke-linecap:round;stroke-linejoin:round;color-rendering:optimizeQuality;image-rendering:optimizeQuality;text-rendering:geometricPrecision"
       id="g365">
      <line
         y2="83.888702"
         style="fill:none"
         x1="429.52231"
         x2="507"
         y1="119.1689"
         id="line363" />
    </g>
    <g
       style="color-interpolation:sRGB;fill:#4746eb;stroke:#4746eb;color-rendering:optimizeSpeed;image-rendering:optimizeSpeed;shape-rendering:crispEdges;text-rendering:optimizeSpeed"
       id="g369">
      <path
         style="stroke:none"
         d="M 475.9777,153.2263 398.5,165.6783 429.5223,119.1689 Z"
         id="path367"
         inkscape:connector-curvature="0" />
    </g>
    <g
       style="color-interpolation:linearRGB;stroke-width:0.66670001;stroke-linecap:round;stroke-linejoin:round;color-rendering:optimizeQuality;image-rendering:optimizeQuality;text-rendering:geometricPrecision"
       id="g381">
      <line
         y2="165.6783"
         style="fill:none"
         x1="429.52231"
         x2="398.5"
         y1="119.1689"
         id="line371" />
      <line
         x1="73"
         x2="73"
         y1="321.11121"
         style="fill:none;stroke:#262626"
         y2="163.089"
         id="line373" />
      <line
         x1="73"
         x2="67.6185"
         y1="321.11121"
         style="fill:none;stroke:#262626"
         y2="326.83969"
         id="line375" />
      <line
         x1="73"
         x2="382.91089"
         y1="321.11121"
         style="fill:none;stroke:#262626"
         y2="374"
         id="line377" />
      <line
         x1="73"
         x2="69.126099"
         y1="310.10089"
         style="fill:none;stroke:#262626"
         y2="309.43979"
         id="line379" />
    </g>
    <g
       transform="translate(63.9668,330.7268)"
       style="font-size:13.33329964px;font-family:SansSerif;color-interpolation:linearRGB;fill:#262626;stroke:#262626;color-rendering:optimizeQuality;image-rendering:optimizeQuality;text-rendering:geometricPrecision"
       id="g385">
      <path
         style="stroke:none"
         d="m -17.875,4.3594 q -0.9844,0 -1.4844,0.9765 -0.5,0.9766 -0.5,2.9297 0,1.9532 0.5,2.9297 0.5,0.9766 1.4844,0.9766 1,0 1.5,-0.9766 0.5,-0.9765 0.5,-2.9297 0,-1.9531 -0.5,-2.9297 -0.5,-0.9765 -1.5,-0.9765 z m 0,-1.0156 q 1.5938,0 2.4375,1.2656 0.8437,1.2656 0.8437,3.6562 0,2.3906 -0.8437,3.6563 -0.8437,1.2656 -2.4375,1.2656 -1.5781,0 -2.4219,-1.2656 -0.8437,-1.2657 -0.8437,-3.6563 0,-2.3906 0.8437,-3.6562 0.8438,-1.2656 2.4219,-1.2656 z m 5.7354,8.0468 h 1.3438 V 13 h -1.3438 z m 4.4505,0.5313 h 2.0937 V 4.6875 L -7.8766,5.1406 V 3.9844 L -5.611,3.5156 h 1.2969 v 8.4063 h 2.0937 V 13 h -5.4687 z"
         id="path383"
         inkscape:connector-curvature="0" />
    </g>
    <g
       style="color-interpolation:linearRGB;stroke-width:0.66670001;stroke-linecap:round;stroke-linejoin:round;color-rendering:optimizeQuality;image-rendering:optimizeQuality;text-rendering:geometricPrecision"
       id="g395">
      <line
         y2="310.7738"
         style="fill:none"
         x1="150.47771"
         x2="227.9554"
         y1="334.3334"
         id="line387" />
      <line
         x1="73"
         x2="150.47771"
         y1="294.30331"
         style="fill:none;stroke-linecap:butt"
         y2="334.3334"
         id="line389" />
      <line
         x1="150.47771"
         x2="145.09621"
         y1="334.3334"
         style="fill:none;stroke:#262626"
         y2="340.06189"
         id="line391" />
      <line
         x1="73"
         x2="69.126099"
         y1="301.12781"
         style="fill:none;stroke:#262626"
         y2="300.46671"
         id="line393" />
    </g>
    <g
       style="color-interpolation:sRGB;fill:#4332ca;stroke:#4332ca;color-rendering:optimizeSpeed;image-rendering:optimizeSpeed;shape-rendering:crispEdges;text-rendering:optimizeSpeed"
       id="g401">
      <path
         style="stroke:none"
         d="M 444.9554,215.6049 367.4777,241.6521 398.5,165.6783 Z"
         id="path397"
         inkscape:connector-curvature="0" />
      <path
         d="m 367.4777,241.6521 77.4777,-26.0472 -31.0222,41.128 z"
         style="fill:#3d26a8;stroke:none"
         id="path399"
         inkscape:connector-curvature="0" />
    </g>
    <g
       style="color-interpolation:linearRGB;stroke-width:0.66670001;stroke-linecap:round;stroke-linejoin:round;color-rendering:optimizeQuality;image-rendering:optimizeQuality;text-rendering:geometricPrecision"
       id="g407">
      <line
         y2="215.6049"
         style="fill:none"
         x1="367.47769"
         x2="444.95541"
         y1="241.6521"
         id="line403" />
      <line
         y2="241.6521"
         style="fill:none"
         x1="398.5"
         x2="367.47769"
         y1="165.6783"
         id="line405" />
    </g>
    <g
       style="color-interpolation:sRGB;fill:#3d26a8;stroke:#3d26a8;color-rendering:optimizeSpeed;image-rendering:optimizeSpeed;shape-rendering:crispEdges;text-rendering:optimizeSpeed"
       id="g411">
      <path
         style="stroke:none"
         d="m 413.9332,256.7329 -77.4778,21.2814 31.0223,-36.3622 z"
         id="path409"
         inkscape:connector-curvature="0" />
    </g>
    <g
       style="color-interpolation:linearRGB;stroke-width:0.66670001;stroke-linecap:round;stroke-linejoin:round;color-rendering:optimizeQuality;image-rendering:optimizeQuality;text-rendering:geometricPrecision"
       id="g415">
      <line
         y2="278.01431"
         style="fill:none"
         x1="367.47769"
         x2="336.45541"
         y1="241.6521"
         id="line413" />
    </g>
    <g
       style="color-interpolation:sRGB;fill:#4332ca;stroke:#4332ca;color-rendering:optimizeSpeed;image-rendering:optimizeSpeed;shape-rendering:crispEdges;text-rendering:optimizeSpeed"
       id="g419">
      <path
         style="stroke:none"
         d="m 398.5,165.6783 77.4777,-12.452 -31.0223,62.3786 z"
         id="path417"
         inkscape:connector-curvature="0" />
    </g>
    <g
       style="color-interpolation:linearRGB;stroke-width:0.66670001;stroke-linecap:round;stroke-linejoin:round;color-rendering:optimizeQuality;image-rendering:optimizeQuality;text-rendering:geometricPrecision"
       id="g427">
      <line
         y2="153.2263"
         style="fill:none"
         x1="398.5"
         x2="475.97769"
         y1="165.6783"
         id="line421" />
      <line
         x1="413.9332"
         x2="421.68091"
         y1="340.97781"
         style="fill:none;stroke:#262626"
         y2="342.29999"
         id="line423" />
      <line
         x1="73"
         x2="69.126099"
         y1="294.7612"
         style="fill:none;stroke:#262626"
         y2="294.1001"
         id="line425" />
    </g>
    <g
       transform="translate(426.9383,343.1972)"
       style="font-size:13.33329964px;font-family:SansSerif;color-interpolation:linearRGB;fill:#262626;stroke:#262626;color-rendering:optimizeQuality;image-rendering:optimizeQuality;text-rendering:geometricPrecision"
       id="g431">
      <path
         style="stroke:none"
         d="m 4.125,4.3594 q -0.9844,0 -1.4844,0.9765 -0.5,0.9766 -0.5,2.9297 0,1.9532 0.5,2.9297 0.5,0.9766 1.4844,0.9766 1,0 1.5,-0.9766 0.5,-0.9765 0.5,-2.9297 0,-1.9531 -0.5,-2.9297 -0.5,-0.9765 -1.5,-0.9765 z m 0,-1.0156 q 1.5938,0 2.4375,1.2656 0.8437,1.2656 0.8437,3.6562 0,2.3906 -0.8437,3.6563 -0.8437,1.2656 -2.4375,1.2656 -1.5781,0 -2.4219,-1.2656 Q 0.8594,10.6562 0.8594,8.2656 0.8594,5.875 1.7031,4.6094 2.5469,3.3438 4.125,3.3438 Z m 5.7354,8.0468 h 1.3438 V 13 H 9.8604 Z m 4.263,1.4063 v -1.1563 q 0.4843,0.2188 0.9843,0.3438 0.5,0.125 0.9688,0.125 1.2656,0 1.9375,-0.8594 0.6719,-0.8594 0.7656,-2.5938 -0.3594,0.5469 -0.9297,0.836 -0.5703,0.289 -1.2578,0.289 -1.4219,0 -2.25,-0.8593 -0.8281,-0.8594 -0.8281,-2.3438 0,-1.4687 0.8672,-2.3515 0.8672,-0.8828 2.3047,-0.8828 1.6406,0 2.5078,1.2656 0.8672,1.2656 0.8672,3.6562 0,2.25 -1.0625,3.586 -1.0625,1.3359 -2.8594,1.3359 -0.4844,0 -0.9766,-0.0937 Q 14.6702,13 14.1234,12.7969 Z m 2.5625,-4.0157 q 0.8593,0 1.3671,-0.5859 0.5079,-0.5859 0.5079,-1.6172 0,-1.0312 -0.5079,-1.625 -0.5078,-0.5937 -1.3671,-0.5937 -0.875,0 -1.375,0.5937 -0.5,0.5938 -0.5,1.625 0,1.0313 0.5,1.6172 0.5,0.5859 1.375,0.5859 z"
         id="path429"
         inkscape:connector-curvature="0" />
    </g>
    <g
       transform="translate(141.4445,343.949)"
       style="font-size:13.33329964px;font-family:SansSerif;color-interpolation:linearRGB;fill:#262626;stroke:#262626;color-rendering:optimizeQuality;image-rendering:optimizeQuality;text-rendering:geometricPrecision"
       id="g435">
      <path
         style="stroke:none"
         d="m -17.875,4.3594 q -0.9844,0 -1.4844,0.9765 -0.5,0.9766 -0.5,2.9297 0,1.9532 0.5,2.9297 0.5,0.9766 1.4844,0.9766 1,0 1.5,-0.9766 0.5,-0.9765 0.5,-2.9297 0,-1.9531 -0.5,-2.9297 -0.5,-0.9765 -1.5,-0.9765 z m 0,-1.0156 q 1.5938,0 2.4375,1.2656 0.8437,1.2656 0.8437,3.6562 0,2.3906 -0.8437,3.6563 -0.8437,1.2656 -2.4375,1.2656 -1.5781,0 -2.4219,-1.2656 -0.8437,-1.2657 -0.8437,-3.6563 0,-2.3906 0.8437,-3.6562 0.8438,-1.2656 2.4219,-1.2656 z m 5.7354,8.0468 h 1.3438 V 13 h -1.3438 z m 5.3411,0.5313 h 4.4687 V 13 h -6.0156 v -1.0781 q 0.7344,-0.75 1.9922,-2.0235 1.2578,-1.2734 1.5859,-1.6484 0.6094,-0.6875 0.8516,-1.1719 0.2422,-0.4843 0.2422,-0.9375 0,-0.7656 -0.5235,-1.2344 -0.5234,-0.4687 -1.3828,-0.4687 -0.6093,0 -1.2734,0.2031 -0.6641,0.2032 -1.4297,0.6406 V 3.9844 q 0.7813,-0.3125 1.4531,-0.4766 0.6719,-0.164 1.2188,-0.164 1.4844,0 2.3594,0.7421 0.875,0.7422 0.875,1.9766 0,0.5781 -0.2188,1.1016 -0.2187,0.5234 -0.7969,1.2265 -0.1562,0.1875 -1.0078,1.0703 -0.8515,0.8829 -2.3984,2.461 z"
         id="path433"
         inkscape:connector-curvature="0" />
    </g>
    <g
       transform="translate(73,24)"
       style="font-weight:bold;font-size:14.66670036px;font-family:SansSerif;color-interpolation:linearRGB;color-rendering:optimizeQuality;image-rendering:optimizeQuality;text-rendering:geometricPrecision"
       id="g439">
      <path
         style="stroke:none"
         d="m 1.375,-10.9375 h 7.6094 v 2.1406 H 4.2031 v 2.0313 h 4.5 v 2.125 h -4.5 V -2.125 H 9.1406 V 0 H 1.375 Z M 19.5118,-5 v 5 h -2.625 v -0.8125 -3.0156 q 0,-1.0625 -0.0469,-1.461 -0.0469,-0.3984 -0.1719,-0.5859 -0.1562,-0.2656 -0.414,-0.4062 -0.2579,-0.1407 -0.6016,-0.1407 -0.8281,0 -1.2969,0.6328 -0.4687,0.6329 -0.4687,1.7579 V 0 h -2.6094 v -8.2031 h 2.6094 V -7 q 0.5937,-0.7188 1.2656,-1.0625 0.6719,-0.3437 1.4687,-0.3437 1.4219,0 2.1563,0.875 0.7344,0.875 0.7344,2.5312 z m 10.3871,0.875 v 0.75 h -6.1406 q 0.0937,0.9219 0.6718,1.3828 0.5782,0.461 1.5938,0.461 0.8281,0 1.6953,-0.2422 0.8672,-0.2422 1.7891,-0.7422 V -0.5 q -0.9375,0.3594 -1.8672,0.5391 -0.9297,0.1797 -1.8516,0.1797 -2.2344,0 -3.4687,-1.1329 -1.2344,-1.1328 -1.2344,-3.1797 0,-2 1.2109,-3.1562 1.211,-1.1562 3.336,-1.1562 1.9375,0 3.1015,1.164 1.1641,1.1641 1.1641,3.1172 z M 27.1958,-5 q 0,-0.75 -0.4375,-1.2031 -0.4375,-0.4531 -1.1407,-0.4531 -0.75,0 -1.2265,0.4296 Q 23.9145,-5.7969 23.7895,-5 Z m 10.5495,-0.9688 q -0.3437,-0.1562 -0.6875,-0.2343 -0.3437,-0.0781 -0.6875,-0.0781 -1.0156,0 -1.5625,0.6484 -0.5468,0.6484 -0.5468,1.8516 V 0 h -2.6094 v -8.2031 h 2.6094 v 1.3437 q 0.5156,-0.7968 1.1718,-1.1718 0.6563,-0.375 1.5625,-0.375 0.1407,0 0.2891,0.0156 0.1484,0.0156 0.4453,0.0468 z m 6.7123,4.5782 Q 43.9108,-0.6719 43.2623,-0.3359 42.6139,0 41.7545,0 q -1.5,0 -2.4844,-1.1797 -0.9843,-1.1797 -0.9843,-3.0234 0,-1.8281 0.9843,-3.0078 0.9844,-1.1797 2.4844,-1.1797 0.8594,0 1.5078,0.3359 0.6485,0.3359 1.1953,1.0703 v -1.2187 h 2.6407 v 7.375 q 0,1.9843 -1.25,3.0234 -1.25,1.0391 -3.625,1.0391 -0.7657,0 -1.4844,-0.1172 Q 40.0201,3 39.2858,2.7656 V 0.7188 q 0.6875,0.3906 1.3515,0.5859 0.6641,0.1953 1.3203,0.1953 1.2969,0 1.8985,-0.5625 0.6015,-0.5625 0.6015,-1.7656 z M 42.7233,-6.5 q -0.8125,0 -1.2657,0.6016 -0.4531,0.6015 -0.4531,1.6953 0,1.1406 0.4375,1.7187 0.4375,0.5782 1.2813,0.5782 0.8281,0 1.2812,-0.6016 0.4531,-0.6016 0.4531,-1.6953 0,-1.0938 -0.4531,-1.6953 Q 43.5514,-6.5 42.7233,-6.5 Z m 5.5693,-1.7031 h 2.625 l 2.2032,5.5625 1.875,-5.5625 h 2.6093 L 54.1676,0.7812 Q 53.6364,2.1406 52.9489,2.6875 52.2614,3.2344 51.1208,3.2344 H 49.6051 V 1.5156 h 0.8282 q 0.6562,0 0.9609,-0.2109 0.3047,-0.2109 0.4766,-0.7578 l 0.0781,-0.2344 z m 22.3594,0.25 v 2.1406 q -0.5312,-0.3594 -1.0703,-0.5391 -0.5391,-0.1796 -1.1172,-0.1796 -1.1094,0 -1.7187,0.6406 -0.6094,0.6406 -0.6094,1.7968 0,1.1563 0.6094,1.7969 0.6093,0.6407 1.7187,0.6407 0.6094,0 1.1641,-0.1876 0.5547,-0.1874 1.0234,-0.5468 v 2.1562 q -0.625,0.2188 -1.2578,0.336 -0.6328,0.1172 -1.2578,0.1172 -2.2188,0 -3.4766,-1.1407 -1.2578,-1.1406 -1.2578,-3.1719 0,-2.0312 1.2578,-3.1718 1.2578,-1.1406 3.4766,-1.1406 0.6406,0 1.2656,0.1171 0.625,0.1172 1.25,0.336 z m 5.9535,1.4219 q -0.8594,0 -1.3203,0.625 -0.461,0.625 -0.461,1.8124 0,1.1719 0.461,1.8047 0.4609,0.6329 1.3203,0.6329 0.8593,0 1.3125,-0.6329 0.4531,-0.6328 0.4531,-1.8047 0,-1.1874 -0.4531,-1.8124 -0.4532,-0.625 -1.3125,-0.625 z m 0,-1.875 q 2.125,0 3.3125,1.1484 1.1875,1.1484 1.1875,3.164 0,2.0157 -1.1875,3.1641 -1.1875,1.1485 -3.3125,1.1485 -2.1094,0 -3.3125,-1.1485 -1.2032,-1.1484 -1.2032,-3.1641 0,-2.0156 1.2032,-3.164 1.2031,-1.1484 3.3125,-1.1484 z M 91.0182,-5 v 5 h -2.625 v -0.8125 -3.0156 q 0,-1.0625 -0.0468,-1.461 -0.0469,-0.3984 -0.1719,-0.5859 -0.1563,-0.2656 -0.4141,-0.4062 -0.2578,-0.1407 -0.6015,-0.1407 -0.8282,0 -1.2969,0.6328 -0.4688,0.6329 -0.4688,1.7579 V 0 h -2.6093 v -8.2031 h 2.6093 V -7 q 0.5938,-0.7188 1.2657,-1.0625 0.6718,-0.3437 1.4687,-0.3437 1.4219,0 2.1563,0.875 0.7343,0.875 0.7343,2.5312 z m 8.6059,-2.9531 v 2 q -0.8438,-0.3594 -1.625,-0.5313 -0.7813,-0.1718 -1.4844,-0.1718 -0.75,0 -1.1094,0.1874 -0.3593,0.1876 -0.3593,0.5782 0,0.3125 0.2734,0.4765 0.2734,0.1641 0.9766,0.2579 l 0.4687,0.0624 q 2.0156,0.25 2.711,0.836 0.6953,0.5859 0.6953,1.8359 0,1.3125 -0.9688,1.9766 -0.9687,0.6641 -2.8906,0.6641 -0.8125,0 -1.6797,-0.1329 -0.8672,-0.1328 -1.7734,-0.3828 v -2 q 0.7812,0.3907 1.6015,0.5781 0.8203,0.1876 1.6797,0.1876 0.7656,0 1.1563,-0.211 0.3906,-0.2109 0.3906,-0.6328 0,-0.3438 -0.2734,-0.5156 -0.2735,-0.1719 -1.0704,-0.2813 l -0.4531,-0.0469 q -1.75,-0.2187 -2.4531,-0.8124 -0.7031,-0.5938 -0.7031,-1.8126 0,-1.2968 0.8906,-1.9296 0.8906,-0.6328 2.7344,-0.6328 0.7343,0 1.5312,0.1093 0.7969,0.1094 1.7344,0.3438 z m 2.2236,4.7656 v -5.0156 h 2.6406 v 0.8125 q 0,0.6718 -0.008,1.6797 -0.008,1.0078 -0.008,1.3515 0,0.9844 0.0469,1.4219 0.0469,0.4375 0.1719,0.625 0.1718,0.2656 0.4297,0.4063 0.2578,0.1406 0.6015,0.1406 0.8125,0 1.2813,-0.6328 0.4687,-0.6328 0.4687,-1.7578 v -4.0469 h 2.625 V 0 h -2.625 v -1.1875 q -0.5937,0.7187 -1.2578,1.0625 -0.6641,0.3438 -1.4609,0.3438 -1.4219,0 -2.1641,-0.875 -0.7422,-0.875 -0.7422,-2.5313 z m 18.1215,-3.6563 q 0.5,-0.7656 1.1875,-1.164 0.6875,-0.3984 1.5,-0.3984 1.4219,0 2.1563,0.875 0.7343,0.875 0.7343,2.5312 v 5 h -2.625 v -4.2812 q 0,-0.0938 0.008,-0.1954 0.008,-0.1015 0.008,-0.289 0,-0.875 -0.2579,-1.2656 -0.2578,-0.3907 -0.8359,-0.3907 -0.75,0 -1.1562,0.6172 -0.4063,0.6172 -0.4219,1.7735 V 0 h -2.625 v -4.2812 q 0,-1.3594 -0.2344,-1.75 -0.2344,-0.3907 -0.8437,-0.3907 -0.75,0 -1.1641,0.6172 -0.4141,0.6172 -0.4141,1.7735 V 0 h -2.625 v -8.2031 h 2.625 V -7 q 0.4844,-0.7031 1.1172,-1.0547 0.6328,-0.3515 1.3828,-0.3515 0.8438,0 1.5,0.414 0.6563,0.4141 0.9844,1.1484 z m 10.2873,5.6563 V 3.125 h -2.6093 V -8.2031 h 2.6093 V -7 q 0.5469,-0.7188 1.211,-1.0625 0.664,-0.3437 1.5078,-0.3437 1.5156,0 2.4922,1.2109 0.9765,1.2109 0.9765,3.1015 0,1.8907 -0.9765,3.1016 -0.9766,1.211 -2.4922,1.211 -0.8438,0 -1.5078,-0.3438 -0.6641,-0.3438 -1.211,-1.0625 z m 1.75,-5.3125 q -0.8437,0 -1.2968,0.6172 -0.4532,0.6172 -0.4532,1.789 0,1.1563 0.4532,1.7813 0.4531,0.625 1.2968,0.625 0.8438,0 1.2891,-0.6172 0.4453,-0.6172 0.4453,-1.7891 0,-1.1718 -0.4453,-1.789 Q 132.8503,-6.5 132.0065,-6.5 Z m 8.9913,-4.0312 v 2.3281 h 2.7031 v 1.875 h -2.7031 v 3.4843 q 0,0.5626 0.2265,0.7657 0.2266,0.2031 0.8985,0.2031 h 1.3437 V 0 h -2.25 q -1.5469,0 -2.1953,-0.6484 -0.6484,-0.6485 -0.6484,-2.1954 v -3.4843 h -1.2969 v -1.875 h 1.2969 v -2.3281 z m 4.1467,2.3281 h 2.6094 V 0 h -2.6094 z m 0,-3.1875 h 2.6094 v 2.125 h -2.6094 z m 8.9144,4.8594 q -0.8594,0 -1.3203,0.625 -0.461,0.625 -0.461,1.8124 0,1.1719 0.461,1.8047 0.4609,0.6329 1.3203,0.6329 0.8594,0 1.3125,-0.6329 0.4531,-0.6328 0.4531,-1.8047 0,-1.1874 -0.4531,-1.8124 -0.4531,-0.625 -1.3125,-0.625 z m 0,-1.875 q 2.125,0 3.3125,1.1484 1.1875,1.1484 1.1875,3.164 0,2.0157 -1.1875,3.1641 -1.1875,1.1485 -3.3125,1.1485 -2.1094,0 -3.3125,-1.1485 -1.2031,-1.1484 -1.2031,-3.1641 0,-2.0156 1.2031,-3.164 1.2031,-1.1484 3.3125,-1.1484 z M 168.4716,-5 v 5 h -2.625 v -0.8125 -3.0156 q 0,-1.0625 -0.0468,-1.461 -0.0469,-0.3984 -0.1719,-0.5859 -0.1563,-0.2656 -0.4141,-0.4062 -0.2578,-0.1407 -0.6015,-0.1407 -0.8282,0 -1.2969,0.6328 -0.4688,0.6329 -0.4688,1.7579 V 0 h -2.6093 v -8.2031 h 2.6093 V -7 q 0.5938,-0.7188 1.2657,-1.0625 0.6718,-0.3437 1.4687,-0.3437 1.4219,0 2.1563,0.875 0.7343,0.875 0.7343,2.5312 z m 11.1928,-1.5312 q -0.8594,0 -1.3203,0.625 -0.461,0.625 -0.461,1.8124 0,1.1719 0.461,1.8047 0.4609,0.6329 1.3203,0.6329 0.8594,0 1.3125,-0.6329 0.4531,-0.6328 0.4531,-1.8047 0,-1.1874 -0.4531,-1.8124 -0.4531,-0.625 -1.3125,-0.625 z m 0,-1.875 q 2.125,0 3.3125,1.1484 1.1875,1.1484 1.1875,3.164 0,2.0157 -1.1875,3.1641 -1.1875,1.1485 -3.3125,1.1485 -2.1094,0 -3.3125,-1.1485 -1.2031,-1.1484 -1.2031,-3.1641 0,-2.0156 1.2031,-3.164 1.2031,-1.1484 3.3125,-1.1484 z m 11.569,-2.9844 v 1.7187 h -1.4531 q -0.5469,0 -0.7657,0.2031 -0.2187,0.2032 -0.2187,0.6876 v 0.5781 h 2.2344 v 1.875 h -2.2344 V 0 h -2.625 v -6.3281 h -1.3125 v -1.875 h 1.3125 v -0.5781 q 0,-1.3282 0.7422,-1.9688 0.7422,-0.6406 2.3203,-0.6406 z m 13.8069,0.7968 v 2.3126 q -0.8906,-0.3907 -1.75,-0.6016 -0.8593,-0.211 -1.625,-0.211 -1.0156,0 -1.4921,0.2813 -0.4766,0.2813 -0.4766,0.8594 0,0.4531 0.3203,0.6953 0.3203,0.2422 1.1797,0.414 l 1.2031,0.25 q 1.8281,0.3594 2.5938,1.1094 0.7656,0.75 0.7656,2.125 0,1.8125 -1.0703,2.6953 -1.0703,0.8829 -3.2735,0.8829 -1.0468,0 -2.0937,-0.2032 -1.0469,-0.2031 -2.0938,-0.5937 v -2.375 q 1.0469,0.5625 2.0235,0.8437 0.9765,0.2813 1.8828,0.2813 0.9219,0 1.4141,-0.3125 0.4921,-0.3125 0.4921,-0.875 0,-0.5156 -0.3281,-0.7969 -0.3281,-0.2813 -1.3281,-0.5 l -1.0938,-0.2344 q -1.6406,-0.3593 -2.3984,-1.125 -0.7578,-0.7656 -0.7578,-2.0625 0,-1.6406 1.0547,-2.5234 1.0547,-0.8828 3.0234,-0.8828 0.9063,0 1.8594,0.1406 0.9531,0.1406 1.9687,0.4062 z m 1.7588,2.3907 h 2.625 l 2.2031,5.5625 1.875,-5.5625 h 2.6094 l -3.4375,8.9843 q -0.5312,1.3594 -1.2187,1.9063 -0.6875,0.5469 -1.8282,0.5469 h -1.5156 V 1.5156 h 0.8281 q 0.6563,0 0.961,-0.2109 0.3047,-0.2109 0.4765,-0.7578 l 0.0782,-0.2344 z m 17.0381,0.25 v 2 q -0.8437,-0.3594 -1.625,-0.5313 -0.7812,-0.1718 -1.4843,-0.1718 -0.75,0 -1.1094,0.1874 -0.3594,0.1876 -0.3594,0.5782 0,0.3125 0.2735,0.4765 0.2734,0.1641 0.9765,0.2579 l 0.4688,0.0624 q 2.0156,0.25 2.7109,0.836 0.6953,0.5859 0.6953,1.8359 0,1.3125 -0.9687,1.9766 -0.9688,0.6641 -2.8907,0.6641 -0.8125,0 -1.6796,-0.1329 -0.8672,-0.1328 -1.7735,-0.3828 v -2 q 0.7813,0.3907 1.6016,0.5781 0.8203,0.1876 1.6797,0.1876 0.7656,0 1.1562,-0.211 0.3906,-0.2109 0.3906,-0.6328 0,-0.3438 -0.2734,-0.5156 -0.2734,-0.1719 -1.0703,-0.2813 l -0.4531,-0.0469 q -1.75,-0.2187 -2.4532,-0.8124 -0.7031,-0.5938 -0.7031,-1.8126 0,-1.2968 0.8906,-1.9296 0.8907,-0.6328 2.7344,-0.6328 0.7344,0 1.5313,0.1093 0.7968,0.1094 1.7343,0.3438 z m 5.1768,-2.5781 v 2.3281 h 2.7031 v 1.875 h -2.7031 v 3.4843 q 0,0.5626 0.2266,0.7657 0.2265,0.2031 0.8984,0.2031 h 1.3437 V 0 h -2.25 q -1.5468,0 -2.1953,-0.6484 -0.6484,-0.6485 -0.6484,-2.1954 v -3.4843 h -1.2969 v -1.875 h 1.2969 v -2.3281 z m 12.3342,6.4062 v 0.75 h -6.1406 q 0.0937,0.9219 0.6719,1.3828 0.5781,0.461 1.5937,0.461 0.8281,0 1.6953,-0.2422 0.8672,-0.2422 1.7891,-0.7422 V -0.5 q -0.9375,0.3594 -1.8672,0.5391 -0.9297,0.1797 -1.8516,0.1797 -2.2343,0 -3.4687,-1.1329 -1.2344,-1.1328 -1.2344,-3.1797 0,-2 1.2109,-3.1562 1.211,-1.1562 3.336,-1.1562 1.9375,0 3.1015,1.164 1.1641,1.1641 1.1641,3.1172 z M 238.6451,-5 q 0,-0.75 -0.4375,-1.2031 -0.4375,-0.4531 -1.1406,-0.4531 -0.75,0 -1.2266,0.4296 -0.4766,0.4297 -0.6016,1.2266 z m 12.0496,-1.8438 q 0.5,-0.7656 1.1875,-1.164 0.6875,-0.3984 1.5,-0.3984 1.4218,0 2.1562,0.875 0.7344,0.875 0.7344,2.5312 v 5 h -2.625 v -4.2812 q 0,-0.0938 0.008,-0.1954 0.008,-0.1015 0.008,-0.289 0,-0.875 -0.2578,-1.2656 -0.2578,-0.3907 -0.8359,-0.3907 -0.75,0 -1.1563,0.6172 -0.4062,0.6172 -0.4219,1.7735 V 0 h -2.625 v -4.2812 q 0,-1.3594 -0.2343,-1.75 -0.2344,-0.3907 -0.8438,-0.3907 -0.75,0 -1.1641,0.6172 -0.414,0.6172 -0.414,1.7735 V 0 h -2.625 v -8.2031 h 2.625 V -7 q 0.4844,-0.7031 1.1172,-1.0547 0.6328,-0.3515 1.3828,-0.3515 0.8437,0 1.5,0.414 0.6562,0.4141 0.9844,1.1484 z m 16.4523,3.1563 q -0.8282,0 -1.2422,0.2734 -0.4141,0.2735 -0.4141,0.8203 0,0.5 0.336,0.7813 0.3359,0.2813 0.9296,0.2813 0.7344,0 1.2422,-0.5313 0.5078,-0.5313 0.5078,-1.3281 v -0.2969 z m 4,-1 V 0 h -2.6407 v -1.2188 q -0.5312,0.75 -1.1875,1.0938 -0.6562,0.3438 -1.5937,0.3438 -1.2813,0 -2.0781,-0.75 -0.7969,-0.75 -0.7969,-1.9376 0,-1.4374 0.9922,-2.1093 0.9922,-0.6719 3.1172,-0.6719 h 1.5468 v -0.2031 q 0,-0.625 -0.4921,-0.9141 -0.4922,-0.289 -1.5235,-0.289 -0.8437,0 -1.5703,0.164 -0.7266,0.1641 -1.3516,0.5078 v -2 q 0.8438,-0.2031 1.6954,-0.3125 0.8515,-0.1093 1.6953,-0.1093 2.2187,0 3.2031,0.875 0.9844,0.875 0.9844,2.8437 z m 5.0776,-5.8437 v 2.3281 h 2.7031 v 1.875 h -2.7031 v 3.4843 q 0,0.5626 0.2265,0.7657 0.2266,0.2031 0.8985,0.2031 h 1.3437 V 0 h -2.25 q -1.5468,0 -2.1953,-0.6484 -0.6484,-0.6485 -0.6484,-2.1954 v -3.4843 h -1.2969 v -1.875 h 1.2969 v -2.3281 z m 8.0617,-0.4063 h 10.0781 v 2.1406 h -3.625 V 0 h -2.8281 v -8.7969 h -3.625 z M 303.7056,-5 v 5 h -2.625 v -0.8125 -3 q 0,-1.0781 -0.0469,-1.4766 -0.0469,-0.3984 -0.1719,-0.5859 -0.1562,-0.2656 -0.414,-0.4062 -0.2579,-0.1407 -0.6016,-0.1407 -0.8281,0 -1.2969,0.6328 -0.4687,0.6329 -0.4687,1.7579 V 0 h -2.6094 v -11.3906 h 2.6094 V -7 q 0.5937,-0.7188 1.2656,-1.0625 0.6719,-0.3437 1.4687,-0.3437 1.4219,0 2.1563,0.875 0.7344,0.875 0.7344,2.5312 z m 8.2933,-0.9688 q -0.3437,-0.1562 -0.6875,-0.2343 -0.3437,-0.0781 -0.6875,-0.0781 -1.0156,0 -1.5625,0.6484 -0.5468,0.6484 -0.5468,1.8516 V 0 h -2.6094 v -8.2031 h 2.6094 v 1.3437 q 0.5156,-0.7968 1.1718,-1.1718 0.6563,-0.375 1.5625,-0.375 0.1407,0 0.2891,0.0156 0.1484,0.0156 0.4453,0.0468 z m 9.3217,1.8438 v 0.75 H 315.18 q 0.0937,0.9219 0.6719,1.3828 0.5781,0.461 1.5937,0.461 0.8281,0 1.6953,-0.2422 0.8672,-0.2422 1.7891,-0.7422 V -0.5 q -0.9375,0.3594 -1.8672,0.5391 -0.9297,0.1797 -1.8516,0.1797 -2.2343,0 -3.4687,-1.1329 -1.2344,-1.1328 -1.2344,-3.1797 0,-2 1.211,-3.1562 1.2109,-1.1562 3.3359,-1.1562 1.9375,0 3.1016,1.164 1.164,1.1641 1.164,3.1172 z M 318.6175,-5 q 0,-0.75 -0.4375,-1.2031 -0.4375,-0.4531 -1.1406,-0.4531 -0.75,0 -1.2266,0.4296 -0.4766,0.4297 -0.6016,1.2266 z m 10.8621,-2.9531 v 2 q -0.8438,-0.3594 -1.625,-0.5313 -0.7813,-0.1718 -1.4844,-0.1718 -0.75,0 -1.1094,0.1874 -0.3594,0.1876 -0.3594,0.5782 0,0.3125 0.2735,0.4765 0.2734,0.1641 0.9765,0.2579 l 0.4688,0.0624 q 2.0156,0.25 2.7109,0.836 0.6953,0.5859 0.6953,1.8359 0,1.3125 -0.9687,1.9766 -0.9688,0.6641 -2.8906,0.6641 -0.8125,0 -1.6797,-0.1329 -0.8672,-0.1328 -1.7735,-0.3828 v -2 q 0.7813,0.3907 1.6016,0.5781 0.8203,0.1876 1.6797,0.1876 0.7656,0 1.1562,-0.211 0.3907,-0.2109 0.3907,-0.6328 0,-0.3438 -0.2735,-0.5156 -0.2734,-0.1719 -1.0703,-0.2813 l -0.4531,-0.0469 q -1.75,-0.2187 -2.4531,-0.8124 -0.7032,-0.5938 -0.7032,-1.8126 0,-1.2968 0.8907,-1.9296 0.8906,-0.6328 2.7343,-0.6328 0.7344,0 1.5313,0.1093 0.7969,0.1094 1.7344,0.3438 z M 340.0313,-5 v 5 h -2.625 v -0.8125 -3 q 0,-1.0781 -0.0469,-1.4766 -0.0468,-0.3984 -0.1718,-0.5859 -0.1563,-0.2656 -0.4141,-0.4062 -0.2578,-0.1407 -0.6016,-0.1407 -0.8281,0 -1.2968,0.6328 -0.4688,0.6329 -0.4688,1.7579 V 0 h -2.6094 v -11.3906 h 2.6094 V -7 q 0.5938,-0.7188 1.2656,-1.0625 0.6719,-0.3437 1.4688,-0.3437 1.4219,0 2.1562,0.875 0.7344,0.875 0.7344,2.5312 z m 6.0903,-1.5312 q -0.8594,0 -1.3204,0.625 -0.4609,0.625 -0.4609,1.8124 0,1.1719 0.4609,1.8047 0.461,0.6329 1.3204,0.6329 0.8593,0 1.3125,-0.6329 0.4531,-0.6328 0.4531,-1.8047 0,-1.1874 -0.4531,-1.8124 -0.4532,-0.625 -1.3125,-0.625 z m 0,-1.875 q 2.125,0 3.3125,1.1484 1.1875,1.1484 1.1875,3.164 0,2.0157 -1.1875,3.1641 -1.1875,1.1485 -3.3125,1.1485 -2.1094,0 -3.3125,-1.1485 -1.2032,-1.1484 -1.2032,-3.1641 0,-2.0156 1.2032,-3.164 1.2031,-1.1484 3.3125,-1.1484 z m 6.1783,-2.9844 h 2.6094 V 0 h -2.6094 z M 362.9018,-7 v -4.3906 h 2.6406 V 0 h -2.6406 v -1.1875 q -0.5469,0.7187 -1.1953,1.0625 -0.6484,0.3438 -1.5078,0.3438 -1.5156,0 -2.4922,-1.211 -0.9766,-1.2109 -0.9766,-3.1016 0,-1.8906 0.9766,-3.1015 0.9766,-1.2109 2.4922,-1.2109 0.8437,0 1.5,0.3437 0.6562,0.3437 1.2031,1.0625 z m -1.7344,5.3125 q 0.8438,0 1.2891,-0.6172 0.4453,-0.6172 0.4453,-1.7891 0,-1.1718 -0.4453,-1.789 -0.4453,-0.6172 -1.2891,-0.6172 -0.8281,0 -1.2734,0.6172 -0.4453,0.6172 -0.4453,1.789 0,1.1719 0.4453,1.7891 0.4453,0.6172 1.2734,0.6172 z m 16.1406,3.6719 h -2.1718 q -1.125,-1.8125 -1.6563,-3.4453 -0.5312,-1.6329 -0.5312,-3.2266 0,-1.6094 0.5312,-3.2578 0.5313,-1.6485 1.6563,-3.4297 h 2.1718 q -0.9375,1.7344 -1.4062,3.3906 -0.4688,1.6563 -0.4688,3.2813 0,1.6093 0.461,3.2734 0.4609,1.6641 1.414,3.4141 z"
         id="path437"
         inkscape:connector-curvature="0" />
    </g>
    <g
       transform="translate(452,24)"
       style="font-weight:bold;font-size:14.66670036px;font-family:mwb_cmmi10;color-interpolation:linearRGB;color-rendering:optimizeQuality;image-rendering:optimizeQuality;text-rendering:geometricPrecision"
       id="g443">
      <path
         style="stroke:none"
         d="m 4.4219,2.9375 q 0,-0.3437 0.1484,-0.9844 Q 4.7188,1.3125 4.9375,0.5859 5.1562,-0.1406 5.3125,-0.6094 5.375,-1.3594 5.375,-1.75 5.375,-2.7031 5.1797,-3.5391 4.9844,-4.375 4.4609,-4.9375 3.9375,-5.5 2.9844,-5.5 q 0,0 -0.2422,0.2188 Q 2.5,-5.0625 2.1484,-4.6875 1.7969,-4.3125 1.6562,-3.8281 1.625,-3.7344 0.5469,-3.7344 H 0.3594 q -0.125,0 -0.125,-0.1406 V -3.9219 Q 0.4062,-4.5938 0.8359,-5.2188 1.2656,-5.8438 1.8828,-6.2344 2.5,-6.625 3.1875,-6.625 q 1.7031,0 2.2187,0.4766 0.5157,0.4765 0.8204,1.2031 0.3046,0.7265 0.2734,1.4765 -0.0312,0.75 -0.0312,0.75 Q 6.5625,-4.1094 7.5,-5.9375 l 0.2344,-0.4844 q 0.0312,-0.0469 0.0937,-0.0469 h 0.1875 q 1.1094,0 1.1094,0.1407 0,0.0312 -0.0312,0.0937 L 8.875,-5.7656 Q 8.2188,-4.4688 7.6719,-3.1406 7.125,-1.8125 6.75,-0.5781 6.6875,-0.0625 6.5234,0.8125 6.3594,1.6875 6.125,2.4453 5.8906,3.2031 5.6562,3.2344 q -1.2343,0 -1.2343,-0.2969 z"
         id="path441"
         inkscape:connector-curvature="0" />
    </g>
    <g
       transform="translate(461,24)"
       style="font-weight:bold;font-size:14.66670036px;font-family:SansSerif;color-interpolation:linearRGB;color-rendering:optimizeQuality;image-rendering:optimizeQuality;text-rendering:geometricPrecision"
       id="g447">
      <path
         style="stroke:none"
         d="m 1.2031,1.9844 q 0.9375,-1.75 1.4063,-3.4141 0.4687,-1.6641 0.4687,-3.2734 0,-1.625 -0.4687,-3.2813 Q 2.1406,-9.6406 1.2031,-11.375 H 3.375 q 1.1094,1.7812 1.6484,3.4297 0.5391,1.6484 0.5391,3.2578 0,1.5937 -0.5313,3.2266 Q 4.5,0.1719 3.375,1.9844 Z m 7.089,-9.2188 h 9.3906 v 1.7188 H 8.2921 Z m 0,3.3438 h 9.3906 v 1.7344 H 8.2921 Z m 17.5928,-1.5938 q 0,-2.0468 -0.3906,-2.8828 -0.3906,-0.8359 -1.2969,-0.8359 -0.9062,0 -1.2968,0.8359 -0.3907,0.836 -0.3907,2.8828 0,2.0782 0.3907,2.9297 0.3906,0.8516 1.2968,0.8516 0.9063,0 1.2969,-0.8516 0.3906,-0.8515 0.3906,-2.9297 z m 2.8125,0.0313 q 0,2.7187 -1.1718,4.1953 -1.1719,1.4766 -3.3282,1.4766 -2.1562,0 -3.3281,-1.4766 -1.1719,-1.4766 -1.1719,-4.1953 0,-2.7344 1.1719,-4.211 1.1719,-1.4765 3.3281,-1.4765 2.1563,0 3.3282,1.4765 1.1718,1.4766 1.1718,4.211 z m 2.0104,2.625 h 2.6406 V 0 h -2.6406 z m 5.6301,-8.1094 h 7 v 2.0781 h -4.75 v 1.6875 q 0.3125,-0.0937 0.6407,-0.1406 0.3281,-0.0469 0.6718,-0.0469 2,0 3.1172,1 1.1172,1 1.1172,2.7969 0,1.7656 -1.2109,2.7734 -1.211,1.0079 -3.3672,1.0079 -0.9375,0 -1.8438,-0.1797 -0.9062,-0.1797 -1.8125,-0.5547 v -2.2188 q 0.8907,0.5156 1.6953,0.7735 0.8047,0.2578 1.5079,0.2578 1.0312,0 1.6171,-0.5 0.586,-0.5 0.586,-1.3594 0,-0.875 -0.586,-1.3672 -0.5859,-0.4922 -1.6171,-0.4922 -0.6094,0 -1.2969,0.1563 -0.6875,0.1562 -1.4688,0.4844 z"
         id="path445"
         inkscape:connector-curvature="0" />
    </g>
    <g
       style="color-interpolation:linearRGB;fill:#262626;stroke:#262626;stroke-width:0.66670001;stroke-linecap:round;stroke-linejoin:round;color-rendering:optimizeQuality;image-rendering:optimizeQuality;text-rendering:geometricPrecision"
       id="g451">
      <line
         y2="289.1618"
         style="fill:none"
         x1="73"
         x2="69.126099"
         y1="289.82291"
         id="line449" />
    </g>
    <g
       style="color-interpolation:sRGB;fill:#3d26a8;stroke:#3d26a8;color-rendering:optimizeSpeed;image-rendering:optimizeSpeed;shape-rendering:crispEdges;text-rendering:optimizeSpeed"
       id="g455">
      <path
         style="stroke:none"
         d="m 305.4332,313.8516 -77.4778,-3.0778 31.0223,-36.2353 z"
         id="path453"
         inkscape:connector-curvature="0" />
    </g>
    <g
       style="color-interpolation:linearRGB;stroke-width:0.66670001;stroke-linecap:round;stroke-linejoin:round;color-rendering:optimizeQuality;image-rendering:optimizeQuality;text-rendering:geometricPrecision"
       id="g459">
      <line
         y2="310.7738"
         style="fill:none"
         x1="258.97769"
         x2="227.9554"
         y1="274.53851"
         id="line457" />
    </g>
    <g
       style="color-interpolation:sRGB;fill:#3d26a8;stroke:#3d26a8;color-rendering:optimizeSpeed;image-rendering:optimizeSpeed;shape-rendering:crispEdges;text-rendering:optimizeSpeed"
       id="g463">
      <path
         style="stroke:none"
         d="m 258.9777,274.5385 77.4777,3.4758 -31.0222,35.8373 z"
         id="path461"
         inkscape:connector-curvature="0" />
    </g>
    <g
       style="color-interpolation:linearRGB;stroke-width:0.66670001;stroke-linecap:round;stroke-linejoin:round;color-rendering:optimizeQuality;image-rendering:optimizeQuality;text-rendering:geometricPrecision"
       id="g467">
      <line
         y2="278.01431"
         style="fill:none"
         x1="258.97769"
         x2="336.45541"
         y1="274.53851"
         id="line465" />
    </g>
    <g
       transform="translate(147,400)"
       style="font-size:14.66670036px;font-family:SansSerif;color-interpolation:linearRGB;fill:#262626;stroke:#262626;color-rendering:optimizeQuality;image-rendering:optimizeQuality;text-rendering:geometricPrecision"
       id="g471">
      <path
         style="stroke:none"
         d="m 2.9531,-9.7188 v 4.1094 h 1.8594 q 1.0313,0 1.5937,-0.539 0.5626,-0.5391 0.5626,-1.5235 0,-0.9843 -0.5626,-1.5156 -0.5624,-0.5313 -1.5937,-0.5313 z m -1.4843,-1.2187 h 3.3437 q 1.8437,0 2.7813,0.8359 0.9374,0.836 0.9374,2.4297 0,1.625 -0.9374,2.4531 -0.9376,0.8282 -2.7813,0.8282 H 2.9531 V 0 H 1.4688 Z m 8.6506,7.7031 v -4.9687 h 1.3437 v 4.9219 q 0,1.1562 0.4531,1.7421 0.4532,0.586 1.3594,0.586 1.0938,0 1.7266,-0.6953 0.6328,-0.6954 0.6328,-1.8985 v -4.6562 h 1.3437 V 0 H 15.635 v -1.2656 q -0.4844,0.75 -1.1328,1.1172 -0.6485,0.3672 -1.5078,0.3672 -1.4219,0 -2.1485,-0.8829 -0.7265,-0.8828 -0.7265,-2.5703 z M 26.3615,-4.9531 V 0 h -1.3438 v -4.9062 q 0,-1.1719 -0.4531,-1.75 -0.4531,-0.5782 -1.375,-0.5782 -1.0781,0 -1.7109,0.6953 -0.6329,0.6953 -0.6329,1.8985 V 0 h -1.3593 v -8.2031 h 1.3593 v 1.2812 q 0.4844,-0.75 1.1407,-1.1172 0.6562,-0.3671 1.5156,-0.3671 1.4062,0 2.1328,0.875 0.7266,0.875 0.7266,2.5781 z m 2.4608,-3.25 h 1.3594 V 0 h -1.3594 z m 0,-3.1875 h 1.3594 v 1.7031 h -1.3594 z m 9.3064,3.4218 v 1.2813 q -0.5625,-0.2969 -1.1797,-0.4375 -0.6172,-0.1406 -1.2735,-0.1406 -1.0156,0 -1.5156,0.3047 -0.5,0.3047 -0.5,0.914 0,0.4688 0.3594,0.7344 0.3594,0.2656 1.4531,0.5156 l 0.4531,0.1094 q 1.4375,0.2969 2.0391,0.8594 0.6016,0.5625 0.6016,1.5625 0,1.1406 -0.8985,1.8125 -0.8984,0.6719 -2.4922,0.6719 -0.6562,0 -1.3672,-0.1329 -0.7109,-0.1328 -1.5078,-0.3828 v -1.3906 q 0.75,0.3906 1.4766,0.5781 0.7266,0.1875 1.4297,0.1875 0.9531,0 1.4687,-0.3203 0.5157,-0.3203 0.5157,-0.914 0,-0.5469 -0.375,-0.8438 -0.375,-0.2969 -1.625,-0.5625 l -0.4688,-0.1094 q -1.25,-0.2656 -1.8047,-0.8125 -0.5547,-0.5468 -0.5547,-1.5 0,-1.1562 0.8203,-1.789 0.8204,-0.6328 2.3204,-0.6328 0.75,0 1.414,0.1093 0.6641,0.1094 1.211,0.3281 z m 9.2296,3.0157 V 0 h -1.3438 v -4.9062 q 0,-1.1719 -0.4531,-1.75 -0.4531,-0.5782 -1.375,-0.5782 -1.0781,0 -1.711,0.6953 -0.6328,0.6953 -0.6328,1.8985 V 0 h -1.3593 v -11.3906 h 1.3593 v 4.4687 q 0.4844,-0.75 1.1407,-1.1172 0.6562,-0.3671 1.5156,-0.3671 1.4062,0 2.1328,0.875 0.7266,0.875 0.7266,2.5781 z m 8.8514,-1.6719 q 0.5157,-0.9062 1.2188,-1.3438 0.7031,-0.4374 1.6562,-0.4374 1.2813,0 1.9766,0.8984 0.6953,0.8984 0.6953,2.5547 V 0 h -1.3594 v -4.9062 q 0,-1.1876 -0.4218,-1.7579 -0.4219,-0.5703 -1.2657,-0.5703 -1.0468,0 -1.6562,0.6953 -0.6094,0.6953 -0.6094,1.8985 V 0 h -1.3594 v -4.9062 q 0,-1.1876 -0.414,-1.7579 -0.4141,-0.5703 -1.2891,-0.5703 -1.0312,0 -1.6406,0.7032 -0.6094,0.7031 -0.6094,1.8906 V 0 h -1.3594 v -8.2031 h 1.3594 v 1.2812 q 0.4531,-0.7656 1.1016,-1.125 0.6484,-0.3593 1.539,-0.3593 0.8907,0 1.5157,0.4531 0.625,0.4531 0.9218,1.3281 z m 14.9176,2.1875 v 0.6563 h -6.2031 q 0.0937,1.3906 0.8437,2.1171 0.75,0.7266 2.0782,0.7266 0.7812,0 1.5078,-0.1875 0.7265,-0.1875 1.4453,-0.5625 v 1.2656 q -0.7188,0.3125 -1.4844,0.4766 -0.7656,0.1641 -1.5469,0.1641 -1.9531,0 -3.1015,-1.1485 -1.1485,-1.1484 -1.1485,-3.0859 0,-2.0156 1.086,-3.2032 1.0859,-1.1874 2.9297,-1.1874 1.6562,0 2.625,1.0703 0.9687,1.0703 0.9687,2.8984 z m -1.3594,-0.3906 q -0.0156,-1.1094 -0.6171,-1.7735 -0.6016,-0.664 -1.6016,-0.664 -1.125,0 -1.8047,0.6406 -0.6797,0.6406 -0.7734,1.7969 z m 10.1733,-0.125 V 0 h -1.3437 v -4.9062 q 0,-1.1719 -0.4532,-1.75 -0.4531,-0.5782 -1.375,-0.5782 -1.0781,0 -1.7109,0.6953 -0.6328,0.6953 -0.6328,1.8985 V 0 h -1.3594 v -8.2031 h 1.3594 v 1.2812 q 0.4844,-0.75 1.1406,-1.1172 0.6563,-0.3671 1.5156,-0.3671 1.4063,0 2.1329,0.875 0.7265,0.875 0.7265,2.5781 z m 3.8046,-5.5781 v 2.3281 h 2.7656 v 1.0469 h -2.7656 v 4.4531 q 0,1 0.2735,1.289 0.2734,0.2891 1.1171,0.2891 h 1.375 V 0 h -1.375 q -1.5625,0 -2.1562,-0.5859 -0.5938,-0.586 -0.5938,-2.1172 v -4.4531 h -0.9843 v -1.0469 h 0.9843 v -2.3281 z m 12.3116,-0.8438 q -0.9843,1.6719 -1.4609,3.3203 -0.4766,1.6485 -0.4766,3.3516 0,1.6875 0.4766,3.3437 0.4766,1.6563 1.4609,3.3438 H 94.8856 Q 93.7762,0.25 93.2371,-1.4062 q -0.539,-1.6563 -0.539,-3.2969 0,-1.6407 0.539,-3.2969 0.5391,-1.6562 1.6485,-3.375 z"
         id="path469"
         inkscape:connector-curvature="0" />
    </g>
    <g
       transform="translate(245,400)"
       style="font-size:14.66670036px;font-family:mwb_cmmi10;color-interpolation:linearRGB;fill:#262626;stroke:#262626;color-rendering:optimizeQuality;image-rendering:optimizeQuality;text-rendering:geometricPrecision"
       id="g475">
      <path
         style="stroke:none"
         d="M 0.4062,2.9062 Q 0.3594,2.9062 0.3203,2.8594 0.2812,2.8125 0.2812,2.7656 l 2.3126,-9.2812 q 0.2031,-0.75 0.5781,-1.4532 0.375,-0.7031 0.9531,-1.3046 0.5781,-0.6016 1.2656,-0.9532 0.6875,-0.3515 1.4688,-0.3515 0.5468,0 1,0.25 0.4531,0.25 0.7109,0.6875 0.2578,0.4375 0.2578,1 0,0.5312 -0.2031,1.0156 -0.2031,0.4844 -0.5703,0.9062 -0.3672,0.4219 -0.7891,0.6876 0.25,0.1562 0.4375,0.3984 0.1875,0.2422 0.3047,0.5 0.1172,0.2578 0.1875,0.5781 0.0703,0.3203 0.0703,0.5859 0,0.7813 -0.3281,1.5235 Q 7.6094,-1.7031 7.0391,-1.0938 6.4688,-0.4844 5.7344,-0.125 5,0.2344 4.2344,0.2344 q -0.8438,0 -1.5156,-0.4688 -0.6719,-0.4687 -0.9376,-1.25 L 0.7031,2.8125 q 0,0.0937 -0.1093,0.0937 z m 3.8594,-3.0937 q 0.6719,0 1.2188,-0.4375 0.5468,-0.4375 0.8984,-1.1094 0.3516,-0.6718 0.5391,-1.4218 0.1875,-0.75 0.1875,-1.375 0,-0.75 -0.4375,-1.2032 -0.5157,0.2032 -1,0.2032 -1.1875,0 -1.1875,-0.4063 0,-0.5313 1.3594,-0.5313 0.4843,0 0.875,0.1563 0.3281,-0.25 0.5937,-0.7344 0.2656,-0.4843 0.3984,-1.0078 0.1329,-0.5234 0.1329,-0.9922 0,-0.4843 -0.2579,-0.8125 -0.2578,-0.3281 -0.7578,-0.3281 -0.9219,0 -1.7031,0.5625 -0.7812,0.5625 -1.3281,1.4219 -0.5469,0.8593 -0.7813,1.7812 l -0.8281,3.3125 q -0.0781,0.3438 -0.0937,0.7656 0,0.9376 0.6093,1.5469 0.6094,0.6094 1.5625,0.6094 z m 0.6719,-5.7969 q 0.2187,0.0625 0.75,0.0625 0.25,0 0.5156,-0.0937 -0.0156,-0.0156 -0.0625,-0.0156 -0.1562,-0.0469 -0.3437,-0.0469 -0.6875,0 -0.8594,0.0937 z"
         id="path473"
         inkscape:connector-curvature="0" />
    </g>
    <g
       transform="translate(254,400)"
       style="font-size:14.66670036px;font-family:SansSerif;color-interpolation:linearRGB;fill:#262626;stroke:#262626;color-rendering:optimizeQuality;image-rendering:optimizeQuality;text-rendering:geometricPrecision"
       id="g479">
      <path
         style="stroke:none"
         d="M 1.2031,-11.375 H 2.375 q 1.0938,1.7188 1.6406,3.375 0.5469,1.6562 0.5469,3.2969 0,1.6406 -0.5469,3.2969 Q 3.4688,0.25 2.375,1.9844 H 1.2031 q 0.9688,-1.6875 1.4531,-3.3438 0.4844,-1.6562 0.4844,-3.3437 0,-1.7031 -0.4844,-3.3516 -0.4843,-1.6484 -1.4531,-3.3203 z"
         id="path477"
         inkscape:connector-curvature="0" />
    </g>
    <g
       style="color-interpolation:linearRGB;fill:#262626;stroke:#262626;stroke-width:0.66670001;stroke-linecap:round;stroke-linejoin:round;color-rendering:optimizeQuality;image-rendering:optimizeQuality;text-rendering:geometricPrecision"
       id="g491">
      <line
         y2="353.28409"
         style="fill:none"
         x1="227.9554"
         x2="222.5739"
         y1="347.5556"
         id="line481" />
      <line
         y2="285.12701"
         style="fill:none"
         x1="73"
         x2="69.126099"
         y1="285.78809"
         id="line483" />
      <line
         y2="281.71552"
         style="fill:none"
         x1="73"
         x2="69.126099"
         y1="282.37659"
         id="line485" />
      <line
         y2="278.76041"
         style="fill:none"
         x1="73"
         x2="69.126099"
         y1="279.42151"
         id="line487" />
      <line
         y2="276.15381"
         style="fill:none"
         x1="73"
         x2="69.126099"
         y1="276.81491"
         id="line489" />
    </g>
    <g
       transform="translate(36,278)"
       style="font-size:13.33329964px;font-family:SansSerif;color-interpolation:linearRGB;fill:#262626;stroke:#262626;color-rendering:optimizeQuality;image-rendering:optimizeQuality;text-rendering:geometricPrecision"
       id="g495">
      <path
         style="stroke:none"
         d="m 1.6094,-1.0781 h 2.0937 v -7.2344 l -2.2812,0.4531 v -1.1562 l 2.2656,-0.4688 h 1.2969 v 8.4063 H 7.0781 V 0 H 1.6094 Z m 10.9854,-7.5625 q -0.9844,0 -1.4844,0.9765 -0.5,0.9766 -0.5,2.9297 0,1.9532 0.5,2.9297 0.5,0.9766 1.4844,0.9766 1,0 1.5,-0.9766 0.5,-0.9765 0.5,-2.9297 0,-1.9531 -0.5,-2.9297 -0.5,-0.9765 -1.5,-0.9765 z m 0,-1.0156 q 1.5938,0 2.4375,1.2656 0.8438,1.2656 0.8438,3.6562 0,2.3906 -0.8438,3.6563 -0.8437,1.2656 -2.4375,1.2656 -1.5781,0 -2.4219,-1.2656 -0.8437,-1.2657 -0.8437,-3.6563 0,-2.3906 0.8437,-3.6562 0.8438,-1.2656 2.4219,-1.2656 z"
         id="path493"
         inkscape:connector-curvature="0" />
    </g>
    <g
       transform="translate(53,272)"
       style="font-size:10.66670036px;font-family:SansSerif;color-interpolation:linearRGB;fill:#262626;stroke:#262626;color-rendering:optimizeQuality;image-rendering:optimizeQuality;text-rendering:geometricPrecision"
       id="g499">
      <path
         style="stroke:none"
         d="M 4.1562,-7.0781 1.4219,-2.7969 H 4.1562 Z M 3.875,-8.0156 h 1.3594 v 5.2187 H 6.375 v 0.9063 H 5.2344 V 0 H 4.1562 v -1.8906 h -3.625 v -1.0469 z"
         id="path497"
         inkscape:connector-curvature="0" />
    </g>
    <g
       transform="translate(218.9222,357.1712)"
       style="font-size:13.33329964px;font-family:SansSerif;color-interpolation:linearRGB;fill:#262626;stroke:#262626;color-rendering:optimizeQuality;image-rendering:optimizeQuality;text-rendering:geometricPrecision"
       id="g503">
      <path
         style="stroke:none"
         d="m -17.875,4.3594 q -0.9844,0 -1.4844,0.9765 -0.5,0.9766 -0.5,2.9297 0,1.9532 0.5,2.9297 0.5,0.9766 1.4844,0.9766 1,0 1.5,-0.9766 0.5,-0.9765 0.5,-2.9297 0,-1.9531 -0.5,-2.9297 -0.5,-0.9765 -1.5,-0.9765 z m 0,-1.0156 q 1.5938,0 2.4375,1.2656 0.8437,1.2656 0.8437,3.6562 0,2.3906 -0.8437,3.6563 -0.8437,1.2656 -2.4375,1.2656 -1.5781,0 -2.4219,-1.2656 -0.8437,-1.2657 -0.8437,-3.6563 0,-2.3906 0.8437,-3.6562 0.8438,-1.2656 2.4219,-1.2656 z m 5.7354,8.0468 h 1.3438 V 13 h -1.3438 z m 8.1223,-3.5 q 0.9219,0.2032 1.4375,0.8203 0.5157,0.6172 0.5157,1.5391 0,1.3906 -0.9688,2.1641 -0.9687,0.7734 -2.75,0.7734 -0.5937,0 -1.2266,-0.1172 -0.6328,-0.1172 -1.3046,-0.3515 v -1.25 q 0.5468,0.3124 1.1796,0.4765 0.6329,0.1641 1.3204,0.1641 1.2031,0 1.8359,-0.4766 0.6328,-0.4766 0.6328,-1.3828 0,-0.8438 -0.5859,-1.3125 -0.586,-0.4687 -1.6328,-0.4687 H -6.6735 V 7.4062 h 1.1562 q 0.9532,0 1.4532,-0.375 0.5,-0.375 0.5,-1.0937 0,-0.7187 -0.5157,-1.1094 -0.5156,-0.3906 -1.4843,-0.3906 -0.5313,0 -1.1329,0.1094 -0.6015,0.1093 -1.3203,0.3593 V 3.75 q 0.7188,-0.2031 1.3594,-0.3047 0.6406,-0.1015 1.2031,-0.1015 1.4688,0 2.3203,0.664 0.8516,0.6641 0.8516,1.8047 0,0.7813 -0.4531,1.3281 -0.4531,0.5469 -1.2813,0.75 z"
         id="path501"
         inkscape:connector-curvature="0" />
    </g>
    <g
       style="color-interpolation:linearRGB;fill:#262626;stroke:#262626;stroke-width:0.66670001;stroke-linejoin:round;color-rendering:optimizeQuality;image-rendering:optimizeQuality;text-rendering:geometricPrecision"
       id="g511">
      <line
         y2="273.16101"
         style="fill:none"
         x1="73"
         x2="65.252197"
         y1="274.48318"
         id="line505" />
      <line
         x1="73"
         x2="69.126099"
         y1="274.48318"
         style="fill:none;stroke-linecap:round"
         y2="273.82211"
         id="line507" />
      <line
         x1="305.4332"
         x2="300.05161"
         y1="360.7778"
         style="fill:none;stroke-linecap:round"
         y2="366.50629"
         id="line509" />
    </g>
    <g
       style="color-interpolation:sRGB;fill:#3d26a8;stroke:#3d26a8;color-rendering:optimizeSpeed;image-rendering:optimizeSpeed;shape-rendering:crispEdges;text-rendering:optimizeSpeed"
       id="g515">
      <path
         style="stroke:none"
         d="m 336.4554,278.0143 77.4778,-21.2814 -31.0223,69.3797 -77.4777,-12.261 z"
         id="path513"
         inkscape:connector-curvature="0" />
    </g>
    <g
       style="color-interpolation:linearRGB;stroke-width:0.66670001;stroke-linecap:round;stroke-linejoin:round;color-rendering:optimizeQuality;image-rendering:optimizeQuality;text-rendering:geometricPrecision"
       id="g523">
      <line
         y2="313.85159"
         style="fill:none"
         x1="336.45541"
         x2="305.4332"
         y1="278.01431"
         id="line517" />
      <line
         y2="256.73291"
         style="fill:none"
         x1="336.45541"
         x2="413.9332"
         y1="278.01431"
         id="line519" />
      <line
         y2="153.2263"
         style="fill:none"
         x1="507"
         x2="475.97769"
         y1="83.888702"
         id="line521" />
    </g>
    <g
       transform="translate(296.4,370.3934)"
       style="font-size:13.33329964px;font-family:SansSerif;color-interpolation:linearRGB;fill:#262626;stroke:#262626;color-rendering:optimizeQuality;image-rendering:optimizeQuality;text-rendering:geometricPrecision"
       id="g527">
      <path
         style="stroke:none"
         d="m -17.875,4.3594 q -0.9844,0 -1.4844,0.9765 -0.5,0.9766 -0.5,2.9297 0,1.9532 0.5,2.9297 0.5,0.9766 1.4844,0.9766 1,0 1.5,-0.9766 0.5,-0.9765 0.5,-2.9297 0,-1.9531 -0.5,-2.9297 -0.5,-0.9765 -1.5,-0.9765 z m 0,-1.0156 q 1.5938,0 2.4375,1.2656 0.8437,1.2656 0.8437,3.6562 0,2.3906 -0.8437,3.6563 -0.8437,1.2656 -2.4375,1.2656 -1.5781,0 -2.4219,-1.2656 -0.8437,-1.2657 -0.8437,-3.6563 0,-2.3906 0.8437,-3.6562 0.8438,-1.2656 2.4219,-1.2656 z m 5.7354,8.0468 h 1.3438 V 13 h -1.3438 z m 7.7473,-6.75 -3.2343,5.0625 h 3.2343 z m -0.3281,-1.125 h 1.6094 v 6.1875 h 1.3594 v 1.0625 H -3.111 V 13 H -4.3923 V 10.7656 H -8.6579 V 9.5312 Z"
         id="path525"
         inkscape:connector-curvature="0" />
    </g>
    <g
       style="color-interpolation:linearRGB;fill:#262626;stroke:#262626;stroke-width:0.66670001;stroke-linecap:round;stroke-linejoin:round;color-rendering:optimizeQuality;image-rendering:optimizeQuality;text-rendering:geometricPrecision"
       id="g537">
      <line
         y2="258.48239"
         style="fill:none"
         x1="73"
         x2="69.126099"
         y1="259.14349"
         id="line529" />
      <line
         x1="475.97769"
         x2="444.95541"
         y1="153.2263"
         style="fill:none;stroke:#000000"
         y2="215.6049"
         id="line531" />
      <line
         x1="382.91089"
         x2="390.65869"
         y1="374"
         style="fill:none;stroke-linecap:square"
         y2="375.3222"
         id="line533" />
      <line
         x1="382.91089"
         x2="377.52939"
         y1="374"
         style="fill:none;stroke-linecap:square"
         y2="379.72849"
         id="line535" />
    </g>
    <g
       transform="translate(395.916,376.2194)"
       style="font-size:13.33329964px;font-family:SansSerif;color-interpolation:linearRGB;fill:#262626;stroke:#262626;color-rendering:optimizeQuality;image-rendering:optimizeQuality;text-rendering:geometricPrecision"
       id="g541">
      <path
         style="stroke:none"
         d="M 1.6094,11.9219 H 3.7031 V 4.6875 L 1.4219,5.1406 V 3.9844 L 3.6875,3.5156 h 1.2969 v 8.4063 H 7.0781 V 13 H 1.6094 Z"
         id="path539"
         inkscape:connector-curvature="0" />
    </g>
    <g
       style="color-interpolation:linearRGB;stroke-width:0.66670001;stroke-linecap:round;stroke-linejoin:round;color-rendering:optimizeQuality;image-rendering:optimizeQuality;text-rendering:geometricPrecision"
       id="g551">
      <line
         y2="313.85159"
         style="fill:none"
         x1="227.9554"
         x2="305.4332"
         y1="310.7738"
         id="line543" />
      <line
         x1="73"
         x2="69.126099"
         y1="250.1703"
         style="fill:none;stroke:#262626"
         y2="249.5092"
         id="line545" />
      <line
         y2="256.73291"
         style="fill:none"
         x1="444.95541"
         x2="413.9332"
         y1="215.6049"
         id="line547" />
      <line
         x1="73"
         x2="69.126099"
         y1="243.8038"
         style="fill:none;stroke:#262626"
         y2="243.1427"
         id="line549" />
    </g>
    <g
       transform="translate(373.8777,383.6156)"
       style="font-size:13.33329964px;font-family:SansSerif;color-interpolation:linearRGB;fill:#262626;stroke:#262626;color-rendering:optimizeQuality;image-rendering:optimizeQuality;text-rendering:geometricPrecision"
       id="g555">
      <path
         style="stroke:none"
         d="m -17.875,4.3594 q -0.9844,0 -1.4844,0.9765 -0.5,0.9766 -0.5,2.9297 0,1.9532 0.5,2.9297 0.5,0.9766 1.4844,0.9766 1,0 1.5,-0.9766 0.5,-0.9765 0.5,-2.9297 0,-1.9531 -0.5,-2.9297 -0.5,-0.9765 -1.5,-0.9765 z m 0,-1.0156 q 1.5938,0 2.4375,1.2656 0.8437,1.2656 0.8437,3.6562 0,2.3906 -0.8437,3.6563 -0.8437,1.2656 -2.4375,1.2656 -1.5781,0 -2.4219,-1.2656 -0.8437,-1.2657 -0.8437,-3.6563 0,-2.3906 0.8437,-3.6562 0.8438,-1.2656 2.4219,-1.2656 z m 5.7354,8.0468 h 1.3438 V 13 h -1.3438 z m 4.2473,-7.875 h 5.0313 v 1.0938 h -3.8594 v 2.3125 q 0.2813,-0.0938 0.5625,-0.1407 0.2813,-0.0468 0.5469,-0.0468 1.5937,0 2.5234,0.8672 0.9297,0.8672 0.9297,2.3515 0,1.5313 -0.9531,2.3828 -0.9531,0.8516 -2.6875,0.8516 -0.5938,0 -1.2188,-0.1016 -0.625,-0.1015 -1.2812,-0.3047 v -1.2968 q 0.5781,0.3125 1.1875,0.4687 0.6094,0.1563 1.2812,0.1563 1.1094,0 1.75,-0.5782 0.6407,-0.5781 0.6407,-1.5781 0,-0.9843 -0.6407,-1.5625 -0.6406,-0.5781 -1.75,-0.5781 -0.5156,0 -1.0234,0.1172 -0.5078,0.1172 -1.0391,0.3515 z"
         id="path553"
         inkscape:connector-curvature="0" />
    </g>
    <g
       transform="rotate(-90,136.95345,105.14655)"
       style="font-size:14.66670036px;font-family:SansSerif;color-interpolation:linearRGB;fill:#262626;stroke:#262626;color-rendering:optimizeQuality;image-rendering:optimizeQuality;text-rendering:geometricPrecision"
       id="g559">
      <path
         style="stroke:none"
         d="m -34.5312,-14.9375 h 6.9218 v 1.25 h -5.4375 v 3.2344 h 5.2031 v 1.25 h -5.2031 V -5.25 h 5.5625 V -4 h -7.0468 z m 16.0259,5.9844 V -4 h -1.3437 v -4.9062 q 0,-1.1719 -0.4532,-1.75 -0.4531,-0.5782 -1.375,-0.5782 -1.0781,0 -1.7109,0.6953 -0.6328,0.6953 -0.6328,1.8985 V -4 h -1.3594 v -8.2031 h 1.3594 v 1.2812 q 0.4844,-0.75 1.1406,-1.1172 0.6563,-0.3671 1.5156,-0.3671 1.4063,0 2.1329,0.875 0.7265,0.875 0.7265,2.5781 z m 9.4921,0.5156 v 0.6563 h -6.2031 q 0.0937,1.3906 0.8437,2.1171 0.75,0.7266 2.0782,0.7266 0.7812,0 1.5078,-0.1875 0.7265,-0.1875 1.4453,-0.5625 v 1.2656 q -0.7188,0.3125 -1.4844,0.4766 -0.7656,0.1641 -1.5469,0.1641 -1.9531,0 -3.1015,-1.1485 -1.1485,-1.1484 -1.1485,-3.0859 0,-2.0156 1.086,-3.2032 1.0859,-1.1874 2.9297,-1.1874 1.6562,0 2.625,1.0703 0.9687,1.0703 0.9687,2.8984 z m -1.3594,-0.3906 q -0.0156,-1.1094 -0.6171,-1.7735 -0.6016,-0.664 -1.6016,-0.664 -1.125,0 -1.8047,0.6406 -0.6797,0.6406 -0.7734,1.7969 z m 8.1108,-2.1094 q -0.2344,-0.1406 -0.5,-0.2031 -0.2656,-0.0625 -0.5937,-0.0625 -1.1407,0 -1.75,0.7422 -0.6094,0.7421 -0.6094,2.1328 V -4 h -1.3594 v -8.2031 h 1.3594 v 1.2812 q 0.4219,-0.75 1.1016,-1.1172 0.6796,-0.3671 1.664,-0.3671 0.1406,0 0.3047,0.0234 0.1641,0.0234 0.3672,0.0547 z m 6.6663,2.7344 q 0,-1.4531 -0.6016,-2.2578 -0.6015,-0.8047 -1.6953,-0.8047 -1.0937,0 -1.6953,0.8047 -0.6015,0.8047 -0.6015,2.2578 0,1.4687 0.6015,2.2734 0.6016,0.8047 1.6953,0.8047 1.0938,0 1.6953,-0.8047 0.6016,-0.8047 0.6016,-2.2734 z m 1.3438,3.1875 q 0,2.0937 -0.9297,3.1172 -0.9297,1.0234 -2.8516,1.0234 -0.7031,0 -1.3359,-0.1094 -0.6328,-0.1094 -1.2266,-0.3281 V -2.625 q 0.5938,0.3281 1.1719,0.4766 Q 1.1545,-2 1.7639,-2 3.092,-2 3.7483,-2.6875 4.4045,-3.375 4.4045,-4.7812 V -5.4375 Q 3.9826,-4.7188 3.3342,-4.3594 2.6858,-4 1.7795,-4 0.2639,-4 -0.658,-5.1484 q -0.9219,-1.1485 -0.9219,-3.0547 0,-1.8907 0.9219,-3.0469 0.9219,-1.1562 2.4375,-1.1562 0.9063,0 1.5547,0.3593 0.6484,0.3594 1.0703,1.0938 v -1.25 h 1.3438 z m 5.9751,1.7812 q -0.5781,1.4688 -1.1172,1.9141 -0.539,0.4453 -1.4453,0.4453 H 8.0828 V -2 h 0.7969 q 0.5468,0 0.8593,-0.2656 0.3125,-0.2656 0.6719,-1.25 l 0.25,-0.6094 -3.3125,-8.0781 h 1.4219 l 2.5625,6.4219 2.5625,-6.4219 h 1.4375 z M 24.8839,-15.375 q -0.9844,1.6719 -1.461,3.3203 -0.4765,1.6485 -0.4765,3.3516 0,1.6875 0.4765,3.3437 0.4766,1.6563 1.461,3.3438 H 23.712 q -1.1094,-1.7344 -1.6484,-3.3906 -0.5391,-1.6563 -0.5391,-3.2969 0,-1.6407 0.5391,-3.2969 0.539,-1.6562 1.6484,-3.375 z m 2.5304,0.4375 h 1.4844 v 10.1719 q 0,1.9844 -0.75,2.875 Q 27.3987,-1 25.7268,-1 h -0.5625 v -1.2344 h 0.4688 q 0.9843,0 1.3828,-0.5547 0.3984,-0.5547 0.3984,-1.9765 z m 4.0568,-0.4375 h 1.1719 q 1.0938,1.7188 1.6406,3.375 0.5469,1.6562 0.5469,3.2969 0,1.6406 -0.5469,3.2969 -0.5468,1.6562 -1.6406,3.3906 h -1.1719 q 0.9688,-1.6875 1.4532,-3.3438 0.4843,-1.6562 0.4843,-3.3437 0,-1.7031 -0.4843,-3.3516 -0.4844,-1.6484 -1.4532,-3.3203 z"
         id="path557"
         inkscape:connector-curvature="0" />
    </g>
    <g
       style="color-interpolation:linearRGB;fill:#262626;stroke:#262626;stroke-width:0.66670001;stroke-linecap:round;stroke-linejoin:round;color-rendering:optimizeQuality;image-rendering:optimizeQuality;text-rendering:geometricPrecision"
       id="g593">
      <line
         y2="238.20441"
         style="fill:none"
         x1="73"
         x2="69.126099"
         y1="238.86549"
         id="line561" />
      <line
         y2="234.16949"
         style="fill:none"
         x1="73"
         x2="69.126099"
         y1="234.8306"
         id="line563" />
      <line
         y2="230.7581"
         style="fill:none"
         x1="73"
         x2="69.126099"
         y1="231.4192"
         id="line565" />
      <line
         y2="227.8029"
         style="fill:none"
         x1="73"
         x2="69.126099"
         y1="228.4641"
         id="line567" />
      <line
         y2="225.1963"
         style="fill:none"
         x1="73"
         x2="69.126099"
         y1="225.8575"
         id="line569" />
      <line
         x1="305.4332"
         x2="382.91089"
         y1="313.85159"
         style="fill:none;stroke:#000000;stroke-linecap:butt"
         y2="326.11261"
         id="line571" />
      <line
         y2="222.8647"
         style="fill:none"
         x1="73"
         x2="69.126099"
         y1="223.5258"
         id="line573" />
      <line
         x1="413.9332"
         x2="382.91089"
         y1="256.73291"
         style="fill:none;stroke:#000000;stroke-linecap:butt"
         y2="326.11261"
         id="line575" />
      <line
         y2="207.5249"
         style="fill:none"
         x1="73"
         x2="69.126099"
         y1="208.1861"
         id="line577" />
      <line
         y2="198.5518"
         style="fill:none"
         x1="73"
         x2="69.126099"
         y1="199.21291"
         id="line579" />
      <line
         y2="192.1852"
         style="fill:none"
         x1="73"
         x2="69.126099"
         y1="192.8463"
         id="line581" />
      <line
         y2="187.2469"
         style="fill:none"
         x1="73"
         x2="69.126099"
         y1="187.908"
         id="line583" />
      <line
         y2="183.2121"
         style="fill:none"
         x1="73"
         x2="69.126099"
         y1="183.8732"
         id="line585" />
      <line
         y2="179.8006"
         style="fill:none"
         x1="73"
         x2="69.126099"
         y1="180.4617"
         id="line587" />
      <line
         y2="176.8455"
         style="fill:none"
         x1="73"
         x2="69.126099"
         y1="177.50661"
         id="line589" />
      <line
         y2="174.23891"
         style="fill:none"
         x1="73"
         x2="69.126099"
         y1="174.89999"
         id="line591" />
    </g>
    <g
       transform="translate(36,176)"
       style="font-size:13.33329964px;font-family:SansSerif;color-interpolation:linearRGB;fill:#262626;stroke:#262626;color-rendering:optimizeQuality;image-rendering:optimizeQuality;text-rendering:geometricPrecision"
       id="g597">
      <path
         style="stroke:none"
         d="m 1.6094,-1.0781 h 2.0937 v -7.2344 l -2.2812,0.4531 v -1.1562 l 2.2656,-0.4688 h 1.2969 v 8.4063 H 7.0781 V 0 H 1.6094 Z m 10.9854,-7.5625 q -0.9844,0 -1.4844,0.9765 -0.5,0.9766 -0.5,2.9297 0,1.9532 0.5,2.9297 0.5,0.9766 1.4844,0.9766 1,0 1.5,-0.9766 0.5,-0.9765 0.5,-2.9297 0,-1.9531 -0.5,-2.9297 -0.5,-0.9765 -1.5,-0.9765 z m 0,-1.0156 q 1.5938,0 2.4375,1.2656 0.8438,1.2656 0.8438,3.6562 0,2.3906 -0.8438,3.6563 -0.8437,1.2656 -2.4375,1.2656 -1.5781,0 -2.4219,-1.2656 -0.8437,-1.2657 -0.8437,-3.6563 0,-2.3906 0.8437,-3.6562 0.8438,-1.2656 2.4219,-1.2656 z"
         id="path595"
         inkscape:connector-curvature="0" />
    </g>
    <g
       transform="translate(53,170)"
       style="font-size:10.66670036px;font-family:SansSerif;color-interpolation:linearRGB;fill:#262626;stroke:#262626;color-rendering:optimizeQuality;image-rendering:optimizeQuality;text-rendering:geometricPrecision"
       id="g601">
      <path
         style="stroke:none"
         d="m 3.625,-4.4375 q -0.7188,0 -1.1484,0.5 -0.4297,0.5 -0.4297,1.3594 0,0.875 0.4297,1.375 0.4296,0.5 1.1484,0.5 0.7344,0 1.1641,-0.5 0.4297,-0.5 0.4297,-1.375 0,-0.8594 -0.4297,-1.3594 -0.4297,-0.5 -1.1641,-0.5 z m 2.1562,-3.4063 v 0.9844 Q 5.375,-7.0469 4.9609,-7.1484 4.5469,-7.25 4.1406,-7.25 q -1.0781,0 -1.6484,0.7266 -0.5703,0.7265 -0.6484,2.1953 0.3281,-0.4688 0.8046,-0.7188 0.4766,-0.25 1.0547,-0.25 1.2031,0 1.9063,0.7344 0.7031,0.7344 0.7031,1.9844 0,1.2343 -0.7344,1.9843 -0.7343,0.75 -1.9531,0.75 -1.3906,0 -2.125,-1.0703 Q 0.7656,-1.9844 0.7656,-4 q 0,-1.9062 0.9063,-3.0391 0.9062,-1.1328 2.4219,-1.1328 0.4062,0 0.8203,0.086 0.414,0.0859 0.8671,0.2421 z"
         id="path599"
         inkscape:connector-curvature="0" />
    </g>
    <g
       style="color-interpolation:linearRGB;fill:#262626;stroke:#262626;stroke-width:0.66670001;stroke-linejoin:round;color-rendering:optimizeQuality;image-rendering:optimizeQuality;text-rendering:geometricPrecision"
       id="g607">
      <line
         y2="171.24609"
         style="fill:none"
         x1="73"
         x2="65.252197"
         y1="172.5683"
         id="line603" />
      <line
         y2="171.9072"
         style="fill:none"
         x1="73"
         x2="69.126099"
         y1="172.5683"
         id="line605" />
    </g>
  </g>
</svg>
