<?xml version="1.0" encoding="UTF-8" standalone="no"?>
<svg
   xmlns:dc="http://purl.org/dc/elements/1.1/"
   xmlns:cc="http://creativecommons.org/ns#"
   xmlns:rdf="http://www.w3.org/1999/02/22-rdf-syntax-ns#"
   xmlns:svg="http://www.w3.org/2000/svg"
   xmlns="http://www.w3.org/2000/svg"
   xmlns:sodipodi="http://sodipodi.sourceforge.net/DTD/sodipodi-0.dtd"
   xmlns:inkscape="http://www.inkscape.org/namespaces/inkscape"
   style="font-style:normal;font-weight:normal;font-size:12px;font-family:Dialog;color-interpolation:auto;fill:#000000;fill-opacity:1;stroke:#000000;stroke-width:1;stroke-linecap:square;stroke-linejoin:miter;stroke-miterlimit:10;stroke-dasharray:none;stroke-dashoffset:0;stroke-opacity:1;color-rendering:auto;image-rendering:auto;shape-rendering:auto;text-rendering:auto"
   width="516.67188"
   height="400.79169"
   version="1.1"
   id="svg397"
   sodipodi:docname="energy_02.svg"
   inkscape:version="0.92.4 (f8dce91, 2019-08-02)">
  <metadata
     id="metadata401">
    <rdf:RDF>
      <cc:Work
         rdf:about="">
        <dc:format>image/svg+xml</dc:format>
        <dc:type
           rdf:resource="http://purl.org/dc/dcmitype/StillImage" />
        <dc:title></dc:title>
      </cc:Work>
    </rdf:RDF>
  </metadata>
  <sodipodi:namedview
     pagecolor="#ffffff"
     bordercolor="#666666"
     borderopacity="1"
     objecttolerance="10"
     gridtolerance="10"
     guidetolerance="10"
     inkscape:pageopacity="0"
     inkscape:pageshadow="2"
     inkscape:window-width="759"
     inkscape:window-height="480"
     id="namedview399"
     showgrid="false"
     fit-margin-top="0"
     fit-margin-left="0"
     fit-margin-right="0"
     fit-margin-bottom="0"
     inkscape:zoom="0.56190476"
     inkscape:cx="265.7083"
     inkscape:cy="203.6511"
     inkscape:window-x="67"
     inkscape:window-y="27"
     inkscape:window-maximized="0"
     inkscape:current-layer="g395" />
  <!--Generated by the Batik Graphics2D SVG Generator-->
  <defs
     id="genericDefs" />
  <g
     id="g395"
     transform="translate(-14.2917,-12.8594)">
    <defs
       id="defs1">
      <clipPath
         clipPathUnits="userSpaceOnUse"
         id="clipPath1">
        <path
           d="M 0,0 H 560 V 420 H 0 Z"
           id="path3"
           inkscape:connector-curvature="0" />
      </clipPath>
    </defs>
    <g
       style="color-interpolation:linearRGB;fill:#262626;fill-opacity:0.14900004;stroke:#262626;stroke-width:0.66670001;stroke-linecap:butt;stroke-linejoin:round;stroke-opacity:0.14900004;color-rendering:optimizeQuality;image-rendering:optimizeQuality;text-rendering:geometricPrecision"
       id="g75">
      <line
         y2="31"
         style="fill:none"
         x1="73"
         x2="73"
         y1="374"
         id="line17" />
      <line
         y2="31"
         style="fill:none"
         x1="121.2222"
         x2="121.2222"
         y1="374"
         id="line19" />
      <line
         y2="31"
         style="fill:none"
         x1="169.4444"
         x2="169.4444"
         y1="374"
         id="line21" />
      <line
         y2="31"
         style="fill:none"
         x1="217.6667"
         x2="217.6667"
         y1="374"
         id="line23" />
      <line
         y2="31"
         style="fill:none"
         x1="265.88889"
         x2="265.88889"
         y1="374"
         id="line25" />
      <line
         y2="31"
         style="fill:none"
         x1="314.11111"
         x2="314.11111"
         y1="374"
         id="line27" />
      <line
         y2="31"
         style="fill:none"
         x1="362.33331"
         x2="362.33331"
         y1="374"
         id="line29" />
      <line
         y2="31"
         style="fill:none"
         x1="410.55551"
         x2="410.55551"
         y1="374"
         id="line31" />
      <line
         y2="31"
         style="fill:none"
         x1="458.7778"
         x2="458.7778"
         y1="374"
         id="line33" />
      <line
         y2="31"
         style="fill:none"
         x1="507"
         x2="507"
         y1="374"
         id="line35" />
      <line
         y2="374"
         style="fill:none"
         x1="507"
         x2="73"
         y1="374"
         id="line37" />
      <line
         y2="325"
         style="fill:none"
         x1="507"
         x2="73"
         y1="325"
         id="line39" />
      <line
         y2="276"
         style="fill:none"
         x1="507"
         x2="73"
         y1="276"
         id="line41" />
      <line
         y2="227"
         style="fill:none"
         x1="507"
         x2="73"
         y1="227"
         id="line43" />
      <line
         y2="178"
         style="fill:none"
         x1="507"
         x2="73"
         y1="178"
         id="line45" />
      <line
         y2="129"
         style="fill:none"
         x1="507"
         x2="73"
         y1="129"
         id="line47" />
      <line
         y2="80"
         style="fill:none"
         x1="507"
         x2="73"
         y1="80"
         id="line49" />
      <line
         y2="31"
         style="fill:none"
         x1="507"
         x2="73"
         y1="31"
         id="line51" />
      <line
         x1="73"
         x2="507"
         y1="374"
         style="fill:none;fill-opacity:1;stroke-linecap:square;stroke-opacity:1"
         y2="374"
         id="line53" />
      <line
         x1="73"
         x2="73"
         y1="374"
         style="fill:none;fill-opacity:1;stroke-linecap:square;stroke-opacity:1"
         y2="369.66"
         id="line55" />
      <line
         x1="121.2222"
         x2="121.2222"
         y1="374"
         style="fill:none;fill-opacity:1;stroke-linecap:square;stroke-opacity:1"
         y2="369.66"
         id="line57" />
      <line
         x1="169.4444"
         x2="169.4444"
         y1="374"
         style="fill:none;fill-opacity:1;stroke-linecap:square;stroke-opacity:1"
         y2="369.66"
         id="line59" />
      <line
         x1="217.6667"
         x2="217.6667"
         y1="374"
         style="fill:none;fill-opacity:1;stroke-linecap:square;stroke-opacity:1"
         y2="369.66"
         id="line61" />
      <line
         x1="265.88889"
         x2="265.88889"
         y1="374"
         style="fill:none;fill-opacity:1;stroke-linecap:square;stroke-opacity:1"
         y2="369.66"
         id="line63" />
      <line
         x1="314.11111"
         x2="314.11111"
         y1="374"
         style="fill:none;fill-opacity:1;stroke-linecap:square;stroke-opacity:1"
         y2="369.66"
         id="line65" />
      <line
         x1="362.33331"
         x2="362.33331"
         y1="374"
         style="fill:none;fill-opacity:1;stroke-linecap:square;stroke-opacity:1"
         y2="369.66"
         id="line67" />
      <line
         x1="410.55551"
         x2="410.55551"
         y1="374"
         style="fill:none;fill-opacity:1;stroke-linecap:square;stroke-opacity:1"
         y2="369.66"
         id="line69" />
      <line
         x1="458.7778"
         x2="458.7778"
         y1="374"
         style="fill:none;fill-opacity:1;stroke-linecap:square;stroke-opacity:1"
         y2="369.66"
         id="line71" />
      <line
         x1="507"
         x2="507"
         y1="374"
         style="fill:none;fill-opacity:1;stroke-linecap:square;stroke-opacity:1"
         y2="369.66"
         id="line73" />
    </g>
    <g
       transform="translate(73,379.3333)"
       style="font-size:13.33329964px;font-family:SansSerif;color-interpolation:linearRGB;fill:#262626;stroke:#262626;color-rendering:optimizeQuality;image-rendering:optimizeQuality;text-rendering:geometricPrecision"
       id="g79">
      <path
         style="stroke:none"
         d="m -0.375,4.3594 q -0.9844,0 -1.4844,0.9765 -0.5,0.9766 -0.5,2.9297 0,1.9532 0.5,2.9297 0.5,0.9766 1.4844,0.9766 1,0 1.5,-0.9766 0.5,-0.9765 0.5,-2.9297 0,-1.9531 -0.5,-2.9297 -0.5,-0.9765 -1.5,-0.9765 z m 0,-1.0156 q 1.5938,0 2.4375,1.2656 0.8437,1.2656 0.8437,3.6562 0,2.3906 -0.8437,3.6563 -0.8437,1.2656 -2.4375,1.2656 -1.5781,0 -2.4219,-1.2656 -0.8437,-1.2657 -0.8437,-3.6563 0,-2.3906 0.8437,-3.6562 0.8438,-1.2656 2.4219,-1.2656 z"
         id="path77"
         inkscape:connector-curvature="0" />
    </g>
    <g
       transform="translate(121.2222,379.3333)"
       style="font-size:13.33329964px;font-family:SansSerif;color-interpolation:linearRGB;fill:#262626;stroke:#262626;color-rendering:optimizeQuality;image-rendering:optimizeQuality;text-rendering:geometricPrecision"
       id="g83">
      <path
         style="stroke:none"
         d="m -7.0938,3.5156 h 5.0313 v 1.0938 h -3.8594 v 2.3125 q 0.2813,-0.0938 0.5625,-0.1407 0.2813,-0.0468 0.5469,-0.0468 1.5937,0 2.5234,0.8672 0.9297,0.8672 0.9297,2.3515 0,1.5313 -0.9531,2.3828 -0.9531,0.8516 -2.6875,0.8516 -0.5938,0 -1.2188,-0.1016 -0.625,-0.1015 -1.2812,-0.3047 v -1.2968 q 0.5781,0.3125 1.1875,0.4687 0.6094,0.1563 1.2813,0.1563 1.1093,0 1.75,-0.5782 0.6406,-0.5781 0.6406,-1.5781 0,-0.9843 -0.6406,-1.5625 -0.6407,-0.5781 -1.75,-0.5781 -0.5157,0 -1.0235,0.1172 -0.5078,0.1172 -1.0391,0.3515 z M 4.0948,4.3594 q -0.9844,0 -1.4844,0.9765 -0.5,0.9766 -0.5,2.9297 0,1.9532 0.5,2.9297 0.5,0.9766 1.4844,0.9766 1,0 1.5,-0.9766 0.5,-0.9765 0.5,-2.9297 0,-1.9531 -0.5,-2.9297 -0.5,-0.9765 -1.5,-0.9765 z m 0,-1.0156 q 1.5938,0 2.4375,1.2656 0.8438,1.2656 0.8438,3.6562 0,2.3906 -0.8438,3.6563 -0.8437,1.2656 -2.4375,1.2656 -1.5781,0 -2.4219,-1.2656 Q 0.8292,10.6562 0.8292,8.2656 0.8292,5.875 1.6729,4.6094 2.5167,3.3438 4.0948,3.3438 Z"
         id="path81"
         inkscape:connector-curvature="0" />
    </g>
    <g
       transform="translate(169.4444,379.3333)"
       style="font-size:13.33329964px;font-family:SansSerif;color-interpolation:linearRGB;fill:#262626;stroke:#262626;color-rendering:optimizeQuality;image-rendering:optimizeQuality;text-rendering:geometricPrecision"
       id="g87">
      <path
         style="stroke:none"
         d="m -11.3906,11.9219 h 2.0937 V 4.6875 l -2.2812,0.4531 V 3.9844 l 2.2656,-0.4688 h 1.2969 v 8.4063 h 2.0937 V 13 h -5.4687 z M -0.4052,4.3594 q -0.9844,0 -1.4844,0.9765 -0.5,0.9766 -0.5,2.9297 0,1.9532 0.5,2.9297 0.5,0.9766 1.4844,0.9766 1,0 1.5,-0.9766 0.5,-0.9765 0.5,-2.9297 0,-1.9531 -0.5,-2.9297 -0.5,-0.9765 -1.5,-0.9765 z m 0,-1.0156 q 1.5938,0 2.4375,1.2656 0.8438,1.2656 0.8438,3.6562 0,2.3906 -0.8438,3.6563 -0.8437,1.2656 -2.4375,1.2656 -1.5781,0 -2.4219,-1.2656 -0.8437,-1.2657 -0.8437,-3.6563 0,-2.3906 0.8437,-3.6562 0.8438,-1.2656 2.4219,-1.2656 z m 8.4698,1.0156 q -0.9843,0 -1.4843,0.9765 -0.5,0.9766 -0.5,2.9297 0,1.9532 0.5,2.9297 0.5,0.9766 1.4843,0.9766 1,0 1.5,-0.9766 0.5,-0.9765 0.5,-2.9297 0,-1.9531 -0.5,-2.9297 -0.5,-0.9765 -1.5,-0.9765 z m 0,-1.0156 q 1.5938,0 2.4375,1.2656 0.8438,1.2656 0.8438,3.6562 0,2.3906 -0.8438,3.6563 -0.8437,1.2656 -2.4375,1.2656 -1.5781,0 -2.4218,-1.2656 Q 4.799,10.6562 4.799,8.2656 4.799,5.875 5.6428,4.6094 6.4865,3.3438 8.0646,3.3438 Z"
         id="path85"
         inkscape:connector-curvature="0" />
    </g>
    <g
       transform="translate(217.6667,379.3333)"
       style="font-size:13.33329964px;font-family:SansSerif;color-interpolation:linearRGB;fill:#262626;stroke:#262626;color-rendering:optimizeQuality;image-rendering:optimizeQuality;text-rendering:geometricPrecision"
       id="g91">
      <path
         style="stroke:none"
         d="m -11.3906,11.9219 h 2.0937 V 4.6875 l -2.2812,0.4531 V 3.9844 l 2.2656,-0.4688 h 1.2969 v 8.4063 h 2.0937 V 13 h -5.4687 z m 8.2667,-8.4063 h 5.0312 v 1.0938 h -3.8594 v 2.3125 q 0.2813,-0.0938 0.5625,-0.1407 0.2813,-0.0468 0.5469,-0.0468 1.5938,0 2.5235,0.8672 0.9296,0.8672 0.9296,2.3515 0,1.5313 -0.9531,2.3828 -0.9531,0.8516 -2.6875,0.8516 -0.5937,0 -1.2187,-0.1016 -0.625,-0.1015 -1.2813,-0.3047 v -1.2968 q 0.5781,0.3125 1.1875,0.4687 0.6094,0.1563 1.2813,0.1563 1.1093,0 1.75,-0.5782 0.6406,-0.5781 0.6406,-1.5781 0,-0.9843 -0.6406,-1.5625 -0.6407,-0.5781 -1.75,-0.5781 -0.5157,0 -1.0235,0.1172 -0.5078,0.1172 -1.039,0.3515 z M 8.0646,4.3594 q -0.9843,0 -1.4843,0.9765 -0.5,0.9766 -0.5,2.9297 0,1.9532 0.5,2.9297 0.5,0.9766 1.4843,0.9766 1,0 1.5,-0.9766 0.5,-0.9765 0.5,-2.9297 0,-1.9531 -0.5,-2.9297 -0.5,-0.9765 -1.5,-0.9765 z m 0,-1.0156 q 1.5938,0 2.4375,1.2656 0.8438,1.2656 0.8438,3.6562 0,2.3906 -0.8438,3.6563 -0.8437,1.2656 -2.4375,1.2656 -1.5781,0 -2.4218,-1.2656 Q 4.799,10.6562 4.799,8.2656 4.799,5.875 5.6428,4.6094 6.4865,3.3438 8.0646,3.3438 Z"
         id="path89"
         inkscape:connector-curvature="0" />
    </g>
    <g
       transform="translate(265.8889,379.3333)"
       style="font-size:13.33329964px;font-family:SansSerif;color-interpolation:linearRGB;fill:#262626;stroke:#262626;color-rendering:optimizeQuality;image-rendering:optimizeQuality;text-rendering:geometricPrecision"
       id="g95">
      <path
         style="stroke:none"
         d="m -10.5,11.9219 h 4.4688 V 13 h -6.0157 v -1.0781 q 0.7344,-0.75 1.9922,-2.0235 Q -8.7969,8.625 -8.4688,8.25 -7.8594,7.5625 -7.6172,7.0781 -7.375,6.5938 -7.375,6.1406 q 0,-0.7656 -0.5234,-1.2344 -0.5235,-0.4687 -1.3828,-0.4687 -0.6094,0 -1.2735,0.2031 -0.6641,0.2032 -1.4297,0.6406 V 3.9844 q 0.7813,-0.3125 1.4532,-0.4766 0.6718,-0.164 1.2187,-0.164 1.4844,0 2.3594,0.7421 0.875,0.7422 0.875,1.9766 0,0.5781 -0.2188,1.1016 -0.2187,0.5234 -0.7969,1.2265 -0.1562,0.1875 -1.0078,1.0703 -0.8515,0.8829 -2.3984,2.461 z M -0.4052,4.3594 q -0.9844,0 -1.4844,0.9765 -0.5,0.9766 -0.5,2.9297 0,1.9532 0.5,2.9297 0.5,0.9766 1.4844,0.9766 1,0 1.5,-0.9766 0.5,-0.9765 0.5,-2.9297 0,-1.9531 -0.5,-2.9297 -0.5,-0.9765 -1.5,-0.9765 z m 0,-1.0156 q 1.5938,0 2.4375,1.2656 0.8438,1.2656 0.8438,3.6562 0,2.3906 -0.8438,3.6563 -0.8437,1.2656 -2.4375,1.2656 -1.5781,0 -2.4219,-1.2656 -0.8437,-1.2657 -0.8437,-3.6563 0,-2.3906 0.8437,-3.6562 0.8438,-1.2656 2.4219,-1.2656 z m 8.4698,1.0156 q -0.9843,0 -1.4843,0.9765 -0.5,0.9766 -0.5,2.9297 0,1.9532 0.5,2.9297 0.5,0.9766 1.4843,0.9766 1,0 1.5,-0.9766 0.5,-0.9765 0.5,-2.9297 0,-1.9531 -0.5,-2.9297 -0.5,-0.9765 -1.5,-0.9765 z m 0,-1.0156 q 1.5938,0 2.4375,1.2656 0.8438,1.2656 0.8438,3.6562 0,2.3906 -0.8438,3.6563 -0.8437,1.2656 -2.4375,1.2656 -1.5781,0 -2.4218,-1.2656 Q 4.799,10.6562 4.799,8.2656 4.799,5.875 5.6428,4.6094 6.4865,3.3438 8.0646,3.3438 Z"
         id="path93"
         inkscape:connector-curvature="0" />
    </g>
    <g
       transform="translate(314.1111,379.3333)"
       style="font-size:13.33329964px;font-family:SansSerif;color-interpolation:linearRGB;fill:#262626;stroke:#262626;color-rendering:optimizeQuality;image-rendering:optimizeQuality;text-rendering:geometricPrecision"
       id="g99">
      <path
         style="stroke:none"
         d="m -10.5,11.9219 h 4.4688 V 13 h -6.0157 v -1.0781 q 0.7344,-0.75 1.9922,-2.0235 Q -8.7969,8.625 -8.4688,8.25 -7.8594,7.5625 -7.6172,7.0781 -7.375,6.5938 -7.375,6.1406 q 0,-0.7656 -0.5234,-1.2344 -0.5235,-0.4687 -1.3828,-0.4687 -0.6094,0 -1.2735,0.2031 -0.6641,0.2032 -1.4297,0.6406 V 3.9844 q 0.7813,-0.3125 1.4532,-0.4766 0.6718,-0.164 1.2187,-0.164 1.4844,0 2.3594,0.7421 0.875,0.7422 0.875,1.9766 0,0.5781 -0.2188,1.1016 -0.2187,0.5234 -0.7969,1.2265 -0.1562,0.1875 -1.0078,1.0703 -0.8515,0.8829 -2.3984,2.461 z m 7.3761,-8.4063 h 5.0312 v 1.0938 h -3.8594 v 2.3125 q 0.2813,-0.0938 0.5625,-0.1407 0.2813,-0.0468 0.5469,-0.0468 1.5938,0 2.5235,0.8672 0.9296,0.8672 0.9296,2.3515 0,1.5313 -0.9531,2.3828 -0.9531,0.8516 -2.6875,0.8516 -0.5937,0 -1.2187,-0.1016 -0.625,-0.1015 -1.2813,-0.3047 v -1.2968 q 0.5781,0.3125 1.1875,0.4687 0.6094,0.1563 1.2813,0.1563 1.1093,0 1.75,-0.5782 0.6406,-0.5781 0.6406,-1.5781 0,-0.9843 -0.6406,-1.5625 -0.6407,-0.5781 -1.75,-0.5781 -0.5157,0 -1.0235,0.1172 -0.5078,0.1172 -1.039,0.3515 z M 8.0646,4.3594 q -0.9843,0 -1.4843,0.9765 -0.5,0.9766 -0.5,2.9297 0,1.9532 0.5,2.9297 0.5,0.9766 1.4843,0.9766 1,0 1.5,-0.9766 0.5,-0.9765 0.5,-2.9297 0,-1.9531 -0.5,-2.9297 -0.5,-0.9765 -1.5,-0.9765 z m 0,-1.0156 q 1.5938,0 2.4375,1.2656 0.8438,1.2656 0.8438,3.6562 0,2.3906 -0.8438,3.6563 -0.8437,1.2656 -2.4375,1.2656 -1.5781,0 -2.4218,-1.2656 Q 4.799,10.6562 4.799,8.2656 4.799,5.875 5.6428,4.6094 6.4865,3.3438 8.0646,3.3438 Z"
         id="path97"
         inkscape:connector-curvature="0" />
    </g>
    <g
       transform="translate(362.3333,379.3333)"
       style="font-size:13.33329964px;font-family:SansSerif;color-interpolation:linearRGB;fill:#262626;stroke:#262626;color-rendering:optimizeQuality;image-rendering:optimizeQuality;text-rendering:geometricPrecision"
       id="g103">
      <path
         style="stroke:none"
         d="m -7.7188,7.8906 q 0.9219,0.2032 1.4376,0.8203 0.5156,0.6172 0.5156,1.5391 0,1.3906 -0.9688,2.1641 -0.9687,0.7734 -2.75,0.7734 -0.5937,0 -1.2265,-0.1172 -0.6329,-0.1172 -1.3047,-0.3515 v -1.25 q 0.5468,0.3124 1.1797,0.4765 0.6328,0.1641 1.3203,0.1641 1.2031,0 1.8359,-0.4766 0.6328,-0.4766 0.6328,-1.3828 0,-0.8438 -0.5859,-1.3125 -0.586,-0.4687 -1.6328,-0.4687 H -10.375 V 7.4062 h 1.1562 q 0.9532,0 1.4532,-0.375 0.5,-0.375 0.5,-1.0937 0,-0.7187 -0.5156,-1.1094 -0.5157,-0.3906 -1.4844,-0.3906 -0.5313,0 -1.1328,0.1094 Q -11,4.6562 -11.7188,4.9062 V 3.75 Q -11,3.5469 -10.3594,3.4453 q 0.6406,-0.1015 1.2032,-0.1015 1.4687,0 2.3203,0.664 0.8515,0.6641 0.8515,1.8047 0,0.7813 -0.4531,1.3281 -0.4531,0.5469 -1.2813,0.75 z m 7.3136,-3.5312 q -0.9844,0 -1.4844,0.9765 -0.5,0.9766 -0.5,2.9297 0,1.9532 0.5,2.9297 0.5,0.9766 1.4844,0.9766 1,0 1.5,-0.9766 0.5,-0.9765 0.5,-2.9297 0,-1.9531 -0.5,-2.9297 -0.5,-0.9765 -1.5,-0.9765 z m 0,-1.0156 q 1.5938,0 2.4375,1.2656 0.8438,1.2656 0.8438,3.6562 0,2.3906 -0.8438,3.6563 -0.8437,1.2656 -2.4375,1.2656 -1.5781,0 -2.4219,-1.2656 -0.8437,-1.2657 -0.8437,-3.6563 0,-2.3906 0.8437,-3.6562 0.8438,-1.2656 2.4219,-1.2656 z m 8.4698,1.0156 q -0.9843,0 -1.4843,0.9765 -0.5,0.9766 -0.5,2.9297 0,1.9532 0.5,2.9297 0.5,0.9766 1.4843,0.9766 1,0 1.5,-0.9766 0.5,-0.9765 0.5,-2.9297 0,-1.9531 -0.5,-2.9297 -0.5,-0.9765 -1.5,-0.9765 z m 0,-1.0156 q 1.5938,0 2.4375,1.2656 0.8438,1.2656 0.8438,3.6562 0,2.3906 -0.8438,3.6563 -0.8437,1.2656 -2.4375,1.2656 -1.5781,0 -2.4218,-1.2656 Q 4.799,10.6562 4.799,8.2656 4.799,5.875 5.6428,4.6094 6.4865,3.3438 8.0646,3.3438 Z"
         id="path101"
         inkscape:connector-curvature="0" />
    </g>
    <g
       transform="translate(410.5555,379.3333)"
       style="font-size:13.33329964px;font-family:SansSerif;color-interpolation:linearRGB;fill:#262626;stroke:#262626;color-rendering:optimizeQuality;image-rendering:optimizeQuality;text-rendering:geometricPrecision"
       id="g107">
      <path
         style="stroke:none"
         d="m -7.7188,7.8906 q 0.9219,0.2032 1.4376,0.8203 0.5156,0.6172 0.5156,1.5391 0,1.3906 -0.9688,2.1641 -0.9687,0.7734 -2.75,0.7734 -0.5937,0 -1.2265,-0.1172 -0.6329,-0.1172 -1.3047,-0.3515 v -1.25 q 0.5468,0.3124 1.1797,0.4765 0.6328,0.1641 1.3203,0.1641 1.2031,0 1.8359,-0.4766 0.6328,-0.4766 0.6328,-1.3828 0,-0.8438 -0.5859,-1.3125 -0.586,-0.4687 -1.6328,-0.4687 H -10.375 V 7.4062 h 1.1562 q 0.9532,0 1.4532,-0.375 0.5,-0.375 0.5,-1.0937 0,-0.7187 -0.5156,-1.1094 -0.5157,-0.3906 -1.4844,-0.3906 -0.5313,0 -1.1328,0.1094 Q -11,4.6562 -11.7188,4.9062 V 3.75 Q -11,3.5469 -10.3594,3.4453 q 0.6406,-0.1015 1.2032,-0.1015 1.4687,0 2.3203,0.664 0.8515,0.6641 0.8515,1.8047 0,0.7813 -0.4531,1.3281 -0.4531,0.5469 -1.2813,0.75 z m 4.5949,-4.375 h 5.0312 v 1.0938 h -3.8594 v 2.3125 q 0.2813,-0.0938 0.5625,-0.1407 0.2813,-0.0468 0.5469,-0.0468 1.5938,0 2.5235,0.8672 0.9296,0.8672 0.9296,2.3515 0,1.5313 -0.9531,2.3828 -0.9531,0.8516 -2.6875,0.8516 -0.5937,0 -1.2187,-0.1016 -0.625,-0.1015 -1.2813,-0.3047 v -1.2968 q 0.5781,0.3125 1.1875,0.4687 0.6094,0.1563 1.2813,0.1563 1.1093,0 1.75,-0.5782 0.6406,-0.5781 0.6406,-1.5781 0,-0.9843 -0.6406,-1.5625 -0.6407,-0.5781 -1.75,-0.5781 -0.5157,0 -1.0235,0.1172 -0.5078,0.1172 -1.039,0.3515 z M 8.0646,4.3594 q -0.9843,0 -1.4843,0.9765 -0.5,0.9766 -0.5,2.9297 0,1.9532 0.5,2.9297 0.5,0.9766 1.4843,0.9766 1,0 1.5,-0.9766 0.5,-0.9765 0.5,-2.9297 0,-1.9531 -0.5,-2.9297 -0.5,-0.9765 -1.5,-0.9765 z m 0,-1.0156 q 1.5938,0 2.4375,1.2656 0.8438,1.2656 0.8438,3.6562 0,2.3906 -0.8438,3.6563 -0.8437,1.2656 -2.4375,1.2656 -1.5781,0 -2.4218,-1.2656 Q 4.799,10.6562 4.799,8.2656 4.799,5.875 5.6428,4.6094 6.4865,3.3438 8.0646,3.3438 Z"
         id="path105"
         inkscape:connector-curvature="0" />
    </g>
    <g
       transform="translate(458.7778,379.3333)"
       style="font-size:13.33329964px;font-family:SansSerif;color-interpolation:linearRGB;fill:#262626;stroke:#262626;color-rendering:optimizeQuality;image-rendering:optimizeQuality;text-rendering:geometricPrecision"
       id="g111">
      <path
         style="stroke:none"
         d="m -8.0938,4.6406 -3.2343,5.0625 h 3.2343 z m -0.3281,-1.125 h 1.6094 v 6.1875 h 1.3594 v 1.0625 H -6.8125 V 13 h -1.2813 v -2.2344 h -4.2656 V 9.5312 Z m 8.0167,0.8438 q -0.9844,0 -1.4844,0.9765 -0.5,0.9766 -0.5,2.9297 0,1.9532 0.5,2.9297 0.5,0.9766 1.4844,0.9766 1,0 1.5,-0.9766 0.5,-0.9765 0.5,-2.9297 0,-1.9531 -0.5,-2.9297 -0.5,-0.9765 -1.5,-0.9765 z m 0,-1.0156 q 1.5938,0 2.4375,1.2656 0.8438,1.2656 0.8438,3.6562 0,2.3906 -0.8438,3.6563 -0.8437,1.2656 -2.4375,1.2656 -1.5781,0 -2.4219,-1.2656 -0.8437,-1.2657 -0.8437,-3.6563 0,-2.3906 0.8437,-3.6562 0.8438,-1.2656 2.4219,-1.2656 z m 8.4698,1.0156 q -0.9843,0 -1.4843,0.9765 -0.5,0.9766 -0.5,2.9297 0,1.9532 0.5,2.9297 0.5,0.9766 1.4843,0.9766 1,0 1.5,-0.9766 0.5,-0.9765 0.5,-2.9297 0,-1.9531 -0.5,-2.9297 -0.5,-0.9765 -1.5,-0.9765 z m 0,-1.0156 q 1.5938,0 2.4375,1.2656 0.8438,1.2656 0.8438,3.6562 0,2.3906 -0.8438,3.6563 -0.8437,1.2656 -2.4375,1.2656 -1.5781,0 -2.4218,-1.2656 Q 4.799,10.6562 4.799,8.2656 4.799,5.875 5.6428,4.6094 6.4865,3.3438 8.0646,3.3438 Z"
         id="path109"
         inkscape:connector-curvature="0" />
    </g>
    <g
       transform="translate(507,379.3333)"
       style="font-size:13.33329964px;font-family:SansSerif;color-interpolation:linearRGB;fill:#262626;stroke:#262626;color-rendering:optimizeQuality;image-rendering:optimizeQuality;text-rendering:geometricPrecision"
       id="g115">
      <path
         style="stroke:none"
         d="m -8.0938,4.6406 -3.2343,5.0625 h 3.2343 z m -0.3281,-1.125 h 1.6094 v 6.1875 h 1.3594 v 1.0625 H -6.8125 V 13 h -1.2813 v -2.2344 h -4.2656 V 9.5312 Z m 5.298,0 h 5.0312 v 1.0938 h -3.8594 v 2.3125 q 0.2813,-0.0938 0.5625,-0.1407 0.2813,-0.0468 0.5469,-0.0468 1.5938,0 2.5235,0.8672 0.9296,0.8672 0.9296,2.3515 0,1.5313 -0.9531,2.3828 -0.9531,0.8516 -2.6875,0.8516 -0.5937,0 -1.2187,-0.1016 -0.625,-0.1015 -1.2813,-0.3047 v -1.2968 q 0.5781,0.3125 1.1875,0.4687 0.6094,0.1563 1.2813,0.1563 1.1093,0 1.75,-0.5782 0.6406,-0.5781 0.6406,-1.5781 0,-0.9843 -0.6406,-1.5625 -0.6407,-0.5781 -1.75,-0.5781 -0.5157,0 -1.0235,0.1172 -0.5078,0.1172 -1.039,0.3515 z M 8.0646,4.3594 q -0.9843,0 -1.4843,0.9765 -0.5,0.9766 -0.5,2.9297 0,1.9532 0.5,2.9297 0.5,0.9766 1.4843,0.9766 1,0 1.5,-0.9766 0.5,-0.9765 0.5,-2.9297 0,-1.9531 -0.5,-2.9297 -0.5,-0.9765 -1.5,-0.9765 z m 0,-1.0156 q 1.5938,0 2.4375,1.2656 0.8438,1.2656 0.8438,3.6562 0,2.3906 -0.8438,3.6563 -0.8437,1.2656 -2.4375,1.2656 -1.5781,0 -2.4218,-1.2656 Q 4.799,10.6562 4.799,8.2656 4.799,5.875 5.6428,4.6094 6.4865,3.3438 8.0646,3.3438 Z"
         id="path113"
         inkscape:connector-curvature="0" />
    </g>
    <g
       transform="translate(290.0002,397.6667)"
       style="font-size:14.66670036px;font-family:SansSerif;color-interpolation:linearRGB;fill:#262626;stroke:#262626;color-rendering:optimizeQuality;image-rendering:optimizeQuality;text-rendering:geometricPrecision"
       id="g119">
      <path
         style="stroke:none"
         d="m -30.5469,3.0625 h 9.25 v 1.25 h -3.875 V 14 h -1.4843 V 4.3125 h -3.8907 z m 10.4058,2.7344 h 1.3593 V 14 h -1.3593 z m 0,-3.1875 h 1.3593 v 1.7031 h -1.3593 z M -9.6785,7.375 q 0.5156,-0.9062 1.2187,-1.3438 0.7031,-0.4374 1.6563,-0.4374 1.2812,0 1.9765,0.8984 0.6953,0.8984 0.6953,2.5547 V 14 H -5.491 V 9.0938 q 0,-1.1876 -0.4219,-1.7579 -0.4219,-0.5703 -1.2656,-0.5703 -1.0469,0 -1.6563,0.6953 -0.6094,0.6953 -0.6094,1.8985 V 14 h -1.3593 V 9.0938 q 0,-1.1876 -0.4141,-1.7579 -0.4141,-0.5703 -1.2891,-0.5703 -1.0312,0 -1.6406,0.7032 -0.6094,0.7031 -0.6094,1.8906 V 14 H -16.116 V 5.7969 h 1.3593 v 1.2812 q 0.4532,-0.7656 1.1016,-1.125 0.6484,-0.3593 1.5391,-0.3593 0.8906,0 1.5156,0.4531 0.625,0.4531 0.9219,1.3281 z M 5.2391,9.5625 v 0.6563 h -6.2032 q 0.0938,1.3906 0.8438,2.1171 0.75,0.7266 2.0781,0.7266 0.7813,0 1.5078,-0.1875 0.7266,-0.1875 1.4453,-0.5625 v 1.2656 q -0.7187,0.3125 -1.4843,0.4766 -0.7657,0.1641 -1.5469,0.1641 -1.9531,0 -3.1016,-1.1485 -1.1484,-1.1484 -1.1484,-3.0859 0,-2.0156 1.0859,-3.2032 1.086,-1.1874 2.9297,-1.1874 1.6563,0 2.625,1.0703 0.9688,1.0703 0.9688,2.8984 z M 3.8797,9.1719 Q 3.8641,8.0625 3.2625,7.3984 2.6609,6.7344 1.6609,6.7344 q -1.125,0 -1.8047,0.6406 -0.6796,0.6406 -0.7734,1.7969 z M 15.1336,2.625 q -0.9843,1.6719 -1.4609,3.3203 -0.4766,1.6485 -0.4766,3.3516 0,1.6875 0.4766,3.3437 0.4766,1.6563 1.4609,3.3438 H 13.9618 Q 12.8524,14.25 12.3133,12.5938 11.7743,10.9375 11.7743,9.2969 11.7743,7.6562 12.3133,6 12.8524,4.3438 13.9618,2.625 Z M 22.836,6.0312 V 7.3125 Q 22.2735,7.0156 21.6563,6.875 21.0391,6.7344 20.3828,6.7344 q -1.0156,0 -1.5156,0.3047 -0.5,0.3047 -0.5,0.914 0,0.4688 0.3594,0.7344 0.3594,0.2656 1.4531,0.5156 l 0.4531,0.1094 q 1.4375,0.2969 2.0391,0.8594 0.6016,0.5625 0.6016,1.5625 0,1.1406 -0.8985,1.8125 -0.8984,0.6719 -2.4922,0.6719 -0.6562,0 -1.3672,-0.1329 -0.7109,-0.1328 -1.5078,-0.3828 v -1.3906 q 0.75,0.3906 1.4766,0.5781 0.7266,0.1875 1.4297,0.1875 0.9531,0 1.4687,-0.3203 0.5157,-0.3203 0.5157,-0.914 0,-0.5469 -0.375,-0.8438 -0.375,-0.2969 -1.625,-0.5625 l -0.4688,-0.1094 q -1.25,-0.2656 -1.8047,-0.8125 -0.5547,-0.5468 -0.5547,-1.5 0,-1.1562 0.8203,-1.789 0.8204,-0.6328 2.3204,-0.6328 0.75,0 1.414,0.1093 0.6641,0.1094 1.211,0.3281 z M 25.0343,2.625 h 1.1719 q 1.0937,1.7188 1.6406,3.375 0.5469,1.6562 0.5469,3.2969 0,1.6406 -0.5469,3.2969 -0.5469,1.6562 -1.6406,3.3906 h -1.1719 q 0.9688,-1.6875 1.4531,-3.3438 0.4844,-1.6562 0.4844,-3.3437 0,-1.7031 -0.4844,-3.3516 Q 26.0031,4.2969 25.0343,2.625 Z"
         id="path117"
         inkscape:connector-curvature="0" />
    </g>
    <g
       style="color-interpolation:linearRGB;fill:#262626;stroke:#262626;stroke-width:0.66670001;stroke-linejoin:round;color-rendering:optimizeQuality;image-rendering:optimizeQuality;text-rendering:geometricPrecision"
       id="g139">
      <line
         y2="31"
         style="fill:none"
         x1="73"
         x2="73"
         y1="374"
         id="line121" />
      <line
         y2="374"
         style="fill:none"
         x1="73"
         x2="77.339996"
         y1="374"
         id="line123" />
      <line
         y2="325"
         style="fill:none"
         x1="73"
         x2="77.339996"
         y1="325"
         id="line125" />
      <line
         y2="276"
         style="fill:none"
         x1="73"
         x2="77.339996"
         y1="276"
         id="line127" />
      <line
         y2="227"
         style="fill:none"
         x1="73"
         x2="77.339996"
         y1="227"
         id="line129" />
      <line
         y2="178"
         style="fill:none"
         x1="73"
         x2="77.339996"
         y1="178"
         id="line131" />
      <line
         y2="129"
         style="fill:none"
         x1="73"
         x2="77.339996"
         y1="129"
         id="line133" />
      <line
         y2="80"
         style="fill:none"
         x1="73"
         x2="77.339996"
         y1="80"
         id="line135" />
      <line
         y2="31"
         style="fill:none"
         x1="73"
         x2="77.339996"
         y1="31"
         id="line137" />
    </g>
    <g
       transform="translate(67.6667,374)"
       style="font-size:13.33329964px;font-family:SansSerif;color-interpolation:linearRGB;fill:#262626;stroke:#262626;color-rendering:optimizeQuality;image-rendering:optimizeQuality;text-rendering:geometricPrecision"
       id="g143">
      <path
         style="stroke:none"
         d="m -4.875,-4.1406 q -0.9844,0 -1.4844,0.9765 -0.5,0.9766 -0.5,2.9297 0,1.9532 0.5,2.9297 0.5,0.9766 1.4844,0.9766 1,0 1.5,-0.9766 0.5,-0.9765 0.5,-2.9297 0,-1.9531 -0.5,-2.9297 -0.5,-0.9765 -1.5,-0.9765 z m 0,-1.0156 q 1.5938,0 2.4375,1.2656 0.8437,1.2656 0.8437,3.6562 0,2.3906 -0.8437,3.6563 -0.8437,1.2656 -2.4375,1.2656 -1.5781,0 -2.4219,-1.2656 -0.8437,-1.2657 -0.8437,-3.6563 0,-2.3906 0.8437,-3.6562 0.8438,-1.2656 2.4219,-1.2656 z"
         id="path141"
         inkscape:connector-curvature="0" />
    </g>
    <g
       transform="translate(67.6667,325)"
       style="font-size:13.33329964px;font-family:SansSerif;color-interpolation:linearRGB;fill:#262626;stroke:#262626;color-rendering:optimizeQuality;image-rendering:optimizeQuality;text-rendering:geometricPrecision"
       id="g147">
      <path
         style="stroke:none"
         d="m -32.3906,3.4219 h 2.0937 v -7.2344 l -2.2812,0.4531 v -1.1562 l 2.2656,-0.4688 h 1.2969 v 8.4063 h 2.0937 V 4.5 h -5.4687 z m 10.9854,-7.5625 q -0.9844,0 -1.4844,0.9765 -0.5,0.9766 -0.5,2.9297 0,1.9532 0.5,2.9297 0.5,0.9766 1.4844,0.9766 1,0 1.5,-0.9766 0.5,-0.9765 0.5,-2.9297 0,-1.9531 -0.5,-2.9297 -0.5,-0.9765 -1.5,-0.9765 z m 0,-1.0156 q 1.5938,0 2.4375,1.2656 0.8438,1.2656 0.8438,3.6562 0,2.3906 -0.8438,3.6563 -0.8437,1.2656 -2.4375,1.2656 -1.5781,0 -2.4219,-1.2656 -0.8437,-1.2657 -0.8437,-3.6563 0,-2.3906 0.8437,-3.6562 0.8438,-1.2656 2.4219,-1.2656 z m 8.4698,1.0156 q -0.9843,0 -1.4843,0.9765 -0.5,0.9766 -0.5,2.9297 0,1.9532 0.5,2.9297 0.5,0.9766 1.4843,0.9766 1,0 1.5,-0.9766 0.5,-0.9765 0.5,-2.9297 0,-1.9531 -0.5,-2.9297 -0.5,-0.9765 -1.5,-0.9765 z m 0,-1.0156 q 1.5938,0 2.4375,1.2656 0.8438,1.2656 0.8438,3.6562 0,2.3906 -0.8438,3.6563 -0.8437,1.2656 -2.4375,1.2656 -1.5781,0 -2.4218,-1.2656 -0.8438,-1.2657 -0.8438,-3.6563 0,-2.3906 0.8438,-3.6562 0.8437,-1.2656 2.4218,-1.2656 z m 8.4699,1.0156 q -0.9844,0 -1.4844,0.9765 -0.5,0.9766 -0.5,2.9297 0,1.9532 0.5,2.9297 0.5,0.9766 1.4844,0.9766 1,0 1.5,-0.9766 0.5,-0.9765 0.5,-2.9297 0,-1.9531 -0.5,-2.9297 -0.5,-0.9765 -1.5,-0.9765 z m 0,-1.0156 q 1.5937,0 2.4375,1.2656 0.8437,1.2656 0.8437,3.6562 0,2.3906 -0.8437,3.6563 -0.8438,1.2656 -2.4375,1.2656 -1.5782,0 -2.4219,-1.2656 -0.8438,-1.2657 -0.8438,-3.6563 0,-2.3906 0.8438,-3.6562 0.8437,-1.2656 2.4219,-1.2656 z"
         id="path145"
         inkscape:connector-curvature="0" />
    </g>
    <g
       transform="translate(67.6667,276)"
       style="font-size:13.33329964px;font-family:SansSerif;color-interpolation:linearRGB;fill:#262626;stroke:#262626;color-rendering:optimizeQuality;image-rendering:optimizeQuality;text-rendering:geometricPrecision"
       id="g151">
      <path
         style="stroke:none"
         d="m -31.5,3.4219 h 4.4688 V 4.5 h -6.0157 V 3.4219 q 0.7344,-0.75 1.9922,-2.0235 1.2578,-1.2734 1.5859,-1.6484 0.6094,-0.6875 0.8516,-1.1719 0.2422,-0.4843 0.2422,-0.9375 0,-0.7656 -0.5234,-1.2344 -0.5235,-0.4687 -1.3828,-0.4687 -0.6094,0 -1.2735,0.2031 -0.6641,0.2032 -1.4297,0.6406 v -1.2968 q 0.7813,-0.3125 1.4532,-0.4766 0.6718,-0.164 1.2187,-0.164 1.4844,0 2.3594,0.7421 0.875,0.7422 0.875,1.9766 0,0.5781 -0.2188,1.1016 -0.2187,0.5234 -0.7969,1.2265 -0.1562,0.1875 -1.0078,1.0703 -0.8515,0.8829 -2.3984,2.461 z m 10.0948,-7.5625 q -0.9844,0 -1.4844,0.9765 -0.5,0.9766 -0.5,2.9297 0,1.9532 0.5,2.9297 0.5,0.9766 1.4844,0.9766 1,0 1.5,-0.9766 0.5,-0.9765 0.5,-2.9297 0,-1.9531 -0.5,-2.9297 -0.5,-0.9765 -1.5,-0.9765 z m 0,-1.0156 q 1.5938,0 2.4375,1.2656 0.8438,1.2656 0.8438,3.6562 0,2.3906 -0.8438,3.6563 -0.8437,1.2656 -2.4375,1.2656 -1.5781,0 -2.4219,-1.2656 -0.8437,-1.2657 -0.8437,-3.6563 0,-2.3906 0.8437,-3.6562 0.8438,-1.2656 2.4219,-1.2656 z m 8.4698,1.0156 q -0.9843,0 -1.4843,0.9765 -0.5,0.9766 -0.5,2.9297 0,1.9532 0.5,2.9297 0.5,0.9766 1.4843,0.9766 1,0 1.5,-0.9766 0.5,-0.9765 0.5,-2.9297 0,-1.9531 -0.5,-2.9297 -0.5,-0.9765 -1.5,-0.9765 z m 0,-1.0156 q 1.5938,0 2.4375,1.2656 0.8438,1.2656 0.8438,3.6562 0,2.3906 -0.8438,3.6563 -0.8437,1.2656 -2.4375,1.2656 -1.5781,0 -2.4218,-1.2656 -0.8438,-1.2657 -0.8438,-3.6563 0,-2.3906 0.8438,-3.6562 0.8437,-1.2656 2.4218,-1.2656 z m 8.4699,1.0156 q -0.9844,0 -1.4844,0.9765 -0.5,0.9766 -0.5,2.9297 0,1.9532 0.5,2.9297 0.5,0.9766 1.4844,0.9766 1,0 1.5,-0.9766 0.5,-0.9765 0.5,-2.9297 0,-1.9531 -0.5,-2.9297 -0.5,-0.9765 -1.5,-0.9765 z m 0,-1.0156 q 1.5937,0 2.4375,1.2656 0.8437,1.2656 0.8437,3.6562 0,2.3906 -0.8437,3.6563 -0.8438,1.2656 -2.4375,1.2656 -1.5782,0 -2.4219,-1.2656 -0.8438,-1.2657 -0.8438,-3.6563 0,-2.3906 0.8438,-3.6562 0.8437,-1.2656 2.4219,-1.2656 z"
         id="path149"
         inkscape:connector-curvature="0" />
    </g>
    <g
       transform="translate(67.6667,227)"
       style="font-size:13.33329964px;font-family:SansSerif;color-interpolation:linearRGB;fill:#262626;stroke:#262626;color-rendering:optimizeQuality;image-rendering:optimizeQuality;text-rendering:geometricPrecision"
       id="g155">
      <path
         style="stroke:none"
         d="m -28.7188,-0.6094 q 0.9219,0.2032 1.4376,0.8203 0.5156,0.6172 0.5156,1.5391 0,1.3906 -0.9688,2.1641 -0.9687,0.7734 -2.75,0.7734 -0.5937,0 -1.2265,-0.1172 -0.6329,-0.1172 -1.3047,-0.3515 v -1.25 q 0.5468,0.3124 1.1797,0.4765 0.6328,0.1641 1.3203,0.1641 1.2031,0 1.8359,-0.4766 0.6328,-0.4766 0.6328,-1.3828 0,-0.8438 -0.5859,-1.3125 -0.586,-0.4687 -1.6328,-0.4687 h -1.1094 v -1.0626 h 1.1562 q 0.9532,0 1.4532,-0.375 0.5,-0.375 0.5,-1.0937 0,-0.7187 -0.5156,-1.1094 -0.5157,-0.3906 -1.4844,-0.3906 -0.5313,0 -1.1328,0.1094 -0.6016,0.1093 -1.3204,0.3593 V -4.75 q 0.7188,-0.2031 1.3594,-0.3047 0.6406,-0.1015 1.2032,-0.1015 1.4687,0 2.3203,0.664 0.8515,0.6641 0.8515,1.8047 0,0.7813 -0.4531,1.3281 -0.4531,0.5469 -1.2813,0.75 z m 7.3136,-3.5312 q -0.9844,0 -1.4844,0.9765 -0.5,0.9766 -0.5,2.9297 0,1.9532 0.5,2.9297 0.5,0.9766 1.4844,0.9766 1,0 1.5,-0.9766 0.5,-0.9765 0.5,-2.9297 0,-1.9531 -0.5,-2.9297 -0.5,-0.9765 -1.5,-0.9765 z m 0,-1.0156 q 1.5938,0 2.4375,1.2656 0.8438,1.2656 0.8438,3.6562 0,2.3906 -0.8438,3.6563 -0.8437,1.2656 -2.4375,1.2656 -1.5781,0 -2.4219,-1.2656 -0.8437,-1.2657 -0.8437,-3.6563 0,-2.3906 0.8437,-3.6562 0.8438,-1.2656 2.4219,-1.2656 z m 8.4698,1.0156 q -0.9843,0 -1.4843,0.9765 -0.5,0.9766 -0.5,2.9297 0,1.9532 0.5,2.9297 0.5,0.9766 1.4843,0.9766 1,0 1.5,-0.9766 0.5,-0.9765 0.5,-2.9297 0,-1.9531 -0.5,-2.9297 -0.5,-0.9765 -1.5,-0.9765 z m 0,-1.0156 q 1.5938,0 2.4375,1.2656 0.8438,1.2656 0.8438,3.6562 0,2.3906 -0.8438,3.6563 -0.8437,1.2656 -2.4375,1.2656 -1.5781,0 -2.4218,-1.2656 -0.8438,-1.2657 -0.8438,-3.6563 0,-2.3906 0.8438,-3.6562 0.8437,-1.2656 2.4218,-1.2656 z m 8.4699,1.0156 q -0.9844,0 -1.4844,0.9765 -0.5,0.9766 -0.5,2.9297 0,1.9532 0.5,2.9297 0.5,0.9766 1.4844,0.9766 1,0 1.5,-0.9766 0.5,-0.9765 0.5,-2.9297 0,-1.9531 -0.5,-2.9297 -0.5,-0.9765 -1.5,-0.9765 z m 0,-1.0156 q 1.5937,0 2.4375,1.2656 0.8437,1.2656 0.8437,3.6562 0,2.3906 -0.8437,3.6563 -0.8438,1.2656 -2.4375,1.2656 -1.5782,0 -2.4219,-1.2656 -0.8438,-1.2657 -0.8438,-3.6563 0,-2.3906 0.8438,-3.6562 0.8437,-1.2656 2.4219,-1.2656 z"
         id="path153"
         inkscape:connector-curvature="0" />
    </g>
    <g
       transform="translate(67.6667,178)"
       style="font-size:13.33329964px;font-family:SansSerif;color-interpolation:linearRGB;fill:#262626;stroke:#262626;color-rendering:optimizeQuality;image-rendering:optimizeQuality;text-rendering:geometricPrecision"
       id="g159">
      <path
         style="stroke:none"
         d="m -29.0938,-3.8594 -3.2343,5.0625 h 3.2343 z m -0.3281,-1.125 h 1.6094 v 6.1875 h 1.3594 v 1.0625 h -1.3594 V 4.5 h -1.2813 V 2.2656 h -4.2656 V 1.0312 Z m 8.0167,0.8438 q -0.9844,0 -1.4844,0.9765 -0.5,0.9766 -0.5,2.9297 0,1.9532 0.5,2.9297 0.5,0.9766 1.4844,0.9766 1,0 1.5,-0.9766 0.5,-0.9765 0.5,-2.9297 0,-1.9531 -0.5,-2.9297 -0.5,-0.9765 -1.5,-0.9765 z m 0,-1.0156 q 1.5938,0 2.4375,1.2656 0.8438,1.2656 0.8438,3.6562 0,2.3906 -0.8438,3.6563 -0.8437,1.2656 -2.4375,1.2656 -1.5781,0 -2.4219,-1.2656 -0.8437,-1.2657 -0.8437,-3.6563 0,-2.3906 0.8437,-3.6562 0.8438,-1.2656 2.4219,-1.2656 z m 8.4698,1.0156 q -0.9843,0 -1.4843,0.9765 -0.5,0.9766 -0.5,2.9297 0,1.9532 0.5,2.9297 0.5,0.9766 1.4843,0.9766 1,0 1.5,-0.9766 0.5,-0.9765 0.5,-2.9297 0,-1.9531 -0.5,-2.9297 -0.5,-0.9765 -1.5,-0.9765 z m 0,-1.0156 q 1.5938,0 2.4375,1.2656 0.8438,1.2656 0.8438,3.6562 0,2.3906 -0.8438,3.6563 -0.8437,1.2656 -2.4375,1.2656 -1.5781,0 -2.4218,-1.2656 -0.8438,-1.2657 -0.8438,-3.6563 0,-2.3906 0.8438,-3.6562 0.8437,-1.2656 2.4218,-1.2656 z m 8.4699,1.0156 q -0.9844,0 -1.4844,0.9765 -0.5,0.9766 -0.5,2.9297 0,1.9532 0.5,2.9297 0.5,0.9766 1.4844,0.9766 1,0 1.5,-0.9766 0.5,-0.9765 0.5,-2.9297 0,-1.9531 -0.5,-2.9297 -0.5,-0.9765 -1.5,-0.9765 z m 0,-1.0156 q 1.5937,0 2.4375,1.2656 0.8437,1.2656 0.8437,3.6562 0,2.3906 -0.8437,3.6563 -0.8438,1.2656 -2.4375,1.2656 -1.5782,0 -2.4219,-1.2656 -0.8438,-1.2657 -0.8438,-3.6563 0,-2.3906 0.8438,-3.6562 0.8437,-1.2656 2.4219,-1.2656 z"
         id="path157"
         inkscape:connector-curvature="0" />
    </g>
    <g
       transform="translate(67.6667,129)"
       style="font-size:13.33329964px;font-family:SansSerif;color-interpolation:linearRGB;fill:#262626;stroke:#262626;color-rendering:optimizeQuality;image-rendering:optimizeQuality;text-rendering:geometricPrecision"
       id="g163">
      <path
         style="stroke:none"
         d="m -32.5938,-4.9844 h 5.0313 v 1.0938 h -3.8594 v 2.3125 q 0.2813,-0.0938 0.5625,-0.1407 0.2813,-0.0468 0.5469,-0.0468 1.5937,0 2.5234,0.8672 0.9297,0.8672 0.9297,2.3515 0,1.5313 -0.9531,2.3828 -0.9531,0.8516 -2.6875,0.8516 -0.5938,0 -1.2188,-0.1016 Q -32.3438,4.4844 -33,4.2812 V 2.9844 q 0.5781,0.3125 1.1875,0.4687 0.6094,0.1563 1.2813,0.1563 1.1093,0 1.75,-0.5782 0.6406,-0.5781 0.6406,-1.5781 0,-0.9843 -0.6406,-1.5625 -0.6407,-0.5781 -1.75,-0.5781 -0.5157,0 -1.0235,0.1172 -0.5078,0.1172 -1.0391,0.3515 z m 11.1886,0.8438 q -0.9844,0 -1.4844,0.9765 -0.5,0.9766 -0.5,2.9297 0,1.9532 0.5,2.9297 0.5,0.9766 1.4844,0.9766 1,0 1.5,-0.9766 0.5,-0.9765 0.5,-2.9297 0,-1.9531 -0.5,-2.9297 -0.5,-0.9765 -1.5,-0.9765 z m 0,-1.0156 q 1.5938,0 2.4375,1.2656 0.8438,1.2656 0.8438,3.6562 0,2.3906 -0.8438,3.6563 -0.8437,1.2656 -2.4375,1.2656 -1.5781,0 -2.4219,-1.2656 -0.8437,-1.2657 -0.8437,-3.6563 0,-2.3906 0.8437,-3.6562 0.8438,-1.2656 2.4219,-1.2656 z m 8.4698,1.0156 q -0.9843,0 -1.4843,0.9765 -0.5,0.9766 -0.5,2.9297 0,1.9532 0.5,2.9297 0.5,0.9766 1.4843,0.9766 1,0 1.5,-0.9766 0.5,-0.9765 0.5,-2.9297 0,-1.9531 -0.5,-2.9297 -0.5,-0.9765 -1.5,-0.9765 z m 0,-1.0156 q 1.5938,0 2.4375,1.2656 0.8438,1.2656 0.8438,3.6562 0,2.3906 -0.8438,3.6563 -0.8437,1.2656 -2.4375,1.2656 -1.5781,0 -2.4218,-1.2656 -0.8438,-1.2657 -0.8438,-3.6563 0,-2.3906 0.8438,-3.6562 0.8437,-1.2656 2.4218,-1.2656 z m 8.4699,1.0156 q -0.9844,0 -1.4844,0.9765 -0.5,0.9766 -0.5,2.9297 0,1.9532 0.5,2.9297 0.5,0.9766 1.4844,0.9766 1,0 1.5,-0.9766 0.5,-0.9765 0.5,-2.9297 0,-1.9531 -0.5,-2.9297 -0.5,-0.9765 -1.5,-0.9765 z m 0,-1.0156 q 1.5937,0 2.4375,1.2656 0.8437,1.2656 0.8437,3.6562 0,2.3906 -0.8437,3.6563 -0.8438,1.2656 -2.4375,1.2656 -1.5782,0 -2.4219,-1.2656 -0.8438,-1.2657 -0.8438,-3.6563 0,-2.3906 0.8438,-3.6562 0.8437,-1.2656 2.4219,-1.2656 z"
         id="path161"
         inkscape:connector-curvature="0" />
    </g>
    <g
       transform="translate(67.6667,80)"
       style="font-size:13.33329964px;font-family:SansSerif;color-interpolation:linearRGB;fill:#262626;stroke:#262626;color-rendering:optimizeQuality;image-rendering:optimizeQuality;text-rendering:geometricPrecision"
       id="g167">
      <path
         style="stroke:none"
         d="m -29.7031,-0.75 q -0.875,0 -1.375,0.5938 -0.5,0.5937 -0.5,1.6093 0,1.0313 0.5,1.625 0.5,0.5938 1.375,0.5938 0.8593,0 1.3593,-0.5938 0.5,-0.5937 0.5,-1.625 0,-1.0156 -0.5,-1.6093 -0.5,-0.5938 -1.3593,-0.5938 z m 2.5469,-4.0156 v 1.1718 q -0.4844,-0.2343 -0.9766,-0.3515 -0.4922,-0.1172 -0.9766,-0.1172 -1.2656,0 -1.9375,0.8516 -0.6719,0.8515 -0.7656,2.5859 0.375,-0.5469 0.9375,-0.8438 0.5625,-0.2968 1.25,-0.2968 1.4219,0 2.25,0.8672 0.8281,0.8672 0.8281,2.3515 0,1.4688 -0.8672,2.3516 -0.8671,0.8828 -2.289,0.8828 -1.6563,0 -2.5235,-1.2656 -0.8672,-1.2657 -0.8672,-3.6563 0,-2.2344 1.0704,-3.5781 1.0703,-1.3437 2.8672,-1.3437 0.4687,0 0.9609,0.1015 0.4922,0.1016 1.0391,0.2891 z m 5.751,0.625 q -0.9844,0 -1.4844,0.9765 -0.5,0.9766 -0.5,2.9297 0,1.9532 0.5,2.9297 0.5,0.9766 1.4844,0.9766 1,0 1.5,-0.9766 0.5,-0.9765 0.5,-2.9297 0,-1.9531 -0.5,-2.9297 -0.5,-0.9765 -1.5,-0.9765 z m 0,-1.0156 q 1.5938,0 2.4375,1.2656 0.8438,1.2656 0.8438,3.6562 0,2.3906 -0.8438,3.6563 -0.8437,1.2656 -2.4375,1.2656 -1.5781,0 -2.4219,-1.2656 -0.8437,-1.2657 -0.8437,-3.6563 0,-2.3906 0.8437,-3.6562 0.8438,-1.2656 2.4219,-1.2656 z m 8.4698,1.0156 q -0.9843,0 -1.4843,0.9765 -0.5,0.9766 -0.5,2.9297 0,1.9532 0.5,2.9297 0.5,0.9766 1.4843,0.9766 1,0 1.5,-0.9766 0.5,-0.9765 0.5,-2.9297 0,-1.9531 -0.5,-2.9297 -0.5,-0.9765 -1.5,-0.9765 z m 0,-1.0156 q 1.5938,0 2.4375,1.2656 0.8438,1.2656 0.8438,3.6562 0,2.3906 -0.8438,3.6563 -0.8437,1.2656 -2.4375,1.2656 -1.5781,0 -2.4218,-1.2656 -0.8438,-1.2657 -0.8438,-3.6563 0,-2.3906 0.8438,-3.6562 0.8437,-1.2656 2.4218,-1.2656 z m 8.4699,1.0156 q -0.9844,0 -1.4844,0.9765 -0.5,0.9766 -0.5,2.9297 0,1.9532 0.5,2.9297 0.5,0.9766 1.4844,0.9766 1,0 1.5,-0.9766 0.5,-0.9765 0.5,-2.9297 0,-1.9531 -0.5,-2.9297 -0.5,-0.9765 -1.5,-0.9765 z m 0,-1.0156 q 1.5937,0 2.4375,1.2656 0.8437,1.2656 0.8437,3.6562 0,2.3906 -0.8437,3.6563 -0.8438,1.2656 -2.4375,1.2656 -1.5782,0 -2.4219,-1.2656 -0.8438,-1.2657 -0.8438,-3.6563 0,-2.3906 0.8438,-3.6562 0.8437,-1.2656 2.4219,-1.2656 z"
         id="path165"
         inkscape:connector-curvature="0" />
    </g>
    <g
       transform="translate(67.6667,31)"
       style="font-size:13.33329964px;font-family:SansSerif;color-interpolation:linearRGB;fill:#262626;stroke:#262626;color-rendering:optimizeQuality;image-rendering:optimizeQuality;text-rendering:geometricPrecision"
       id="g171">
      <path
         style="stroke:none"
         d="m -32.9375,-4.9844 h 6.0937 v 0.5469 L -30.2812,4.5 h -1.3438 l 3.25,-8.3906 h -4.5625 z m 11.5323,0.8438 q -0.9844,0 -1.4844,0.9765 -0.5,0.9766 -0.5,2.9297 0,1.9532 0.5,2.9297 0.5,0.9766 1.4844,0.9766 1,0 1.5,-0.9766 0.5,-0.9765 0.5,-2.9297 0,-1.9531 -0.5,-2.9297 -0.5,-0.9765 -1.5,-0.9765 z m 0,-1.0156 q 1.5938,0 2.4375,1.2656 0.8438,1.2656 0.8438,3.6562 0,2.3906 -0.8438,3.6563 -0.8437,1.2656 -2.4375,1.2656 -1.5781,0 -2.4219,-1.2656 -0.8437,-1.2657 -0.8437,-3.6563 0,-2.3906 0.8437,-3.6562 0.8438,-1.2656 2.4219,-1.2656 z m 8.4698,1.0156 q -0.9843,0 -1.4843,0.9765 -0.5,0.9766 -0.5,2.9297 0,1.9532 0.5,2.9297 0.5,0.9766 1.4843,0.9766 1,0 1.5,-0.9766 0.5,-0.9765 0.5,-2.9297 0,-1.9531 -0.5,-2.9297 -0.5,-0.9765 -1.5,-0.9765 z m 0,-1.0156 q 1.5938,0 2.4375,1.2656 0.8438,1.2656 0.8438,3.6562 0,2.3906 -0.8438,3.6563 -0.8437,1.2656 -2.4375,1.2656 -1.5781,0 -2.4218,-1.2656 -0.8438,-1.2657 -0.8438,-3.6563 0,-2.3906 0.8438,-3.6562 0.8437,-1.2656 2.4218,-1.2656 z m 8.4699,1.0156 q -0.9844,0 -1.4844,0.9765 -0.5,0.9766 -0.5,2.9297 0,1.9532 0.5,2.9297 0.5,0.9766 1.4844,0.9766 1,0 1.5,-0.9766 0.5,-0.9765 0.5,-2.9297 0,-1.9531 -0.5,-2.9297 -0.5,-0.9765 -1.5,-0.9765 z m 0,-1.0156 q 1.5937,0 2.4375,1.2656 0.8437,1.2656 0.8437,3.6562 0,2.3906 -0.8437,3.6563 -0.8438,1.2656 -2.4375,1.2656 -1.5782,0 -2.4219,-1.2656 -0.8438,-1.2657 -0.8438,-3.6563 0,-2.3906 0.8438,-3.6562 0.8437,-1.2656 2.4219,-1.2656 z"
         id="path169"
         inkscape:connector-curvature="0" />
    </g>
    <g
       transform="rotate(-90,116.08325,86.41655)"
       style="font-size:14.66670036px;font-family:SansSerif;color-interpolation:linearRGB;fill:#262626;stroke:#262626;color-rendering:optimizeQuality;image-rendering:optimizeQuality;text-rendering:geometricPrecision"
       id="g175">
      <path
         style="stroke:none"
         d="m -34.5312,-14.9375 h 6.9218 v 1.25 h -5.4375 v 3.2344 h 5.2031 v 1.25 h -5.2031 V -5.25 h 5.5625 V -4 h -7.0468 z m 16.0259,5.9844 V -4 h -1.3437 v -4.9062 q 0,-1.1719 -0.4532,-1.75 -0.4531,-0.5782 -1.375,-0.5782 -1.0781,0 -1.7109,0.6953 -0.6328,0.6953 -0.6328,1.8985 V -4 h -1.3594 v -8.2031 h 1.3594 v 1.2812 q 0.4844,-0.75 1.1406,-1.1172 0.6563,-0.3671 1.5156,-0.3671 1.4063,0 2.1329,0.875 0.7265,0.875 0.7265,2.5781 z m 9.4921,0.5156 v 0.6563 h -6.2031 q 0.0937,1.3906 0.8437,2.1171 0.75,0.7266 2.0782,0.7266 0.7812,0 1.5078,-0.1875 0.7265,-0.1875 1.4453,-0.5625 v 1.2656 q -0.7188,0.3125 -1.4844,0.4766 -0.7656,0.1641 -1.5469,0.1641 -1.9531,0 -3.1015,-1.1485 -1.1485,-1.1484 -1.1485,-3.0859 0,-2.0156 1.086,-3.2032 1.0859,-1.1874 2.9297,-1.1874 1.6562,0 2.625,1.0703 0.9687,1.0703 0.9687,2.8984 z m -1.3594,-0.3906 q -0.0156,-1.1094 -0.6171,-1.7735 -0.6016,-0.664 -1.6016,-0.664 -1.125,0 -1.8047,0.6406 -0.6797,0.6406 -0.7734,1.7969 z m 8.1108,-2.1094 q -0.2344,-0.1406 -0.5,-0.2031 -0.2656,-0.0625 -0.5937,-0.0625 -1.1407,0 -1.75,0.7422 -0.6094,0.7421 -0.6094,2.1328 V -4 h -1.3594 v -8.2031 h 1.3594 v 1.2812 q 0.4219,-0.75 1.1016,-1.1172 0.6796,-0.3671 1.664,-0.3671 0.1406,0 0.3047,0.0234 0.1641,0.0234 0.3672,0.0547 z m 6.6663,2.7344 q 0,-1.4531 -0.6016,-2.2578 -0.6015,-0.8047 -1.6953,-0.8047 -1.0937,0 -1.6953,0.8047 -0.6015,0.8047 -0.6015,2.2578 0,1.4687 0.6015,2.2734 0.6016,0.8047 1.6953,0.8047 1.0938,0 1.6953,-0.8047 0.6016,-0.8047 0.6016,-2.2734 z m 1.3438,3.1875 q 0,2.0937 -0.9297,3.1172 -0.9297,1.0234 -2.8516,1.0234 -0.7031,0 -1.3359,-0.1094 -0.6328,-0.1094 -1.2266,-0.3281 V -2.625 q 0.5938,0.3281 1.1719,0.4766 Q 1.1545,-2 1.7639,-2 3.092,-2 3.7483,-2.6875 4.4045,-3.375 4.4045,-4.7812 V -5.4375 Q 3.9826,-4.7188 3.3342,-4.3594 2.6858,-4 1.7795,-4 0.2639,-4 -0.658,-5.1484 q -0.9219,-1.1485 -0.9219,-3.0547 0,-1.8907 0.9219,-3.0469 0.9219,-1.1562 2.4375,-1.1562 0.9063,0 1.5547,0.3593 0.6484,0.3594 1.0703,1.0938 v -1.25 h 1.3438 z m 5.9751,1.7812 q -0.5781,1.4688 -1.1172,1.9141 -0.539,0.4453 -1.4453,0.4453 H 8.0828 V -2 h 0.7969 q 0.5468,0 0.8593,-0.2656 0.3125,-0.2656 0.6719,-1.25 l 0.25,-0.6094 -3.3125,-8.0781 h 1.4219 l 2.5625,6.4219 2.5625,-6.4219 h 1.4375 z M 24.8839,-15.375 q -0.9844,1.6719 -1.461,3.3203 -0.4765,1.6485 -0.4765,3.3516 0,1.6875 0.4765,3.3437 0.4766,1.6563 1.461,3.3438 H 23.712 q -1.1094,-1.7344 -1.6484,-3.3906 -0.5391,-1.6563 -0.5391,-3.2969 0,-1.6407 0.5391,-3.2969 0.539,-1.6562 1.6484,-3.375 z m 2.5304,0.4375 h 1.4844 v 10.1719 q 0,1.9844 -0.75,2.875 Q 27.3987,-1 25.7268,-1 h -0.5625 v -1.2344 h 0.4688 q 0.9843,0 1.3828,-0.5547 0.3984,-0.5547 0.3984,-1.9765 z m 4.0568,-0.4375 h 1.1719 q 1.0938,1.7188 1.6406,3.375 0.5469,1.6562 0.5469,3.2969 0,1.6406 -0.5469,3.2969 -0.5468,1.6562 -1.6406,3.3906 h -1.1719 q 0.9688,-1.6875 1.4532,-3.3438 0.4843,-1.6562 0.4843,-3.3437 0,-1.7031 -0.4843,-3.3516 -0.4844,-1.6484 -1.4532,-3.3203 z"
         id="path173"
         inkscape:connector-curvature="0" />
    </g>
    <g
       style="color-interpolation:linearRGB;fill:#4dbeee;stroke:#4dbeee;stroke-width:2.66669989;stroke-linecap:round;stroke-linejoin:round;color-rendering:optimizeQuality;image-rendering:optimizeQuality;text-rendering:geometricPrecision"
       id="g185">
      <line
         y2="253.1738"
         style="fill:none"
         x1="171.1322"
         x2="218.1489"
         y1="286.44781"
         id="line177" />
      <line
         x1="315.62531"
         x2="362.7963"
         y1="329.06549"
         style="fill:none;stroke:#7e2f8e"
         y2="319.69669"
         id="line179" />
      <line
         x1="362.7963"
         x2="411.95401"
         y1="319.69669"
         style="fill:none;stroke:#7e2f8e"
         y2="310.07019"
         id="line181" />
      <line
         x1="411.95401"
         x2="461.26599"
         y1="310.07019"
         style="fill:none;stroke:#7e2f8e;stroke-linecap:butt"
         y2="302.04349"
         id="line183" />
    </g>
    <g
       transform="translate(461,307)"
       style="font-size:13.33329964px;font-family:mwb_cmsy10;color-interpolation:linearRGB;color-rendering:optimizeQuality;image-rendering:optimizeQuality;text-rendering:geometricPrecision"
       id="g189">
      <path
         style="stroke:none"
         d="M 3.5,0.0312 Q 3.4062,-0.5156 3.1719,-1.0078 2.9375,-1.5 2.5859,-1.9141 2.2344,-2.3281 1.7969,-2.6406 1.3594,-2.9531 0.8281,-3.125 0.7344,-3.1406 0.7344,-3.25 q 0,-0.0938 0.0937,-0.1406 0.5313,-0.1875 0.9688,-0.4922 0.4375,-0.3047 0.789,-0.7188 0.3516,-0.414 0.586,-0.9062 Q 3.4062,-6 3.5,-6.5312 3.5312,-6.6406 3.625,-6.6406 h 0.2656 q 0.125,0 0.125,0.1718 -0.1406,0.8594 -0.6328,1.6407 -0.4922,0.7812 -1.2422,1.3125 h 9.875 q 0.1094,0 0.1719,0.0859 0.0625,0.0859 0.0625,0.1797 0,0.0938 -0.0625,0.1797 -0.0625,0.0859 -0.1719,0.0859 h -9.875 q 0.7344,0.5156 1.2344,1.3047 0.5,0.7891 0.6406,1.6485 0,0.1718 -0.125,0.1718 H 3.625 q -0.0938,0 -0.125,-0.1094 z"
         id="path187"
         inkscape:connector-curvature="0" />
    </g>
    <g
       transform="translate(480,307)"
       style="font-size:13.33329964px;font-family:mwb_cmmi10;color-interpolation:linearRGB;color-rendering:optimizeQuality;image-rendering:optimizeQuality;text-rendering:geometricPrecision"
       id="g193">
      <path
         style="stroke:none"
         d="m 3.8281,2.5469 q 0,-0.2969 0.1328,-0.8516 0.1329,-0.5547 0.3203,-1.1875 0.1876,-0.6328 0.3282,-1.039 0.0468,-0.6563 0.0468,-0.9844 0,-0.8282 -0.164,-1.5547 -0.1641,-0.7266 -0.625,-1.2109 -0.461,-0.4844 -1.2734,-0.4844 -0.4376,0 -0.8672,0.1875 -0.4297,0.1875 -0.7344,0.5156 -0.3047,0.3281 -0.4141,0.75 -0.0312,0.0781 -0.1093,0.0781 H 0.3125 q -0.1094,0 -0.1094,-0.125 V -3.3906 Q 0.3594,-3.9844 0.7266,-4.5234 1.0938,-5.0625 1.6328,-5.4062 2.1719,-5.75 2.7656,-5.75 q 0.6094,0 1.0547,0.4141 0.4453,0.414 0.7109,1.0468 0.2657,0.6329 0.3829,1.2813 0.1171,0.6484 0.1171,1.2266 Q 5.6875,-3.5625 6.5,-5.1406 l 0.2031,-0.4219 q 0.0313,-0.0469 0.0781,-0.0469 h 0.1563 q 0.1094,0 0.1094,0.125 0,0.0313 -0.0313,0.0782 L 6.8281,-5 Q 6.2656,-3.875 5.7891,-2.7188 5.3125,-1.5625 4.9844,-0.5 4.9219,-0.0625 4.7812,0.7031 4.6406,1.4688 4.4375,2.125 4.2344,2.7812 4.0312,2.8125 q -0.2031,0 -0.2031,-0.2656 z"
         id="path191"
         inkscape:connector-curvature="0" />
    </g>
    <g
       transform="translate(487,307)"
       style="font-size:13.33329964px;font-family:SansSerif;color-interpolation:linearRGB;color-rendering:optimizeQuality;image-rendering:optimizeQuality;text-rendering:geometricPrecision"
       id="g197">
      <path
         style="stroke:none"
         d="m 1.375,-5.9062 h 8.1406 v 1.0624 H 1.375 Z m 0,2.5937 h 8.1406 v 1.0781 H 1.375 Z m 18.1361,-5.3281 q -0.9844,0 -1.4844,0.9765 -0.5,0.9766 -0.5,2.9297 0,1.9532 0.5,2.9297 0.5,0.9766 1.4844,0.9766 1,0 1.5,-0.9766 0.5,-0.9765 0.5,-2.9297 0,-1.9531 -0.5,-2.9297 -0.5,-0.9765 -1.5,-0.9765 z m 0,-1.0156 q 1.5937,0 2.4375,1.2656 0.8437,1.2656 0.8437,3.6562 0,2.3906 -0.8437,3.6563 -0.8438,1.2656 -2.4375,1.2656 -1.5781,0 -2.4219,-1.2656 -0.8437,-1.2657 -0.8437,-3.6563 0,-2.3906 0.8437,-3.6562 0.8438,-1.2656 2.4219,-1.2656 z m 5.7354,8.0468 h 1.3438 V 0 h -1.3438 z m 6.9661,-7.0312 q -0.9844,0 -1.4844,0.9765 -0.5,0.9766 -0.5,2.9297 0,1.9532 0.5,2.9297 0.5,0.9766 1.4844,0.9766 1,0 1.5,-0.9766 0.5,-0.9765 0.5,-2.9297 0,-1.9531 -0.5,-2.9297 -0.5,-0.9765 -1.5,-0.9765 z m 0,-1.0156 q 1.5937,0 2.4375,1.2656 0.8437,1.2656 0.8437,3.6562 0,2.3906 -0.8437,3.6563 -0.8438,1.2656 -2.4375,1.2656 -1.5782,0 -2.4219,-1.2656 -0.8438,-1.2657 -0.8438,-3.6563 0,-2.3906 0.8438,-3.6562 0.8437,-1.2656 2.4219,-1.2656 z m 8.4698,1.0156 q -0.9844,0 -1.4844,0.9765 -0.5,0.9766 -0.5,2.9297 0,1.9532 0.5,2.9297 0.5,0.9766 1.4844,0.9766 1,0 1.5,-0.9766 0.5,-0.9765 0.5,-2.9297 0,-1.9531 -0.5,-2.9297 -0.5,-0.9765 -1.5,-0.9765 z m 0,-1.0156 q 1.5937,0 2.4375,1.2656 0.8437,1.2656 0.8437,3.6562 0,2.3906 -0.8437,3.6563 -0.8438,1.2656 -2.4375,1.2656 -1.5782,0 -2.4219,-1.2656 -0.8438,-1.2657 -0.8438,-3.6563 0,-2.3906 0.8438,-3.6562 0.8437,-1.2656 2.4219,-1.2656 z"
         id="path195"
         inkscape:connector-curvature="0" />
    </g>
    <g
       style="color-interpolation:linearRGB;fill:#77ac30;stroke:#77ac30;stroke-width:2.66669989;stroke-linecap:butt;stroke-linejoin:round;color-rendering:optimizeQuality;image-rendering:optimizeQuality;text-rendering:geometricPrecision"
       id="g215">
      <line
         y2="337.5499"
         style="fill:none"
         x1="73.964401"
         x2="124.1156"
         y1="374"
         id="line199" />
      <line
         x1="124.1156"
         x2="171.1322"
         y1="337.5499"
         style="fill:none;stroke-linecap:round"
         y2="309.43811"
         id="line201" />
      <line
         x1="171.1322"
         x2="218.1489"
         y1="309.43811"
         style="fill:none;stroke-linecap:round"
         y2="286.92551"
         id="line203" />
      <line
         x1="218.1489"
         x2="268.29999"
         y1="286.92551"
         style="fill:none;stroke-linecap:round"
         y2="270.13519"
         id="line205" />
      <line
         x1="268.29999"
         x2="315.31671"
         y1="270.13519"
         style="fill:none;stroke-linecap:round"
         y2="256.50781"
         id="line207" />
      <line
         x1="315.31671"
         x2="365.4678"
         y1="256.50781"
         style="fill:none;stroke-linecap:round"
         y2="241.9832"
         id="line209" />
      <line
         x1="365.4678"
         x2="412.48441"
         y1="241.9832"
         style="fill:none;stroke-linecap:round"
         y2="229.3981"
         id="line211" />
      <line
         y2="220.1277"
         style="fill:none"
         x1="412.48441"
         x2="459.6554"
         y1="229.3981"
         id="line213" />
    </g>
    <g
       transform="translate(460,225)"
       style="font-size:13.33329964px;font-family:mwb_cmsy10;color-interpolation:linearRGB;color-rendering:optimizeQuality;image-rendering:optimizeQuality;text-rendering:geometricPrecision"
       id="g219">
      <path
         style="stroke:none"
         d="M 3.5,0.0312 Q 3.4062,-0.5156 3.1719,-1.0078 2.9375,-1.5 2.5859,-1.9141 2.2344,-2.3281 1.7969,-2.6406 1.3594,-2.9531 0.8281,-3.125 0.7344,-3.1406 0.7344,-3.25 q 0,-0.0938 0.0937,-0.1406 0.5313,-0.1875 0.9688,-0.4922 0.4375,-0.3047 0.789,-0.7188 0.3516,-0.414 0.586,-0.9062 Q 3.4062,-6 3.5,-6.5312 3.5312,-6.6406 3.625,-6.6406 h 0.2656 q 0.125,0 0.125,0.1718 -0.1406,0.8594 -0.6328,1.6407 -0.4922,0.7812 -1.2422,1.3125 h 9.875 q 0.1094,0 0.1719,0.0859 0.0625,0.0859 0.0625,0.1797 0,0.0938 -0.0625,0.1797 -0.0625,0.0859 -0.1719,0.0859 h -9.875 q 0.7344,0.5156 1.2344,1.3047 0.5,0.7891 0.6406,1.6485 0,0.1718 -0.125,0.1718 H 3.625 q -0.0938,0 -0.125,-0.1094 z"
         id="path217"
         inkscape:connector-curvature="0" />
    </g>
    <g
       transform="translate(479,225)"
       style="font-size:13.33329964px;font-family:mwb_cmmi10;color-interpolation:linearRGB;color-rendering:optimizeQuality;image-rendering:optimizeQuality;text-rendering:geometricPrecision"
       id="g223">
      <path
         style="stroke:none"
         d="m 3.8281,2.5469 q 0,-0.2969 0.1328,-0.8516 0.1329,-0.5547 0.3203,-1.1875 0.1876,-0.6328 0.3282,-1.039 0.0468,-0.6563 0.0468,-0.9844 0,-0.8282 -0.164,-1.5547 -0.1641,-0.7266 -0.625,-1.2109 -0.461,-0.4844 -1.2734,-0.4844 -0.4376,0 -0.8672,0.1875 -0.4297,0.1875 -0.7344,0.5156 -0.3047,0.3281 -0.4141,0.75 -0.0312,0.0781 -0.1093,0.0781 H 0.3125 q -0.1094,0 -0.1094,-0.125 V -3.3906 Q 0.3594,-3.9844 0.7266,-4.5234 1.0938,-5.0625 1.6328,-5.4062 2.1719,-5.75 2.7656,-5.75 q 0.6094,0 1.0547,0.4141 0.4453,0.414 0.7109,1.0468 0.2657,0.6329 0.3829,1.2813 0.1171,0.6484 0.1171,1.2266 Q 5.6875,-3.5625 6.5,-5.1406 l 0.2031,-0.4219 q 0.0313,-0.0469 0.0781,-0.0469 h 0.1563 q 0.1094,0 0.1094,0.125 0,0.0313 -0.0313,0.0782 L 6.8281,-5 Q 6.2656,-3.875 5.7891,-2.7188 5.3125,-1.5625 4.9844,-0.5 4.9219,-0.0625 4.7812,0.7031 4.6406,1.4688 4.4375,2.125 4.2344,2.7812 4.0312,2.8125 q -0.2031,0 -0.2031,-0.2656 z"
         id="path221"
         inkscape:connector-curvature="0" />
    </g>
    <g
       transform="translate(486,225)"
       style="font-size:13.33329964px;font-family:SansSerif;color-interpolation:linearRGB;color-rendering:optimizeQuality;image-rendering:optimizeQuality;text-rendering:geometricPrecision"
       id="g227">
      <path
         style="stroke:none"
         d="m 1.375,-5.9062 h 8.1406 v 1.0624 H 1.375 Z m 0,2.5937 h 8.1406 v 1.0781 H 1.375 Z m 13.9044,-5.3281 q -0.9844,0 -1.4844,0.9765 -0.5,0.9766 -0.5,2.9297 0,1.9532 0.5,2.9297 0.5,0.9766 1.4844,0.9766 1,0 1.5,-0.9766 0.5,-0.9765 0.5,-2.9297 0,-1.9531 -0.5,-2.9297 -0.5,-0.9765 -1.5,-0.9765 z m 0,-1.0156 q 1.5938,0 2.4375,1.2656 0.8438,1.2656 0.8438,3.6562 0,2.3906 -0.8438,3.6563 -0.8437,1.2656 -2.4375,1.2656 -1.5781,0 -2.4219,-1.2656 -0.8437,-1.2657 -0.8437,-3.6563 0,-2.3906 0.8437,-3.6562 0.8438,-1.2656 2.4219,-1.2656 z m 5.7355,8.0468 h 1.3437 V 0 h -1.3437 z m 4.2472,-7.875 h 5.0313 v 1.0938 H 26.434 v 2.3125 q 0.2813,-0.0938 0.5625,-0.1407 0.2813,-0.0468 0.5469,-0.0468 1.5937,0 2.5234,0.8672 0.9297,0.8672 0.9297,2.3515 0,1.5313 -0.9531,2.3828 -0.9531,0.8516 -2.6875,0.8516 -0.5938,0 -1.2188,-0.1016 -0.625,-0.1015 -1.2812,-0.3047 v -1.2968 q 0.5781,0.3125 1.1875,0.4687 0.6094,0.1563 1.2812,0.1563 1.1094,0 1.75,-0.5782 0.6407,-0.5781 0.6407,-1.5781 0,-0.9843 -0.6407,-1.5625 -0.6406,-0.5781 -1.75,-0.5781 -0.5156,0 -1.0234,0.1172 -0.5078,0.1172 -1.0391,0.3515 z m 11.1886,0.8438 q -0.9844,0 -1.4844,0.9765 -0.5,0.9766 -0.5,2.9297 0,1.9532 0.5,2.9297 0.5,0.9766 1.4844,0.9766 1,0 1.5,-0.9766 0.5,-0.9765 0.5,-2.9297 0,-1.9531 -0.5,-2.9297 -0.5,-0.9765 -1.5,-0.9765 z m 0,-1.0156 q 1.5938,0 2.4375,1.2656 0.8438,1.2656 0.8438,3.6562 0,2.3906 -0.8438,3.6563 -0.8437,1.2656 -2.4375,1.2656 -1.5781,0 -2.4219,-1.2656 -0.8437,-1.2657 -0.8437,-3.6563 0,-2.3906 0.8437,-3.6562 0.8438,-1.2656 2.4219,-1.2656 z"
         id="path225"
         inkscape:connector-curvature="0" />
    </g>
    <g
       style="color-interpolation:linearRGB;fill:#4dbeee;stroke:#4dbeee;stroke-width:2.66669989;stroke-linecap:butt;stroke-linejoin:round;color-rendering:optimizeQuality;image-rendering:optimizeQuality;text-rendering:geometricPrecision"
       id="g245">
      <line
         y2="329.65009"
         style="fill:none"
         x1="73.964401"
         x2="124.1156"
         y1="374"
         id="line229" />
      <line
         x1="124.1156"
         x2="171.1322"
         y1="329.65009"
         style="fill:none;stroke-linecap:round"
         y2="286.44781"
         id="line231" />
      <line
         x1="268.60861"
         x2="315.62531"
         y1="337.10739"
         style="fill:none;stroke:#7e2f8e;stroke-linecap:round"
         y2="329.06549"
         id="line233" />
      <line
         x1="218.1489"
         x2="268.29999"
         y1="253.1738"
         style="fill:none;stroke-linecap:round"
         y2="222.3788"
         id="line235" />
      <line
         x1="268.29999"
         x2="315.31671"
         y1="222.3788"
         style="fill:none;stroke-linecap:round"
         y2="199.0141"
         id="line237" />
      <line
         x1="315.31671"
         x2="365.4678"
         y1="199.0141"
         style="fill:none;stroke-linecap:round"
         y2="175.2095"
         id="line239" />
      <line
         x1="365.4678"
         x2="412.48441"
         y1="175.2095"
         style="fill:none;stroke-linecap:round"
         y2="153.3868"
         id="line241" />
      <line
         y2="136.4808"
         style="fill:none"
         x1="412.48441"
         x2="459.5011"
         y1="153.3868"
         id="line243" />
    </g>
    <g
       transform="translate(460,141)"
       style="font-size:13.33329964px;font-family:mwb_cmsy10;color-interpolation:linearRGB;color-rendering:optimizeQuality;image-rendering:optimizeQuality;text-rendering:geometricPrecision"
       id="g249">
      <path
         style="stroke:none"
         d="M 3.5,0.0312 Q 3.4062,-0.5156 3.1719,-1.0078 2.9375,-1.5 2.5859,-1.9141 2.2344,-2.3281 1.7969,-2.6406 1.3594,-2.9531 0.8281,-3.125 0.7344,-3.1406 0.7344,-3.25 q 0,-0.0938 0.0937,-0.1406 0.5313,-0.1875 0.9688,-0.4922 0.4375,-0.3047 0.789,-0.7188 0.3516,-0.414 0.586,-0.9062 Q 3.4062,-6 3.5,-6.5312 3.5312,-6.6406 3.625,-6.6406 h 0.2656 q 0.125,0 0.125,0.1718 -0.1406,0.8594 -0.6328,1.6407 -0.4922,0.7812 -1.2422,1.3125 h 9.875 q 0.1094,0 0.1719,0.0859 0.0625,0.0859 0.0625,0.1797 0,0.0938 -0.0625,0.1797 -0.0625,0.0859 -0.1719,0.0859 h -9.875 q 0.7344,0.5156 1.2344,1.3047 0.5,0.7891 0.6406,1.6485 0,0.1718 -0.125,0.1718 H 3.625 q -0.0938,0 -0.125,-0.1094 z"
         id="path247"
         inkscape:connector-curvature="0" />
    </g>
    <g
       transform="translate(479,141)"
       style="font-size:13.33329964px;font-family:mwb_cmmi10;color-interpolation:linearRGB;color-rendering:optimizeQuality;image-rendering:optimizeQuality;text-rendering:geometricPrecision"
       id="g253">
      <path
         style="stroke:none"
         d="m 3.8281,2.5469 q 0,-0.2969 0.1328,-0.8516 0.1329,-0.5547 0.3203,-1.1875 0.1876,-0.6328 0.3282,-1.039 0.0468,-0.6563 0.0468,-0.9844 0,-0.8282 -0.164,-1.5547 -0.1641,-0.7266 -0.625,-1.2109 -0.461,-0.4844 -1.2734,-0.4844 -0.4376,0 -0.8672,0.1875 -0.4297,0.1875 -0.7344,0.5156 -0.3047,0.3281 -0.4141,0.75 -0.0312,0.0781 -0.1093,0.0781 H 0.3125 q -0.1094,0 -0.1094,-0.125 V -3.3906 Q 0.3594,-3.9844 0.7266,-4.5234 1.0938,-5.0625 1.6328,-5.4062 2.1719,-5.75 2.7656,-5.75 q 0.6094,0 1.0547,0.4141 0.4453,0.414 0.7109,1.0468 0.2657,0.6329 0.3829,1.2813 0.1171,0.6484 0.1171,1.2266 Q 5.6875,-3.5625 6.5,-5.1406 l 0.2031,-0.4219 q 0.0313,-0.0469 0.0781,-0.0469 h 0.1563 q 0.1094,0 0.1094,0.125 0,0.0313 -0.0313,0.0782 L 6.8281,-5 Q 6.2656,-3.875 5.7891,-2.7188 5.3125,-1.5625 4.9844,-0.5 4.9219,-0.0625 4.7812,0.7031 4.6406,1.4688 4.4375,2.125 4.2344,2.7812 4.0312,2.8125 q -0.2031,0 -0.2031,-0.2656 z"
         id="path251"
         inkscape:connector-curvature="0" />
    </g>
    <g
       transform="translate(486,141)"
       style="font-size:13.33329964px;font-family:SansSerif;color-interpolation:linearRGB;color-rendering:optimizeQuality;image-rendering:optimizeQuality;text-rendering:geometricPrecision"
       id="g257">
      <path
         style="stroke:none"
         d="m 1.375,-5.9062 h 8.1406 v 1.0624 H 1.375 Z m 0,2.5937 h 8.1406 v 1.0781 H 1.375 Z m 11.3888,2.2344 h 2.0937 v -7.2344 l -2.2812,0.4531 v -1.1562 l 2.2656,-0.4688 h 1.2969 v 8.4063 h 2.0937 V 0 h -5.4687 z m 8.2511,-0.5313 h 1.3437 V 0 h -1.3437 z m 6.966,-7.0312 q -0.9844,0 -1.4844,0.9765 -0.5,0.9766 -0.5,2.9297 0,1.9532 0.5,2.9297 0.5,0.9766 1.4844,0.9766 1,0 1.5,-0.9766 0.5,-0.9765 0.5,-2.9297 0,-1.9531 -0.5,-2.9297 -0.5,-0.9765 -1.5,-0.9765 z m 0,-1.0156 q 1.5937,0 2.4375,1.2656 0.8437,1.2656 0.8437,3.6562 0,2.3906 -0.8437,3.6563 -0.8438,1.2656 -2.4375,1.2656 -1.5781,0 -2.4219,-1.2656 -0.8437,-1.2657 -0.8437,-3.6563 0,-2.3906 0.8437,-3.6562 0.8438,-1.2656 2.4219,-1.2656 z m 8.4698,1.0156 q -0.9844,0 -1.4844,0.9765 -0.5,0.9766 -0.5,2.9297 0,1.9532 0.5,2.9297 0.5,0.9766 1.4844,0.9766 1,0 1.5,-0.9766 0.5,-0.9765 0.5,-2.9297 0,-1.9531 -0.5,-2.9297 -0.5,-0.9765 -1.5,-0.9765 z m 0,-1.0156 q 1.5938,0 2.4375,1.2656 0.8438,1.2656 0.8438,3.6562 0,2.3906 -0.8438,3.6563 -0.8437,1.2656 -2.4375,1.2656 -1.5781,0 -2.4219,-1.2656 -0.8437,-1.2657 -0.8437,-3.6563 0,-2.3906 0.8437,-3.6562 0.8438,-1.2656 2.4219,-1.2656 z"
         id="path255"
         inkscape:connector-curvature="0" />
    </g>
    <g
       style="color-interpolation:linearRGB;fill:#a2142f;stroke:#a2142f;stroke-width:2.66669989;stroke-linecap:butt;stroke-linejoin:round;color-rendering:optimizeQuality;image-rendering:optimizeQuality;text-rendering:geometricPrecision"
       id="g275">
      <line
         y2="327.9772"
         style="fill:none"
         x1="73.964401"
         x2="124.1156"
         y1="374"
         id="line259" />
      <line
         x1="124.1156"
         x2="171.1322"
         y1="327.9772"
         style="fill:none;stroke-linecap:round"
         y2="288.57831"
         id="line261" />
      <line
         x1="171.1322"
         x2="218.1489"
         y1="288.57831"
         style="fill:none;stroke-linecap:round"
         y2="249.1544"
         id="line263" />
      <line
         x1="218.1489"
         x2="268.29999"
         y1="249.1544"
         style="fill:none;stroke-linecap:round"
         y2="205.9158"
         id="line265" />
      <line
         x1="268.29999"
         x2="315.31671"
         y1="205.9158"
         style="fill:none;stroke-linecap:round"
         y2="167.1989"
         id="line267" />
      <line
         x1="315.31671"
         x2="365.4678"
         y1="167.1989"
         style="fill:none;stroke-linecap:round"
         y2="121.8994"
         id="line269" />
      <line
         x1="365.4678"
         x2="412.48441"
         y1="121.8994"
         style="fill:none;stroke-linecap:round"
         y2="79.832397"
         id="line271" />
      <line
         y2="41.265499"
         style="fill:none"
         x1="412.48441"
         x2="459.5011"
         y1="79.832397"
         id="line273" />
    </g>
    <g
       transform="translate(460,46)"
       style="font-size:13.33329964px;font-family:mwb_cmsy10;color-interpolation:linearRGB;color-rendering:optimizeQuality;image-rendering:optimizeQuality;text-rendering:geometricPrecision"
       id="g279">
      <path
         style="stroke:none"
         d="M 3.5,0.0312 Q 3.4062,-0.5156 3.1719,-1.0078 2.9375,-1.5 2.5859,-1.9141 2.2344,-2.3281 1.7969,-2.6406 1.3594,-2.9531 0.8281,-3.125 0.7344,-3.1406 0.7344,-3.25 q 0,-0.0938 0.0937,-0.1406 0.5313,-0.1875 0.9688,-0.4922 0.4375,-0.3047 0.789,-0.7188 0.3516,-0.414 0.586,-0.9062 Q 3.4062,-6 3.5,-6.5312 3.5312,-6.6406 3.625,-6.6406 h 0.2656 q 0.125,0 0.125,0.1718 -0.1406,0.8594 -0.6328,1.6407 -0.4922,0.7812 -1.2422,1.3125 h 9.875 q 0.1094,0 0.1719,0.0859 0.0625,0.0859 0.0625,0.1797 0,0.0938 -0.0625,0.1797 -0.0625,0.0859 -0.1719,0.0859 h -9.875 q 0.7344,0.5156 1.2344,1.3047 0.5,0.7891 0.6406,1.6485 0,0.1718 -0.125,0.1718 H 3.625 q -0.0938,0 -0.125,-0.1094 z"
         id="path277"
         inkscape:connector-curvature="0" />
    </g>
    <g
       transform="translate(479,46)"
       style="font-size:13.33329964px;font-family:mwb_cmmi10;color-interpolation:linearRGB;color-rendering:optimizeQuality;image-rendering:optimizeQuality;text-rendering:geometricPrecision"
       id="g283">
      <path
         style="stroke:none"
         d="m 3.8281,2.5469 q 0,-0.2969 0.1328,-0.8516 0.1329,-0.5547 0.3203,-1.1875 0.1876,-0.6328 0.3282,-1.039 0.0468,-0.6563 0.0468,-0.9844 0,-0.8282 -0.164,-1.5547 -0.1641,-0.7266 -0.625,-1.2109 -0.461,-0.4844 -1.2734,-0.4844 -0.4376,0 -0.8672,0.1875 -0.4297,0.1875 -0.7344,0.5156 -0.3047,0.3281 -0.4141,0.75 -0.0312,0.0781 -0.1093,0.0781 H 0.3125 q -0.1094,0 -0.1094,-0.125 V -3.3906 Q 0.3594,-3.9844 0.7266,-4.5234 1.0938,-5.0625 1.6328,-5.4062 2.1719,-5.75 2.7656,-5.75 q 0.6094,0 1.0547,0.4141 0.4453,0.414 0.7109,1.0468 0.2657,0.6329 0.3829,1.2813 0.1171,0.6484 0.1171,1.2266 Q 5.6875,-3.5625 6.5,-5.1406 l 0.2031,-0.4219 q 0.0313,-0.0469 0.0781,-0.0469 h 0.1563 q 0.1094,0 0.1094,0.125 0,0.0313 -0.0313,0.0782 L 6.8281,-5 Q 6.2656,-3.875 5.7891,-2.7188 5.3125,-1.5625 4.9844,-0.5 4.9219,-0.0625 4.7812,0.7031 4.6406,1.4688 4.4375,2.125 4.2344,2.7812 4.0312,2.8125 q -0.2031,0 -0.2031,-0.2656 z"
         id="path281"
         inkscape:connector-curvature="0" />
    </g>
    <g
       transform="translate(486,46)"
       style="font-size:13.33329964px;font-family:SansSerif;color-interpolation:linearRGB;color-rendering:optimizeQuality;image-rendering:optimizeQuality;text-rendering:geometricPrecision"
       id="g287">
      <path
         style="stroke:none"
         d="m 1.375,-5.9062 h 8.1406 v 1.0624 H 1.375 Z m 0,2.5937 h 8.1406 v 1.0781 H 1.375 Z m 11.3888,2.2344 h 2.0937 v -7.2344 l -2.2812,0.4531 v -1.1562 l 2.2656,-0.4688 h 1.2969 v 8.4063 h 2.0937 V 0 h -5.4687 z m 8.2511,-0.5313 h 1.3437 V 0 h -1.3437 z m 4.2472,-7.875 h 5.0313 v 1.0938 H 26.434 v 2.3125 q 0.2813,-0.0938 0.5625,-0.1407 0.2813,-0.0468 0.5469,-0.0468 1.5937,0 2.5234,0.8672 0.9297,0.8672 0.9297,2.3515 0,1.5313 -0.9531,2.3828 -0.9531,0.8516 -2.6875,0.8516 -0.5938,0 -1.2188,-0.1016 -0.625,-0.1015 -1.2812,-0.3047 v -1.2968 q 0.5781,0.3125 1.1875,0.4687 0.6094,0.1563 1.2812,0.1563 1.1094,0 1.75,-0.5782 0.6407,-0.5781 0.6407,-1.5781 0,-0.9843 -0.6407,-1.5625 -0.6406,-0.5781 -1.75,-0.5781 -0.5156,0 -1.0234,0.1172 -0.5078,0.1172 -1.0391,0.3515 z m 11.1886,0.8438 q -0.9844,0 -1.4844,0.9765 -0.5,0.9766 -0.5,2.9297 0,1.9532 0.5,2.9297 0.5,0.9766 1.4844,0.9766 1,0 1.5,-0.9766 0.5,-0.9765 0.5,-2.9297 0,-1.9531 -0.5,-2.9297 -0.5,-0.9765 -1.5,-0.9765 z m 0,-1.0156 q 1.5938,0 2.4375,1.2656 0.8438,1.2656 0.8438,3.6562 0,2.3906 -0.8438,3.6563 -0.8437,1.2656 -2.4375,1.2656 -1.5781,0 -2.4219,-1.2656 -0.8437,-1.2657 -0.8437,-3.6563 0,-2.3906 0.8437,-3.6562 0.8438,-1.2656 2.4219,-1.2656 z"
         id="path285"
         inkscape:connector-curvature="0" />
    </g>
    <g
       style="color-interpolation:linearRGB;fill:#d95319;stroke:#d95319;stroke-width:2.66669989;stroke-linecap:round;stroke-linejoin:round;color-rendering:optimizeQuality;image-rendering:optimizeQuality;text-rendering:geometricPrecision"
       id="g307">
      <line
         y2="338.8989"
         style="fill:none"
         x1="363.00851"
         x2="412.25299"
         y1="344.2428"
         id="line289" />
      <line
         x1="73.964401"
         x2="123.209"
         y1="374"
         style="fill:none;stroke:#0072bd;stroke-linecap:butt"
         y2="368.93631"
         id="line291" />
      <line
         x1="123.209"
         x2="170.31239"
         y1="368.93631"
         style="fill:none;stroke:#0072bd"
         y2="363.4469"
         id="line293" />
      <line
         x1="170.31239"
         x2="219.55701"
         y1="363.4469"
         style="fill:none;stroke:#0072bd"
         y2="358.16071"
         id="line295" />
      <line
         x1="219.55701"
         x2="266.66049"
         y1="358.16071"
         style="fill:none;stroke:#0072bd"
         y2="353.76151"
         id="line297" />
      <line
         x1="266.66049"
         x2="315.905"
         y1="353.76151"
         style="fill:none;stroke:#0072bd"
         y2="348.7934"
         id="line299" />
      <line
         x1="315.905"
         x2="363.00851"
         y1="348.7934"
         style="fill:none;stroke:#0072bd"
         y2="344.1257"
         id="line301" />
      <line
         x1="363.00851"
         x2="412.25299"
         y1="344.1257"
         style="fill:none;stroke:#0072bd"
         y2="338.69739"
         id="line303" />
      <line
         x1="412.25299"
         x2="459.35641"
         y1="338.69739"
         style="fill:none;stroke:#0072bd;stroke-linecap:butt"
         y2="333.3168"
         id="line305" />
    </g>
    <g
       transform="translate(459,335)"
       style="font-size:13.33329964px;font-family:mwb_cmsy10;color-interpolation:linearRGB;color-rendering:optimizeQuality;image-rendering:optimizeQuality;text-rendering:geometricPrecision"
       id="g311">
      <path
         style="stroke:none"
         d="M 3.5,0.0312 Q 3.4062,-0.5156 3.1719,-1.0078 2.9375,-1.5 2.5859,-1.9141 2.2344,-2.3281 1.7969,-2.6406 1.3594,-2.9531 0.8281,-3.125 0.7344,-3.1406 0.7344,-3.25 q 0,-0.0938 0.0937,-0.1406 0.5313,-0.1875 0.9688,-0.4922 0.4375,-0.3047 0.789,-0.7188 0.3516,-0.414 0.586,-0.9062 Q 3.4062,-6 3.5,-6.5312 3.5312,-6.6406 3.625,-6.6406 h 0.2656 q 0.125,0 0.125,0.1718 -0.1406,0.8594 -0.6328,1.6407 -0.4922,0.7812 -1.2422,1.3125 h 9.875 q 0.1094,0 0.1719,0.0859 0.0625,0.0859 0.0625,0.1797 0,0.0938 -0.0625,0.1797 -0.0625,0.0859 -0.1719,0.0859 h -9.875 q 0.7344,0.5156 1.2344,1.3047 0.5,0.7891 0.6406,1.6485 0,0.1718 -0.125,0.1718 H 3.625 q -0.0938,0 -0.125,-0.1094 z"
         id="path309"
         inkscape:connector-curvature="0" />
    </g>
    <g
       transform="translate(478,335)"
       style="font-size:13.33329964px;font-family:mwb_cmmi10;color-interpolation:linearRGB;color-rendering:optimizeQuality;image-rendering:optimizeQuality;text-rendering:geometricPrecision"
       id="g315">
      <path
         style="stroke:none"
         d="m 3.8281,2.5469 q 0,-0.2969 0.1328,-0.8516 0.1329,-0.5547 0.3203,-1.1875 0.1876,-0.6328 0.3282,-1.039 0.0468,-0.6563 0.0468,-0.9844 0,-0.8282 -0.164,-1.5547 -0.1641,-0.7266 -0.625,-1.2109 -0.461,-0.4844 -1.2734,-0.4844 -0.4376,0 -0.8672,0.1875 -0.4297,0.1875 -0.7344,0.5156 -0.3047,0.3281 -0.4141,0.75 -0.0312,0.0781 -0.1093,0.0781 H 0.3125 q -0.1094,0 -0.1094,-0.125 V -3.3906 Q 0.3594,-3.9844 0.7266,-4.5234 1.0938,-5.0625 1.6328,-5.4062 2.1719,-5.75 2.7656,-5.75 q 0.6094,0 1.0547,0.4141 0.4453,0.414 0.7109,1.0468 0.2657,0.6329 0.3829,1.2813 0.1171,0.6484 0.1171,1.2266 Q 5.6875,-3.5625 6.5,-5.1406 l 0.2031,-0.4219 q 0.0313,-0.0469 0.0781,-0.0469 h 0.1563 q 0.1094,0 0.1094,0.125 0,0.0313 -0.0313,0.0782 L 6.8281,-5 Q 6.2656,-3.875 5.7891,-2.7188 5.3125,-1.5625 4.9844,-0.5 4.9219,-0.0625 4.7812,0.7031 4.6406,1.4688 4.4375,2.125 4.2344,2.7812 4.0312,2.8125 q -0.2031,0 -0.2031,-0.2656 z"
         id="path313"
         inkscape:connector-curvature="0" />
    </g>
    <g
       transform="translate(485,335)"
       style="font-size:13.33329964px;font-family:SansSerif;color-interpolation:linearRGB;color-rendering:optimizeQuality;image-rendering:optimizeQuality;text-rendering:geometricPrecision"
       id="g319">
      <path
         style="stroke:none"
         d="m 1.375,-5.9062 h 8.1406 v 1.0624 H 1.375 Z m 0,2.5937 h 8.1406 v 1.0781 H 1.375 Z m 10.42,-0.7656 h 3.4219 v 1.0312 H 11.795 Z m 5.7725,3 h 2.0937 V -8.3125 L 17.38,-7.8594 v -1.1562 l 2.2656,-0.4688 h 1.2969 v 8.4063 h 2.0937 V 0 h -5.4687 z m 8.251,-0.5313 h 1.3438 V 0 h -1.3438 z m 4.2473,-7.875 h 5.0313 v 1.0938 h -3.8594 v 2.3125 q 0.2813,-0.0938 0.5625,-0.1407 0.2813,-0.0468 0.5469,-0.0468 1.5937,0 2.5234,0.8672 0.9297,0.8672 0.9297,2.3515 0,1.5313 -0.9531,2.3828 -0.9531,0.8516 -2.6875,0.8516 -0.5938,0 -1.2188,-0.1016 -0.625,-0.1015 -1.2812,-0.3047 v -1.2968 q 0.5781,0.3125 1.1875,0.4687 0.6094,0.1563 1.2812,0.1563 1.1094,0 1.75,-0.5782 0.6407,-0.5781 0.6407,-1.5781 0,-0.9843 -0.6407,-1.5625 -0.6406,-0.5781 -1.75,-0.5781 -0.5156,0 -1.0234,0.1172 -0.5078,0.1172 -1.0391,0.3515 z m 11.1886,0.8438 q -0.9844,0 -1.4844,0.9765 -0.5,0.9766 -0.5,2.9297 0,1.9532 0.5,2.9297 0.5,0.9766 1.4844,0.9766 1,0 1.5,-0.9766 0.5,-0.9765 0.5,-2.9297 0,-1.9531 -0.5,-2.9297 -0.5,-0.9765 -1.5,-0.9765 z m 0,-1.0156 q 1.5937,0 2.4375,1.2656 0.8437,1.2656 0.8437,3.6562 0,2.3906 -0.8437,3.6563 -0.8438,1.2656 -2.4375,1.2656 -1.5781,0 -2.4219,-1.2656 -0.8437,-1.2657 -0.8437,-3.6563 0,-2.3906 0.8437,-3.6562 0.8438,-1.2656 2.4219,-1.2656 z"
         id="path317"
         inkscape:connector-curvature="0" />
    </g>
    <g
       style="color-interpolation:linearRGB;fill:#d95319;stroke:#d95319;stroke-width:2.66669989;stroke-linecap:butt;stroke-linejoin:round;color-rendering:optimizeQuality;image-rendering:optimizeQuality;text-rendering:geometricPrecision"
       id="g333">
      <line
         y2="368.93631"
         style="fill:none"
         x1="73.964401"
         x2="123.209"
         y1="374"
         id="line321" />
      <line
         x1="123.209"
         x2="170.31239"
         y1="368.93631"
         style="fill:none;stroke-linecap:round"
         y2="364.03091"
         id="line323" />
      <line
         x1="170.31239"
         x2="219.55701"
         y1="364.03091"
         style="fill:none;stroke-linecap:round"
         y2="358.96881"
         id="line325" />
      <line
         x1="219.55701"
         x2="266.66049"
         y1="358.96881"
         style="fill:none;stroke-linecap:round"
         y2="354.09329"
         id="line327" />
      <line
         x1="266.66049"
         x2="315.905"
         y1="354.09329"
         style="fill:none;stroke-linecap:round"
         y2="349.09381"
         id="line329" />
      <line
         x1="315.905"
         x2="363.00851"
         y1="349.09381"
         style="fill:none;stroke-linecap:round"
         y2="344.2428"
         id="line331" />
    </g>
    <g
       transform="translate(290.0003,28.25)"
       style="font-weight:bold;font-size:14.66670036px;font-family:SansSerif;color-interpolation:linearRGB;color-rendering:optimizeQuality;image-rendering:optimizeQuality;text-rendering:geometricPrecision"
       id="g337">
      <path
         style="stroke:none"
         d="m -108.9219,-14.9375 h 10.0781 v 2.1406 h -3.625 V -4 h -2.8281 v -8.7969 h -3.625 z m 11.185,2.7344 h 2.6094 V -4 h -2.6094 z m 0,-3.1875 h 2.6094 v 2.125 h -2.6094 z m 12.6175,4.5468 q 0.5,-0.7656 1.1875,-1.164 0.6875,-0.3984 1.5,-0.3984 1.4219,0 2.1562,0.875 0.7344,0.875 0.7344,2.5312 v 5 h -2.625 v -4.2812 q 0,-0.0938 0.0078,-0.1954 0.0078,-0.1015 0.0078,-0.289 0,-0.875 -0.2578,-1.2656 -0.2578,-0.3907 -0.8359,-0.3907 -0.75,0 -1.1563,0.6172 -0.4062,0.6172 -0.4218,1.7735 V -4 h -2.625 v -4.2812 q 0,-1.3594 -0.2344,-1.75 -0.2344,-0.3907 -0.8438,-0.3907 -0.75,0 -1.164,0.6172 -0.4141,0.6172 -0.4141,1.7735 V -4 h -2.625 v -8.2031 h 2.625 V -11 q 0.4844,-0.7031 1.1172,-1.0547 0.6328,-0.3515 1.3828,-0.3515 0.8438,0 1.5,0.414 0.6563,0.4141 0.9844,1.1484 z m 15.8654,2.7188 v 0.75 h -6.1406 q 0.0938,0.9219 0.6719,1.3828 0.5781,0.461 1.5937,0.461 0.8282,0 1.6954,-0.2422 0.8671,-0.2422 1.789,-0.7422 V -4.5 q -0.9375,0.3594 -1.8672,0.5391 -0.9297,0.1797 -1.8515,0.1797 -2.2344,0 -3.4688,-1.1329 -1.2344,-1.1328 -1.2344,-3.1797 0,-2 1.211,-3.1562 1.2109,-1.1562 3.3359,-1.1562 1.9375,0 3.1016,1.164 1.164,1.1641 1.164,3.1172 z M -71.9571,-9 q 0,-0.75 -0.4375,-1.2031 -0.4375,-0.4531 -1.1406,-0.4531 -0.75,0 -1.2266,0.4296 -0.4765,0.4297 -0.6015,1.2266 z m 8.5271,-3.2031 h 2.6094 l 2.0468,5.6719 2.0313,-5.6719 h 2.6406 L -57.3363,-4 h -2.875 z m 16.9912,0.25 v 2 q -0.8437,-0.3594 -1.625,-0.5313 -0.7812,-0.1718 -1.4843,-0.1718 -0.75,0 -1.1094,0.1874 -0.3594,0.1876 -0.3594,0.5782 0,0.3125 0.2735,0.4765 0.2734,0.1641 0.9765,0.2579 l 0.4688,0.0624 q 2.0156,0.25 2.7109,0.836 0.6953,0.5859 0.6953,1.8359 0,1.3125 -0.9687,1.9766 -0.9688,0.6641 -2.8907,0.6641 -0.8125,0 -1.6796,-0.1329 -0.8672,-0.1328 -1.7735,-0.3828 v -2 q 0.7813,0.3907 1.6016,0.5781 0.8203,0.1876 1.6797,0.1876 0.7656,0 1.1562,-0.211 0.3906,-0.2109 0.3906,-0.6328 0,-0.3438 -0.2734,-0.5156 -0.2734,-0.1719 -1.0703,-0.2813 l -0.4531,-0.0469 q -1.75,-0.2187 -2.4532,-0.8124 -0.7031,-0.5938 -0.7031,-1.8126 0,-1.2968 0.8906,-1.9296 0.8907,-0.6328 2.7344,-0.6328 0.7344,0 1.5313,0.1093 0.7968,0.1094 1.7343,0.3438 z m 7.5293,-2.9844 h 7.6094 v 2.1406 h -4.7813 v 2.0313 h 4.5 v 2.125 h -4.5 v 2.5156 h 4.9375 V -4 h -7.7656 z M -20.7728,-9 v 5 h -2.625 v -0.8125 -3.0156 q 0,-1.0625 -0.0468,-1.461 -0.0469,-0.3984 -0.1719,-0.5859 -0.1563,-0.2656 -0.4141,-0.4062 -0.2578,-0.1407 -0.6015,-0.1407 -0.8282,0 -1.2969,0.6328 -0.4688,0.6329 -0.4688,1.7579 V -4 h -2.6093 v -8.2031 h 2.6093 V -11 q 0.5938,-0.7188 1.2657,-1.0625 0.6718,-0.3437 1.4687,-0.3437 1.4219,0 2.1563,0.875 0.7343,0.875 0.7343,2.5312 z m 10.3872,0.875 v 0.75 h -6.1407 q 0.0938,0.9219 0.6719,1.3828 0.5781,0.461 1.5938,0.461 0.8281,0 1.6953,-0.2422 0.8672,-0.2422 1.789,-0.7422 V -4.5 q -0.9375,0.3594 -1.8671,0.5391 -0.9297,0.1797 -1.8516,0.1797 -2.2344,0 -3.4688,-1.1329 -1.2343,-1.1328 -1.2343,-3.1797 0,-2 1.2109,-3.1562 1.2109,-1.1562 3.3359,-1.1562 1.9375,0 3.1016,1.164 1.1641,1.1641 1.1641,3.1172 z M -13.0888,-9 q 0,-0.75 -0.4375,-1.2031 -0.4375,-0.4531 -1.1406,-0.4531 -0.75,0 -1.2265,0.4296 Q -16.37,-9.7969 -16.495,-9 Z m 10.5496,-0.9688 q -0.3437,-0.1562 -0.6875,-0.2343 -0.3437,-0.0781 -0.6875,-0.0781 -1.0156,0 -1.5625,0.6484 -0.5469,0.6484 -0.5469,1.8516 V -4 h -2.6093 v -8.2031 h 2.6093 v 1.3437 q 0.5157,-0.7968 1.1719,-1.1718 0.6563,-0.375 1.5625,-0.375 0.1406,0 0.2891,0.0156 0.1484,0.0156 0.4453,0.0468 z m 6.7123,4.5782 Q 3.6263,-4.6719 2.9778,-4.3359 2.3294,-4 1.47,-4 q -1.5,0 -2.4844,-1.1797 -0.9843,-1.1797 -0.9843,-3.0234 0,-1.8281 0.9843,-3.0078 0.9844,-1.1797 2.4844,-1.1797 0.8594,0 1.5078,0.3359 0.6485,0.3359 1.1953,1.0703 v -1.2187 h 2.6407 v 7.375 q 0,1.9843 -1.25,3.0234 -1.25,1.0391 -3.625,1.0391 -0.7657,0 -1.4844,-0.1172 Q -0.2644,-1 -0.9987,-1.2344 v -2.0468 q 0.6875,0.3906 1.3515,0.5859 Q 1.0169,-2.5 1.6731,-2.5 2.97,-2.5 3.5716,-3.0625 4.1731,-3.625 4.1731,-4.8281 Z M 2.4388,-10.5 q -0.8125,0 -1.2657,0.6016 -0.4531,0.6015 -0.4531,1.6953 0,1.1406 0.4375,1.7187 0.4375,0.5782 1.2813,0.5782 0.8281,0 1.2812,-0.6016 0.4531,-0.6016 0.4531,-1.6953 0,-1.0938 -0.4531,-1.6953 Q 3.2669,-10.5 2.4388,-10.5 Z m 5.5693,-1.7031 h 2.625 l 2.2031,5.5625 1.875,-5.5625 h 2.6094 l -3.4375,8.9843 q -0.5312,1.3594 -1.2187,1.9063 -0.6875,0.5469 -1.8282,0.5469 H 9.3206 v -1.7188 h 0.8281 q 0.6563,0 0.961,-0.2109 0.3047,-0.2109 0.4765,-0.7578 l 0.0782,-0.2344 z m 24.5156,7.6093 q -0.7812,0.3907 -1.6171,0.6016 -0.836,0.211 -1.7579,0.211 -2.7343,0 -4.3281,-1.5313 -1.5937,-1.5313 -1.5937,-4.1406 0,-2.625 1.5937,-4.1563 1.5938,-1.5312 4.3281,-1.5312 0.9219,0 1.7579,0.2109 0.8359,0.2109 1.6171,0.6172 v 2.25 q -0.7812,-0.5313 -1.5468,-0.7813 -0.7657,-0.25 -1.5938,-0.25 -1.5156,0 -2.3828,0.9688 -0.8672,0.9688 -0.8672,2.6719 0,1.6875 0.8672,2.6562 0.8672,0.9688 2.3828,0.9688 0.8281,0 1.5938,-0.25 0.7656,-0.25 1.5468,-0.7813 z m 5.8654,-5.9374 q -0.8593,0 -1.3203,0.625 -0.4609,0.625 -0.4609,1.8124 0,1.1719 0.4609,1.8047 0.461,0.6329 1.3203,0.6329 0.8594,0 1.3125,-0.6329 0.4532,-0.6328 0.4532,-1.8047 0,-1.1874 -0.4532,-1.8124 -0.4531,-0.625 -1.3125,-0.625 z m 0,-1.875 q 2.125,0 3.3125,1.1484 1.1875,1.1484 1.1875,3.164 0,2.0157 -1.1875,3.1641 -1.1875,1.1485 -3.3125,1.1485 -2.1093,0 -3.3125,-1.1485 -1.2031,-1.1484 -1.2031,-3.1641 0,-2.0156 1.2031,-3.164 1.2032,-1.1484 3.3125,-1.1484 z M 52.8019,-9 v 5 h -2.625 v -0.8125 -3.0156 q 0,-1.0625 -0.0469,-1.461 -0.0468,-0.3984 -0.1718,-0.5859 -0.1563,-0.2656 -0.4141,-0.4062 -0.2578,-0.1407 -0.6016,-0.1407 -0.8281,0 -1.2968,0.6328 -0.4688,0.6329 -0.4688,1.7579 V -4 h -2.6094 v -8.2031 h 2.6094 V -11 q 0.5938,-0.7188 1.2656,-1.0625 0.6719,-0.3437 1.4688,-0.3437 1.4219,0 2.1562,0.875 0.7344,0.875 0.7344,2.5312 z m 8.6059,-2.9531 v 2 q -0.8438,-0.3594 -1.625,-0.5313 -0.7813,-0.1718 -1.4844,-0.1718 -0.75,0 -1.1094,0.1874 -0.3593,0.1876 -0.3593,0.5782 0,0.3125 0.2734,0.4765 0.2734,0.1641 0.9766,0.2579 l 0.4687,0.0624 q 2.0156,0.25 2.7109,0.836 0.6954,0.5859 0.6954,1.8359 0,1.3125 -0.9688,1.9766 -0.9687,0.6641 -2.8906,0.6641 -0.8125,0 -1.6797,-0.1329 -0.8672,-0.1328 -1.7734,-0.3828 v -2 q 0.7812,0.3907 1.6015,0.5781 0.8203,0.1876 1.6797,0.1876 0.7656,0 1.1563,-0.211 0.3906,-0.2109 0.3906,-0.6328 0,-0.3438 -0.2735,-0.5156 -0.2734,-0.1719 -1.0703,-0.2813 l -0.4531,-0.0469 q -1.75,-0.2187 -2.4531,-0.8124 -0.7031,-0.5938 -0.7031,-1.8126 0,-1.2968 0.8906,-1.9296 0.8906,-0.6328 2.7344,-0.6328 0.7343,0 1.5312,0.1093 0.7969,0.1094 1.7344,0.3438 z m 2.2236,4.7656 v -5.0156 h 2.6406 v 0.8125 q 0,0.6718 -0.0078,1.6797 -0.0078,1.0078 -0.0078,1.3515 0,0.9844 0.0469,1.4219 0.0468,0.4375 0.1718,0.625 0.1719,0.2656 0.4297,0.4063 0.2578,0.1406 0.6016,0.1406 0.8125,0 1.2812,-0.6328 0.4688,-0.6328 0.4688,-1.7578 v -4.0469 h 2.625 V -4 h -2.625 v -1.1875 q -0.5938,0.7187 -1.2578,1.0625 -0.6641,0.3438 -1.461,0.3438 -1.4218,0 -2.164,-0.875 -0.7422,-0.875 -0.7422,-2.5313 z m 18.1215,-3.6563 q 0.5,-0.7656 1.1875,-1.164 0.6875,-0.3984 1.5,-0.3984 1.4219,0 2.1562,0.875 0.7344,0.875 0.7344,2.5312 v 5 h -2.625 v -4.2812 q 0,-0.0938 0.0078,-0.1954 0.0078,-0.1015 0.0078,-0.289 0,-0.875 -0.2578,-1.2656 -0.2578,-0.3907 -0.8359,-0.3907 -0.75,0 -1.1563,0.6172 -0.4062,0.6172 -0.4218,1.7735 V -4 h -2.625 v -4.2812 q 0,-1.3594 -0.2344,-1.75 -0.2344,-0.3907 -0.8438,-0.3907 -0.75,0 -1.164,0.6172 -0.4141,0.6172 -0.4141,1.7735 V -4 h -2.625 v -8.2031 h 2.625 V -11 q 0.4844,-0.7031 1.1172,-1.0547 0.6328,-0.3515 1.3828,-0.3515 0.8438,0 1.5,0.414 0.6563,0.4141 0.9844,1.1484 z m 15.8654,2.7188 v 0.75 h -6.1406 q 0.0938,0.9219 0.6719,1.3828 0.5781,0.461 1.5937,0.461 0.8282,0 1.6953,-0.2422 0.8672,-0.2422 1.7891,-0.7422 V -4.5 q -0.9375,0.3594 -1.8672,0.5391 -0.9297,0.1797 -1.8515,0.1797 -2.2344,0 -3.4688,-1.1329 -1.2344,-1.1328 -1.2344,-3.1797 0,-2 1.211,-3.1562 1.2109,-1.1562 3.3359,-1.1562 1.9375,0 3.1016,1.164 1.164,1.1641 1.164,3.1172 z M 94.9152,-9 q 0,-0.75 -0.4375,-1.2031 -0.4375,-0.4531 -1.1406,-0.4531 -0.75,0 -1.2266,0.4296 Q 91.634,-9.7969 91.509,-9 Z m 10.034,-2 v -4.3906 h 2.6406 V -4 h -2.6406 v -1.1875 q -0.5469,0.7187 -1.1954,1.0625 -0.6484,0.3438 -1.5078,0.3438 -1.5156,0 -2.4922,-1.211 -0.9765,-1.2109 -0.9765,-3.1016 0,-1.8906 0.9765,-3.1015 0.9766,-1.2109 2.4922,-1.2109 0.8438,0 1.5,0.3437 0.6563,0.3437 1.2032,1.0625 z m -1.7344,5.3125 q 0.8437,0 1.289,-0.6172 0.4454,-0.6172 0.4454,-1.7891 0,-1.1718 -0.4454,-1.789 -0.4453,-0.6172 -1.289,-0.6172 -0.8281,0 -1.2735,0.6172 -0.4453,0.6172 -0.4453,1.789 0,1.1719 0.4453,1.7891 0.4454,0.6172 1.2735,0.6172 z"
         id="path335"
         inkscape:connector-curvature="0" />
    </g>
    <g
       style="color-interpolation:linearRGB;fill:#d95319;stroke:#d95319;stroke-width:2.66669989;stroke-linecap:butt;stroke-linejoin:round;color-rendering:optimizeQuality;image-rendering:optimizeQuality;text-rendering:geometricPrecision"
       id="g341">
      <line
         y2="333.9621"
         style="fill:none"
         x1="412.25299"
         x2="459.35641"
         y1="338.8989"
         id="line339" />
    </g>
    <g
       transform="translate(459,344)"
       style="font-size:13.33329964px;font-family:mwb_cmsy10;color-interpolation:linearRGB;color-rendering:optimizeQuality;image-rendering:optimizeQuality;text-rendering:geometricPrecision"
       id="g345">
      <path
         style="stroke:none"
         d="M 3.5,0.0312 Q 3.4062,-0.5156 3.1719,-1.0078 2.9375,-1.5 2.5859,-1.9141 2.2344,-2.3281 1.7969,-2.6406 1.3594,-2.9531 0.8281,-3.125 0.7344,-3.1406 0.7344,-3.25 q 0,-0.0938 0.0937,-0.1406 0.5313,-0.1875 0.9688,-0.4922 0.4375,-0.3047 0.789,-0.7188 0.3516,-0.414 0.586,-0.9062 Q 3.4062,-6 3.5,-6.5312 3.5312,-6.6406 3.625,-6.6406 h 0.2656 q 0.125,0 0.125,0.1718 -0.1406,0.8594 -0.6328,1.6407 -0.4922,0.7812 -1.2422,1.3125 h 9.875 q 0.1094,0 0.1719,0.0859 0.0625,0.0859 0.0625,0.1797 0,0.0938 -0.0625,0.1797 -0.0625,0.0859 -0.1719,0.0859 h -9.875 q 0.7344,0.5156 1.2344,1.3047 0.5,0.7891 0.6406,1.6485 0,0.1718 -0.125,0.1718 H 3.625 q -0.0938,0 -0.125,-0.1094 z"
         id="path343"
         inkscape:connector-curvature="0" />
    </g>
    <g
       transform="translate(478,344)"
       style="font-size:13.33329964px;font-family:mwb_cmmi10;color-interpolation:linearRGB;color-rendering:optimizeQuality;image-rendering:optimizeQuality;text-rendering:geometricPrecision"
       id="g349">
      <path
         style="stroke:none"
         d="m 3.8281,2.5469 q 0,-0.2969 0.1328,-0.8516 0.1329,-0.5547 0.3203,-1.1875 0.1876,-0.6328 0.3282,-1.039 0.0468,-0.6563 0.0468,-0.9844 0,-0.8282 -0.164,-1.5547 -0.1641,-0.7266 -0.625,-1.2109 -0.461,-0.4844 -1.2734,-0.4844 -0.4376,0 -0.8672,0.1875 -0.4297,0.1875 -0.7344,0.5156 -0.3047,0.3281 -0.4141,0.75 -0.0312,0.0781 -0.1093,0.0781 H 0.3125 q -0.1094,0 -0.1094,-0.125 V -3.3906 Q 0.3594,-3.9844 0.7266,-4.5234 1.0938,-5.0625 1.6328,-5.4062 2.1719,-5.75 2.7656,-5.75 q 0.6094,0 1.0547,0.4141 0.4453,0.414 0.7109,1.0468 0.2657,0.6329 0.3829,1.2813 0.1171,0.6484 0.1171,1.2266 Q 5.6875,-3.5625 6.5,-5.1406 l 0.2031,-0.4219 q 0.0313,-0.0469 0.0781,-0.0469 h 0.1563 q 0.1094,0 0.1094,0.125 0,0.0313 -0.0313,0.0782 L 6.8281,-5 Q 6.2656,-3.875 5.7891,-2.7188 5.3125,-1.5625 4.9844,-0.5 4.9219,-0.0625 4.7812,0.7031 4.6406,1.4688 4.4375,2.125 4.2344,2.7812 4.0312,2.8125 q -0.2031,0 -0.2031,-0.2656 z"
         id="path347"
         inkscape:connector-curvature="0" />
    </g>
    <g
       transform="translate(485,344)"
       style="font-size:13.33329964px;font-family:SansSerif;color-interpolation:linearRGB;color-rendering:optimizeQuality;image-rendering:optimizeQuality;text-rendering:geometricPrecision"
       id="g353">
      <path
         style="stroke:none"
         d="m 1.375,-5.9062 h 8.1406 v 1.0624 H 1.375 Z m 0,2.5937 h 8.1406 v 1.0781 H 1.375 Z m 10.42,-0.7656 h 3.4219 v 1.0312 H 11.795 Z m 5.7725,3 h 2.0937 V -8.3125 L 17.38,-7.8594 v -1.1562 l 2.2656,-0.4688 h 1.2969 v 8.4063 h 2.0937 V 0 h -5.4687 z m 8.251,-0.5313 h 1.3438 V 0 h -1.3438 z m 6.9661,-7.0312 q -0.9844,0 -1.4844,0.9765 -0.5,0.9766 -0.5,2.9297 0,1.9532 0.5,2.9297 0.5,0.9766 1.4844,0.9766 1,0 1.5,-0.9766 0.5,-0.9765 0.5,-2.9297 0,-1.9531 -0.5,-2.9297 -0.5,-0.9765 -1.5,-0.9765 z m 0,-1.0156 q 1.5937,0 2.4375,1.2656 0.8437,1.2656 0.8437,3.6562 0,2.3906 -0.8437,3.6563 -0.8438,1.2656 -2.4375,1.2656 -1.5781,0 -2.4219,-1.2656 -0.8437,-1.2657 -0.8437,-3.6563 0,-2.3906 0.8437,-3.6562 0.8438,-1.2656 2.4219,-1.2656 z m 8.4698,1.0156 q -0.9844,0 -1.4844,0.9765 -0.5,0.9766 -0.5,2.9297 0,1.9532 0.5,2.9297 0.5,0.9766 1.4844,0.9766 1,0 1.5,-0.9766 0.5,-0.9765 0.5,-2.9297 0,-1.9531 -0.5,-2.9297 -0.5,-0.9765 -1.5,-0.9765 z m 0,-1.0156 q 1.5937,0 2.4375,1.2656 0.8437,1.2656 0.8437,3.6562 0,2.3906 -0.8437,3.6563 -0.8438,1.2656 -2.4375,1.2656 -1.5781,0 -2.4219,-1.2656 -0.8437,-1.2657 -0.8437,-3.6563 0,-2.3906 0.8437,-3.6562 0.8438,-1.2656 2.4219,-1.2656 z"
         id="path351"
         inkscape:connector-curvature="0" />
    </g>
    <g
       style="color-interpolation:linearRGB;fill:#edb120;stroke:#edb120;stroke-width:2.66669989;stroke-linecap:butt;stroke-linejoin:round;color-rendering:optimizeQuality;image-rendering:optimizeQuality;text-rendering:geometricPrecision"
       id="g371">
      <line
         y2="368.97311"
         style="fill:none"
         x1="73.964401"
         x2="123.209"
         y1="374"
         id="line355" />
      <line
         x1="123.209"
         x2="170.31239"
         y1="368.97311"
         style="fill:none;stroke-linecap:round"
         y2="363.90799"
         id="line357" />
      <line
         x1="170.31239"
         x2="219.09399"
         y1="363.90799"
         style="fill:none;stroke-linecap:round"
         y2="358.0946"
         id="line359" />
      <line
         x1="219.09399"
         x2="267.72131"
         y1="358.0946"
         style="fill:none;stroke-linecap:round"
         y2="351.22379"
         id="line361" />
      <line
         x1="267.72131"
         x2="316.04001"
         y1="351.22379"
         style="fill:none;stroke-linecap:round"
         y2="344.6098"
         id="line363" />
      <line
         x1="316.04001"
         x2="364.3587"
         y1="344.6098"
         style="fill:none;stroke-linecap:round"
         y2="337.44501"
         id="line365" />
      <line
         x1="364.3587"
         x2="411.37531"
         y1="337.44501"
         style="fill:none;stroke-linecap:round"
         y2="328.39871"
         id="line367" />
      <line
         y2="319.04059"
         style="fill:none"
         x1="411.37531"
         x2="459.5397"
         y1="328.39871"
         id="line369" />
    </g>
    <g
       transform="translate(460,322)"
       style="font-size:13.33329964px;font-family:mwb_cmsy10;color-interpolation:linearRGB;color-rendering:optimizeQuality;image-rendering:optimizeQuality;text-rendering:geometricPrecision"
       id="g375">
      <path
         style="stroke:none"
         d="M 3.5,0.0312 Q 3.4062,-0.5156 3.1719,-1.0078 2.9375,-1.5 2.5859,-1.9141 2.2344,-2.3281 1.7969,-2.6406 1.3594,-2.9531 0.8281,-3.125 0.7344,-3.1406 0.7344,-3.25 q 0,-0.0938 0.0937,-0.1406 0.5313,-0.1875 0.9688,-0.4922 0.4375,-0.3047 0.789,-0.7188 0.3516,-0.414 0.586,-0.9062 Q 3.4062,-6 3.5,-6.5312 3.5312,-6.6406 3.625,-6.6406 h 0.2656 q 0.125,0 0.125,0.1718 -0.1406,0.8594 -0.6328,1.6407 -0.4922,0.7812 -1.2422,1.3125 h 9.875 q 0.1094,0 0.1719,0.0859 0.0625,0.0859 0.0625,0.1797 0,0.0938 -0.0625,0.1797 -0.0625,0.0859 -0.1719,0.0859 h -9.875 q 0.7344,0.5156 1.2344,1.3047 0.5,0.7891 0.6406,1.6485 0,0.1718 -0.125,0.1718 H 3.625 q -0.0938,0 -0.125,-0.1094 z"
         id="path373"
         inkscape:connector-curvature="0" />
    </g>
    <g
       transform="translate(479,322)"
       style="font-size:13.33329964px;font-family:mwb_cmmi10;color-interpolation:linearRGB;color-rendering:optimizeQuality;image-rendering:optimizeQuality;text-rendering:geometricPrecision"
       id="g379">
      <path
         style="stroke:none"
         d="m 3.8281,2.5469 q 0,-0.2969 0.1328,-0.8516 0.1329,-0.5547 0.3203,-1.1875 0.1876,-0.6328 0.3282,-1.039 0.0468,-0.6563 0.0468,-0.9844 0,-0.8282 -0.164,-1.5547 -0.1641,-0.7266 -0.625,-1.2109 -0.461,-0.4844 -1.2734,-0.4844 -0.4376,0 -0.8672,0.1875 -0.4297,0.1875 -0.7344,0.5156 -0.3047,0.3281 -0.4141,0.75 -0.0312,0.0781 -0.1093,0.0781 H 0.3125 q -0.1094,0 -0.1094,-0.125 V -3.3906 Q 0.3594,-3.9844 0.7266,-4.5234 1.0938,-5.0625 1.6328,-5.4062 2.1719,-5.75 2.7656,-5.75 q 0.6094,0 1.0547,0.4141 0.4453,0.414 0.7109,1.0468 0.2657,0.6329 0.3829,1.2813 0.1171,0.6484 0.1171,1.2266 Q 5.6875,-3.5625 6.5,-5.1406 l 0.2031,-0.4219 q 0.0313,-0.0469 0.0781,-0.0469 h 0.1563 q 0.1094,0 0.1094,0.125 0,0.0313 -0.0313,0.0782 L 6.8281,-5 Q 6.2656,-3.875 5.7891,-2.7188 5.3125,-1.5625 4.9844,-0.5 4.9219,-0.0625 4.7812,0.7031 4.6406,1.4688 4.4375,2.125 4.2344,2.7812 4.0312,2.8125 q -0.2031,0 -0.2031,-0.2656 z"
         id="path377"
         inkscape:connector-curvature="0" />
    </g>
    <g
       transform="translate(486,322)"
       style="font-size:13.33329964px;font-family:SansSerif;color-interpolation:linearRGB;color-rendering:optimizeQuality;image-rendering:optimizeQuality;text-rendering:geometricPrecision"
       id="g383">
      <path
         style="stroke:none"
         d="m 1.375,-5.9062 h 8.1406 v 1.0624 H 1.375 Z m 0,2.5937 h 8.1406 v 1.0781 H 1.375 Z m 10.42,-0.7656 h 3.4219 v 1.0312 H 11.795 Z m 8.2881,-4.5625 q -0.9844,0 -1.4844,0.9765 -0.5,0.9766 -0.5,2.9297 0,1.9532 0.5,2.9297 0.5,0.9766 1.4844,0.9766 1,0 1.5,-0.9766 0.5,-0.9765 0.5,-2.9297 0,-1.9531 -0.5,-2.9297 -0.5,-0.9765 -1.5,-0.9765 z m 0,-1.0156 q 1.5937,0 2.4375,1.2656 0.8437,1.2656 0.8437,3.6562 0,2.3906 -0.8437,3.6563 -0.8438,1.2656 -2.4375,1.2656 -1.5781,0 -2.4219,-1.2656 -0.8437,-1.2657 -0.8437,-3.6563 0,-2.3906 0.8437,-3.6562 0.8438,-1.2656 2.4219,-1.2656 z m 5.7354,8.0468 h 1.3438 V 0 h -1.3438 z m 4.2473,-7.875 h 5.0313 v 1.0938 h -3.8594 v 2.3125 q 0.2813,-0.0938 0.5625,-0.1407 0.2813,-0.0468 0.5469,-0.0468 1.5937,0 2.5234,0.8672 0.9297,0.8672 0.9297,2.3515 0,1.5313 -0.9531,2.3828 -0.9531,0.8516 -2.6875,0.8516 -0.5938,0 -1.2188,-0.1016 -0.625,-0.1015 -1.2812,-0.3047 v -1.2968 q 0.5781,0.3125 1.1875,0.4687 0.6094,0.1563 1.2812,0.1563 1.1094,0 1.75,-0.5782 0.6407,-0.5781 0.6407,-1.5781 0,-0.9843 -0.6407,-1.5625 -0.6406,-0.5781 -1.75,-0.5781 -0.5156,0 -1.0234,0.1172 -0.5078,0.1172 -1.0391,0.3515 z m 11.1886,0.8438 q -0.9844,0 -1.4844,0.9765 -0.5,0.9766 -0.5,2.9297 0,1.9532 0.5,2.9297 0.5,0.9766 1.4844,0.9766 1,0 1.5,-0.9766 0.5,-0.9765 0.5,-2.9297 0,-1.9531 -0.5,-2.9297 -0.5,-0.9765 -1.5,-0.9765 z m 0,-1.0156 q 1.5937,0 2.4375,1.2656 0.8437,1.2656 0.8437,3.6562 0,2.3906 -0.8437,3.6563 -0.8438,1.2656 -2.4375,1.2656 -1.5781,0 -2.4219,-1.2656 -0.8437,-1.2657 -0.8437,-3.6563 0,-2.3906 0.8437,-3.6562 0.8438,-1.2656 2.4219,-1.2656 z"
         id="path381"
         inkscape:connector-curvature="0" />
    </g>
    <g
       style="color-interpolation:linearRGB;fill:#7e2f8e;stroke:#7e2f8e;stroke-width:2.66669989;stroke-linecap:butt;stroke-linejoin:round;color-rendering:optimizeQuality;image-rendering:optimizeQuality;text-rendering:geometricPrecision"
       id="g393">
      <line
         y2="364.7713"
         style="fill:none"
         x1="73.964401"
         x2="122.1288"
         y1="374"
         id="line385" />
      <line
         x1="122.1288"
         x2="170.2932"
         y1="364.7713"
         style="fill:none;stroke-linecap:round"
         y2="355.4819"
         id="line387" />
      <line
         x1="170.2932"
         x2="220.44431"
         y1="355.4819"
         style="fill:none;stroke-linecap:round"
         y2="346.24399"
         id="line389" />
      <line
         x1="220.44431"
         x2="268.60861"
         y1="346.24399"
         style="fill:none;stroke-linecap:round"
         y2="337.10739"
         id="line391" />
    </g>
  </g>
</svg>
