<?xml version="1.0" encoding="UTF-8" standalone="no"?>
<svg
   xmlns:dc="http://purl.org/dc/elements/1.1/"
   xmlns:cc="http://creativecommons.org/ns#"
   xmlns:rdf="http://www.w3.org/1999/02/22-rdf-syntax-ns#"
   xmlns:svg="http://www.w3.org/2000/svg"
   xmlns="http://www.w3.org/2000/svg"
   xmlns:sodipodi="http://sodipodi.sourceforge.net/DTD/sodipodi-0.dtd"
   xmlns:inkscape="http://www.inkscape.org/namespaces/inkscape"
   style="font-style:normal;font-weight:normal;font-size:12px;font-family:Dialog;color-interpolation:auto;fill:#000000;fill-opacity:1;stroke:#000000;stroke-width:1;stroke-linecap:square;stroke-linejoin:miter;stroke-miterlimit:10;stroke-dasharray:none;stroke-dashoffset:0;stroke-opacity:1;color-rendering:auto;image-rendering:auto;shape-rendering:auto;text-rendering:auto"
   width="494.0542"
   height="400.79169"
   version="1.1"
   id="svg557"
   sodipodi:docname="energy.svg"
   inkscape:version="0.92.4 (f8dce91, 2019-08-02)">
  <metadata
     id="metadata561">
    <rdf:RDF>
      <cc:Work
         rdf:about="">
        <dc:format>image/svg+xml</dc:format>
        <dc:type
           rdf:resource="http://purl.org/dc/dcmitype/StillImage" />
        <dc:title></dc:title>
      </cc:Work>
    </rdf:RDF>
  </metadata>
  <sodipodi:namedview
     pagecolor="#ffffff"
     bordercolor="#666666"
     borderopacity="1"
     objecttolerance="10"
     gridtolerance="10"
     guidetolerance="10"
     inkscape:pageopacity="0"
     inkscape:pageshadow="2"
     inkscape:window-width="759"
     inkscape:window-height="480"
     id="namedview559"
     showgrid="false"
     fit-margin-top="0"
     fit-margin-left="0"
     fit-margin-right="0"
     fit-margin-bottom="0"
     inkscape:zoom="0.56190476"
     inkscape:cx="255.7083"
     inkscape:cy="203.6511"
     inkscape:window-x="67"
     inkscape:window-y="27"
     inkscape:window-maximized="0"
     inkscape:current-layer="g555" />
  <!--Generated by the Batik Graphics2D SVG Generator-->
  <defs
     id="genericDefs" />
  <g
     id="g555"
     transform="translate(-24.2917,-12.8594)">
    <defs
       id="defs1">
      <clipPath
         clipPathUnits="userSpaceOnUse"
         id="clipPath1">
        <path
           d="M 0,0 H 560 V 420 H 0 Z"
           id="path3"
           inkscape:connector-curvature="0" />
      </clipPath>
    </defs>
    <g
       style="color-interpolation:sRGB;fill:#ffffff;stroke:#ffffff;color-rendering:optimizeSpeed;image-rendering:optimizeSpeed;shape-rendering:crispEdges;text-rendering:optimizeSpeed"
       id="g15">
      <path
         style="stroke:none"
         d="M 73,374 H 507 V 31 H 73 Z"
         id="path13"
         inkscape:connector-curvature="0" />
    </g>
    <g
       style="color-interpolation:linearRGB;fill:#262626;fill-opacity:0.14900004;stroke:#262626;stroke-width:0.66670001;stroke-linecap:butt;stroke-linejoin:round;stroke-opacity:0.14900004;color-rendering:optimizeQuality;image-rendering:optimizeQuality;text-rendering:geometricPrecision"
       id="g33">
      <line
         y2="31"
         style="fill:none"
         x1="73"
         x2="73"
         y1="374"
         id="line17" />
      <line
         y2="31"
         style="fill:none"
         x1="135"
         x2="135"
         y1="374"
         id="line19" />
      <line
         y2="31"
         style="fill:none"
         x1="197"
         x2="197"
         y1="374"
         id="line21" />
      <line
         y2="31"
         style="fill:none"
         x1="259"
         x2="259"
         y1="374"
         id="line23" />
      <line
         y2="31"
         style="fill:none"
         x1="321"
         x2="321"
         y1="374"
         id="line25" />
      <line
         y2="31"
         style="fill:none"
         x1="383"
         x2="383"
         y1="374"
         id="line27" />
      <line
         y2="31"
         style="fill:none"
         x1="445"
         x2="445"
         y1="374"
         id="line29" />
      <line
         y2="31"
         style="fill:none"
         x1="507"
         x2="507"
         y1="374"
         id="line31" />
    </g>
    <g
       style="color-interpolation:linearRGB;fill:#1a1a1a;fill-opacity:0.25100002;stroke:#1a1a1a;stroke-width:0.66670001;stroke-linecap:butt;stroke-linejoin:bevel;stroke-miterlimit:1;stroke-dasharray:1, 3;stroke-opacity:0.25100002;color-rendering:optimizeQuality;image-rendering:optimizeQuality;text-rendering:geometricPrecision"
       id="g51">
      <line
         y2="293.6586"
         style="fill:none"
         x1="507"
         x2="73"
         y1="293.6586"
         id="line35" />
      <line
         y2="246.6619"
         style="fill:none"
         x1="507"
         x2="73"
         y1="246.6619"
         id="line37" />
      <line
         y2="213.3172"
         style="fill:none"
         x1="507"
         x2="73"
         y1="213.3172"
         id="line39" />
      <line
         y2="187.453"
         style="fill:none"
         x1="507"
         x2="73"
         y1="187.453"
         id="line41" />
      <line
         y2="166.3204"
         style="fill:none"
         x1="507"
         x2="73"
         y1="166.3204"
         id="line43" />
      <line
         y2="148.45309"
         style="fill:none"
         x1="507"
         x2="73"
         y1="148.45309"
         id="line45" />
      <line
         y2="132.9758"
         style="fill:none"
         x1="507"
         x2="73"
         y1="132.9758"
         id="line47" />
      <line
         y2="119.3237"
         style="fill:none"
         x1="507"
         x2="73"
         y1="119.3237"
         id="line49" />
    </g>
    <g
       style="color-interpolation:linearRGB;fill:#262626;fill-opacity:0.14900004;stroke:#262626;stroke-width:0.66670001;stroke-linecap:butt;stroke-linejoin:round;stroke-opacity:0.14900004;color-rendering:optimizeQuality;image-rendering:optimizeQuality;text-rendering:geometricPrecision"
       id="g75">
      <line
         y2="374"
         style="fill:none"
         x1="507"
         x2="73"
         y1="374"
         id="line53" />
      <line
         y2="107.1116"
         style="fill:none"
         x1="507"
         x2="73"
         y1="107.1116"
         id="line55" />
      <line
         x1="73"
         x2="507"
         y1="374"
         style="fill:none;fill-opacity:1;stroke-linecap:square;stroke-opacity:1"
         y2="374"
         id="line57" />
      <line
         x1="73"
         x2="73"
         y1="374"
         style="fill:none;fill-opacity:1;stroke-linecap:square;stroke-opacity:1"
         y2="369.66"
         id="line59" />
      <line
         x1="135"
         x2="135"
         y1="374"
         style="fill:none;fill-opacity:1;stroke-linecap:square;stroke-opacity:1"
         y2="369.66"
         id="line61" />
      <line
         x1="197"
         x2="197"
         y1="374"
         style="fill:none;fill-opacity:1;stroke-linecap:square;stroke-opacity:1"
         y2="369.66"
         id="line63" />
      <line
         x1="259"
         x2="259"
         y1="374"
         style="fill:none;fill-opacity:1;stroke-linecap:square;stroke-opacity:1"
         y2="369.66"
         id="line65" />
      <line
         x1="321"
         x2="321"
         y1="374"
         style="fill:none;fill-opacity:1;stroke-linecap:square;stroke-opacity:1"
         y2="369.66"
         id="line67" />
      <line
         x1="383"
         x2="383"
         y1="374"
         style="fill:none;fill-opacity:1;stroke-linecap:square;stroke-opacity:1"
         y2="369.66"
         id="line69" />
      <line
         x1="445"
         x2="445"
         y1="374"
         style="fill:none;fill-opacity:1;stroke-linecap:square;stroke-opacity:1"
         y2="369.66"
         id="line71" />
      <line
         x1="507"
         x2="507"
         y1="374"
         style="fill:none;fill-opacity:1;stroke-linecap:square;stroke-opacity:1"
         y2="369.66"
         id="line73" />
    </g>
    <g
       transform="translate(73,379.3333)"
       style="font-size:13.33329964px;font-family:SansSerif;color-interpolation:linearRGB;fill:#262626;stroke:#262626;color-rendering:optimizeQuality;image-rendering:optimizeQuality;text-rendering:geometricPrecision"
       id="g79">
      <path
         style="stroke:none"
         d="m -0.375,4.3594 q -0.9844,0 -1.4844,0.9765 -0.5,0.9766 -0.5,2.9297 0,1.9532 0.5,2.9297 0.5,0.9766 1.4844,0.9766 1,0 1.5,-0.9766 0.5,-0.9765 0.5,-2.9297 0,-1.9531 -0.5,-2.9297 -0.5,-0.9765 -1.5,-0.9765 z m 0,-1.0156 q 1.5938,0 2.4375,1.2656 0.8437,1.2656 0.8437,3.6562 0,2.3906 -0.8437,3.6563 -0.8437,1.2656 -2.4375,1.2656 -1.5781,0 -2.4219,-1.2656 -0.8437,-1.2657 -0.8437,-3.6563 0,-2.3906 0.8437,-3.6562 0.8438,-1.2656 2.4219,-1.2656 z"
         id="path77"
         inkscape:connector-curvature="0" />
    </g>
    <g
       transform="translate(135,379.3333)"
       style="font-size:13.33329964px;font-family:SansSerif;color-interpolation:linearRGB;fill:#262626;stroke:#262626;color-rendering:optimizeQuality;image-rendering:optimizeQuality;text-rendering:geometricPrecision"
       id="g83">
      <path
         style="stroke:none"
         d="m -7.0938,3.5156 h 5.0313 v 1.0938 h -3.8594 v 2.3125 q 0.2813,-0.0938 0.5625,-0.1407 0.2813,-0.0468 0.5469,-0.0468 1.5937,0 2.5234,0.8672 0.9297,0.8672 0.9297,2.3515 0,1.5313 -0.9531,2.3828 -0.9531,0.8516 -2.6875,0.8516 -0.5938,0 -1.2188,-0.1016 -0.625,-0.1015 -1.2812,-0.3047 v -1.2968 q 0.5781,0.3125 1.1875,0.4687 0.6094,0.1563 1.2813,0.1563 1.1093,0 1.75,-0.5782 0.6406,-0.5781 0.6406,-1.5781 0,-0.9843 -0.6406,-1.5625 -0.6407,-0.5781 -1.75,-0.5781 -0.5157,0 -1.0235,0.1172 -0.5078,0.1172 -1.0391,0.3515 z M 4.0948,4.3594 q -0.9844,0 -1.4844,0.9765 -0.5,0.9766 -0.5,2.9297 0,1.9532 0.5,2.9297 0.5,0.9766 1.4844,0.9766 1,0 1.5,-0.9766 0.5,-0.9765 0.5,-2.9297 0,-1.9531 -0.5,-2.9297 -0.5,-0.9765 -1.5,-0.9765 z m 0,-1.0156 q 1.5938,0 2.4375,1.2656 0.8438,1.2656 0.8438,3.6562 0,2.3906 -0.8438,3.6563 -0.8437,1.2656 -2.4375,1.2656 -1.5781,0 -2.4219,-1.2656 Q 0.8292,10.6562 0.8292,8.2656 0.8292,5.875 1.6729,4.6094 2.5167,3.3438 4.0948,3.3438 Z"
         id="path81"
         inkscape:connector-curvature="0" />
    </g>
    <g
       transform="translate(197,379.3333)"
       style="font-size:13.33329964px;font-family:SansSerif;color-interpolation:linearRGB;fill:#262626;stroke:#262626;color-rendering:optimizeQuality;image-rendering:optimizeQuality;text-rendering:geometricPrecision"
       id="g87">
      <path
         style="stroke:none"
         d="m -11.3906,11.9219 h 2.0937 V 4.6875 l -2.2812,0.4531 V 3.9844 l 2.2656,-0.4688 h 1.2969 v 8.4063 h 2.0937 V 13 h -5.4687 z M -0.4052,4.3594 q -0.9844,0 -1.4844,0.9765 -0.5,0.9766 -0.5,2.9297 0,1.9532 0.5,2.9297 0.5,0.9766 1.4844,0.9766 1,0 1.5,-0.9766 0.5,-0.9765 0.5,-2.9297 0,-1.9531 -0.5,-2.9297 -0.5,-0.9765 -1.5,-0.9765 z m 0,-1.0156 q 1.5938,0 2.4375,1.2656 0.8438,1.2656 0.8438,3.6562 0,2.3906 -0.8438,3.6563 -0.8437,1.2656 -2.4375,1.2656 -1.5781,0 -2.4219,-1.2656 -0.8437,-1.2657 -0.8437,-3.6563 0,-2.3906 0.8437,-3.6562 0.8438,-1.2656 2.4219,-1.2656 z m 8.4698,1.0156 q -0.9843,0 -1.4843,0.9765 -0.5,0.9766 -0.5,2.9297 0,1.9532 0.5,2.9297 0.5,0.9766 1.4843,0.9766 1,0 1.5,-0.9766 0.5,-0.9765 0.5,-2.9297 0,-1.9531 -0.5,-2.9297 -0.5,-0.9765 -1.5,-0.9765 z m 0,-1.0156 q 1.5938,0 2.4375,1.2656 0.8438,1.2656 0.8438,3.6562 0,2.3906 -0.8438,3.6563 -0.8437,1.2656 -2.4375,1.2656 -1.5781,0 -2.4218,-1.2656 Q 4.799,10.6562 4.799,8.2656 4.799,5.875 5.6428,4.6094 6.4865,3.3438 8.0646,3.3438 Z"
         id="path85"
         inkscape:connector-curvature="0" />
    </g>
    <g
       transform="translate(259,379.3333)"
       style="font-size:13.33329964px;font-family:SansSerif;color-interpolation:linearRGB;fill:#262626;stroke:#262626;color-rendering:optimizeQuality;image-rendering:optimizeQuality;text-rendering:geometricPrecision"
       id="g91">
      <path
         style="stroke:none"
         d="m -11.3906,11.9219 h 2.0937 V 4.6875 l -2.2812,0.4531 V 3.9844 l 2.2656,-0.4688 h 1.2969 v 8.4063 h 2.0937 V 13 h -5.4687 z m 8.2667,-8.4063 h 5.0312 v 1.0938 h -3.8594 v 2.3125 q 0.2813,-0.0938 0.5625,-0.1407 0.2813,-0.0468 0.5469,-0.0468 1.5938,0 2.5235,0.8672 0.9296,0.8672 0.9296,2.3515 0,1.5313 -0.9531,2.3828 -0.9531,0.8516 -2.6875,0.8516 -0.5937,0 -1.2187,-0.1016 -0.625,-0.1015 -1.2813,-0.3047 v -1.2968 q 0.5781,0.3125 1.1875,0.4687 0.6094,0.1563 1.2813,0.1563 1.1093,0 1.75,-0.5782 0.6406,-0.5781 0.6406,-1.5781 0,-0.9843 -0.6406,-1.5625 -0.6407,-0.5781 -1.75,-0.5781 -0.5157,0 -1.0235,0.1172 -0.5078,0.1172 -1.039,0.3515 z M 8.0646,4.3594 q -0.9843,0 -1.4843,0.9765 -0.5,0.9766 -0.5,2.9297 0,1.9532 0.5,2.9297 0.5,0.9766 1.4843,0.9766 1,0 1.5,-0.9766 0.5,-0.9765 0.5,-2.9297 0,-1.9531 -0.5,-2.9297 -0.5,-0.9765 -1.5,-0.9765 z m 0,-1.0156 q 1.5938,0 2.4375,1.2656 0.8438,1.2656 0.8438,3.6562 0,2.3906 -0.8438,3.6563 -0.8437,1.2656 -2.4375,1.2656 -1.5781,0 -2.4218,-1.2656 Q 4.799,10.6562 4.799,8.2656 4.799,5.875 5.6428,4.6094 6.4865,3.3438 8.0646,3.3438 Z"
         id="path89"
         inkscape:connector-curvature="0" />
    </g>
    <g
       transform="translate(321,379.3333)"
       style="font-size:13.33329964px;font-family:SansSerif;color-interpolation:linearRGB;fill:#262626;stroke:#262626;color-rendering:optimizeQuality;image-rendering:optimizeQuality;text-rendering:geometricPrecision"
       id="g95">
      <path
         style="stroke:none"
         d="m -10.5,11.9219 h 4.4688 V 13 h -6.0157 v -1.0781 q 0.7344,-0.75 1.9922,-2.0235 Q -8.7969,8.625 -8.4688,8.25 -7.8594,7.5625 -7.6172,7.0781 -7.375,6.5938 -7.375,6.1406 q 0,-0.7656 -0.5234,-1.2344 -0.5235,-0.4687 -1.3828,-0.4687 -0.6094,0 -1.2735,0.2031 -0.6641,0.2032 -1.4297,0.6406 V 3.9844 q 0.7813,-0.3125 1.4532,-0.4766 0.6718,-0.164 1.2187,-0.164 1.4844,0 2.3594,0.7421 0.875,0.7422 0.875,1.9766 0,0.5781 -0.2188,1.1016 -0.2187,0.5234 -0.7969,1.2265 -0.1562,0.1875 -1.0078,1.0703 -0.8515,0.8829 -2.3984,2.461 z M -0.4052,4.3594 q -0.9844,0 -1.4844,0.9765 -0.5,0.9766 -0.5,2.9297 0,1.9532 0.5,2.9297 0.5,0.9766 1.4844,0.9766 1,0 1.5,-0.9766 0.5,-0.9765 0.5,-2.9297 0,-1.9531 -0.5,-2.9297 -0.5,-0.9765 -1.5,-0.9765 z m 0,-1.0156 q 1.5938,0 2.4375,1.2656 0.8438,1.2656 0.8438,3.6562 0,2.3906 -0.8438,3.6563 -0.8437,1.2656 -2.4375,1.2656 -1.5781,0 -2.4219,-1.2656 -0.8437,-1.2657 -0.8437,-3.6563 0,-2.3906 0.8437,-3.6562 0.8438,-1.2656 2.4219,-1.2656 z m 8.4698,1.0156 q -0.9843,0 -1.4843,0.9765 -0.5,0.9766 -0.5,2.9297 0,1.9532 0.5,2.9297 0.5,0.9766 1.4843,0.9766 1,0 1.5,-0.9766 0.5,-0.9765 0.5,-2.9297 0,-1.9531 -0.5,-2.9297 -0.5,-0.9765 -1.5,-0.9765 z m 0,-1.0156 q 1.5938,0 2.4375,1.2656 0.8438,1.2656 0.8438,3.6562 0,2.3906 -0.8438,3.6563 -0.8437,1.2656 -2.4375,1.2656 -1.5781,0 -2.4218,-1.2656 Q 4.799,10.6562 4.799,8.2656 4.799,5.875 5.6428,4.6094 6.4865,3.3438 8.0646,3.3438 Z"
         id="path93"
         inkscape:connector-curvature="0" />
    </g>
    <g
       transform="translate(383,379.3333)"
       style="font-size:13.33329964px;font-family:SansSerif;color-interpolation:linearRGB;fill:#262626;stroke:#262626;color-rendering:optimizeQuality;image-rendering:optimizeQuality;text-rendering:geometricPrecision"
       id="g99">
      <path
         style="stroke:none"
         d="m -10.5,11.9219 h 4.4688 V 13 h -6.0157 v -1.0781 q 0.7344,-0.75 1.9922,-2.0235 Q -8.7969,8.625 -8.4688,8.25 -7.8594,7.5625 -7.6172,7.0781 -7.375,6.5938 -7.375,6.1406 q 0,-0.7656 -0.5234,-1.2344 -0.5235,-0.4687 -1.3828,-0.4687 -0.6094,0 -1.2735,0.2031 -0.6641,0.2032 -1.4297,0.6406 V 3.9844 q 0.7813,-0.3125 1.4532,-0.4766 0.6718,-0.164 1.2187,-0.164 1.4844,0 2.3594,0.7421 0.875,0.7422 0.875,1.9766 0,0.5781 -0.2188,1.1016 -0.2187,0.5234 -0.7969,1.2265 -0.1562,0.1875 -1.0078,1.0703 -0.8515,0.8829 -2.3984,2.461 z m 7.3761,-8.4063 h 5.0312 v 1.0938 h -3.8594 v 2.3125 q 0.2813,-0.0938 0.5625,-0.1407 0.2813,-0.0468 0.5469,-0.0468 1.5938,0 2.5235,0.8672 0.9296,0.8672 0.9296,2.3515 0,1.5313 -0.9531,2.3828 -0.9531,0.8516 -2.6875,0.8516 -0.5937,0 -1.2187,-0.1016 -0.625,-0.1015 -1.2813,-0.3047 v -1.2968 q 0.5781,0.3125 1.1875,0.4687 0.6094,0.1563 1.2813,0.1563 1.1093,0 1.75,-0.5782 0.6406,-0.5781 0.6406,-1.5781 0,-0.9843 -0.6406,-1.5625 -0.6407,-0.5781 -1.75,-0.5781 -0.5157,0 -1.0235,0.1172 -0.5078,0.1172 -1.039,0.3515 z M 8.0646,4.3594 q -0.9843,0 -1.4843,0.9765 -0.5,0.9766 -0.5,2.9297 0,1.9532 0.5,2.9297 0.5,0.9766 1.4843,0.9766 1,0 1.5,-0.9766 0.5,-0.9765 0.5,-2.9297 0,-1.9531 -0.5,-2.9297 -0.5,-0.9765 -1.5,-0.9765 z m 0,-1.0156 q 1.5938,0 2.4375,1.2656 0.8438,1.2656 0.8438,3.6562 0,2.3906 -0.8438,3.6563 -0.8437,1.2656 -2.4375,1.2656 -1.5781,0 -2.4218,-1.2656 Q 4.799,10.6562 4.799,8.2656 4.799,5.875 5.6428,4.6094 6.4865,3.3438 8.0646,3.3438 Z"
         id="path97"
         inkscape:connector-curvature="0" />
    </g>
    <g
       transform="translate(445,379.3333)"
       style="font-size:13.33329964px;font-family:SansSerif;color-interpolation:linearRGB;fill:#262626;stroke:#262626;color-rendering:optimizeQuality;image-rendering:optimizeQuality;text-rendering:geometricPrecision"
       id="g103">
      <path
         style="stroke:none"
         d="m -7.7188,7.8906 q 0.9219,0.2032 1.4376,0.8203 0.5156,0.6172 0.5156,1.5391 0,1.3906 -0.9688,2.1641 -0.9687,0.7734 -2.75,0.7734 -0.5937,0 -1.2265,-0.1172 -0.6329,-0.1172 -1.3047,-0.3515 v -1.25 q 0.5468,0.3124 1.1797,0.4765 0.6328,0.1641 1.3203,0.1641 1.2031,0 1.8359,-0.4766 0.6328,-0.4766 0.6328,-1.3828 0,-0.8438 -0.5859,-1.3125 -0.586,-0.4687 -1.6328,-0.4687 H -10.375 V 7.4062 h 1.1562 q 0.9532,0 1.4532,-0.375 0.5,-0.375 0.5,-1.0937 0,-0.7187 -0.5156,-1.1094 -0.5157,-0.3906 -1.4844,-0.3906 -0.5313,0 -1.1328,0.1094 Q -11,4.6562 -11.7188,4.9062 V 3.75 Q -11,3.5469 -10.3594,3.4453 q 0.6406,-0.1015 1.2032,-0.1015 1.4687,0 2.3203,0.664 0.8515,0.6641 0.8515,1.8047 0,0.7813 -0.4531,1.3281 -0.4531,0.5469 -1.2813,0.75 z m 7.3136,-3.5312 q -0.9844,0 -1.4844,0.9765 -0.5,0.9766 -0.5,2.9297 0,1.9532 0.5,2.9297 0.5,0.9766 1.4844,0.9766 1,0 1.5,-0.9766 0.5,-0.9765 0.5,-2.9297 0,-1.9531 -0.5,-2.9297 -0.5,-0.9765 -1.5,-0.9765 z m 0,-1.0156 q 1.5938,0 2.4375,1.2656 0.8438,1.2656 0.8438,3.6562 0,2.3906 -0.8438,3.6563 -0.8437,1.2656 -2.4375,1.2656 -1.5781,0 -2.4219,-1.2656 -0.8437,-1.2657 -0.8437,-3.6563 0,-2.3906 0.8437,-3.6562 0.8438,-1.2656 2.4219,-1.2656 z m 8.4698,1.0156 q -0.9843,0 -1.4843,0.9765 -0.5,0.9766 -0.5,2.9297 0,1.9532 0.5,2.9297 0.5,0.9766 1.4843,0.9766 1,0 1.5,-0.9766 0.5,-0.9765 0.5,-2.9297 0,-1.9531 -0.5,-2.9297 -0.5,-0.9765 -1.5,-0.9765 z m 0,-1.0156 q 1.5938,0 2.4375,1.2656 0.8438,1.2656 0.8438,3.6562 0,2.3906 -0.8438,3.6563 -0.8437,1.2656 -2.4375,1.2656 -1.5781,0 -2.4218,-1.2656 Q 4.799,10.6562 4.799,8.2656 4.799,5.875 5.6428,4.6094 6.4865,3.3438 8.0646,3.3438 Z"
         id="path101"
         inkscape:connector-curvature="0" />
    </g>
    <g
       transform="translate(507,379.3333)"
       style="font-size:13.33329964px;font-family:SansSerif;color-interpolation:linearRGB;fill:#262626;stroke:#262626;color-rendering:optimizeQuality;image-rendering:optimizeQuality;text-rendering:geometricPrecision"
       id="g107">
      <path
         style="stroke:none"
         d="m -7.7188,7.8906 q 0.9219,0.2032 1.4376,0.8203 0.5156,0.6172 0.5156,1.5391 0,1.3906 -0.9688,2.1641 -0.9687,0.7734 -2.75,0.7734 -0.5937,0 -1.2265,-0.1172 -0.6329,-0.1172 -1.3047,-0.3515 v -1.25 q 0.5468,0.3124 1.1797,0.4765 0.6328,0.1641 1.3203,0.1641 1.2031,0 1.8359,-0.4766 0.6328,-0.4766 0.6328,-1.3828 0,-0.8438 -0.5859,-1.3125 -0.586,-0.4687 -1.6328,-0.4687 H -10.375 V 7.4062 h 1.1562 q 0.9532,0 1.4532,-0.375 0.5,-0.375 0.5,-1.0937 0,-0.7187 -0.5156,-1.1094 -0.5157,-0.3906 -1.4844,-0.3906 -0.5313,0 -1.1328,0.1094 Q -11,4.6562 -11.7188,4.9062 V 3.75 Q -11,3.5469 -10.3594,3.4453 q 0.6406,-0.1015 1.2032,-0.1015 1.4687,0 2.3203,0.664 0.8515,0.6641 0.8515,1.8047 0,0.7813 -0.4531,1.3281 -0.4531,0.5469 -1.2813,0.75 z m 4.5949,-4.375 h 5.0312 v 1.0938 h -3.8594 v 2.3125 q 0.2813,-0.0938 0.5625,-0.1407 0.2813,-0.0468 0.5469,-0.0468 1.5938,0 2.5235,0.8672 0.9296,0.8672 0.9296,2.3515 0,1.5313 -0.9531,2.3828 -0.9531,0.8516 -2.6875,0.8516 -0.5937,0 -1.2187,-0.1016 -0.625,-0.1015 -1.2813,-0.3047 v -1.2968 q 0.5781,0.3125 1.1875,0.4687 0.6094,0.1563 1.2813,0.1563 1.1093,0 1.75,-0.5782 0.6406,-0.5781 0.6406,-1.5781 0,-0.9843 -0.6406,-1.5625 -0.6407,-0.5781 -1.75,-0.5781 -0.5157,0 -1.0235,0.1172 -0.5078,0.1172 -1.039,0.3515 z M 8.0646,4.3594 q -0.9843,0 -1.4843,0.9765 -0.5,0.9766 -0.5,2.9297 0,1.9532 0.5,2.9297 0.5,0.9766 1.4843,0.9766 1,0 1.5,-0.9766 0.5,-0.9765 0.5,-2.9297 0,-1.9531 -0.5,-2.9297 -0.5,-0.9765 -1.5,-0.9765 z m 0,-1.0156 q 1.5938,0 2.4375,1.2656 0.8438,1.2656 0.8438,3.6562 0,2.3906 -0.8438,3.6563 -0.8437,1.2656 -2.4375,1.2656 -1.5781,0 -2.4218,-1.2656 Q 4.799,10.6562 4.799,8.2656 4.799,5.875 5.6428,4.6094 6.4865,3.3438 8.0646,3.3438 Z"
         id="path105"
         inkscape:connector-curvature="0" />
    </g>
    <g
       transform="translate(290.0002,397.6667)"
       style="font-size:14.66670036px;font-family:SansSerif;color-interpolation:linearRGB;fill:#262626;stroke:#262626;color-rendering:optimizeQuality;image-rendering:optimizeQuality;text-rendering:geometricPrecision"
       id="g111">
      <path
         style="stroke:none"
         d="m -30.5469,3.0625 h 9.25 v 1.25 h -3.875 V 14 h -1.4843 V 4.3125 h -3.8907 z m 10.4058,2.7344 h 1.3593 V 14 h -1.3593 z m 0,-3.1875 h 1.3593 v 1.7031 h -1.3593 z M -9.6785,7.375 q 0.5156,-0.9062 1.2187,-1.3438 0.7031,-0.4374 1.6563,-0.4374 1.2812,0 1.9765,0.8984 0.6953,0.8984 0.6953,2.5547 V 14 H -5.491 V 9.0938 q 0,-1.1876 -0.4219,-1.7579 -0.4219,-0.5703 -1.2656,-0.5703 -1.0469,0 -1.6563,0.6953 -0.6094,0.6953 -0.6094,1.8985 V 14 h -1.3593 V 9.0938 q 0,-1.1876 -0.4141,-1.7579 -0.4141,-0.5703 -1.2891,-0.5703 -1.0312,0 -1.6406,0.7032 -0.6094,0.7031 -0.6094,1.8906 V 14 H -16.116 V 5.7969 h 1.3593 v 1.2812 q 0.4532,-0.7656 1.1016,-1.125 0.6484,-0.3593 1.5391,-0.3593 0.8906,0 1.5156,0.4531 0.625,0.4531 0.9219,1.3281 z M 5.2391,9.5625 v 0.6563 h -6.2032 q 0.0938,1.3906 0.8438,2.1171 0.75,0.7266 2.0781,0.7266 0.7813,0 1.5078,-0.1875 0.7266,-0.1875 1.4453,-0.5625 v 1.2656 q -0.7187,0.3125 -1.4843,0.4766 -0.7657,0.1641 -1.5469,0.1641 -1.9531,0 -3.1016,-1.1485 -1.1484,-1.1484 -1.1484,-3.0859 0,-2.0156 1.0859,-3.2032 1.086,-1.1874 2.9297,-1.1874 1.6563,0 2.625,1.0703 0.9688,1.0703 0.9688,2.8984 z M 3.8797,9.1719 Q 3.8641,8.0625 3.2625,7.3984 2.6609,6.7344 1.6609,6.7344 q -1.125,0 -1.8047,0.6406 -0.6796,0.6406 -0.7734,1.7969 z M 15.1336,2.625 q -0.9843,1.6719 -1.4609,3.3203 -0.4766,1.6485 -0.4766,3.3516 0,1.6875 0.4766,3.3437 0.4766,1.6563 1.4609,3.3438 H 13.9618 Q 12.8524,14.25 12.3133,12.5938 11.7743,10.9375 11.7743,9.2969 11.7743,7.6562 12.3133,6 12.8524,4.3438 13.9618,2.625 Z M 22.836,6.0312 V 7.3125 Q 22.2735,7.0156 21.6563,6.875 21.0391,6.7344 20.3828,6.7344 q -1.0156,0 -1.5156,0.3047 -0.5,0.3047 -0.5,0.914 0,0.4688 0.3594,0.7344 0.3594,0.2656 1.4531,0.5156 l 0.4531,0.1094 q 1.4375,0.2969 2.0391,0.8594 0.6016,0.5625 0.6016,1.5625 0,1.1406 -0.8985,1.8125 -0.8984,0.6719 -2.4922,0.6719 -0.6562,0 -1.3672,-0.1329 -0.7109,-0.1328 -1.5078,-0.3828 v -1.3906 q 0.75,0.3906 1.4766,0.5781 0.7266,0.1875 1.4297,0.1875 0.9531,0 1.4687,-0.3203 0.5157,-0.3203 0.5157,-0.914 0,-0.5469 -0.375,-0.8438 -0.375,-0.2969 -1.625,-0.5625 l -0.4688,-0.1094 q -1.25,-0.2656 -1.8047,-0.8125 -0.5547,-0.5468 -0.5547,-1.5 0,-1.1562 0.8203,-1.789 0.8204,-0.6328 2.3204,-0.6328 0.75,0 1.414,0.1093 0.6641,0.1094 1.211,0.3281 z M 25.0343,2.625 h 1.1719 q 1.0937,1.7188 1.6406,3.375 0.5469,1.6562 0.5469,3.2969 0,1.6406 -0.5469,3.2969 -0.5469,1.6562 -1.6406,3.3906 h -1.1719 q 0.9688,-1.6875 1.4531,-3.3438 0.4844,-1.6562 0.4844,-3.3437 0,-1.7031 -0.4844,-3.3516 Q 26.0031,4.2969 25.0343,2.625 Z"
         id="path109"
         inkscape:connector-curvature="0" />
    </g>
    <g
       style="color-interpolation:linearRGB;fill:#262626;stroke:#262626;stroke-width:0.66670001;stroke-linejoin:round;color-rendering:optimizeQuality;image-rendering:optimizeQuality;text-rendering:geometricPrecision"
       id="g139">
      <line
         y2="31"
         style="fill:none"
         x1="73"
         x2="73"
         y1="374"
         id="line113" />
      <line
         y2="374"
         style="fill:none"
         x1="73"
         x2="77.339996"
         y1="374"
         id="line115" />
      <line
         y2="107.1116"
         style="fill:none"
         x1="73"
         x2="77.339996"
         y1="107.1116"
         id="line117" />
      <line
         y2="374"
         style="fill:none"
         x1="73"
         x2="75.169998"
         y1="374"
         id="line119" />
      <line
         y2="293.6586"
         style="fill:none"
         x1="73"
         x2="75.169998"
         y1="293.6586"
         id="line121" />
      <line
         y2="246.6619"
         style="fill:none"
         x1="73"
         x2="75.169998"
         y1="246.6619"
         id="line123" />
      <line
         y2="213.3172"
         style="fill:none"
         x1="73"
         x2="75.169998"
         y1="213.3172"
         id="line125" />
      <line
         y2="187.453"
         style="fill:none"
         x1="73"
         x2="75.169998"
         y1="187.453"
         id="line127" />
      <line
         y2="166.3204"
         style="fill:none"
         x1="73"
         x2="75.169998"
         y1="166.3204"
         id="line129" />
      <line
         y2="148.45309"
         style="fill:none"
         x1="73"
         x2="75.169998"
         y1="148.45309"
         id="line131" />
      <line
         y2="132.9758"
         style="fill:none"
         x1="73"
         x2="75.169998"
         y1="132.9758"
         id="line133" />
      <line
         y2="119.3237"
         style="fill:none"
         x1="73"
         x2="75.169998"
         y1="119.3237"
         id="line135" />
      <line
         y2="107.1116"
         style="fill:none"
         x1="73"
         x2="75.169998"
         y1="107.1116"
         id="line137" />
    </g>
    <g
       transform="translate(44,380)"
       style="font-size:13.33329964px;font-family:SansSerif;color-interpolation:linearRGB;fill:#262626;stroke:#262626;color-rendering:optimizeQuality;image-rendering:optimizeQuality;text-rendering:geometricPrecision"
       id="g143">
      <path
         style="stroke:none"
         d="m 1.6094,-1.0781 h 2.0937 v -7.2344 l -2.2812,0.4531 v -1.1562 l 2.2656,-0.4688 h 1.2969 v 8.4063 H 7.0781 V 0 H 1.6094 Z m 10.9854,-7.5625 q -0.9844,0 -1.4844,0.9765 -0.5,0.9766 -0.5,2.9297 0,1.9532 0.5,2.9297 0.5,0.9766 1.4844,0.9766 1,0 1.5,-0.9766 0.5,-0.9765 0.5,-2.9297 0,-1.9531 -0.5,-2.9297 -0.5,-0.9765 -1.5,-0.9765 z m 0,-1.0156 q 1.5938,0 2.4375,1.2656 0.8438,1.2656 0.8438,3.6562 0,2.3906 -0.8438,3.6563 -0.8437,1.2656 -2.4375,1.2656 -1.5781,0 -2.4219,-1.2656 -0.8437,-1.2657 -0.8437,-3.6563 0,-2.3906 0.8437,-3.6562 0.8438,-1.2656 2.4219,-1.2656 z"
         id="path141"
         inkscape:connector-curvature="0" />
    </g>
    <g
       transform="translate(61,374)"
       style="font-size:10.66670036px;font-family:SansSerif;color-interpolation:linearRGB;fill:#262626;stroke:#262626;color-rendering:optimizeQuality;image-rendering:optimizeQuality;text-rendering:geometricPrecision"
       id="g147">
      <path
         style="stroke:none"
         d="M 2.1094,-0.9062 H 5.8906 V 0 H 0.8125 v -0.9062 q 0.6094,-0.6407 1.6797,-1.7188 1.0703,-1.0781 1.3359,-1.3906 0.5157,-0.5938 0.7266,-1 0.2109,-0.4063 0.2109,-0.7969 0,-0.6406 -0.4453,-1.0391 Q 3.875,-7.25 3.1406,-7.25 q -0.5,0 -1.0703,0.1797 Q 1.5,-6.8906 0.8594,-6.5312 V -7.625 q 0.6562,-0.2656 1.2265,-0.4062 0.5703,-0.1407 1.0391,-0.1407 1.25,0 1.9922,0.625 0.7422,0.625 0.7422,1.6719 0,0.5 -0.1875,0.9375 Q 5.4844,-4.5 5,-3.8906 4.8594,-3.7344 4.1406,-2.9922 3.4219,-2.25 2.1094,-0.9062 Z"
         id="path145"
         inkscape:connector-curvature="0" />
    </g>
    <g
       transform="translate(44,113)"
       style="font-size:13.33329964px;font-family:SansSerif;color-interpolation:linearRGB;fill:#262626;stroke:#262626;color-rendering:optimizeQuality;image-rendering:optimizeQuality;text-rendering:geometricPrecision"
       id="g151">
      <path
         style="stroke:none"
         d="m 1.6094,-1.0781 h 2.0937 v -7.2344 l -2.2812,0.4531 v -1.1562 l 2.2656,-0.4688 h 1.2969 v 8.4063 H 7.0781 V 0 H 1.6094 Z m 10.9854,-7.5625 q -0.9844,0 -1.4844,0.9765 -0.5,0.9766 -0.5,2.9297 0,1.9532 0.5,2.9297 0.5,0.9766 1.4844,0.9766 1,0 1.5,-0.9766 0.5,-0.9765 0.5,-2.9297 0,-1.9531 -0.5,-2.9297 -0.5,-0.9765 -1.5,-0.9765 z m 0,-1.0156 q 1.5938,0 2.4375,1.2656 0.8438,1.2656 0.8438,3.6562 0,2.3906 -0.8438,3.6563 -0.8437,1.2656 -2.4375,1.2656 -1.5781,0 -2.4219,-1.2656 -0.8437,-1.2657 -0.8437,-3.6563 0,-2.3906 0.8437,-3.6562 0.8438,-1.2656 2.4219,-1.2656 z"
         id="path149"
         inkscape:connector-curvature="0" />
    </g>
    <g
       transform="translate(61,107)"
       style="font-size:10.66670036px;font-family:SansSerif;color-interpolation:linearRGB;fill:#262626;stroke:#262626;color-rendering:optimizeQuality;image-rendering:optimizeQuality;text-rendering:geometricPrecision"
       id="g155">
      <path
         style="stroke:none"
         d="m 4.4688,-4.3281 q 0.7812,0.1719 1.2187,0.6953 0.4375,0.5234 0.4375,1.3047 0,1.1875 -0.8203,1.8359 -0.8203,0.6484 -2.3203,0.6484 -0.5156,0 -1.0469,-0.1015 -0.5313,-0.1016 -1.0937,-0.2891 v -1.0625 q 0.4531,0.2657 0.9843,0.4063 0.5313,0.1406 1.125,0.1406 1.0157,0 1.5469,-0.4062 0.5312,-0.4063 0.5312,-1.1719 0,-0.7188 -0.4921,-1.1172 Q 4.0469,-3.8438 3.1562,-3.8438 H 2.2188 v -0.8906 h 0.9843 q 0.7969,0 1.2188,-0.3203 0.4219,-0.3203 0.4219,-0.9141 0,-0.625 -0.4376,-0.9531 -0.4374,-0.3281 -1.25,-0.3281 -0.4374,0 -0.9531,0.0938 -0.5156,0.0937 -1.125,0.2968 V -7.8281 Q 1.7031,-8 2.2422,-8.0859 q 0.539,-0.086 1.0078,-0.086 1.2344,0 1.9609,0.5625 0.7266,0.5625 0.7266,1.5313 0,0.6562 -0.3828,1.1172 Q 5.1719,-4.5 4.4688,-4.3281 Z"
         id="path153"
         inkscape:connector-curvature="0" />
    </g>
    <g
       transform="rotate(-90,121.08325,81.41655)"
       style="font-size:14.66670036px;font-family:SansSerif;color-interpolation:linearRGB;fill:#262626;stroke:#262626;color-rendering:optimizeQuality;image-rendering:optimizeQuality;text-rendering:geometricPrecision"
       id="g159">
      <path
         style="stroke:none"
         d="m -34.5312,-14.9375 h 6.9218 v 1.25 h -5.4375 v 3.2344 h 5.2031 v 1.25 h -5.2031 V -5.25 h 5.5625 V -4 h -7.0468 z m 16.0259,5.9844 V -4 h -1.3437 v -4.9062 q 0,-1.1719 -0.4532,-1.75 -0.4531,-0.5782 -1.375,-0.5782 -1.0781,0 -1.7109,0.6953 -0.6328,0.6953 -0.6328,1.8985 V -4 h -1.3594 v -8.2031 h 1.3594 v 1.2812 q 0.4844,-0.75 1.1406,-1.1172 0.6563,-0.3671 1.5156,-0.3671 1.4063,0 2.1329,0.875 0.7265,0.875 0.7265,2.5781 z m 9.4921,0.5156 v 0.6563 h -6.2031 q 0.0937,1.3906 0.8437,2.1171 0.75,0.7266 2.0782,0.7266 0.7812,0 1.5078,-0.1875 0.7265,-0.1875 1.4453,-0.5625 v 1.2656 q -0.7188,0.3125 -1.4844,0.4766 -0.7656,0.1641 -1.5469,0.1641 -1.9531,0 -3.1015,-1.1485 -1.1485,-1.1484 -1.1485,-3.0859 0,-2.0156 1.086,-3.2032 1.0859,-1.1874 2.9297,-1.1874 1.6562,0 2.625,1.0703 0.9687,1.0703 0.9687,2.8984 z m -1.3594,-0.3906 q -0.0156,-1.1094 -0.6171,-1.7735 -0.6016,-0.664 -1.6016,-0.664 -1.125,0 -1.8047,0.6406 -0.6797,0.6406 -0.7734,1.7969 z m 8.1108,-2.1094 q -0.2344,-0.1406 -0.5,-0.2031 -0.2656,-0.0625 -0.5937,-0.0625 -1.1407,0 -1.75,0.7422 -0.6094,0.7421 -0.6094,2.1328 V -4 h -1.3594 v -8.2031 h 1.3594 v 1.2812 q 0.4219,-0.75 1.1016,-1.1172 0.6796,-0.3671 1.664,-0.3671 0.1406,0 0.3047,0.0234 0.1641,0.0234 0.3672,0.0547 z m 6.6663,2.7344 q 0,-1.4531 -0.6016,-2.2578 -0.6015,-0.8047 -1.6953,-0.8047 -1.0937,0 -1.6953,0.8047 -0.6015,0.8047 -0.6015,2.2578 0,1.4687 0.6015,2.2734 0.6016,0.8047 1.6953,0.8047 1.0938,0 1.6953,-0.8047 0.6016,-0.8047 0.6016,-2.2734 z m 1.3438,3.1875 q 0,2.0937 -0.9297,3.1172 -0.9297,1.0234 -2.8516,1.0234 -0.7031,0 -1.3359,-0.1094 -0.6328,-0.1094 -1.2266,-0.3281 V -2.625 q 0.5938,0.3281 1.1719,0.4766 Q 1.1545,-2 1.7639,-2 3.092,-2 3.7483,-2.6875 4.4045,-3.375 4.4045,-4.7812 V -5.4375 Q 3.9826,-4.7188 3.3342,-4.3594 2.6858,-4 1.7795,-4 0.2639,-4 -0.658,-5.1484 q -0.9219,-1.1485 -0.9219,-3.0547 0,-1.8907 0.9219,-3.0469 0.9219,-1.1562 2.4375,-1.1562 0.9063,0 1.5547,0.3593 0.6484,0.3594 1.0703,1.0938 v -1.25 h 1.3438 z m 5.9751,1.7812 q -0.5781,1.4688 -1.1172,1.9141 -0.539,0.4453 -1.4453,0.4453 H 8.0828 V -2 h 0.7969 q 0.5468,0 0.8593,-0.2656 0.3125,-0.2656 0.6719,-1.25 l 0.25,-0.6094 -3.3125,-8.0781 h 1.4219 l 2.5625,6.4219 2.5625,-6.4219 h 1.4375 z M 24.8839,-15.375 q -0.9844,1.6719 -1.461,3.3203 -0.4765,1.6485 -0.4765,3.3516 0,1.6875 0.4765,3.3437 0.4766,1.6563 1.461,3.3438 H 23.712 q -1.1094,-1.7344 -1.6484,-3.3906 -0.5391,-1.6563 -0.5391,-3.2969 0,-1.6407 0.5391,-3.2969 0.539,-1.6562 1.6484,-3.375 z m 2.5304,0.4375 h 1.4844 v 10.1719 q 0,1.9844 -0.75,2.875 Q 27.3987,-1 25.7268,-1 h -0.5625 v -1.2344 h 0.4688 q 0.9843,0 1.3828,-0.5547 0.3984,-0.5547 0.3984,-1.9765 z m 4.0568,-0.4375 h 1.1719 q 1.0938,1.7188 1.6406,3.375 0.5469,1.6562 0.5469,3.2969 0,1.6406 -0.5469,3.2969 -0.5468,1.6562 -1.6406,3.3906 h -1.1719 q 0.9688,-1.6875 1.4532,-3.3438 0.4843,-1.6562 0.4843,-3.3437 0,-1.7031 -0.4843,-3.3516 -0.4844,-1.6484 -1.4532,-3.3203 z"
         id="path157"
         inkscape:connector-curvature="0" />
    </g>
    <g
       transform="translate(290.0003,28.25)"
       style="font-weight:bold;font-size:14.66670036px;font-family:SansSerif;color-interpolation:linearRGB;color-rendering:optimizeQuality;image-rendering:optimizeQuality;text-rendering:geometricPrecision"
       id="g163">
      <path
         style="stroke:none"
         d="m -108.9219,-14.9375 h 10.0781 v 2.1406 h -3.625 V -4 h -2.8281 v -8.7969 h -3.625 z m 11.185,2.7344 h 2.6094 V -4 h -2.6094 z m 0,-3.1875 h 2.6094 v 2.125 h -2.6094 z m 12.6175,4.5468 q 0.5,-0.7656 1.1875,-1.164 0.6875,-0.3984 1.5,-0.3984 1.4219,0 2.1562,0.875 0.7344,0.875 0.7344,2.5312 v 5 h -2.625 v -4.2812 q 0,-0.0938 0.0078,-0.1954 0.0078,-0.1015 0.0078,-0.289 0,-0.875 -0.2578,-1.2656 -0.2578,-0.3907 -0.8359,-0.3907 -0.75,0 -1.1563,0.6172 -0.4062,0.6172 -0.4218,1.7735 V -4 h -2.625 v -4.2812 q 0,-1.3594 -0.2344,-1.75 -0.2344,-0.3907 -0.8438,-0.3907 -0.75,0 -1.164,0.6172 -0.4141,0.6172 -0.4141,1.7735 V -4 h -2.625 v -8.2031 h 2.625 V -11 q 0.4844,-0.7031 1.1172,-1.0547 0.6328,-0.3515 1.3828,-0.3515 0.8438,0 1.5,0.414 0.6563,0.4141 0.9844,1.1484 z m 15.8654,2.7188 v 0.75 h -6.1406 q 0.0938,0.9219 0.6719,1.3828 0.5781,0.461 1.5937,0.461 0.8282,0 1.6954,-0.2422 0.8671,-0.2422 1.789,-0.7422 V -4.5 q -0.9375,0.3594 -1.8672,0.5391 -0.9297,0.1797 -1.8515,0.1797 -2.2344,0 -3.4688,-1.1329 -1.2344,-1.1328 -1.2344,-3.1797 0,-2 1.211,-3.1562 1.2109,-1.1562 3.3359,-1.1562 1.9375,0 3.1016,1.164 1.164,1.1641 1.164,3.1172 z M -71.9571,-9 q 0,-0.75 -0.4375,-1.2031 -0.4375,-0.4531 -1.1406,-0.4531 -0.75,0 -1.2266,0.4296 -0.4765,0.4297 -0.6015,1.2266 z m 8.5271,-3.2031 h 2.6094 l 2.0468,5.6719 2.0313,-5.6719 h 2.6406 L -57.3363,-4 h -2.875 z m 16.9912,0.25 v 2 q -0.8437,-0.3594 -1.625,-0.5313 -0.7812,-0.1718 -1.4843,-0.1718 -0.75,0 -1.1094,0.1874 -0.3594,0.1876 -0.3594,0.5782 0,0.3125 0.2735,0.4765 0.2734,0.1641 0.9765,0.2579 l 0.4688,0.0624 q 2.0156,0.25 2.7109,0.836 0.6953,0.5859 0.6953,1.8359 0,1.3125 -0.9687,1.9766 -0.9688,0.6641 -2.8907,0.6641 -0.8125,0 -1.6796,-0.1329 -0.8672,-0.1328 -1.7735,-0.3828 v -2 q 0.7813,0.3907 1.6016,0.5781 0.8203,0.1876 1.6797,0.1876 0.7656,0 1.1562,-0.211 0.3906,-0.2109 0.3906,-0.6328 0,-0.3438 -0.2734,-0.5156 -0.2734,-0.1719 -1.0703,-0.2813 l -0.4531,-0.0469 q -1.75,-0.2187 -2.4532,-0.8124 -0.7031,-0.5938 -0.7031,-1.8126 0,-1.2968 0.8906,-1.9296 0.8907,-0.6328 2.7344,-0.6328 0.7344,0 1.5313,0.1093 0.7968,0.1094 1.7343,0.3438 z m 7.5293,-2.9844 h 7.6094 v 2.1406 h -4.7813 v 2.0313 h 4.5 v 2.125 h -4.5 v 2.5156 h 4.9375 V -4 h -7.7656 z M -20.7728,-9 v 5 h -2.625 v -0.8125 -3.0156 q 0,-1.0625 -0.0468,-1.461 -0.0469,-0.3984 -0.1719,-0.5859 -0.1563,-0.2656 -0.4141,-0.4062 -0.2578,-0.1407 -0.6015,-0.1407 -0.8282,0 -1.2969,0.6328 -0.4688,0.6329 -0.4688,1.7579 V -4 h -2.6093 v -8.2031 h 2.6093 V -11 q 0.5938,-0.7188 1.2657,-1.0625 0.6718,-0.3437 1.4687,-0.3437 1.4219,0 2.1563,0.875 0.7343,0.875 0.7343,2.5312 z m 10.3872,0.875 v 0.75 h -6.1407 q 0.0938,0.9219 0.6719,1.3828 0.5781,0.461 1.5938,0.461 0.8281,0 1.6953,-0.2422 0.8672,-0.2422 1.789,-0.7422 V -4.5 q -0.9375,0.3594 -1.8671,0.5391 -0.9297,0.1797 -1.8516,0.1797 -2.2344,0 -3.4688,-1.1329 -1.2343,-1.1328 -1.2343,-3.1797 0,-2 1.2109,-3.1562 1.2109,-1.1562 3.3359,-1.1562 1.9375,0 3.1016,1.164 1.1641,1.1641 1.1641,3.1172 z M -13.0888,-9 q 0,-0.75 -0.4375,-1.2031 -0.4375,-0.4531 -1.1406,-0.4531 -0.75,0 -1.2265,0.4296 Q -16.37,-9.7969 -16.495,-9 Z m 10.5496,-0.9688 q -0.3437,-0.1562 -0.6875,-0.2343 -0.3437,-0.0781 -0.6875,-0.0781 -1.0156,0 -1.5625,0.6484 -0.5469,0.6484 -0.5469,1.8516 V -4 h -2.6093 v -8.2031 h 2.6093 v 1.3437 q 0.5157,-0.7968 1.1719,-1.1718 0.6563,-0.375 1.5625,-0.375 0.1406,0 0.2891,0.0156 0.1484,0.0156 0.4453,0.0468 z m 6.7123,4.5782 Q 3.6263,-4.6719 2.9778,-4.3359 2.3294,-4 1.47,-4 q -1.5,0 -2.4844,-1.1797 -0.9843,-1.1797 -0.9843,-3.0234 0,-1.8281 0.9843,-3.0078 0.9844,-1.1797 2.4844,-1.1797 0.8594,0 1.5078,0.3359 0.6485,0.3359 1.1953,1.0703 v -1.2187 h 2.6407 v 7.375 q 0,1.9843 -1.25,3.0234 -1.25,1.0391 -3.625,1.0391 -0.7657,0 -1.4844,-0.1172 Q -0.2644,-1 -0.9987,-1.2344 v -2.0468 q 0.6875,0.3906 1.3515,0.5859 Q 1.0169,-2.5 1.6731,-2.5 2.97,-2.5 3.5716,-3.0625 4.1731,-3.625 4.1731,-4.8281 Z M 2.4388,-10.5 q -0.8125,0 -1.2657,0.6016 -0.4531,0.6015 -0.4531,1.6953 0,1.1406 0.4375,1.7187 0.4375,0.5782 1.2813,0.5782 0.8281,0 1.2812,-0.6016 0.4531,-0.6016 0.4531,-1.6953 0,-1.0938 -0.4531,-1.6953 Q 3.2669,-10.5 2.4388,-10.5 Z m 5.5693,-1.7031 h 2.625 l 2.2031,5.5625 1.875,-5.5625 h 2.6094 l -3.4375,8.9843 q -0.5312,1.3594 -1.2187,1.9063 -0.6875,0.5469 -1.8282,0.5469 H 9.3206 v -1.7188 h 0.8281 q 0.6563,0 0.961,-0.2109 0.3047,-0.2109 0.4765,-0.7578 l 0.0782,-0.2344 z m 24.5156,7.6093 q -0.7812,0.3907 -1.6171,0.6016 -0.836,0.211 -1.7579,0.211 -2.7343,0 -4.3281,-1.5313 -1.5937,-1.5313 -1.5937,-4.1406 0,-2.625 1.5937,-4.1563 1.5938,-1.5312 4.3281,-1.5312 0.9219,0 1.7579,0.2109 0.8359,0.2109 1.6171,0.6172 v 2.25 q -0.7812,-0.5313 -1.5468,-0.7813 -0.7657,-0.25 -1.5938,-0.25 -1.5156,0 -2.3828,0.9688 -0.8672,0.9688 -0.8672,2.6719 0,1.6875 0.8672,2.6562 0.8672,0.9688 2.3828,0.9688 0.8281,0 1.5938,-0.25 0.7656,-0.25 1.5468,-0.7813 z m 5.8654,-5.9374 q -0.8593,0 -1.3203,0.625 -0.4609,0.625 -0.4609,1.8124 0,1.1719 0.4609,1.8047 0.461,0.6329 1.3203,0.6329 0.8594,0 1.3125,-0.6329 0.4532,-0.6328 0.4532,-1.8047 0,-1.1874 -0.4532,-1.8124 -0.4531,-0.625 -1.3125,-0.625 z m 0,-1.875 q 2.125,0 3.3125,1.1484 1.1875,1.1484 1.1875,3.164 0,2.0157 -1.1875,3.1641 -1.1875,1.1485 -3.3125,1.1485 -2.1093,0 -3.3125,-1.1485 -1.2031,-1.1484 -1.2031,-3.1641 0,-2.0156 1.2031,-3.164 1.2032,-1.1484 3.3125,-1.1484 z M 52.8019,-9 v 5 h -2.625 v -0.8125 -3.0156 q 0,-1.0625 -0.0469,-1.461 -0.0468,-0.3984 -0.1718,-0.5859 -0.1563,-0.2656 -0.4141,-0.4062 -0.2578,-0.1407 -0.6016,-0.1407 -0.8281,0 -1.2968,0.6328 -0.4688,0.6329 -0.4688,1.7579 V -4 h -2.6094 v -8.2031 h 2.6094 V -11 q 0.5938,-0.7188 1.2656,-1.0625 0.6719,-0.3437 1.4688,-0.3437 1.4219,0 2.1562,0.875 0.7344,0.875 0.7344,2.5312 z m 8.6059,-2.9531 v 2 q -0.8438,-0.3594 -1.625,-0.5313 -0.7813,-0.1718 -1.4844,-0.1718 -0.75,0 -1.1094,0.1874 -0.3593,0.1876 -0.3593,0.5782 0,0.3125 0.2734,0.4765 0.2734,0.1641 0.9766,0.2579 l 0.4687,0.0624 q 2.0156,0.25 2.7109,0.836 0.6954,0.5859 0.6954,1.8359 0,1.3125 -0.9688,1.9766 -0.9687,0.6641 -2.8906,0.6641 -0.8125,0 -1.6797,-0.1329 -0.8672,-0.1328 -1.7734,-0.3828 v -2 q 0.7812,0.3907 1.6015,0.5781 0.8203,0.1876 1.6797,0.1876 0.7656,0 1.1563,-0.211 0.3906,-0.2109 0.3906,-0.6328 0,-0.3438 -0.2735,-0.5156 -0.2734,-0.1719 -1.0703,-0.2813 l -0.4531,-0.0469 q -1.75,-0.2187 -2.4531,-0.8124 -0.7031,-0.5938 -0.7031,-1.8126 0,-1.2968 0.8906,-1.9296 0.8906,-0.6328 2.7344,-0.6328 0.7343,0 1.5312,0.1093 0.7969,0.1094 1.7344,0.3438 z m 2.2236,4.7656 v -5.0156 h 2.6406 v 0.8125 q 0,0.6718 -0.0078,1.6797 -0.0078,1.0078 -0.0078,1.3515 0,0.9844 0.0469,1.4219 0.0468,0.4375 0.1718,0.625 0.1719,0.2656 0.4297,0.4063 0.2578,0.1406 0.6016,0.1406 0.8125,0 1.2812,-0.6328 0.4688,-0.6328 0.4688,-1.7578 v -4.0469 h 2.625 V -4 h -2.625 v -1.1875 q -0.5938,0.7187 -1.2578,1.0625 -0.6641,0.3438 -1.461,0.3438 -1.4218,0 -2.164,-0.875 -0.7422,-0.875 -0.7422,-2.5313 z m 18.1215,-3.6563 q 0.5,-0.7656 1.1875,-1.164 0.6875,-0.3984 1.5,-0.3984 1.4219,0 2.1562,0.875 0.7344,0.875 0.7344,2.5312 v 5 h -2.625 v -4.2812 q 0,-0.0938 0.0078,-0.1954 0.0078,-0.1015 0.0078,-0.289 0,-0.875 -0.2578,-1.2656 -0.2578,-0.3907 -0.8359,-0.3907 -0.75,0 -1.1563,0.6172 -0.4062,0.6172 -0.4218,1.7735 V -4 h -2.625 v -4.2812 q 0,-1.3594 -0.2344,-1.75 -0.2344,-0.3907 -0.8438,-0.3907 -0.75,0 -1.164,0.6172 -0.4141,0.6172 -0.4141,1.7735 V -4 h -2.625 v -8.2031 h 2.625 V -11 q 0.4844,-0.7031 1.1172,-1.0547 0.6328,-0.3515 1.3828,-0.3515 0.8438,0 1.5,0.414 0.6563,0.4141 0.9844,1.1484 z m 15.8654,2.7188 v 0.75 h -6.1406 q 0.0938,0.9219 0.6719,1.3828 0.5781,0.461 1.5937,0.461 0.8282,0 1.6953,-0.2422 0.8672,-0.2422 1.7891,-0.7422 V -4.5 q -0.9375,0.3594 -1.8672,0.5391 -0.9297,0.1797 -1.8515,0.1797 -2.2344,0 -3.4688,-1.1329 -1.2344,-1.1328 -1.2344,-3.1797 0,-2 1.211,-3.1562 1.2109,-1.1562 3.3359,-1.1562 1.9375,0 3.1016,1.164 1.164,1.1641 1.164,3.1172 z M 94.9152,-9 q 0,-0.75 -0.4375,-1.2031 -0.4375,-0.4531 -1.1406,-0.4531 -0.75,0 -1.2266,0.4296 Q 91.634,-9.7969 91.509,-9 Z m 10.034,-2 v -4.3906 h 2.6406 V -4 h -2.6406 v -1.1875 q -0.5469,0.7187 -1.1954,1.0625 -0.6484,0.3438 -1.5078,0.3438 -1.5156,0 -2.4922,-1.211 -0.9765,-1.2109 -0.9765,-3.1016 0,-1.8906 0.9765,-3.1015 0.9766,-1.2109 2.4922,-1.2109 0.8438,0 1.5,0.3437 0.6563,0.3437 1.2032,1.0625 z m -1.7344,5.3125 q 0.8437,0 1.289,-0.6172 0.4454,-0.6172 0.4454,-1.7891 0,-1.1718 -0.4454,-1.789 -0.4453,-0.6172 -1.289,-0.6172 -0.8281,0 -1.2735,0.6172 -0.4453,0.6172 -0.4453,1.789 0,1.1719 0.4453,1.7891 0.4454,0.6172 1.2735,0.6172 z"
         id="path161"
         inkscape:connector-curvature="0" />
    </g>
    <g
       style="color-interpolation:linearRGB;fill:#0000ff;stroke:#0000ff;stroke-width:2.66669989;stroke-linecap:butt;stroke-linejoin:round;color-rendering:optimizeQuality;image-rendering:optimizeQuality;text-rendering:geometricPrecision"
       id="g475">
      <path
         d="m 86.33,353.0995 12.09,-83.445 12.09,-42.3505 16.12,-24.0606 10.8128,-14.5646 12.09,-11.8423 12.09,-9.0052 12.09,-9.683 12.09,-11.0189 12.09,-8.9684 12.09,-6.3558 12.09,-6.4806 14.8428,-6.6994 12.09,-5.2482 10.8128,-4.0585 12.09,-5.1639 12.09,-4.3782 16.12,-4.3289 10.8128,-3.9109 10.8128,-2.3592 12.09,-3.6899 12.09,-3.1482 16.12,-4.381 12.09,-3.4901 12.09,-3.5738 12.09,-2.8183 10.8128,-1.9476 12.09,-3.0799 12.09,-3.5871 12.09,-2.9309"
         style="fill:none;fill-rule:evenodd"
         id="path165"
         inkscape:connector-curvature="0" />
      <circle
         transform="translate(86.33,353.0995)"
         style="fill:none;stroke-linejoin:miter"
         r="4"
         cx="0"
         cy="0"
         id="circle167" />
      <circle
         transform="translate(98.42,269.6545)"
         style="fill:none;stroke-linejoin:miter"
         r="4"
         cx="0"
         cy="0"
         id="circle169" />
      <circle
         transform="translate(110.51,227.304)"
         style="fill:none;stroke-linejoin:miter"
         r="4"
         cx="0"
         cy="0"
         id="circle171" />
      <circle
         transform="translate(126.63,203.2434)"
         style="fill:none;stroke-linejoin:miter"
         r="4"
         cx="0"
         cy="0"
         id="circle173" />
      <circle
         transform="translate(137.4428,188.6788)"
         style="fill:none;stroke-linejoin:miter"
         r="4"
         cx="0"
         cy="0"
         id="circle175" />
      <circle
         transform="translate(149.5328,176.8365)"
         style="fill:none;stroke-linejoin:miter"
         r="4"
         cx="0"
         cy="0"
         id="circle177" />
      <circle
         transform="translate(161.6228,167.8313)"
         style="fill:none;stroke-linejoin:miter"
         r="4"
         cx="0"
         cy="0"
         id="circle179" />
      <circle
         transform="translate(173.7128,158.1483)"
         style="fill:none;stroke-linejoin:miter"
         r="4"
         cx="0"
         cy="0"
         id="circle181" />
      <circle
         transform="translate(185.8028,147.1294)"
         style="fill:none;stroke-linejoin:miter"
         r="4"
         cx="0"
         cy="0"
         id="circle183" />
      <circle
         transform="translate(197.8928,138.161)"
         style="fill:none;stroke-linejoin:miter"
         r="4"
         cx="0"
         cy="0"
         id="circle185" />
      <circle
         transform="translate(209.9828,131.8052)"
         style="fill:none;stroke-linejoin:miter"
         r="4"
         cx="0"
         cy="0"
         id="circle187" />
      <circle
         transform="translate(222.0728,125.3246)"
         style="fill:none;stroke-linejoin:miter"
         r="4"
         cx="0"
         cy="0"
         id="circle189" />
      <circle
         transform="translate(236.9156,118.6252)"
         style="fill:none;stroke-linejoin:miter"
         r="4"
         cx="0"
         cy="0"
         id="circle191" />
      <circle
         transform="translate(249.0056,113.377)"
         style="fill:none;stroke-linejoin:miter"
         r="4"
         cx="0"
         cy="0"
         id="circle193" />
      <circle
         transform="translate(259.8184,109.3185)"
         style="fill:none;stroke-linejoin:miter"
         r="4"
         cx="0"
         cy="0"
         id="circle195" />
      <circle
         transform="translate(271.9084,104.1546)"
         style="fill:none;stroke-linejoin:miter"
         r="4"
         cx="0"
         cy="0"
         id="circle197" />
      <circle
         transform="translate(283.9984,99.7764)"
         style="fill:none;stroke-linejoin:miter"
         r="4"
         cx="0"
         cy="0"
         id="circle199" />
      <circle
         transform="translate(300.1184,95.4475)"
         style="fill:none;stroke-linejoin:miter"
         r="4"
         cx="0"
         cy="0"
         id="circle201" />
      <circle
         transform="translate(310.9312,91.5366)"
         style="fill:none;stroke-linejoin:miter"
         r="4"
         cx="0"
         cy="0"
         id="circle203" />
      <circle
         transform="translate(321.744,89.1774)"
         style="fill:none;stroke-linejoin:miter"
         r="4"
         cx="0"
         cy="0"
         id="circle205" />
      <circle
         transform="translate(333.834,85.4875)"
         style="fill:none;stroke-linejoin:miter"
         r="4"
         cx="0"
         cy="0"
         id="circle207" />
      <circle
         transform="translate(345.924,82.3393)"
         style="fill:none;stroke-linejoin:miter"
         r="4"
         cx="0"
         cy="0"
         id="circle209" />
      <circle
         transform="translate(362.044,77.9583)"
         style="fill:none;stroke-linejoin:miter"
         r="4"
         cx="0"
         cy="0"
         id="circle211" />
      <circle
         transform="translate(374.134,74.4682)"
         style="fill:none;stroke-linejoin:miter"
         r="4"
         cx="0"
         cy="0"
         id="circle213" />
      <circle
         transform="translate(386.224,70.8944)"
         style="fill:none;stroke-linejoin:miter"
         r="4"
         cx="0"
         cy="0"
         id="circle215" />
      <circle
         transform="translate(398.314,68.0761)"
         style="fill:none;stroke-linejoin:miter"
         r="4"
         cx="0"
         cy="0"
         id="circle217" />
      <circle
         transform="translate(409.1268,66.1285)"
         style="fill:none;stroke-linejoin:miter"
         r="4"
         cx="0"
         cy="0"
         id="circle219" />
      <circle
         transform="translate(421.2168,63.0486)"
         style="fill:none;stroke-linejoin:miter"
         r="4"
         cx="0"
         cy="0"
         id="circle221" />
      <circle
         transform="translate(433.3068,59.4615)"
         style="fill:none;stroke-linejoin:miter"
         r="4"
         cx="0"
         cy="0"
         id="circle223" />
      <circle
         transform="translate(445.3968,56.5306)"
         style="fill:none;stroke-linejoin:miter"
         r="4"
         cx="0"
         cy="0"
         id="circle225" />
      <path
         d="m 86.33,353.5844 12.09,-86.7365 12.09,-35.7624 16.12,-29.5273 12.09,-17.5043 12.09,-9.778 12.09,-12.9112 12.09,-8.6653 12.09,-7.9068 12.09,-8.0022 12.09,-6.3923 12.09,-5.3146 14.8428,-6.8646 12.09,-4.5908 12.09,-4.6387 10.8128,-2.684 10.8128,-3.0344 14.8428,-3.3248 12.09,-4.2385 10.8128,-4.0667 14.8428,-4.2499 12.09,-4.0591 12.09,-3.6732 12.09,-3.4059 12.09,-3.5173 12.09,-3.2497 12.09,-3.3964 12.09,-3.2507 14.8428,-3.7731 12.09,-3.2834"
         style="fill:none;fill-rule:evenodd;stroke:#ff0000"
         id="path227"
         inkscape:connector-curvature="0" />
      <path
         d="M -3,-3 V 3 H 3 V -3 Z"
         style="fill:none;stroke:#ff0000;stroke-linejoin:miter"
         transform="translate(86.33,353.5844)"
         id="path229"
         inkscape:connector-curvature="0" />
      <path
         d="M -3,-3 V 3 H 3 V -3 Z"
         style="fill:none;stroke:#ff0000;stroke-linejoin:miter"
         transform="translate(98.42,266.8479)"
         id="path231"
         inkscape:connector-curvature="0" />
      <path
         d="M -3,-3 V 3 H 3 V -3 Z"
         style="fill:none;stroke:#ff0000;stroke-linejoin:miter"
         transform="translate(110.51,231.0855)"
         id="path233"
         inkscape:connector-curvature="0" />
      <path
         d="M -3,-3 V 3 H 3 V -3 Z"
         style="fill:none;stroke:#ff0000;stroke-linejoin:miter"
         transform="translate(126.63,201.5582)"
         id="path235"
         inkscape:connector-curvature="0" />
      <path
         d="M -3,-3 V 3 H 3 V -3 Z"
         style="fill:none;stroke:#ff0000;stroke-linejoin:miter"
         transform="translate(138.72,184.0539)"
         id="path237"
         inkscape:connector-curvature="0" />
      <path
         d="M -3,-3 V 3 H 3 V -3 Z"
         style="fill:none;stroke:#ff0000;stroke-linejoin:miter"
         transform="translate(150.81,174.2759)"
         id="path239"
         inkscape:connector-curvature="0" />
      <path
         d="M -3,-3 V 3 H 3 V -3 Z"
         style="fill:none;stroke:#ff0000;stroke-linejoin:miter"
         transform="translate(162.9,161.3647)"
         id="path241"
         inkscape:connector-curvature="0" />
      <path
         d="M -3,-3 V 3 H 3 V -3 Z"
         style="fill:none;stroke:#ff0000;stroke-linejoin:miter"
         transform="translate(174.99,152.6994)"
         id="path243"
         inkscape:connector-curvature="0" />
      <path
         d="M -3,-3 V 3 H 3 V -3 Z"
         style="fill:none;stroke:#ff0000;stroke-linejoin:miter"
         transform="translate(187.08,144.7926)"
         id="path245"
         inkscape:connector-curvature="0" />
      <path
         d="M -3,-3 V 3 H 3 V -3 Z"
         style="fill:none;stroke:#ff0000;stroke-linejoin:miter"
         transform="translate(199.17,136.7904)"
         id="path247"
         inkscape:connector-curvature="0" />
      <path
         d="M -3,-3 V 3 H 3 V -3 Z"
         style="fill:none;stroke:#ff0000;stroke-linejoin:miter"
         transform="translate(211.26,130.3981)"
         id="path249"
         inkscape:connector-curvature="0" />
      <path
         d="M -3,-3 V 3 H 3 V -3 Z"
         style="fill:none;stroke:#ff0000;stroke-linejoin:miter"
         transform="translate(223.35,125.0835)"
         id="path251"
         inkscape:connector-curvature="0" />
      <path
         d="M -3,-3 V 3 H 3 V -3 Z"
         style="fill:none;stroke:#ff0000;stroke-linejoin:miter"
         transform="translate(238.1928,118.2189)"
         id="path253"
         inkscape:connector-curvature="0" />
      <path
         d="M -3,-3 V 3 H 3 V -3 Z"
         style="fill:none;stroke:#ff0000;stroke-linejoin:miter"
         transform="translate(250.2828,113.6281)"
         id="path255"
         inkscape:connector-curvature="0" />
      <path
         d="M -3,-3 V 3 H 3 V -3 Z"
         style="fill:none;stroke:#ff0000;stroke-linejoin:miter"
         transform="translate(262.3728,108.9894)"
         id="path257"
         inkscape:connector-curvature="0" />
      <path
         d="M -3,-3 V 3 H 3 V -3 Z"
         style="fill:none;stroke:#ff0000;stroke-linejoin:miter"
         transform="translate(273.1856,106.3054)"
         id="path259"
         inkscape:connector-curvature="0" />
      <path
         d="M -3,-3 V 3 H 3 V -3 Z"
         style="fill:none;stroke:#ff0000;stroke-linejoin:miter"
         transform="translate(283.9984,103.271)"
         id="path261"
         inkscape:connector-curvature="0" />
      <path
         d="M -3,-3 V 3 H 3 V -3 Z"
         style="fill:none;stroke:#ff0000;stroke-linejoin:miter"
         transform="translate(298.8412,99.9462)"
         id="path263"
         inkscape:connector-curvature="0" />
      <path
         d="M -3,-3 V 3 H 3 V -3 Z"
         style="fill:none;stroke:#ff0000;stroke-linejoin:miter"
         transform="translate(310.9312,95.7077)"
         id="path265"
         inkscape:connector-curvature="0" />
      <path
         d="M -3,-3 V 3 H 3 V -3 Z"
         style="fill:none;stroke:#ff0000;stroke-linejoin:miter"
         transform="translate(321.744,91.641)"
         id="path267"
         inkscape:connector-curvature="0" />
      <path
         d="M -3,-3 V 3 H 3 V -3 Z"
         style="fill:none;stroke:#ff0000;stroke-linejoin:miter"
         transform="translate(336.5868,87.3911)"
         id="path269"
         inkscape:connector-curvature="0" />
      <path
         d="M -3,-3 V 3 H 3 V -3 Z"
         style="fill:none;stroke:#ff0000;stroke-linejoin:miter"
         transform="translate(348.6768,83.332)"
         id="path271"
         inkscape:connector-curvature="0" />
      <path
         d="M -3,-3 V 3 H 3 V -3 Z"
         style="fill:none;stroke:#ff0000;stroke-linejoin:miter"
         transform="translate(360.7668,79.6588)"
         id="path273"
         inkscape:connector-curvature="0" />
      <path
         d="M -3,-3 V 3 H 3 V -3 Z"
         style="fill:none;stroke:#ff0000;stroke-linejoin:miter"
         transform="translate(372.8568,76.2529)"
         id="path275"
         inkscape:connector-curvature="0" />
      <path
         d="M -3,-3 V 3 H 3 V -3 Z"
         style="fill:none;stroke:#ff0000;stroke-linejoin:miter"
         transform="translate(384.9468,72.7356)"
         id="path277"
         inkscape:connector-curvature="0" />
      <path
         d="M -3,-3 V 3 H 3 V -3 Z"
         style="fill:none;stroke:#ff0000;stroke-linejoin:miter"
         transform="translate(397.0368,69.4859)"
         id="path279"
         inkscape:connector-curvature="0" />
      <path
         d="M -3,-3 V 3 H 3 V -3 Z"
         style="fill:none;stroke:#ff0000;stroke-linejoin:miter"
         transform="translate(409.1268,66.0895)"
         id="path281"
         inkscape:connector-curvature="0" />
      <path
         d="M -3,-3 V 3 H 3 V -3 Z"
         style="fill:none;stroke:#ff0000;stroke-linejoin:miter"
         transform="translate(421.2168,62.8388)"
         id="path283"
         inkscape:connector-curvature="0" />
      <path
         d="M -3,-3 V 3 H 3 V -3 Z"
         style="fill:none;stroke:#ff0000;stroke-linejoin:miter"
         transform="translate(436.0596,59.0657)"
         id="path285"
         inkscape:connector-curvature="0" />
      <path
         d="M -3,-3 V 3 H 3 V -3 Z"
         style="fill:none;stroke:#ff0000;stroke-linejoin:miter"
         transform="translate(448.1496,55.7823)"
         id="path287"
         inkscape:connector-curvature="0" />
      <path
         d="m 86.33,348.2008 12.09,-72.2637 12.09,-42.4247 16.12,-31.852 12.09,-15.876 12.09,-12.2612 12.09,-11.4288 12.09,-9.851 12.09,-8.0302 12.09,-7.8383 12.09,-7.4509 12.09,-6.7595 12.09,-4.1686 12.09,-5.4734 12.09,-5.4816 12.09,-4.193 16.12,-6.6433 12.09,-3.8728 12.09,-3.4757 12.09,-4.2902 12.09,-3.1978 12.09,-2.5767 12.09,-3.1983 12.09,-3.6569 12.09,-2.8092 12.09,-3.2334 12.09,-3.1955 12.09,-2.9936 13.5656,-2.3884 10.8128,-2.1781"
         style="fill:none;fill-rule:evenodd;stroke:#00ffff"
         id="path289"
         inkscape:connector-curvature="0" />
      <path
         d="M 0,-4 V 4 M -4,0 h 8 m -6.8284,-2.8284 5.6568,5.6568 m -5.6568,0 5.6568,-5.6568"
         style="fill:none;stroke:#00ffff;stroke-linejoin:miter"
         transform="translate(86.33,348.2008)"
         id="path291"
         inkscape:connector-curvature="0" />
      <path
         d="M 0,-4 V 4 M -4,0 h 8 m -6.8284,-2.8284 5.6568,5.6568 m -5.6568,0 5.6568,-5.6568"
         style="fill:none;stroke:#00ffff;stroke-linejoin:miter"
         transform="translate(98.42,275.9371)"
         id="path293"
         inkscape:connector-curvature="0" />
      <path
         d="M 0,-4 V 4 M -4,0 h 8 m -6.8284,-2.8284 5.6568,5.6568 m -5.6568,0 5.6568,-5.6568"
         style="fill:none;stroke:#00ffff;stroke-linejoin:miter"
         transform="translate(110.51,233.5124)"
         id="path295"
         inkscape:connector-curvature="0" />
      <path
         d="M 0,-4 V 4 M -4,0 h 8 m -6.8284,-2.8284 5.6568,5.6568 m -5.6568,0 5.6568,-5.6568"
         style="fill:none;stroke:#00ffff;stroke-linejoin:miter"
         transform="translate(126.63,201.6604)"
         id="path297"
         inkscape:connector-curvature="0" />
      <path
         d="M 0,-4 V 4 M -4,0 h 8 m -6.8284,-2.8284 5.6568,5.6568 m -5.6568,0 5.6568,-5.6568"
         style="fill:none;stroke:#00ffff;stroke-linejoin:miter"
         transform="translate(138.72,185.7844)"
         id="path299"
         inkscape:connector-curvature="0" />
      <path
         d="M 0,-4 V 4 M -4,0 h 8 m -6.8284,-2.8284 5.6568,5.6568 m -5.6568,0 5.6568,-5.6568"
         style="fill:none;stroke:#00ffff;stroke-linejoin:miter"
         transform="translate(150.81,173.5232)"
         id="path301"
         inkscape:connector-curvature="0" />
      <path
         d="M 0,-4 V 4 M -4,0 h 8 m -6.8284,-2.8284 5.6568,5.6568 m -5.6568,0 5.6568,-5.6568"
         style="fill:none;stroke:#00ffff;stroke-linejoin:miter"
         transform="translate(162.9,162.0944)"
         id="path303"
         inkscape:connector-curvature="0" />
      <path
         d="M 0,-4 V 4 M -4,0 h 8 m -6.8284,-2.8284 5.6568,5.6568 m -5.6568,0 5.6568,-5.6568"
         style="fill:none;stroke:#00ffff;stroke-linejoin:miter"
         transform="translate(174.99,152.2434)"
         id="path305"
         inkscape:connector-curvature="0" />
      <path
         d="M 0,-4 V 4 M -4,0 h 8 m -6.8284,-2.8284 5.6568,5.6568 m -5.6568,0 5.6568,-5.6568"
         style="fill:none;stroke:#00ffff;stroke-linejoin:miter"
         transform="translate(187.08,144.2132)"
         id="path307"
         inkscape:connector-curvature="0" />
      <path
         d="M 0,-4 V 4 M -4,0 h 8 m -6.8284,-2.8284 5.6568,5.6568 m -5.6568,0 5.6568,-5.6568"
         style="fill:none;stroke:#00ffff;stroke-linejoin:miter"
         transform="translate(199.17,136.3749)"
         id="path309"
         inkscape:connector-curvature="0" />
      <path
         d="M 0,-4 V 4 M -4,0 h 8 m -6.8284,-2.8284 5.6568,5.6568 m -5.6568,0 5.6568,-5.6568"
         style="fill:none;stroke:#00ffff;stroke-linejoin:miter"
         transform="translate(211.26,128.924)"
         id="path311"
         inkscape:connector-curvature="0" />
      <path
         d="M 0,-4 V 4 M -4,0 h 8 m -6.8284,-2.8284 5.6568,5.6568 m -5.6568,0 5.6568,-5.6568"
         style="fill:none;stroke:#00ffff;stroke-linejoin:miter"
         transform="translate(223.35,122.1645)"
         id="path313"
         inkscape:connector-curvature="0" />
      <path
         d="M 0,-4 V 4 M -4,0 h 8 m -6.8284,-2.8284 5.6568,5.6568 m -5.6568,0 5.6568,-5.6568"
         style="fill:none;stroke:#00ffff;stroke-linejoin:miter"
         transform="translate(235.44,117.9959)"
         id="path315"
         inkscape:connector-curvature="0" />
      <path
         d="M 0,-4 V 4 M -4,0 h 8 m -6.8284,-2.8284 5.6568,5.6568 m -5.6568,0 5.6568,-5.6568"
         style="fill:none;stroke:#00ffff;stroke-linejoin:miter"
         transform="translate(247.53,112.5225)"
         id="path317"
         inkscape:connector-curvature="0" />
      <path
         d="M 0,-4 V 4 M -4,0 h 8 m -6.8284,-2.8284 5.6568,5.6568 m -5.6568,0 5.6568,-5.6568"
         style="fill:none;stroke:#00ffff;stroke-linejoin:miter"
         transform="translate(259.62,107.0409)"
         id="path319"
         inkscape:connector-curvature="0" />
      <path
         d="M 0,-4 V 4 M -4,0 h 8 m -6.8284,-2.8284 5.6568,5.6568 m -5.6568,0 5.6568,-5.6568"
         style="fill:none;stroke:#00ffff;stroke-linejoin:miter"
         transform="translate(271.71,102.8479)"
         id="path321"
         inkscape:connector-curvature="0" />
      <path
         d="M 0,-4 V 4 M -4,0 h 8 m -6.8284,-2.8284 5.6568,5.6568 m -5.6568,0 5.6568,-5.6568"
         style="fill:none;stroke:#00ffff;stroke-linejoin:miter"
         transform="translate(287.83,96.2046)"
         id="path323"
         inkscape:connector-curvature="0" />
      <path
         d="M 0,-4 V 4 M -4,0 h 8 m -6.8284,-2.8284 5.6568,5.6568 m -5.6568,0 5.6568,-5.6568"
         style="fill:none;stroke:#00ffff;stroke-linejoin:miter"
         transform="translate(299.92,92.3318)"
         id="path325"
         inkscape:connector-curvature="0" />
      <path
         d="M 0,-4 V 4 M -4,0 h 8 m -6.8284,-2.8284 5.6568,5.6568 m -5.6568,0 5.6568,-5.6568"
         style="fill:none;stroke:#00ffff;stroke-linejoin:miter"
         transform="translate(312.01,88.8561)"
         id="path327"
         inkscape:connector-curvature="0" />
      <path
         d="M 0,-4 V 4 M -4,0 h 8 m -6.8284,-2.8284 5.6568,5.6568 m -5.6568,0 5.6568,-5.6568"
         style="fill:none;stroke:#00ffff;stroke-linejoin:miter"
         transform="translate(324.1,84.5659)"
         id="path329"
         inkscape:connector-curvature="0" />
      <path
         d="M 0,-4 V 4 M -4,0 h 8 m -6.8284,-2.8284 5.6568,5.6568 m -5.6568,0 5.6568,-5.6568"
         style="fill:none;stroke:#00ffff;stroke-linejoin:miter"
         transform="translate(336.19,81.3681)"
         id="path331"
         inkscape:connector-curvature="0" />
      <path
         d="M 0,-4 V 4 M -4,0 h 8 m -6.8284,-2.8284 5.6568,5.6568 m -5.6568,0 5.6568,-5.6568"
         style="fill:none;stroke:#00ffff;stroke-linejoin:miter"
         transform="translate(348.28,78.7914)"
         id="path333"
         inkscape:connector-curvature="0" />
      <path
         d="M 0,-4 V 4 M -4,0 h 8 m -6.8284,-2.8284 5.6568,5.6568 m -5.6568,0 5.6568,-5.6568"
         style="fill:none;stroke:#00ffff;stroke-linejoin:miter"
         transform="translate(360.37,75.5931)"
         id="path335"
         inkscape:connector-curvature="0" />
      <path
         d="M 0,-4 V 4 M -4,0 h 8 m -6.8284,-2.8284 5.6568,5.6568 m -5.6568,0 5.6568,-5.6568"
         style="fill:none;stroke:#00ffff;stroke-linejoin:miter"
         transform="translate(372.46,71.9362)"
         id="path337"
         inkscape:connector-curvature="0" />
      <path
         d="M 0,-4 V 4 M -4,0 h 8 m -6.8284,-2.8284 5.6568,5.6568 m -5.6568,0 5.6568,-5.6568"
         style="fill:none;stroke:#00ffff;stroke-linejoin:miter"
         transform="translate(384.55,69.127)"
         id="path339"
         inkscape:connector-curvature="0" />
      <path
         d="M 0,-4 V 4 M -4,0 h 8 m -6.8284,-2.8284 5.6568,5.6568 m -5.6568,0 5.6568,-5.6568"
         style="fill:none;stroke:#00ffff;stroke-linejoin:miter"
         transform="translate(396.64,65.8936)"
         id="path341"
         inkscape:connector-curvature="0" />
      <path
         d="M 0,-4 V 4 M -4,0 h 8 m -6.8284,-2.8284 5.6568,5.6568 m -5.6568,0 5.6568,-5.6568"
         style="fill:none;stroke:#00ffff;stroke-linejoin:miter"
         transform="translate(408.73,62.6981)"
         id="path343"
         inkscape:connector-curvature="0" />
      <path
         d="M 0,-4 V 4 M -4,0 h 8 m -6.8284,-2.8284 5.6568,5.6568 m -5.6568,0 5.6568,-5.6568"
         style="fill:none;stroke:#00ffff;stroke-linejoin:miter"
         transform="translate(420.82,59.7045)"
         id="path345"
         inkscape:connector-curvature="0" />
      <path
         d="M 0,-4 V 4 M -4,0 h 8 m -6.8284,-2.8284 5.6568,5.6568 m -5.6568,0 5.6568,-5.6568"
         style="fill:none;stroke:#00ffff;stroke-linejoin:miter"
         transform="translate(434.3856,57.3161)"
         id="path347"
         inkscape:connector-curvature="0" />
      <path
         d="M 0,-4 V 4 M -4,0 h 8 m -6.8284,-2.8284 5.6568,5.6568 m -5.6568,0 5.6568,-5.6568"
         style="fill:none;stroke:#00ffff;stroke-linejoin:miter"
         transform="translate(445.1984,55.138)"
         id="path349"
         inkscape:connector-curvature="0" />
      <path
         d="m 86.33,333.1358 12.09,-68.3526 12.09,-47.3456 16.12,-36.9198 12.09,-22.2344 12.09,-12.6697 12.09,-10.3362 12.09,-8.8969 12.09,-9.155 12.09,-7.4312 10.8128,-3.4476 12.09,-7.2419 16.12,-7.8527 10.8128,-4.0038 10.8128,-3.923 12.09,-4.3114 12.09,-6.5211 16.12,-4.6565 12.09,-3.8823 12.09,-4.3227 12.09,-2.5233 12.09,-2.2385 12.09,-2.7312 12.09,-3.1038 12.09,-2.6026 12.09,-3.3235 12.09,-3.0458 12.09,-3.8218 12.09,-3.0265 12.09,-2.2144"
         style="fill:none;fill-rule:evenodd;stroke:#00ff00"
         id="path351"
         inkscape:connector-curvature="0" />
      <path
         d="m 0,-5.332 -4.6175,7.998 h 9.235 z"
         style="fill:none;stroke:#00ff00;stroke-linejoin:miter"
         transform="translate(86.33,333.1358)"
         id="path353"
         inkscape:connector-curvature="0" />
      <path
         d="m 0,-5.332 -4.6175,7.998 h 9.235 z"
         style="fill:none;stroke:#00ff00;stroke-linejoin:miter"
         transform="translate(98.42,264.7832)"
         id="path355"
         inkscape:connector-curvature="0" />
      <path
         d="m 0,-5.332 -4.6175,7.998 h 9.235 z"
         style="fill:none;stroke:#00ff00;stroke-linejoin:miter"
         transform="translate(110.51,217.4376)"
         id="path357"
         inkscape:connector-curvature="0" />
      <path
         d="m 0,-5.332 -4.6175,7.998 h 9.235 z"
         style="fill:none;stroke:#00ff00;stroke-linejoin:miter"
         transform="translate(126.63,180.5178)"
         id="path359"
         inkscape:connector-curvature="0" />
      <path
         d="m 0,-5.332 -4.6175,7.998 h 9.235 z"
         style="fill:none;stroke:#00ff00;stroke-linejoin:miter"
         transform="translate(138.72,158.2834)"
         id="path361"
         inkscape:connector-curvature="0" />
      <path
         d="m 0,-5.332 -4.6175,7.998 h 9.235 z"
         style="fill:none;stroke:#00ff00;stroke-linejoin:miter"
         transform="translate(150.81,145.6137)"
         id="path363"
         inkscape:connector-curvature="0" />
      <path
         d="m 0,-5.332 -4.6175,7.998 h 9.235 z"
         style="fill:none;stroke:#00ff00;stroke-linejoin:miter"
         transform="translate(162.9,135.2775)"
         id="path365"
         inkscape:connector-curvature="0" />
      <path
         d="m 0,-5.332 -4.6175,7.998 h 9.235 z"
         style="fill:none;stroke:#00ff00;stroke-linejoin:miter"
         transform="translate(174.99,126.3806)"
         id="path367"
         inkscape:connector-curvature="0" />
      <path
         d="m 0,-5.332 -4.6175,7.998 h 9.235 z"
         style="fill:none;stroke:#00ff00;stroke-linejoin:miter"
         transform="translate(187.08,117.2256)"
         id="path369"
         inkscape:connector-curvature="0" />
      <path
         d="m 0,-5.332 -4.6175,7.998 h 9.235 z"
         style="fill:none;stroke:#00ff00;stroke-linejoin:miter"
         transform="translate(199.17,109.7944)"
         id="path371"
         inkscape:connector-curvature="0" />
      <path
         d="m 0,-5.332 -4.6175,7.998 h 9.235 z"
         style="fill:none;stroke:#00ff00;stroke-linejoin:miter"
         transform="translate(209.9828,106.3468)"
         id="path373"
         inkscape:connector-curvature="0" />
      <path
         d="m 0,-5.332 -4.6175,7.998 h 9.235 z"
         style="fill:none;stroke:#00ff00;stroke-linejoin:miter"
         transform="translate(222.0728,99.1049)"
         id="path375"
         inkscape:connector-curvature="0" />
      <path
         d="m 0,-5.332 -4.6175,7.998 h 9.235 z"
         style="fill:none;stroke:#00ff00;stroke-linejoin:miter"
         transform="translate(238.1928,91.2522)"
         id="path377"
         inkscape:connector-curvature="0" />
      <path
         d="m 0,-5.332 -4.6175,7.998 h 9.235 z"
         style="fill:none;stroke:#00ff00;stroke-linejoin:miter"
         transform="translate(249.0056,87.2484)"
         id="path379"
         inkscape:connector-curvature="0" />
      <path
         d="m 0,-5.332 -4.6175,7.998 h 9.235 z"
         style="fill:none;stroke:#00ff00;stroke-linejoin:miter"
         transform="translate(259.8184,83.3254)"
         id="path381"
         inkscape:connector-curvature="0" />
      <path
         d="m 0,-5.332 -4.6175,7.998 h 9.235 z"
         style="fill:none;stroke:#00ff00;stroke-linejoin:miter"
         transform="translate(271.9084,79.014)"
         id="path383"
         inkscape:connector-curvature="0" />
      <path
         d="m 0,-5.332 -4.6175,7.998 h 9.235 z"
         style="fill:none;stroke:#00ff00;stroke-linejoin:miter"
         transform="translate(283.9984,72.4929)"
         id="path385"
         inkscape:connector-curvature="0" />
      <path
         d="m 0,-5.332 -4.6175,7.998 h 9.235 z"
         style="fill:none;stroke:#00ff00;stroke-linejoin:miter"
         transform="translate(300.1184,67.8364)"
         id="path387"
         inkscape:connector-curvature="0" />
      <path
         d="m 0,-5.332 -4.6175,7.998 h 9.235 z"
         style="fill:none;stroke:#00ff00;stroke-linejoin:miter"
         transform="translate(312.2084,63.9541)"
         id="path389"
         inkscape:connector-curvature="0" />
      <path
         d="m 0,-5.332 -4.6175,7.998 h 9.235 z"
         style="fill:none;stroke:#00ff00;stroke-linejoin:miter"
         transform="translate(324.2984,59.6314)"
         id="path391"
         inkscape:connector-curvature="0" />
      <path
         d="m 0,-5.332 -4.6175,7.998 h 9.235 z"
         style="fill:none;stroke:#00ff00;stroke-linejoin:miter"
         transform="translate(336.3884,57.1081)"
         id="path393"
         inkscape:connector-curvature="0" />
      <path
         d="m 0,-5.332 -4.6175,7.998 h 9.235 z"
         style="fill:none;stroke:#00ff00;stroke-linejoin:miter"
         transform="translate(348.4784,54.8696)"
         id="path395"
         inkscape:connector-curvature="0" />
      <path
         d="m 0,-5.332 -4.6175,7.998 h 9.235 z"
         style="fill:none;stroke:#00ff00;stroke-linejoin:miter"
         transform="translate(360.5684,52.1384)"
         id="path397"
         inkscape:connector-curvature="0" />
      <path
         d="m 0,-5.332 -4.6175,7.998 h 9.235 z"
         style="fill:none;stroke:#00ff00;stroke-linejoin:miter"
         transform="translate(372.6584,49.0346)"
         id="path399"
         inkscape:connector-curvature="0" />
      <path
         d="m 0,-5.332 -4.6175,7.998 h 9.235 z"
         style="fill:none;stroke:#00ff00;stroke-linejoin:miter"
         transform="translate(384.7484,46.432)"
         id="path401"
         inkscape:connector-curvature="0" />
      <path
         d="m 0,-5.332 -4.6175,7.998 h 9.235 z"
         style="fill:none;stroke:#00ff00;stroke-linejoin:miter"
         transform="translate(396.8384,43.1085)"
         id="path403"
         inkscape:connector-curvature="0" />
      <path
         d="m 0,-5.332 -4.6175,7.998 h 9.235 z"
         style="fill:none;stroke:#00ff00;stroke-linejoin:miter"
         transform="translate(408.9284,40.0627)"
         id="path405"
         inkscape:connector-curvature="0" />
      <path
         d="m 0,-5.332 -4.6175,7.998 h 9.235 z"
         style="fill:none;stroke:#00ff00;stroke-linejoin:miter"
         transform="translate(421.0184,36.2409)"
         id="path407"
         inkscape:connector-curvature="0" />
      <path
         d="m 0,-5.332 -4.6175,7.998 h 9.235 z"
         style="fill:none;stroke:#00ff00;stroke-linejoin:miter"
         transform="translate(433.1084,33.2144)"
         id="path409"
         inkscape:connector-curvature="0" />
      <path
         d="m 0,-5.332 -4.6175,7.998 h 9.235 z"
         style="fill:none;stroke:#00ff00;stroke-linejoin:miter"
         transform="translate(445.1984,31)"
         id="path411"
         inkscape:connector-curvature="0" />
      <path
         d="m 86.33,360.6162 12.09,-101.8194 12.09,-42.8567 16.12,-27.4673 12.09,-22.7093 12.09,-12.7546 12.09,-7.7582 12.09,-7.8463 12.09,-9.2627 12.09,-7.0282 12.09,-7.3775 12.09,-7.6537 12.09,-6.9038 12.09,-5.4972 12.09,-4.5526 12.09,-4.6172 16.12,-5.3901 12.09,-3.8669 10.8128,-1.707 12.09,-3.9577 12.09,-3.0838 12.09,-3.5786 12.09,-2.3332 12.09,-2.6685 12.2884,-1.7205 12.09,-2.8777 16.12,-4.4388 12.09,-3.1612 12.09,-3.0819 12.09,-2.4886"
         style="fill:none;fill-rule:evenodd;stroke:#000000"
         id="path413"
         inkscape:connector-curvature="0" />
      <path
         d="m 0,5.332 -4.6175,-7.998 h 9.235 z"
         style="fill:none;stroke:#000000;stroke-linejoin:miter"
         transform="translate(86.33,360.6162)"
         id="path415"
         inkscape:connector-curvature="0" />
      <path
         d="m 0,5.332 -4.6175,-7.998 h 9.235 z"
         style="fill:none;stroke:#000000;stroke-linejoin:miter"
         transform="translate(98.42,258.7968)"
         id="path417"
         inkscape:connector-curvature="0" />
      <path
         d="m 0,5.332 -4.6175,-7.998 h 9.235 z"
         style="fill:none;stroke:#000000;stroke-linejoin:miter"
         transform="translate(110.51,215.9401)"
         id="path419"
         inkscape:connector-curvature="0" />
      <path
         d="m 0,5.332 -4.6175,-7.998 h 9.235 z"
         style="fill:none;stroke:#000000;stroke-linejoin:miter"
         transform="translate(126.63,188.4728)"
         id="path421"
         inkscape:connector-curvature="0" />
      <path
         d="m 0,5.332 -4.6175,-7.998 h 9.235 z"
         style="fill:none;stroke:#000000;stroke-linejoin:miter"
         transform="translate(138.72,165.7635)"
         id="path423"
         inkscape:connector-curvature="0" />
      <path
         d="m 0,5.332 -4.6175,-7.998 h 9.235 z"
         style="fill:none;stroke:#000000;stroke-linejoin:miter"
         transform="translate(150.81,153.0089)"
         id="path425"
         inkscape:connector-curvature="0" />
      <path
         d="m 0,5.332 -4.6175,-7.998 h 9.235 z"
         style="fill:none;stroke:#000000;stroke-linejoin:miter"
         transform="translate(162.9,145.2507)"
         id="path427"
         inkscape:connector-curvature="0" />
      <path
         d="m 0,5.332 -4.6175,-7.998 h 9.235 z"
         style="fill:none;stroke:#000000;stroke-linejoin:miter"
         transform="translate(174.99,137.4044)"
         id="path429"
         inkscape:connector-curvature="0" />
      <path
         d="m 0,5.332 -4.6175,-7.998 h 9.235 z"
         style="fill:none;stroke:#000000;stroke-linejoin:miter"
         transform="translate(187.08,128.1417)"
         id="path431"
         inkscape:connector-curvature="0" />
      <path
         d="m 0,5.332 -4.6175,-7.998 h 9.235 z"
         style="fill:none;stroke:#000000;stroke-linejoin:miter"
         transform="translate(199.17,121.1135)"
         id="path433"
         inkscape:connector-curvature="0" />
      <path
         d="m 0,5.332 -4.6175,-7.998 h 9.235 z"
         style="fill:none;stroke:#000000;stroke-linejoin:miter"
         transform="translate(211.26,113.736)"
         id="path435"
         inkscape:connector-curvature="0" />
      <path
         d="m 0,5.332 -4.6175,-7.998 h 9.235 z"
         style="fill:none;stroke:#000000;stroke-linejoin:miter"
         transform="translate(223.35,106.0823)"
         id="path437"
         inkscape:connector-curvature="0" />
      <path
         d="m 0,5.332 -4.6175,-7.998 h 9.235 z"
         style="fill:none;stroke:#000000;stroke-linejoin:miter"
         transform="translate(235.44,99.1785)"
         id="path439"
         inkscape:connector-curvature="0" />
      <path
         d="m 0,5.332 -4.6175,-7.998 h 9.235 z"
         style="fill:none;stroke:#000000;stroke-linejoin:miter"
         transform="translate(247.53,93.6813)"
         id="path441"
         inkscape:connector-curvature="0" />
      <path
         d="m 0,5.332 -4.6175,-7.998 h 9.235 z"
         style="fill:none;stroke:#000000;stroke-linejoin:miter"
         transform="translate(259.62,89.1287)"
         id="path443"
         inkscape:connector-curvature="0" />
      <path
         d="m 0,5.332 -4.6175,-7.998 h 9.235 z"
         style="fill:none;stroke:#000000;stroke-linejoin:miter"
         transform="translate(271.71,84.5115)"
         id="path445"
         inkscape:connector-curvature="0" />
      <path
         d="m 0,5.332 -4.6175,-7.998 h 9.235 z"
         style="fill:none;stroke:#000000;stroke-linejoin:miter"
         transform="translate(287.83,79.1214)"
         id="path447"
         inkscape:connector-curvature="0" />
      <path
         d="m 0,5.332 -4.6175,-7.998 h 9.235 z"
         style="fill:none;stroke:#000000;stroke-linejoin:miter"
         transform="translate(299.92,75.2545)"
         id="path449"
         inkscape:connector-curvature="0" />
      <path
         d="m 0,5.332 -4.6175,-7.998 h 9.235 z"
         style="fill:none;stroke:#000000;stroke-linejoin:miter"
         transform="translate(310.7328,73.5475)"
         id="path451"
         inkscape:connector-curvature="0" />
      <path
         d="m 0,5.332 -4.6175,-7.998 h 9.235 z"
         style="fill:none;stroke:#000000;stroke-linejoin:miter"
         transform="translate(322.8228,69.5898)"
         id="path453"
         inkscape:connector-curvature="0" />
      <path
         d="m 0,5.332 -4.6175,-7.998 h 9.235 z"
         style="fill:none;stroke:#000000;stroke-linejoin:miter"
         transform="translate(334.9128,66.506)"
         id="path455"
         inkscape:connector-curvature="0" />
      <path
         d="m 0,5.332 -4.6175,-7.998 h 9.235 z"
         style="fill:none;stroke:#000000;stroke-linejoin:miter"
         transform="translate(347.0028,62.9274)"
         id="path457"
         inkscape:connector-curvature="0" />
      <path
         d="m 0,5.332 -4.6175,-7.998 h 9.235 z"
         style="fill:none;stroke:#000000;stroke-linejoin:miter"
         transform="translate(359.0928,60.5942)"
         id="path459"
         inkscape:connector-curvature="0" />
      <path
         d="m 0,5.332 -4.6175,-7.998 h 9.235 z"
         style="fill:none;stroke:#000000;stroke-linejoin:miter"
         transform="translate(371.1828,57.9257)"
         id="path461"
         inkscape:connector-curvature="0" />
      <path
         d="m 0,5.332 -4.6175,-7.998 h 9.235 z"
         style="fill:none;stroke:#000000;stroke-linejoin:miter"
         transform="translate(383.4712,56.2052)"
         id="path463"
         inkscape:connector-curvature="0" />
      <path
         d="m 0,5.332 -4.6175,-7.998 h 9.235 z"
         style="fill:none;stroke:#000000;stroke-linejoin:miter"
         transform="translate(395.5612,53.3275)"
         id="path465"
         inkscape:connector-curvature="0" />
      <path
         d="m 0,5.332 -4.6175,-7.998 h 9.235 z"
         style="fill:none;stroke:#000000;stroke-linejoin:miter"
         transform="translate(411.6812,48.8887)"
         id="path467"
         inkscape:connector-curvature="0" />
      <path
         d="m 0,5.332 -4.6175,-7.998 h 9.235 z"
         style="fill:none;stroke:#000000;stroke-linejoin:miter"
         transform="translate(423.7712,45.7275)"
         id="path469"
         inkscape:connector-curvature="0" />
      <path
         d="m 0,5.332 -4.6175,-7.998 h 9.235 z"
         style="fill:none;stroke:#000000;stroke-linejoin:miter"
         transform="translate(435.8612,42.6456)"
         id="path471"
         inkscape:connector-curvature="0" />
      <path
         d="m 0,5.332 -4.6175,-7.998 h 9.235 z"
         style="fill:none;stroke:#000000;stroke-linejoin:miter"
         transform="translate(447.9512,40.157)"
         id="path473"
         inkscape:connector-curvature="0" />
    </g>
    <g
       style="color-interpolation:sRGB;fill:#ffffff;stroke:#ffffff;color-rendering:optimizeSpeed;image-rendering:optimizeSpeed;shape-rendering:crispEdges;text-rendering:optimizeSpeed"
       id="g479">
      <path
         style="stroke:none"
         d="M 482,174 V 93 h -88 v 81 z"
         id="path477"
         inkscape:connector-curvature="0" />
    </g>
    <g
       transform="translate(441,108)"
       style="font-family:mwb_cmmi10;color-interpolation:linearRGB;color-rendering:optimizeQuality;image-rendering:optimizeQuality;text-rendering:geometricPrecision"
       id="g483">
      <path
         style="stroke:none"
         d="m 3.5469,2.3438 q 0,-0.2657 0.1172,-0.7813 Q 3.7812,1.0469 3.9531,0.4609 4.125,-0.125 4.25,-0.5 4.2969,-1.0938 4.2969,-1.3906 4.2969,-2.1719 4.1406,-2.8359 3.9844,-3.5 3.5625,-3.9453 3.1406,-4.3906 2.3906,-4.3906 2,-4.3906 1.6016,-4.2266 1.2031,-4.0625 0.9219,-3.7578 0.6406,-3.4531 0.5312,-3.0625 0.5,-2.9844 0.4375,-2.9844 H 0.2812 q -0.0937,0 -0.0937,-0.1094 v -0.0468 q 0.1406,-0.5313 0.4844,-1.0313 0.3437,-0.5 0.8359,-0.8125 Q 2,-5.2969 2.5625,-5.2969 q 0.5625,0 0.9687,0.375 0.4063,0.375 0.6563,0.961 0.25,0.5859 0.3516,1.1875 0.1015,0.6015 0.1015,1.1328 Q 5.25,-3.2812 6,-4.75 L 6.1875,-5.1406 Q 6.2188,-5.1719 6.2656,-5.1719 H 6.4062 Q 6.5,-5.1719 6.5,-5.0625 6.5,-5.0469 6.4844,-5 l -0.1875,0.375 q -0.5157,1.0469 -0.9531,2.1094 -0.4376,1.0625 -0.75,2.0625 -0.0469,0.4062 -0.1797,1.1093 -0.1329,0.7032 -0.3203,1.3047 -0.1876,0.6016 -0.375,0.6329 -0.1719,0 -0.1719,-0.25 z"
         id="path481"
         inkscape:connector-curvature="0" />
    </g>
    <g
       transform="translate(448,108)"
       style="font-family:SansSerif;color-interpolation:linearRGB;color-rendering:optimizeQuality;image-rendering:optimizeQuality;text-rendering:geometricPrecision"
       id="g487">
      <path
         style="stroke:none"
         d="m 1.2656,-5.4531 h 7.5156 v 0.9843 H 1.2656 Z m 0,2.3906 h 7.5156 v 1 H 1.2656 Z m 12.6016,-4.9063 q -0.9063,0 -1.3672,0.8985 -0.4609,0.8984 -0.4609,2.7109 0,1.7969 0.4609,2.6953 0.4609,0.8985 1.3672,0.8985 0.9219,0 1.3828,-0.8985 0.4609,-0.8984 0.4609,-2.6953 0,-1.8125 -0.4609,-2.7109 -0.4609,-0.8985 -1.3828,-0.8985 z m 0,-0.9374 q 1.4687,0 2.25,1.164 0.7812,1.1641 0.7812,3.3828 0,2.2032 -0.7812,3.3672 -0.7813,1.1641 -2.25,1.1641 -1.4688,0 -2.2422,-1.1641 -0.7734,-1.164 -0.7734,-3.3672 0,-2.2187 0.7734,-3.3828 0.7734,-1.164 2.2422,-1.164 z m 5.1035,7.4218 h 1.2344 V 0 H 18.9707 Z M 22.9883,-1 h 1.9375 V -7.6719 L 22.8164,-7.25 V -8.3281 L 24.9102,-8.75 h 1.1875 V -1 h 1.9375 v 1 h -5.0469 z"
         id="path485"
         inkscape:connector-curvature="0" />
    </g>
    <g
       style="color-interpolation:linearRGB;fill:#0000ff;stroke:#0000ff;stroke-width:2.66669989;stroke-linecap:butt;stroke-linejoin:round;color-rendering:optimizeQuality;image-rendering:optimizeQuality;text-rendering:geometricPrecision"
       id="g493">
      <line
         y2="102.5"
         style="fill:none"
         x1="398"
         x2="438"
         y1="102.5"
         id="line489" />
      <circle
         transform="translate(418,102.5)"
         style="fill:none;stroke-linejoin:miter"
         r="4"
         cx="0"
         cy="0"
         id="circle491" />
    </g>
    <g
       transform="translate(441,123)"
       style="font-family:mwb_cmmi10;color-interpolation:linearRGB;color-rendering:optimizeQuality;image-rendering:optimizeQuality;text-rendering:geometricPrecision"
       id="g497">
      <path
         style="stroke:none"
         d="m 3.5469,2.3438 q 0,-0.2657 0.1172,-0.7813 Q 3.7812,1.0469 3.9531,0.4609 4.125,-0.125 4.25,-0.5 4.2969,-1.0938 4.2969,-1.3906 4.2969,-2.1719 4.1406,-2.8359 3.9844,-3.5 3.5625,-3.9453 3.1406,-4.3906 2.3906,-4.3906 2,-4.3906 1.6016,-4.2266 1.2031,-4.0625 0.9219,-3.7578 0.6406,-3.4531 0.5312,-3.0625 0.5,-2.9844 0.4375,-2.9844 H 0.2812 q -0.0937,0 -0.0937,-0.1094 v -0.0468 q 0.1406,-0.5313 0.4844,-1.0313 0.3437,-0.5 0.8359,-0.8125 Q 2,-5.2969 2.5625,-5.2969 q 0.5625,0 0.9687,0.375 0.4063,0.375 0.6563,0.961 0.25,0.5859 0.3516,1.1875 0.1015,0.6015 0.1015,1.1328 Q 5.25,-3.2812 6,-4.75 L 6.1875,-5.1406 Q 6.2188,-5.1719 6.2656,-5.1719 H 6.4062 Q 6.5,-5.1719 6.5,-5.0625 6.5,-5.0469 6.4844,-5 l -0.1875,0.375 q -0.5157,1.0469 -0.9531,2.1094 -0.4376,1.0625 -0.75,2.0625 -0.0469,0.4062 -0.1797,1.1093 -0.1329,0.7032 -0.3203,1.3047 -0.1876,0.6016 -0.375,0.6329 -0.1719,0 -0.1719,-0.25 z"
         id="path495"
         inkscape:connector-curvature="0" />
    </g>
    <g
       transform="translate(448,123)"
       style="font-family:SansSerif;color-interpolation:linearRGB;color-rendering:optimizeQuality;image-rendering:optimizeQuality;text-rendering:geometricPrecision"
       id="g501">
      <path
         style="stroke:none"
         d="m 1.2656,-5.4531 h 7.5156 v 0.9843 H 1.2656 Z m 0,2.3906 h 7.5156 v 1 H 1.2656 Z m 12.6016,-4.9063 q -0.9063,0 -1.3672,0.8985 -0.4609,0.8984 -0.4609,2.7109 0,1.7969 0.4609,2.6953 0.4609,0.8985 1.3672,0.8985 0.9219,0 1.3828,-0.8985 0.4609,-0.8984 0.4609,-2.6953 0,-1.8125 -0.4609,-2.7109 -0.4609,-0.8985 -1.3828,-0.8985 z m 0,-0.9374 q 1.4687,0 2.25,1.164 0.7812,1.1641 0.7812,3.3828 0,2.2032 -0.7812,3.3672 -0.7813,1.1641 -2.25,1.1641 -1.4688,0 -2.2422,-1.1641 -0.7734,-1.164 -0.7734,-3.3672 0,-2.2187 0.7734,-3.3828 0.7734,-1.164 2.2422,-1.164 z m 5.1035,7.4218 h 1.2344 V 0 H 18.9707 Z M 23.8008,-1 h 4.1406 v 1 h -5.5625 v -1 q 0.6719,-0.6875 1.8359,-1.8672 1.1641,-1.1797 1.461,-1.5234 0.5781,-0.625 0.8047,-1.0703 0.2265,-0.4453 0.2265,-0.8672 0,-0.7031 -0.4922,-1.1407 -0.4921,-0.4374 -1.2734,-0.4374 -0.5625,0 -1.1797,0.1874 -0.6172,0.1876 -1.3203,0.5938 v -1.2031 q 0.7188,-0.2813 1.3359,-0.4297 0.6172,-0.1484 1.1329,-0.1484 1.3593,0 2.1718,0.6796 0.8125,0.6797 0.8125,1.8204 0,0.5312 -0.2031,1.0156 -0.2031,0.4844 -0.7344,1.1406 -0.1562,0.1719 -0.9375,0.9844 Q 25.2383,-2.4531 23.8008,-1 Z"
         id="path499"
         inkscape:connector-curvature="0" />
    </g>
    <g
       style="color-interpolation:linearRGB;fill:#ff0000;stroke:#ff0000;stroke-width:2.66669989;stroke-linecap:butt;stroke-linejoin:round;color-rendering:optimizeQuality;image-rendering:optimizeQuality;text-rendering:geometricPrecision"
       id="g507">
      <line
         y2="118"
         style="fill:none"
         x1="398"
         x2="438"
         y1="118"
         id="line503" />
      <path
         d="M -3,-3 V 3 H 3 V -3 Z"
         style="fill:none;stroke-linejoin:miter"
         transform="translate(418,118)"
         id="path505"
         inkscape:connector-curvature="0" />
    </g>
    <g
       transform="translate(441,139)"
       style="font-family:mwb_cmmi10;color-interpolation:linearRGB;color-rendering:optimizeQuality;image-rendering:optimizeQuality;text-rendering:geometricPrecision"
       id="g511">
      <path
         style="stroke:none"
         d="m 3.5469,2.3438 q 0,-0.2657 0.1172,-0.7813 Q 3.7812,1.0469 3.9531,0.4609 4.125,-0.125 4.25,-0.5 4.2969,-1.0938 4.2969,-1.3906 4.2969,-2.1719 4.1406,-2.8359 3.9844,-3.5 3.5625,-3.9453 3.1406,-4.3906 2.3906,-4.3906 2,-4.3906 1.6016,-4.2266 1.2031,-4.0625 0.9219,-3.7578 0.6406,-3.4531 0.5312,-3.0625 0.5,-2.9844 0.4375,-2.9844 H 0.2812 q -0.0937,0 -0.0937,-0.1094 v -0.0468 q 0.1406,-0.5313 0.4844,-1.0313 0.3437,-0.5 0.8359,-0.8125 Q 2,-5.2969 2.5625,-5.2969 q 0.5625,0 0.9687,0.375 0.4063,0.375 0.6563,0.961 0.25,0.5859 0.3516,1.1875 0.1015,0.6015 0.1015,1.1328 Q 5.25,-3.2812 6,-4.75 L 6.1875,-5.1406 Q 6.2188,-5.1719 6.2656,-5.1719 H 6.4062 Q 6.5,-5.1719 6.5,-5.0625 6.5,-5.0469 6.4844,-5 l -0.1875,0.375 q -0.5157,1.0469 -0.9531,2.1094 -0.4376,1.0625 -0.75,2.0625 -0.0469,0.4062 -0.1797,1.1093 -0.1329,0.7032 -0.3203,1.3047 -0.1876,0.6016 -0.375,0.6329 -0.1719,0 -0.1719,-0.25 z"
         id="path509"
         inkscape:connector-curvature="0" />
    </g>
    <g
       transform="translate(448,139)"
       style="font-family:SansSerif;color-interpolation:linearRGB;color-rendering:optimizeQuality;image-rendering:optimizeQuality;text-rendering:geometricPrecision"
       id="g515">
      <path
         style="stroke:none"
         d="m 1.2656,-5.4531 h 7.5156 v 0.9843 H 1.2656 Z m 0,2.3906 h 7.5156 v 1 H 1.2656 Z m 12.6016,-4.9063 q -0.9063,0 -1.3672,0.8985 -0.4609,0.8984 -0.4609,2.7109 0,1.7969 0.4609,2.6953 0.4609,0.8985 1.3672,0.8985 0.9219,0 1.3828,-0.8985 0.4609,-0.8984 0.4609,-2.6953 0,-1.8125 -0.4609,-2.7109 -0.4609,-0.8985 -1.3828,-0.8985 z m 0,-0.9374 q 1.4687,0 2.25,1.164 0.7812,1.1641 0.7812,3.3828 0,2.2032 -0.7812,3.3672 -0.7813,1.1641 -2.25,1.1641 -1.4688,0 -2.2422,-1.1641 -0.7734,-1.164 -0.7734,-3.3672 0,-2.2187 0.7734,-3.3828 0.7734,-1.164 2.2422,-1.164 z m 5.1035,7.4218 h 1.2344 V 0 h -1.2344 z m 7.4082,-3.2344 q 0.8438,0.1876 1.3203,0.7579 0.4766,0.5703 0.4766,1.414 0,1.2969 -0.8906,2.0078 -0.8907,0.711 -2.5313,0.711 -0.5469,0 -1.1328,-0.1094 -0.5859,-0.1094 -1.1953,-0.3281 v -1.1406 q 0.4844,0.2812 1.0703,0.4296 0.5859,0.1485 1.2266,0.1485 1.1093,0 1.6953,-0.4375 0.5859,-0.4375 0.5859,-1.2813 0,-0.7656 -0.5469,-1.2031 -0.5468,-0.4375 -1.5,-0.4375 h -1.0312 v -0.9687 h 1.0781 q 0.8594,0 1.3281,-0.3516 0.4688,-0.3516 0.4688,-1.0078 0,-0.6719 -0.4766,-1.0313 -0.4765,-0.3593 -1.3672,-0.3593 -0.5,0 -1.0547,0.1015 -0.5546,0.1016 -1.2265,0.3203 v -1.0468 q 0.6875,-0.1876 1.2734,-0.2813 0.586,-0.0937 1.1016,-0.0937 1.3594,0 2.1406,0.6093 0.7813,0.6094 0.7813,1.6563 0,0.7344 -0.4141,1.2344 -0.4141,0.5 -1.1797,0.6874 z"
         id="path513"
         inkscape:connector-curvature="0" />
    </g>
    <g
       style="color-interpolation:linearRGB;fill:#00ffff;stroke:#00ffff;stroke-width:2.66669989;stroke-linecap:butt;stroke-linejoin:round;color-rendering:optimizeQuality;image-rendering:optimizeQuality;text-rendering:geometricPrecision"
       id="g521">
      <line
         y2="133.5"
         style="fill:none"
         x1="398"
         x2="438"
         y1="133.5"
         id="line517" />
      <path
         d="M 0,-4 V 4 M -4,0 h 8 m -6.8284,-2.8284 5.6568,5.6568 m -5.6568,0 5.6568,-5.6568"
         style="fill:none;stroke-linejoin:miter"
         transform="translate(418,133.5)"
         id="path519"
         inkscape:connector-curvature="0" />
    </g>
    <g
       transform="translate(441,154)"
       style="font-family:mwb_cmmi10;color-interpolation:linearRGB;color-rendering:optimizeQuality;image-rendering:optimizeQuality;text-rendering:geometricPrecision"
       id="g525">
      <path
         style="stroke:none"
         d="m 3.5469,2.3438 q 0,-0.2657 0.1172,-0.7813 Q 3.7812,1.0469 3.9531,0.4609 4.125,-0.125 4.25,-0.5 4.2969,-1.0938 4.2969,-1.3906 4.2969,-2.1719 4.1406,-2.8359 3.9844,-3.5 3.5625,-3.9453 3.1406,-4.3906 2.3906,-4.3906 2,-4.3906 1.6016,-4.2266 1.2031,-4.0625 0.9219,-3.7578 0.6406,-3.4531 0.5312,-3.0625 0.5,-2.9844 0.4375,-2.9844 H 0.2812 q -0.0937,0 -0.0937,-0.1094 v -0.0468 q 0.1406,-0.5313 0.4844,-1.0313 0.3437,-0.5 0.8359,-0.8125 Q 2,-5.2969 2.5625,-5.2969 q 0.5625,0 0.9687,0.375 0.4063,0.375 0.6563,0.961 0.25,0.5859 0.3516,1.1875 0.1015,0.6015 0.1015,1.1328 Q 5.25,-3.2812 6,-4.75 L 6.1875,-5.1406 Q 6.2188,-5.1719 6.2656,-5.1719 H 6.4062 Q 6.5,-5.1719 6.5,-5.0625 6.5,-5.0469 6.4844,-5 l -0.1875,0.375 q -0.5157,1.0469 -0.9531,2.1094 -0.4376,1.0625 -0.75,2.0625 -0.0469,0.4062 -0.1797,1.1093 -0.1329,0.7032 -0.3203,1.3047 -0.1876,0.6016 -0.375,0.6329 -0.1719,0 -0.1719,-0.25 z"
         id="path523"
         inkscape:connector-curvature="0" />
    </g>
    <g
       transform="translate(448,154)"
       style="font-family:SansSerif;color-interpolation:linearRGB;color-rendering:optimizeQuality;image-rendering:optimizeQuality;text-rendering:geometricPrecision"
       id="g529">
      <path
         style="stroke:none"
         d="m 1.2656,-5.4531 h 7.5156 v 0.9843 H 1.2656 Z m 0,2.3906 h 7.5156 v 1 H 1.2656 Z m 12.6016,-4.9063 q -0.9063,0 -1.3672,0.8985 -0.4609,0.8984 -0.4609,2.7109 0,1.7969 0.4609,2.6953 0.4609,0.8985 1.3672,0.8985 0.9219,0 1.3828,-0.8985 0.4609,-0.8984 0.4609,-2.6953 0,-1.8125 -0.4609,-2.7109 -0.4609,-0.8985 -1.3828,-0.8985 z m 0,-0.9374 q 1.4687,0 2.25,1.164 0.7812,1.1641 0.7812,3.3828 0,2.2032 -0.7812,3.3672 -0.7813,1.1641 -2.25,1.1641 -1.4688,0 -2.2422,-1.1641 -0.7734,-1.164 -0.7734,-3.3672 0,-2.2187 0.7734,-3.3828 0.7734,-1.164 2.2422,-1.164 z m 5.1035,7.4218 h 1.2344 V 0 h -1.2344 z m 7.0645,-6.2344 -2.9844,4.6719 h 2.9844 z M 25.7227,-8.75 h 1.5 v 5.7031 h 1.25 v 0.9844 h -1.25 V 0 h -1.1875 v -2.0625 h -3.9375 v -1.1406 z"
         id="path527"
         inkscape:connector-curvature="0" />
    </g>
    <g
       style="color-interpolation:linearRGB;fill:#00ff00;stroke:#00ff00;stroke-width:2.66669989;stroke-linecap:butt;stroke-linejoin:round;color-rendering:optimizeQuality;image-rendering:optimizeQuality;text-rendering:geometricPrecision"
       id="g535">
      <line
         y2="149"
         style="fill:none"
         x1="398"
         x2="438"
         y1="149"
         id="line531" />
      <path
         d="m 0,-5.332 -4.6175,7.998 h 9.235 z"
         style="fill:none;stroke-linejoin:miter"
         transform="translate(418,149)"
         id="path533"
         inkscape:connector-curvature="0" />
    </g>
    <g
       transform="translate(441,170)"
       style="font-family:mwb_cmmi10;color-interpolation:linearRGB;color-rendering:optimizeQuality;image-rendering:optimizeQuality;text-rendering:geometricPrecision"
       id="g539">
      <path
         style="stroke:none"
         d="m 3.5469,2.3438 q 0,-0.2657 0.1172,-0.7813 Q 3.7812,1.0469 3.9531,0.4609 4.125,-0.125 4.25,-0.5 4.2969,-1.0938 4.2969,-1.3906 4.2969,-2.1719 4.1406,-2.8359 3.9844,-3.5 3.5625,-3.9453 3.1406,-4.3906 2.3906,-4.3906 2,-4.3906 1.6016,-4.2266 1.2031,-4.0625 0.9219,-3.7578 0.6406,-3.4531 0.5312,-3.0625 0.5,-2.9844 0.4375,-2.9844 H 0.2812 q -0.0937,0 -0.0937,-0.1094 v -0.0468 q 0.1406,-0.5313 0.4844,-1.0313 0.3437,-0.5 0.8359,-0.8125 Q 2,-5.2969 2.5625,-5.2969 q 0.5625,0 0.9687,0.375 0.4063,0.375 0.6563,0.961 0.25,0.5859 0.3516,1.1875 0.1015,0.6015 0.1015,1.1328 Q 5.25,-3.2812 6,-4.75 L 6.1875,-5.1406 Q 6.2188,-5.1719 6.2656,-5.1719 H 6.4062 Q 6.5,-5.1719 6.5,-5.0625 6.5,-5.0469 6.4844,-5 l -0.1875,0.375 q -0.5157,1.0469 -0.9531,2.1094 -0.4376,1.0625 -0.75,2.0625 -0.0469,0.4062 -0.1797,1.1093 -0.1329,0.7032 -0.3203,1.3047 -0.1876,0.6016 -0.375,0.6329 -0.1719,0 -0.1719,-0.25 z"
         id="path537"
         inkscape:connector-curvature="0" />
    </g>
    <g
       transform="translate(448,170)"
       style="font-family:SansSerif;color-interpolation:linearRGB;color-rendering:optimizeQuality;image-rendering:optimizeQuality;text-rendering:geometricPrecision"
       id="g543">
      <path
         style="stroke:none"
         d="m 1.2656,-5.4531 h 7.5156 v 0.9843 H 1.2656 Z m 0,2.3906 h 7.5156 v 1 H 1.2656 Z m 12.6016,-4.9063 q -0.9063,0 -1.3672,0.8985 -0.4609,0.8984 -0.4609,2.7109 0,1.7969 0.4609,2.6953 0.4609,0.8985 1.3672,0.8985 0.9219,0 1.3828,-0.8985 0.4609,-0.8984 0.4609,-2.6953 0,-1.8125 -0.4609,-2.7109 -0.4609,-0.8985 -1.3828,-0.8985 z m 0,-0.9374 q 1.4687,0 2.25,1.164 0.7812,1.1641 0.7812,3.3828 0,2.2032 -0.7812,3.3672 -0.7813,1.1641 -2.25,1.1641 -1.4688,0 -2.2422,-1.1641 -0.7734,-1.164 -0.7734,-3.3672 0,-2.2187 0.7734,-3.3828 0.7734,-1.164 2.2422,-1.164 z m 5.1035,7.4218 h 1.2344 V 0 H 18.9707 Z M 22.8008,-8.75 h 4.6406 v 1 h -3.5625 v 2.1406 q 0.2656,-0.0937 0.5234,-0.1328 0.2579,-0.039 0.5079,-0.039 1.4687,0 2.3281,0.8046 0.8594,0.8047 0.8594,2.1641 0,1.4219 -0.8829,2.2031 -0.8828,0.7813 -2.4765,0.7813 -0.5625,0 -1.1328,-0.0938 -0.5703,-0.0937 -1.1797,-0.2812 v -1.1875 q 0.5312,0.2812 1.0937,0.4218 0.5625,0.1407 1.1875,0.1407 1.0157,0 1.6094,-0.5313 0.5938,-0.5312 0.5938,-1.4531 0,-0.9063 -0.5938,-1.4375 -0.5937,-0.5312 -1.6094,-0.5312 -0.4687,0 -0.9453,0.1015 -0.4765,0.1016 -0.9609,0.3203 z"
         id="path541"
         inkscape:connector-curvature="0" />
    </g>
    <g
       style="color-interpolation:linearRGB;stroke-width:2.66669989;stroke-linecap:butt;stroke-linejoin:round;color-rendering:optimizeQuality;image-rendering:optimizeQuality;text-rendering:geometricPrecision"
       id="g549">
      <line
         y2="164.5"
         style="fill:none"
         x1="398"
         x2="438"
         y1="164.5"
         id="line545" />
      <path
         d="m 0,5.332 -4.6175,-7.998 h 9.235 z"
         style="fill:none;stroke-linejoin:miter"
         transform="translate(418,164.5)"
         id="path547"
         inkscape:connector-curvature="0" />
    </g>
    <g
       style="color-interpolation:linearRGB;fill:#262626;stroke:#262626;stroke-width:0.66670001;stroke-linecap:butt;color-rendering:optimizeQuality;image-rendering:optimizeQuality;text-rendering:geometricPrecision"
       id="g553">
      <path
         d="M 394,174 V 93 h 88 v 81 z"
         style="fill:none;fill-rule:evenodd"
         id="path551"
         inkscape:connector-curvature="0" />
    </g>
  </g>
</svg>
