<?xml version="1.0" encoding="UTF-8" standalone="no"?>
<svg
   xmlns:dc="http://purl.org/dc/elements/1.1/"
   xmlns:cc="http://creativecommons.org/ns#"
   xmlns:rdf="http://www.w3.org/1999/02/22-rdf-syntax-ns#"
   xmlns:svg="http://www.w3.org/2000/svg"
   xmlns="http://www.w3.org/2000/svg"
   xmlns:sodipodi="http://sodipodi.sourceforge.net/DTD/sodipodi-0.dtd"
   xmlns:inkscape="http://www.inkscape.org/namespaces/inkscape"
   style="font-style:normal;font-weight:normal;font-size:12px;font-family:Dialog;color-interpolation:auto;fill:#000000;fill-opacity:1;stroke:#000000;stroke-width:1;stroke-linecap:square;stroke-linejoin:miter;stroke-miterlimit:10;stroke-dasharray:none;stroke-dashoffset:0;stroke-opacity:1;color-rendering:auto;image-rendering:auto;shape-rendering:auto;text-rendering:auto"
   width="513.0542"
   height="400.79169"
   version="1.1"
   id="svg395"
   sodipodi:docname="energy_01.svg"
   inkscape:version="0.92.4 (f8dce91, 2019-08-02)">
  <metadata
     id="metadata399">
    <rdf:RDF>
      <cc:Work
         rdf:about="">
        <dc:format>image/svg+xml</dc:format>
        <dc:type
           rdf:resource="http://purl.org/dc/dcmitype/StillImage" />
        <dc:title></dc:title>
      </cc:Work>
    </rdf:RDF>
  </metadata>
  <sodipodi:namedview
     pagecolor="#ffffff"
     bordercolor="#666666"
     borderopacity="1"
     objecttolerance="10"
     gridtolerance="10"
     guidetolerance="10"
     inkscape:pageopacity="0"
     inkscape:pageshadow="2"
     inkscape:window-width="759"
     inkscape:window-height="480"
     id="namedview397"
     showgrid="false"
     fit-margin-top="0"
     fit-margin-left="0"
     fit-margin-right="0"
     fit-margin-bottom="0"
     inkscape:zoom="0.56190476"
     inkscape:cx="229.68628"
     inkscape:cy="203.6511"
     inkscape:window-x="507"
     inkscape:window-y="162"
     inkscape:window-maximized="0"
     inkscape:current-layer="g393" />
  <!--Generated by the Batik Graphics2D SVG Generator-->
  <defs
     id="genericDefs" />
  <g
     id="g393"
     transform="translate(-5.2917,-12.8594)">
    <defs
       id="defs1">
      <clipPath
         clipPathUnits="userSpaceOnUse"
         id="clipPath1">
        <path
           d="M 0,0 H 560 V 420 H 0 Z"
           id="path3"
           inkscape:connector-curvature="0" />
      </clipPath>
    </defs>
    <g
       style="color-interpolation:linearRGB;fill:#262626;fill-opacity:0.14900004;stroke:#262626;stroke-width:0.66670001;stroke-linecap:butt;stroke-linejoin:round;stroke-opacity:0.14900004;color-rendering:optimizeQuality;image-rendering:optimizeQuality;text-rendering:geometricPrecision"
       id="g65">
      <line
         y2="31"
         style="fill:none"
         x1="73"
         x2="73"
         y1="374"
         id="line17" />
      <line
         y2="31"
         style="fill:none"
         x1="135"
         x2="135"
         y1="374"
         id="line19" />
      <line
         y2="31"
         style="fill:none"
         x1="197"
         x2="197"
         y1="374"
         id="line21" />
      <line
         y2="31"
         style="fill:none"
         x1="259"
         x2="259"
         y1="374"
         id="line23" />
      <line
         y2="31"
         style="fill:none"
         x1="321"
         x2="321"
         y1="374"
         id="line25" />
      <line
         y2="31"
         style="fill:none"
         x1="383"
         x2="383"
         y1="374"
         id="line27" />
      <line
         y2="31"
         style="fill:none"
         x1="445"
         x2="445"
         y1="374"
         id="line29" />
      <line
         y2="31"
         style="fill:none"
         x1="507"
         x2="507"
         y1="374"
         id="line31" />
      <line
         y2="374"
         style="fill:none"
         x1="507"
         x2="73"
         y1="374"
         id="line33" />
      <line
         y2="316.83331"
         style="fill:none"
         x1="507"
         x2="73"
         y1="316.83331"
         id="line35" />
      <line
         y2="259.66669"
         style="fill:none"
         x1="507"
         x2="73"
         y1="259.66669"
         id="line37" />
      <line
         y2="202.5"
         style="fill:none"
         x1="507"
         x2="73"
         y1="202.5"
         id="line39" />
      <line
         y2="145.3333"
         style="fill:none"
         x1="507"
         x2="73"
         y1="145.3333"
         id="line41" />
      <line
         y2="88.166702"
         style="fill:none"
         x1="507"
         x2="73"
         y1="88.166702"
         id="line43" />
      <line
         y2="31"
         style="fill:none"
         x1="507"
         x2="73"
         y1="31"
         id="line45" />
      <line
         x1="73"
         x2="507"
         y1="374"
         style="fill:none;fill-opacity:1;stroke-linecap:square;stroke-opacity:1"
         y2="374"
         id="line47" />
      <line
         x1="73"
         x2="73"
         y1="374"
         style="fill:none;fill-opacity:1;stroke-linecap:square;stroke-opacity:1"
         y2="369.66"
         id="line49" />
      <line
         x1="135"
         x2="135"
         y1="374"
         style="fill:none;fill-opacity:1;stroke-linecap:square;stroke-opacity:1"
         y2="369.66"
         id="line51" />
      <line
         x1="197"
         x2="197"
         y1="374"
         style="fill:none;fill-opacity:1;stroke-linecap:square;stroke-opacity:1"
         y2="369.66"
         id="line53" />
      <line
         x1="259"
         x2="259"
         y1="374"
         style="fill:none;fill-opacity:1;stroke-linecap:square;stroke-opacity:1"
         y2="369.66"
         id="line55" />
      <line
         x1="321"
         x2="321"
         y1="374"
         style="fill:none;fill-opacity:1;stroke-linecap:square;stroke-opacity:1"
         y2="369.66"
         id="line57" />
      <line
         x1="383"
         x2="383"
         y1="374"
         style="fill:none;fill-opacity:1;stroke-linecap:square;stroke-opacity:1"
         y2="369.66"
         id="line59" />
      <line
         x1="445"
         x2="445"
         y1="374"
         style="fill:none;fill-opacity:1;stroke-linecap:square;stroke-opacity:1"
         y2="369.66"
         id="line61" />
      <line
         x1="507"
         x2="507"
         y1="374"
         style="fill:none;fill-opacity:1;stroke-linecap:square;stroke-opacity:1"
         y2="369.66"
         id="line63" />
    </g>
    <g
       transform="translate(73,379.3333)"
       style="font-size:13.33329964px;font-family:SansSerif;color-interpolation:linearRGB;fill:#262626;stroke:#262626;color-rendering:optimizeQuality;image-rendering:optimizeQuality;text-rendering:geometricPrecision"
       id="g69">
      <path
         style="stroke:none"
         d="m -0.375,4.3594 q -0.9844,0 -1.4844,0.9765 -0.5,0.9766 -0.5,2.9297 0,1.9532 0.5,2.9297 0.5,0.9766 1.4844,0.9766 1,0 1.5,-0.9766 0.5,-0.9765 0.5,-2.9297 0,-1.9531 -0.5,-2.9297 -0.5,-0.9765 -1.5,-0.9765 z m 0,-1.0156 q 1.5938,0 2.4375,1.2656 0.8437,1.2656 0.8437,3.6562 0,2.3906 -0.8437,3.6563 -0.8437,1.2656 -2.4375,1.2656 -1.5781,0 -2.4219,-1.2656 -0.8437,-1.2657 -0.8437,-3.6563 0,-2.3906 0.8437,-3.6562 0.8438,-1.2656 2.4219,-1.2656 z"
         id="path67"
         inkscape:connector-curvature="0" />
    </g>
    <g
       transform="translate(135,379.3333)"
       style="font-size:13.33329964px;font-family:SansSerif;color-interpolation:linearRGB;fill:#262626;stroke:#262626;color-rendering:optimizeQuality;image-rendering:optimizeQuality;text-rendering:geometricPrecision"
       id="g73">
      <path
         style="stroke:none"
         d="m -11.3906,11.9219 h 2.0937 V 4.6875 l -2.2812,0.4531 V 3.9844 l 2.2656,-0.4688 h 1.2969 v 8.4063 h 2.0937 V 13 h -5.4687 z M -0.4052,4.3594 q -0.9844,0 -1.4844,0.9765 -0.5,0.9766 -0.5,2.9297 0,1.9532 0.5,2.9297 0.5,0.9766 1.4844,0.9766 1,0 1.5,-0.9766 0.5,-0.9765 0.5,-2.9297 0,-1.9531 -0.5,-2.9297 -0.5,-0.9765 -1.5,-0.9765 z m 0,-1.0156 q 1.5938,0 2.4375,1.2656 0.8438,1.2656 0.8438,3.6562 0,2.3906 -0.8438,3.6563 -0.8437,1.2656 -2.4375,1.2656 -1.5781,0 -2.4219,-1.2656 -0.8437,-1.2657 -0.8437,-3.6563 0,-2.3906 0.8437,-3.6562 0.8438,-1.2656 2.4219,-1.2656 z m 8.4698,1.0156 q -0.9843,0 -1.4843,0.9765 -0.5,0.9766 -0.5,2.9297 0,1.9532 0.5,2.9297 0.5,0.9766 1.4843,0.9766 1,0 1.5,-0.9766 0.5,-0.9765 0.5,-2.9297 0,-1.9531 -0.5,-2.9297 -0.5,-0.9765 -1.5,-0.9765 z m 0,-1.0156 q 1.5938,0 2.4375,1.2656 0.8438,1.2656 0.8438,3.6562 0,2.3906 -0.8438,3.6563 -0.8437,1.2656 -2.4375,1.2656 -1.5781,0 -2.4218,-1.2656 Q 4.799,10.6562 4.799,8.2656 4.799,5.875 5.6428,4.6094 6.4865,3.3438 8.0646,3.3438 Z"
         id="path71"
         inkscape:connector-curvature="0" />
    </g>
    <g
       transform="translate(197,379.3333)"
       style="font-size:13.33329964px;font-family:SansSerif;color-interpolation:linearRGB;fill:#262626;stroke:#262626;color-rendering:optimizeQuality;image-rendering:optimizeQuality;text-rendering:geometricPrecision"
       id="g77">
      <path
         style="stroke:none"
         d="m -10.5,11.9219 h 4.4688 V 13 h -6.0157 v -1.0781 q 0.7344,-0.75 1.9922,-2.0235 Q -8.7969,8.625 -8.4688,8.25 -7.8594,7.5625 -7.6172,7.0781 -7.375,6.5938 -7.375,6.1406 q 0,-0.7656 -0.5234,-1.2344 -0.5235,-0.4687 -1.3828,-0.4687 -0.6094,0 -1.2735,0.2031 -0.6641,0.2032 -1.4297,0.6406 V 3.9844 q 0.7813,-0.3125 1.4532,-0.4766 0.6718,-0.164 1.2187,-0.164 1.4844,0 2.3594,0.7421 0.875,0.7422 0.875,1.9766 0,0.5781 -0.2188,1.1016 -0.2187,0.5234 -0.7969,1.2265 -0.1562,0.1875 -1.0078,1.0703 -0.8515,0.8829 -2.3984,2.461 z M -0.4052,4.3594 q -0.9844,0 -1.4844,0.9765 -0.5,0.9766 -0.5,2.9297 0,1.9532 0.5,2.9297 0.5,0.9766 1.4844,0.9766 1,0 1.5,-0.9766 0.5,-0.9765 0.5,-2.9297 0,-1.9531 -0.5,-2.9297 -0.5,-0.9765 -1.5,-0.9765 z m 0,-1.0156 q 1.5938,0 2.4375,1.2656 0.8438,1.2656 0.8438,3.6562 0,2.3906 -0.8438,3.6563 -0.8437,1.2656 -2.4375,1.2656 -1.5781,0 -2.4219,-1.2656 -0.8437,-1.2657 -0.8437,-3.6563 0,-2.3906 0.8437,-3.6562 0.8438,-1.2656 2.4219,-1.2656 z m 8.4698,1.0156 q -0.9843,0 -1.4843,0.9765 -0.5,0.9766 -0.5,2.9297 0,1.9532 0.5,2.9297 0.5,0.9766 1.4843,0.9766 1,0 1.5,-0.9766 0.5,-0.9765 0.5,-2.9297 0,-1.9531 -0.5,-2.9297 -0.5,-0.9765 -1.5,-0.9765 z m 0,-1.0156 q 1.5938,0 2.4375,1.2656 0.8438,1.2656 0.8438,3.6562 0,2.3906 -0.8438,3.6563 -0.8437,1.2656 -2.4375,1.2656 -1.5781,0 -2.4218,-1.2656 Q 4.799,10.6562 4.799,8.2656 4.799,5.875 5.6428,4.6094 6.4865,3.3438 8.0646,3.3438 Z"
         id="path75"
         inkscape:connector-curvature="0" />
    </g>
    <g
       transform="translate(259,379.3333)"
       style="font-size:13.33329964px;font-family:SansSerif;color-interpolation:linearRGB;fill:#262626;stroke:#262626;color-rendering:optimizeQuality;image-rendering:optimizeQuality;text-rendering:geometricPrecision"
       id="g81">
      <path
         style="stroke:none"
         d="m -7.7188,7.8906 q 0.9219,0.2032 1.4376,0.8203 0.5156,0.6172 0.5156,1.5391 0,1.3906 -0.9688,2.1641 -0.9687,0.7734 -2.75,0.7734 -0.5937,0 -1.2265,-0.1172 -0.6329,-0.1172 -1.3047,-0.3515 v -1.25 q 0.5468,0.3124 1.1797,0.4765 0.6328,0.1641 1.3203,0.1641 1.2031,0 1.8359,-0.4766 0.6328,-0.4766 0.6328,-1.3828 0,-0.8438 -0.5859,-1.3125 -0.586,-0.4687 -1.6328,-0.4687 H -10.375 V 7.4062 h 1.1562 q 0.9532,0 1.4532,-0.375 0.5,-0.375 0.5,-1.0937 0,-0.7187 -0.5156,-1.1094 -0.5157,-0.3906 -1.4844,-0.3906 -0.5313,0 -1.1328,0.1094 Q -11,4.6562 -11.7188,4.9062 V 3.75 Q -11,3.5469 -10.3594,3.4453 q 0.6406,-0.1015 1.2032,-0.1015 1.4687,0 2.3203,0.664 0.8515,0.6641 0.8515,1.8047 0,0.7813 -0.4531,1.3281 -0.4531,0.5469 -1.2813,0.75 z m 7.3136,-3.5312 q -0.9844,0 -1.4844,0.9765 -0.5,0.9766 -0.5,2.9297 0,1.9532 0.5,2.9297 0.5,0.9766 1.4844,0.9766 1,0 1.5,-0.9766 0.5,-0.9765 0.5,-2.9297 0,-1.9531 -0.5,-2.9297 -0.5,-0.9765 -1.5,-0.9765 z m 0,-1.0156 q 1.5938,0 2.4375,1.2656 0.8438,1.2656 0.8438,3.6562 0,2.3906 -0.8438,3.6563 -0.8437,1.2656 -2.4375,1.2656 -1.5781,0 -2.4219,-1.2656 -0.8437,-1.2657 -0.8437,-3.6563 0,-2.3906 0.8437,-3.6562 0.8438,-1.2656 2.4219,-1.2656 z m 8.4698,1.0156 q -0.9843,0 -1.4843,0.9765 -0.5,0.9766 -0.5,2.9297 0,1.9532 0.5,2.9297 0.5,0.9766 1.4843,0.9766 1,0 1.5,-0.9766 0.5,-0.9765 0.5,-2.9297 0,-1.9531 -0.5,-2.9297 -0.5,-0.9765 -1.5,-0.9765 z m 0,-1.0156 q 1.5938,0 2.4375,1.2656 0.8438,1.2656 0.8438,3.6562 0,2.3906 -0.8438,3.6563 -0.8437,1.2656 -2.4375,1.2656 -1.5781,0 -2.4218,-1.2656 Q 4.799,10.6562 4.799,8.2656 4.799,5.875 5.6428,4.6094 6.4865,3.3438 8.0646,3.3438 Z"
         id="path79"
         inkscape:connector-curvature="0" />
    </g>
    <g
       transform="translate(321,379.3333)"
       style="font-size:13.33329964px;font-family:SansSerif;color-interpolation:linearRGB;fill:#262626;stroke:#262626;color-rendering:optimizeQuality;image-rendering:optimizeQuality;text-rendering:geometricPrecision"
       id="g85">
      <path
         style="stroke:none"
         d="m -8.0938,4.6406 -3.2343,5.0625 h 3.2343 z m -0.3281,-1.125 h 1.6094 v 6.1875 h 1.3594 v 1.0625 H -6.8125 V 13 h -1.2813 v -2.2344 h -4.2656 V 9.5312 Z m 8.0167,0.8438 q -0.9844,0 -1.4844,0.9765 -0.5,0.9766 -0.5,2.9297 0,1.9532 0.5,2.9297 0.5,0.9766 1.4844,0.9766 1,0 1.5,-0.9766 0.5,-0.9765 0.5,-2.9297 0,-1.9531 -0.5,-2.9297 -0.5,-0.9765 -1.5,-0.9765 z m 0,-1.0156 q 1.5938,0 2.4375,1.2656 0.8438,1.2656 0.8438,3.6562 0,2.3906 -0.8438,3.6563 -0.8437,1.2656 -2.4375,1.2656 -1.5781,0 -2.4219,-1.2656 -0.8437,-1.2657 -0.8437,-3.6563 0,-2.3906 0.8437,-3.6562 0.8438,-1.2656 2.4219,-1.2656 z m 8.4698,1.0156 q -0.9843,0 -1.4843,0.9765 -0.5,0.9766 -0.5,2.9297 0,1.9532 0.5,2.9297 0.5,0.9766 1.4843,0.9766 1,0 1.5,-0.9766 0.5,-0.9765 0.5,-2.9297 0,-1.9531 -0.5,-2.9297 -0.5,-0.9765 -1.5,-0.9765 z m 0,-1.0156 q 1.5938,0 2.4375,1.2656 0.8438,1.2656 0.8438,3.6562 0,2.3906 -0.8438,3.6563 -0.8437,1.2656 -2.4375,1.2656 -1.5781,0 -2.4218,-1.2656 Q 4.799,10.6562 4.799,8.2656 4.799,5.875 5.6428,4.6094 6.4865,3.3438 8.0646,3.3438 Z"
         id="path83"
         inkscape:connector-curvature="0" />
    </g>
    <g
       transform="translate(383,379.3333)"
       style="font-size:13.33329964px;font-family:SansSerif;color-interpolation:linearRGB;fill:#262626;stroke:#262626;color-rendering:optimizeQuality;image-rendering:optimizeQuality;text-rendering:geometricPrecision"
       id="g89">
      <path
         style="stroke:none"
         d="m -11.5938,3.5156 h 5.0313 v 1.0938 h -3.8594 v 2.3125 q 0.2813,-0.0938 0.5625,-0.1407 0.2813,-0.0468 0.5469,-0.0468 1.5937,0 2.5234,0.8672 0.9297,0.8672 0.9297,2.3515 0,1.5313 -0.9531,2.3828 -0.9531,0.8516 -2.6875,0.8516 -0.5938,0 -1.2188,-0.1016 -0.625,-0.1015 -1.2812,-0.3047 v -1.2968 q 0.5781,0.3125 1.1875,0.4687 0.6094,0.1563 1.2813,0.1563 1.1093,0 1.75,-0.5782 0.6406,-0.5781 0.6406,-1.5781 0,-0.9843 -0.6406,-1.5625 -0.6407,-0.5781 -1.75,-0.5781 -0.5157,0 -1.0235,0.1172 -0.5078,0.1172 -1.0391,0.3515 z m 11.1886,0.8438 q -0.9844,0 -1.4844,0.9765 -0.5,0.9766 -0.5,2.9297 0,1.9532 0.5,2.9297 0.5,0.9766 1.4844,0.9766 1,0 1.5,-0.9766 0.5,-0.9765 0.5,-2.9297 0,-1.9531 -0.5,-2.9297 -0.5,-0.9765 -1.5,-0.9765 z m 0,-1.0156 q 1.5938,0 2.4375,1.2656 0.8438,1.2656 0.8438,3.6562 0,2.3906 -0.8438,3.6563 -0.8437,1.2656 -2.4375,1.2656 -1.5781,0 -2.4219,-1.2656 -0.8437,-1.2657 -0.8437,-3.6563 0,-2.3906 0.8437,-3.6562 0.8438,-1.2656 2.4219,-1.2656 z m 8.4698,1.0156 q -0.9843,0 -1.4843,0.9765 -0.5,0.9766 -0.5,2.9297 0,1.9532 0.5,2.9297 0.5,0.9766 1.4843,0.9766 1,0 1.5,-0.9766 0.5,-0.9765 0.5,-2.9297 0,-1.9531 -0.5,-2.9297 -0.5,-0.9765 -1.5,-0.9765 z m 0,-1.0156 q 1.5938,0 2.4375,1.2656 0.8438,1.2656 0.8438,3.6562 0,2.3906 -0.8438,3.6563 -0.8437,1.2656 -2.4375,1.2656 -1.5781,0 -2.4218,-1.2656 Q 4.799,10.6562 4.799,8.2656 4.799,5.875 5.6428,4.6094 6.4865,3.3438 8.0646,3.3438 Z"
         id="path87"
         inkscape:connector-curvature="0" />
    </g>
    <g
       transform="translate(445,379.3333)"
       style="font-size:13.33329964px;font-family:SansSerif;color-interpolation:linearRGB;fill:#262626;stroke:#262626;color-rendering:optimizeQuality;image-rendering:optimizeQuality;text-rendering:geometricPrecision"
       id="g93">
      <path
         style="stroke:none"
         d="m -8.7031,7.75 q -0.875,0 -1.375,0.5938 -0.5,0.5937 -0.5,1.6093 0,1.0313 0.5,1.625 0.5,0.5938 1.375,0.5938 0.8593,0 1.3593,-0.5938 0.5,-0.5937 0.5,-1.625 0,-1.0156 -0.5,-1.6093 Q -7.8438,7.75 -8.7031,7.75 Z M -6.1562,3.7344 V 4.9062 Q -6.6406,4.6719 -7.1328,4.5547 -7.625,4.4375 -8.1094,4.4375 q -1.2656,0 -1.9375,0.8516 -0.6719,0.8515 -0.7656,2.5859 0.375,-0.5469 0.9375,-0.8438 0.5625,-0.2968 1.25,-0.2968 1.4219,0 2.25,0.8672 0.8281,0.8672 0.8281,2.3515 0,1.4688 -0.8672,2.3516 -0.8671,0.8828 -2.289,0.8828 -1.6563,0 -2.5235,-1.2656 -0.8672,-1.2657 -0.8672,-3.6563 0,-2.2344 1.0704,-3.5781 1.0703,-1.3437 2.8672,-1.3437 0.4687,0 0.9609,0.1015 0.4922,0.1016 1.0391,0.2891 z m 5.751,0.625 q -0.9844,0 -1.4844,0.9765 -0.5,0.9766 -0.5,2.9297 0,1.9532 0.5,2.9297 0.5,0.9766 1.4844,0.9766 1,0 1.5,-0.9766 0.5,-0.9765 0.5,-2.9297 0,-1.9531 -0.5,-2.9297 -0.5,-0.9765 -1.5,-0.9765 z m 0,-1.0156 q 1.5938,0 2.4375,1.2656 0.8438,1.2656 0.8438,3.6562 0,2.3906 -0.8438,3.6563 -0.8437,1.2656 -2.4375,1.2656 -1.5781,0 -2.4219,-1.2656 -0.8437,-1.2657 -0.8437,-3.6563 0,-2.3906 0.8437,-3.6562 0.8438,-1.2656 2.4219,-1.2656 z m 8.4698,1.0156 q -0.9843,0 -1.4843,0.9765 -0.5,0.9766 -0.5,2.9297 0,1.9532 0.5,2.9297 0.5,0.9766 1.4843,0.9766 1,0 1.5,-0.9766 0.5,-0.9765 0.5,-2.9297 0,-1.9531 -0.5,-2.9297 -0.5,-0.9765 -1.5,-0.9765 z m 0,-1.0156 q 1.5938,0 2.4375,1.2656 0.8438,1.2656 0.8438,3.6562 0,2.3906 -0.8438,3.6563 -0.8437,1.2656 -2.4375,1.2656 -1.5781,0 -2.4218,-1.2656 Q 4.799,10.6562 4.799,8.2656 4.799,5.875 5.6428,4.6094 6.4865,3.3438 8.0646,3.3438 Z"
         id="path91"
         inkscape:connector-curvature="0" />
    </g>
    <g
       transform="translate(507,379.3333)"
       style="font-size:13.33329964px;font-family:SansSerif;color-interpolation:linearRGB;fill:#262626;stroke:#262626;color-rendering:optimizeQuality;image-rendering:optimizeQuality;text-rendering:geometricPrecision"
       id="g97">
      <path
         style="stroke:none"
         d="m -11.9375,3.5156 h 6.0937 V 4.0625 L -9.2812,13 h -1.3438 l 3.25,-8.3906 h -4.5625 z m 11.5323,0.8438 q -0.9844,0 -1.4844,0.9765 -0.5,0.9766 -0.5,2.9297 0,1.9532 0.5,2.9297 0.5,0.9766 1.4844,0.9766 1,0 1.5,-0.9766 0.5,-0.9765 0.5,-2.9297 0,-1.9531 -0.5,-2.9297 -0.5,-0.9765 -1.5,-0.9765 z m 0,-1.0156 q 1.5938,0 2.4375,1.2656 0.8438,1.2656 0.8438,3.6562 0,2.3906 -0.8438,3.6563 -0.8437,1.2656 -2.4375,1.2656 -1.5781,0 -2.4219,-1.2656 -0.8437,-1.2657 -0.8437,-3.6563 0,-2.3906 0.8437,-3.6562 0.8438,-1.2656 2.4219,-1.2656 z m 8.4698,1.0156 q -0.9843,0 -1.4843,0.9765 -0.5,0.9766 -0.5,2.9297 0,1.9532 0.5,2.9297 0.5,0.9766 1.4843,0.9766 1,0 1.5,-0.9766 0.5,-0.9765 0.5,-2.9297 0,-1.9531 -0.5,-2.9297 -0.5,-0.9765 -1.5,-0.9765 z m 0,-1.0156 q 1.5938,0 2.4375,1.2656 0.8438,1.2656 0.8438,3.6562 0,2.3906 -0.8438,3.6563 -0.8437,1.2656 -2.4375,1.2656 -1.5781,0 -2.4218,-1.2656 Q 4.799,10.6562 4.799,8.2656 4.799,5.875 5.6428,4.6094 6.4865,3.3438 8.0646,3.3438 Z"
         id="path95"
         inkscape:connector-curvature="0" />
    </g>
    <g
       transform="translate(290.0002,397.6667)"
       style="font-size:14.66670036px;font-family:SansSerif;color-interpolation:linearRGB;fill:#262626;stroke:#262626;color-rendering:optimizeQuality;image-rendering:optimizeQuality;text-rendering:geometricPrecision"
       id="g101">
      <path
         style="stroke:none"
         d="m -30.5469,3.0625 h 9.25 v 1.25 h -3.875 V 14 h -1.4843 V 4.3125 h -3.8907 z m 10.4058,2.7344 h 1.3593 V 14 h -1.3593 z m 0,-3.1875 h 1.3593 v 1.7031 h -1.3593 z M -9.6785,7.375 q 0.5156,-0.9062 1.2187,-1.3438 0.7031,-0.4374 1.6563,-0.4374 1.2812,0 1.9765,0.8984 0.6953,0.8984 0.6953,2.5547 V 14 H -5.491 V 9.0938 q 0,-1.1876 -0.4219,-1.7579 -0.4219,-0.5703 -1.2656,-0.5703 -1.0469,0 -1.6563,0.6953 -0.6094,0.6953 -0.6094,1.8985 V 14 h -1.3593 V 9.0938 q 0,-1.1876 -0.4141,-1.7579 -0.4141,-0.5703 -1.2891,-0.5703 -1.0312,0 -1.6406,0.7032 -0.6094,0.7031 -0.6094,1.8906 V 14 H -16.116 V 5.7969 h 1.3593 v 1.2812 q 0.4532,-0.7656 1.1016,-1.125 0.6484,-0.3593 1.5391,-0.3593 0.8906,0 1.5156,0.4531 0.625,0.4531 0.9219,1.3281 z M 5.2391,9.5625 v 0.6563 h -6.2032 q 0.0938,1.3906 0.8438,2.1171 0.75,0.7266 2.0781,0.7266 0.7813,0 1.5078,-0.1875 0.7266,-0.1875 1.4453,-0.5625 v 1.2656 q -0.7187,0.3125 -1.4843,0.4766 -0.7657,0.1641 -1.5469,0.1641 -1.9531,0 -3.1016,-1.1485 -1.1484,-1.1484 -1.1484,-3.0859 0,-2.0156 1.0859,-3.2032 1.086,-1.1874 2.9297,-1.1874 1.6563,0 2.625,1.0703 0.9688,1.0703 0.9688,2.8984 z M 3.8797,9.1719 Q 3.8641,8.0625 3.2625,7.3984 2.6609,6.7344 1.6609,6.7344 q -1.125,0 -1.8047,0.6406 -0.6796,0.6406 -0.7734,1.7969 z M 15.1336,2.625 q -0.9843,1.6719 -1.4609,3.3203 -0.4766,1.6485 -0.4766,3.3516 0,1.6875 0.4766,3.3437 0.4766,1.6563 1.4609,3.3438 H 13.9618 Q 12.8524,14.25 12.3133,12.5938 11.7743,10.9375 11.7743,9.2969 11.7743,7.6562 12.3133,6 12.8524,4.3438 13.9618,2.625 Z M 22.836,6.0312 V 7.3125 Q 22.2735,7.0156 21.6563,6.875 21.0391,6.7344 20.3828,6.7344 q -1.0156,0 -1.5156,0.3047 -0.5,0.3047 -0.5,0.914 0,0.4688 0.3594,0.7344 0.3594,0.2656 1.4531,0.5156 l 0.4531,0.1094 q 1.4375,0.2969 2.0391,0.8594 0.6016,0.5625 0.6016,1.5625 0,1.1406 -0.8985,1.8125 -0.8984,0.6719 -2.4922,0.6719 -0.6562,0 -1.3672,-0.1329 -0.7109,-0.1328 -1.5078,-0.3828 v -1.3906 q 0.75,0.3906 1.4766,0.5781 0.7266,0.1875 1.4297,0.1875 0.9531,0 1.4687,-0.3203 0.5157,-0.3203 0.5157,-0.914 0,-0.5469 -0.375,-0.8438 -0.375,-0.2969 -1.625,-0.5625 l -0.4688,-0.1094 q -1.25,-0.2656 -1.8047,-0.8125 -0.5547,-0.5468 -0.5547,-1.5 0,-1.1562 0.8203,-1.789 0.8204,-0.6328 2.3204,-0.6328 0.75,0 1.414,0.1093 0.6641,0.1094 1.211,0.3281 z M 25.0343,2.625 h 1.1719 q 1.0937,1.7188 1.6406,3.375 0.5469,1.6562 0.5469,3.2969 0,1.6406 -0.5469,3.2969 -0.5469,1.6562 -1.6406,3.3906 h -1.1719 q 0.9688,-1.6875 1.4531,-3.3438 0.4844,-1.6562 0.4844,-3.3437 0,-1.7031 -0.4844,-3.3516 Q 26.0031,4.2969 25.0343,2.625 Z"
         id="path99"
         inkscape:connector-curvature="0" />
    </g>
    <g
       style="color-interpolation:linearRGB;fill:#262626;stroke:#262626;stroke-width:0.66670001;stroke-linejoin:round;color-rendering:optimizeQuality;image-rendering:optimizeQuality;text-rendering:geometricPrecision"
       id="g119">
      <line
         y2="31"
         style="fill:none"
         x1="73"
         x2="73"
         y1="374"
         id="line103" />
      <line
         y2="374"
         style="fill:none"
         x1="73"
         x2="77.339996"
         y1="374"
         id="line105" />
      <line
         y2="316.83331"
         style="fill:none"
         x1="73"
         x2="77.339996"
         y1="316.83331"
         id="line107" />
      <line
         y2="259.66669"
         style="fill:none"
         x1="73"
         x2="77.339996"
         y1="259.66669"
         id="line109" />
      <line
         y2="202.5"
         style="fill:none"
         x1="73"
         x2="77.339996"
         y1="202.5"
         id="line111" />
      <line
         y2="145.3333"
         style="fill:none"
         x1="73"
         x2="77.339996"
         y1="145.3333"
         id="line113" />
      <line
         y2="88.166702"
         style="fill:none"
         x1="73"
         x2="77.339996"
         y1="88.166702"
         id="line115" />
      <line
         y2="31"
         style="fill:none"
         x1="73"
         x2="77.339996"
         y1="31"
         id="line117" />
    </g>
    <g
       transform="translate(67.6667,374)"
       style="font-size:13.33329964px;font-family:SansSerif;color-interpolation:linearRGB;fill:#262626;stroke:#262626;color-rendering:optimizeQuality;image-rendering:optimizeQuality;text-rendering:geometricPrecision"
       id="g123">
      <path
         style="stroke:none"
         d="m -4.875,-4.1406 q -0.9844,0 -1.4844,0.9765 -0.5,0.9766 -0.5,2.9297 0,1.9532 0.5,2.9297 0.5,0.9766 1.4844,0.9766 1,0 1.5,-0.9766 0.5,-0.9765 0.5,-2.9297 0,-1.9531 -0.5,-2.9297 -0.5,-0.9765 -1.5,-0.9765 z m 0,-1.0156 q 1.5938,0 2.4375,1.2656 0.8437,1.2656 0.8437,3.6562 0,2.3906 -0.8437,3.6563 -0.8437,1.2656 -2.4375,1.2656 -1.5781,0 -2.4219,-1.2656 -0.8437,-1.2657 -0.8437,-3.6563 0,-2.3906 0.8437,-3.6562 0.8438,-1.2656 2.4219,-1.2656 z"
         id="path121"
         inkscape:connector-curvature="0" />
    </g>
    <g
       transform="translate(67.6667,316.8333)"
       style="font-size:13.33329964px;font-family:SansSerif;color-interpolation:linearRGB;fill:#262626;stroke:#262626;color-rendering:optimizeQuality;image-rendering:optimizeQuality;text-rendering:geometricPrecision"
       id="g127">
      <path
         style="stroke:none"
         d="m -31.5,3.4219 h 4.4688 V 4.5 h -6.0157 V 3.4219 q 0.7344,-0.75 1.9922,-2.0235 1.2578,-1.2734 1.5859,-1.6484 0.6094,-0.6875 0.8516,-1.1719 0.2422,-0.4843 0.2422,-0.9375 0,-0.7656 -0.5234,-1.2344 -0.5235,-0.4687 -1.3828,-0.4687 -0.6094,0 -1.2735,0.2031 -0.6641,0.2032 -1.4297,0.6406 v -1.2968 q 0.7813,-0.3125 1.4532,-0.4766 0.6718,-0.164 1.2187,-0.164 1.4844,0 2.3594,0.7421 0.875,0.7422 0.875,1.9766 0,0.5781 -0.2188,1.1016 -0.2187,0.5234 -0.7969,1.2265 -0.1562,0.1875 -1.0078,1.0703 -0.8515,0.8829 -2.3984,2.461 z m 10.0948,-7.5625 q -0.9844,0 -1.4844,0.9765 -0.5,0.9766 -0.5,2.9297 0,1.9532 0.5,2.9297 0.5,0.9766 1.4844,0.9766 1,0 1.5,-0.9766 0.5,-0.9765 0.5,-2.9297 0,-1.9531 -0.5,-2.9297 -0.5,-0.9765 -1.5,-0.9765 z m 0,-1.0156 q 1.5938,0 2.4375,1.2656 0.8438,1.2656 0.8438,3.6562 0,2.3906 -0.8438,3.6563 -0.8437,1.2656 -2.4375,1.2656 -1.5781,0 -2.4219,-1.2656 -0.8437,-1.2657 -0.8437,-3.6563 0,-2.3906 0.8437,-3.6562 0.8438,-1.2656 2.4219,-1.2656 z m 8.4698,1.0156 q -0.9843,0 -1.4843,0.9765 -0.5,0.9766 -0.5,2.9297 0,1.9532 0.5,2.9297 0.5,0.9766 1.4843,0.9766 1,0 1.5,-0.9766 0.5,-0.9765 0.5,-2.9297 0,-1.9531 -0.5,-2.9297 -0.5,-0.9765 -1.5,-0.9765 z m 0,-1.0156 q 1.5938,0 2.4375,1.2656 0.8438,1.2656 0.8438,3.6562 0,2.3906 -0.8438,3.6563 -0.8437,1.2656 -2.4375,1.2656 -1.5781,0 -2.4218,-1.2656 -0.8438,-1.2657 -0.8438,-3.6563 0,-2.3906 0.8438,-3.6562 0.8437,-1.2656 2.4218,-1.2656 z m 8.4699,1.0156 q -0.9844,0 -1.4844,0.9765 -0.5,0.9766 -0.5,2.9297 0,1.9532 0.5,2.9297 0.5,0.9766 1.4844,0.9766 1,0 1.5,-0.9766 0.5,-0.9765 0.5,-2.9297 0,-1.9531 -0.5,-2.9297 -0.5,-0.9765 -1.5,-0.9765 z m 0,-1.0156 q 1.5937,0 2.4375,1.2656 0.8437,1.2656 0.8437,3.6562 0,2.3906 -0.8437,3.6563 -0.8438,1.2656 -2.4375,1.2656 -1.5782,0 -2.4219,-1.2656 -0.8438,-1.2657 -0.8438,-3.6563 0,-2.3906 0.8438,-3.6562 0.8437,-1.2656 2.4219,-1.2656 z"
         id="path125"
         inkscape:connector-curvature="0" />
    </g>
    <g
       transform="translate(67.6667,259.6667)"
       style="font-size:13.33329964px;font-family:SansSerif;color-interpolation:linearRGB;fill:#262626;stroke:#262626;color-rendering:optimizeQuality;image-rendering:optimizeQuality;text-rendering:geometricPrecision"
       id="g131">
      <path
         style="stroke:none"
         d="m -29.0938,-3.8594 -3.2343,5.0625 h 3.2343 z m -0.3281,-1.125 h 1.6094 v 6.1875 h 1.3594 v 1.0625 h -1.3594 V 4.5 h -1.2813 V 2.2656 h -4.2656 V 1.0312 Z m 8.0167,0.8438 q -0.9844,0 -1.4844,0.9765 -0.5,0.9766 -0.5,2.9297 0,1.9532 0.5,2.9297 0.5,0.9766 1.4844,0.9766 1,0 1.5,-0.9766 0.5,-0.9765 0.5,-2.9297 0,-1.9531 -0.5,-2.9297 -0.5,-0.9765 -1.5,-0.9765 z m 0,-1.0156 q 1.5938,0 2.4375,1.2656 0.8438,1.2656 0.8438,3.6562 0,2.3906 -0.8438,3.6563 -0.8437,1.2656 -2.4375,1.2656 -1.5781,0 -2.4219,-1.2656 -0.8437,-1.2657 -0.8437,-3.6563 0,-2.3906 0.8437,-3.6562 0.8438,-1.2656 2.4219,-1.2656 z m 8.4698,1.0156 q -0.9843,0 -1.4843,0.9765 -0.5,0.9766 -0.5,2.9297 0,1.9532 0.5,2.9297 0.5,0.9766 1.4843,0.9766 1,0 1.5,-0.9766 0.5,-0.9765 0.5,-2.9297 0,-1.9531 -0.5,-2.9297 -0.5,-0.9765 -1.5,-0.9765 z m 0,-1.0156 q 1.5938,0 2.4375,1.2656 0.8438,1.2656 0.8438,3.6562 0,2.3906 -0.8438,3.6563 -0.8437,1.2656 -2.4375,1.2656 -1.5781,0 -2.4218,-1.2656 -0.8438,-1.2657 -0.8438,-3.6563 0,-2.3906 0.8438,-3.6562 0.8437,-1.2656 2.4218,-1.2656 z m 8.4699,1.0156 q -0.9844,0 -1.4844,0.9765 -0.5,0.9766 -0.5,2.9297 0,1.9532 0.5,2.9297 0.5,0.9766 1.4844,0.9766 1,0 1.5,-0.9766 0.5,-0.9765 0.5,-2.9297 0,-1.9531 -0.5,-2.9297 -0.5,-0.9765 -1.5,-0.9765 z m 0,-1.0156 q 1.5937,0 2.4375,1.2656 0.8437,1.2656 0.8437,3.6562 0,2.3906 -0.8437,3.6563 -0.8438,1.2656 -2.4375,1.2656 -1.5782,0 -2.4219,-1.2656 -0.8438,-1.2657 -0.8438,-3.6563 0,-2.3906 0.8438,-3.6562 0.8437,-1.2656 2.4219,-1.2656 z"
         id="path129"
         inkscape:connector-curvature="0" />
    </g>
    <g
       transform="translate(67.6667,202.5)"
       style="font-size:13.33329964px;font-family:SansSerif;color-interpolation:linearRGB;fill:#262626;stroke:#262626;color-rendering:optimizeQuality;image-rendering:optimizeQuality;text-rendering:geometricPrecision"
       id="g135">
      <path
         style="stroke:none"
         d="m -29.7031,-0.75 q -0.875,0 -1.375,0.5938 -0.5,0.5937 -0.5,1.6093 0,1.0313 0.5,1.625 0.5,0.5938 1.375,0.5938 0.8593,0 1.3593,-0.5938 0.5,-0.5937 0.5,-1.625 0,-1.0156 -0.5,-1.6093 -0.5,-0.5938 -1.3593,-0.5938 z m 2.5469,-4.0156 v 1.1718 q -0.4844,-0.2343 -0.9766,-0.3515 -0.4922,-0.1172 -0.9766,-0.1172 -1.2656,0 -1.9375,0.8516 -0.6719,0.8515 -0.7656,2.5859 0.375,-0.5469 0.9375,-0.8438 0.5625,-0.2968 1.25,-0.2968 1.4219,0 2.25,0.8672 0.8281,0.8672 0.8281,2.3515 0,1.4688 -0.8672,2.3516 -0.8671,0.8828 -2.289,0.8828 -1.6563,0 -2.5235,-1.2656 -0.8672,-1.2657 -0.8672,-3.6563 0,-2.2344 1.0704,-3.5781 1.0703,-1.3437 2.8672,-1.3437 0.4687,0 0.9609,0.1015 0.4922,0.1016 1.0391,0.2891 z m 5.751,0.625 q -0.9844,0 -1.4844,0.9765 -0.5,0.9766 -0.5,2.9297 0,1.9532 0.5,2.9297 0.5,0.9766 1.4844,0.9766 1,0 1.5,-0.9766 0.5,-0.9765 0.5,-2.9297 0,-1.9531 -0.5,-2.9297 -0.5,-0.9765 -1.5,-0.9765 z m 0,-1.0156 q 1.5938,0 2.4375,1.2656 0.8438,1.2656 0.8438,3.6562 0,2.3906 -0.8438,3.6563 -0.8437,1.2656 -2.4375,1.2656 -1.5781,0 -2.4219,-1.2656 -0.8437,-1.2657 -0.8437,-3.6563 0,-2.3906 0.8437,-3.6562 0.8438,-1.2656 2.4219,-1.2656 z m 8.4698,1.0156 q -0.9843,0 -1.4843,0.9765 -0.5,0.9766 -0.5,2.9297 0,1.9532 0.5,2.9297 0.5,0.9766 1.4843,0.9766 1,0 1.5,-0.9766 0.5,-0.9765 0.5,-2.9297 0,-1.9531 -0.5,-2.9297 -0.5,-0.9765 -1.5,-0.9765 z m 0,-1.0156 q 1.5938,0 2.4375,1.2656 0.8438,1.2656 0.8438,3.6562 0,2.3906 -0.8438,3.6563 -0.8437,1.2656 -2.4375,1.2656 -1.5781,0 -2.4218,-1.2656 -0.8438,-1.2657 -0.8438,-3.6563 0,-2.3906 0.8438,-3.6562 0.8437,-1.2656 2.4218,-1.2656 z m 8.4699,1.0156 q -0.9844,0 -1.4844,0.9765 -0.5,0.9766 -0.5,2.9297 0,1.9532 0.5,2.9297 0.5,0.9766 1.4844,0.9766 1,0 1.5,-0.9766 0.5,-0.9765 0.5,-2.9297 0,-1.9531 -0.5,-2.9297 -0.5,-0.9765 -1.5,-0.9765 z m 0,-1.0156 q 1.5937,0 2.4375,1.2656 0.8437,1.2656 0.8437,3.6562 0,2.3906 -0.8437,3.6563 -0.8438,1.2656 -2.4375,1.2656 -1.5782,0 -2.4219,-1.2656 -0.8438,-1.2657 -0.8438,-3.6563 0,-2.3906 0.8438,-3.6562 0.8437,-1.2656 2.4219,-1.2656 z"
         id="path133"
         inkscape:connector-curvature="0" />
    </g>
    <g
       transform="translate(67.6667,145.3333)"
       style="font-size:13.33329964px;font-family:SansSerif;color-interpolation:linearRGB;fill:#262626;stroke:#262626;color-rendering:optimizeQuality;image-rendering:optimizeQuality;text-rendering:geometricPrecision"
       id="g139">
      <path
         style="stroke:none"
         d="m -29.875,0 q -0.9062,0 -1.4297,0.4922 -0.5234,0.4922 -0.5234,1.3359 0,0.8594 0.5234,1.3516 0.5235,0.4922 1.4297,0.4922 0.9219,0 1.4453,-0.4922 0.5235,-0.4922 0.5235,-1.3516 0,-0.8437 -0.5235,-1.3359 Q -28.9531,0 -29.875,0 Z m -1.2812,-0.5469 q -0.8126,-0.2031 -1.2735,-0.7656 -0.4609,-0.5625 -0.4609,-1.375 0,-1.1406 0.8047,-1.8047 0.8047,-0.664 2.2109,-0.664 1.4219,0 2.2266,0.664 0.8046,0.6641 0.8046,1.8047 0,0.8125 -0.4609,1.375 -0.4609,0.5625 -1.2734,0.7656 0.9219,0.2188 1.4375,0.8438 0.5156,0.625 0.5156,1.5312 0,1.3907 -0.8359,2.125 -0.836,0.7344 -2.4141,0.7344 -1.5625,0 -2.4062,-0.7344 -0.8438,-0.7343 -0.8438,-2.125 0,-0.9062 0.5234,-1.5312 0.5235,-0.625 1.4454,-0.8438 z m -0.4688,-2.0312 q 0,0.75 0.4609,1.1562 0.461,0.4063 1.2891,0.4063 0.8281,0 1.2969,-0.4063 0.4687,-0.4062 0.4687,-1.1562 0,-0.7344 -0.4687,-1.1485 -0.4688,-0.414 -1.2969,-0.414 -0.8281,0 -1.2891,0.414 -0.4609,0.4141 -0.4609,1.1485 z m 10.2198,-1.5625 q -0.9844,0 -1.4844,0.9765 -0.5,0.9766 -0.5,2.9297 0,1.9532 0.5,2.9297 0.5,0.9766 1.4844,0.9766 1,0 1.5,-0.9766 0.5,-0.9765 0.5,-2.9297 0,-1.9531 -0.5,-2.9297 -0.5,-0.9765 -1.5,-0.9765 z m 0,-1.0156 q 1.5938,0 2.4375,1.2656 0.8438,1.2656 0.8438,3.6562 0,2.3906 -0.8438,3.6563 -0.8437,1.2656 -2.4375,1.2656 -1.5781,0 -2.4219,-1.2656 -0.8437,-1.2657 -0.8437,-3.6563 0,-2.3906 0.8437,-3.6562 0.8438,-1.2656 2.4219,-1.2656 z m 8.4698,1.0156 q -0.9843,0 -1.4843,0.9765 -0.5,0.9766 -0.5,2.9297 0,1.9532 0.5,2.9297 0.5,0.9766 1.4843,0.9766 1,0 1.5,-0.9766 0.5,-0.9765 0.5,-2.9297 0,-1.9531 -0.5,-2.9297 -0.5,-0.9765 -1.5,-0.9765 z m 0,-1.0156 q 1.5938,0 2.4375,1.2656 0.8438,1.2656 0.8438,3.6562 0,2.3906 -0.8438,3.6563 -0.8437,1.2656 -2.4375,1.2656 -1.5781,0 -2.4218,-1.2656 -0.8438,-1.2657 -0.8438,-3.6563 0,-2.3906 0.8438,-3.6562 0.8437,-1.2656 2.4218,-1.2656 z m 8.4699,1.0156 q -0.9844,0 -1.4844,0.9765 -0.5,0.9766 -0.5,2.9297 0,1.9532 0.5,2.9297 0.5,0.9766 1.4844,0.9766 1,0 1.5,-0.9766 0.5,-0.9765 0.5,-2.9297 0,-1.9531 -0.5,-2.9297 -0.5,-0.9765 -1.5,-0.9765 z m 0,-1.0156 q 1.5937,0 2.4375,1.2656 0.8437,1.2656 0.8437,3.6562 0,2.3906 -0.8437,3.6563 -0.8438,1.2656 -2.4375,1.2656 -1.5782,0 -2.4219,-1.2656 -0.8438,-1.2657 -0.8438,-3.6563 0,-2.3906 0.8438,-3.6562 0.8437,-1.2656 2.4219,-1.2656 z"
         id="path137"
         inkscape:connector-curvature="0" />
    </g>
    <g
       transform="translate(67.6667,88.1667)"
       style="font-size:13.33329964px;font-family:SansSerif;color-interpolation:linearRGB;fill:#262626;stroke:#262626;color-rendering:optimizeQuality;image-rendering:optimizeQuality;text-rendering:geometricPrecision"
       id="g143">
      <path
         style="stroke:none"
         d="m -41.3906,3.4219 h 2.0937 v -7.2344 l -2.2812,0.4531 v -1.1562 l 2.2656,-0.4688 h 1.2969 v 8.4063 h 2.0937 V 4.5 h -5.4687 z m 10.9854,-7.5625 q -0.9844,0 -1.4844,0.9765 -0.5,0.9766 -0.5,2.9297 0,1.9532 0.5,2.9297 0.5,0.9766 1.4844,0.9766 1,0 1.5,-0.9766 0.5,-0.9765 0.5,-2.9297 0,-1.9531 -0.5,-2.9297 -0.5,-0.9765 -1.5,-0.9765 z m 0,-1.0156 q 1.5938,0 2.4375,1.2656 0.8438,1.2656 0.8438,3.6562 0,2.3906 -0.8438,3.6563 -0.8437,1.2656 -2.4375,1.2656 -1.5781,0 -2.4219,-1.2656 -0.8437,-1.2657 -0.8437,-3.6563 0,-2.3906 0.8437,-3.6562 0.8438,-1.2656 2.4219,-1.2656 z m 8.4698,1.0156 q -0.9843,0 -1.4843,0.9765 -0.5,0.9766 -0.5,2.9297 0,1.9532 0.5,2.9297 0.5,0.9766 1.4843,0.9766 1,0 1.5,-0.9766 0.5,-0.9765 0.5,-2.9297 0,-1.9531 -0.5,-2.9297 -0.5,-0.9765 -1.5,-0.9765 z m 0,-1.0156 q 1.5938,0 2.4375,1.2656 0.8438,1.2656 0.8438,3.6562 0,2.3906 -0.8438,3.6563 -0.8437,1.2656 -2.4375,1.2656 -1.5781,0 -2.4218,-1.2656 -0.8438,-1.2657 -0.8438,-3.6563 0,-2.3906 0.8438,-3.6562 0.8437,-1.2656 2.4218,-1.2656 z m 8.4699,1.0156 q -0.9844,0 -1.4844,0.9765 -0.5,0.9766 -0.5,2.9297 0,1.9532 0.5,2.9297 0.5,0.9766 1.4844,0.9766 1,0 1.5,-0.9766 0.5,-0.9765 0.5,-2.9297 0,-1.9531 -0.5,-2.9297 -0.5,-0.9765 -1.5,-0.9765 z m 0,-1.0156 q 1.5937,0 2.4375,1.2656 0.8437,1.2656 0.8437,3.6562 0,2.3906 -0.8437,3.6563 -0.8438,1.2656 -2.4375,1.2656 -1.5782,0 -2.4219,-1.2656 -0.8438,-1.2657 -0.8438,-3.6563 0,-2.3906 0.8438,-3.6562 0.8437,-1.2656 2.4219,-1.2656 z m 8.4698,1.0156 q -0.9844,0 -1.4844,0.9765 -0.5,0.9766 -0.5,2.9297 0,1.9532 0.5,2.9297 0.5,0.9766 1.4844,0.9766 1,0 1.5,-0.9766 0.5,-0.9765 0.5,-2.9297 0,-1.9531 -0.5,-2.9297 -0.5,-0.9765 -1.5,-0.9765 z m 0,-1.0156 q 1.5937,0 2.4375,1.2656 0.8437,1.2656 0.8437,3.6562 0,2.3906 -0.8437,3.6563 -0.8438,1.2656 -2.4375,1.2656 -1.5782,0 -2.4219,-1.2656 -0.8438,-1.2657 -0.8438,-3.6563 0,-2.3906 0.8438,-3.6562 0.8437,-1.2656 2.4219,-1.2656 z"
         id="path141"
         inkscape:connector-curvature="0" />
    </g>
    <g
       transform="translate(67.6667,31)"
       style="font-size:13.33329964px;font-family:SansSerif;color-interpolation:linearRGB;fill:#262626;stroke:#262626;color-rendering:optimizeQuality;image-rendering:optimizeQuality;text-rendering:geometricPrecision"
       id="g147">
      <path
         style="stroke:none"
         d="m -41.3906,3.4219 h 2.0937 v -7.2344 l -2.2812,0.4531 v -1.1562 l 2.2656,-0.4688 h 1.2969 v 8.4063 h 2.0937 V 4.5 h -5.4687 z m 9.3604,0 h 4.4688 V 4.5 h -6.0157 V 3.4219 q 0.7344,-0.75 1.9922,-2.0235 1.2578,-1.2734 1.586,-1.6484 0.6093,-0.6875 0.8515,-1.1719 0.2422,-0.4843 0.2422,-0.9375 0,-0.7656 -0.5234,-1.2344 -0.5235,-0.4687 -1.3828,-0.4687 -0.6094,0 -1.2735,0.2031 -0.664,0.2032 -1.4297,0.6406 v -1.2968 q 0.7813,-0.3125 1.4532,-0.4766 0.6718,-0.164 1.2187,-0.164 1.4844,0 2.3594,0.7421 0.875,0.7422 0.875,1.9766 0,0.5781 -0.2188,1.1016 -0.2187,0.5234 -0.7968,1.2265 -0.1563,0.1875 -1.0078,1.0703 -0.8516,0.8829 -2.3985,2.461 z m 10.0948,-7.5625 q -0.9843,0 -1.4843,0.9765 -0.5,0.9766 -0.5,2.9297 0,1.9532 0.5,2.9297 0.5,0.9766 1.4843,0.9766 1,0 1.5,-0.9766 0.5,-0.9765 0.5,-2.9297 0,-1.9531 -0.5,-2.9297 -0.5,-0.9765 -1.5,-0.9765 z m 0,-1.0156 q 1.5938,0 2.4375,1.2656 0.8438,1.2656 0.8438,3.6562 0,2.3906 -0.8438,3.6563 -0.8437,1.2656 -2.4375,1.2656 -1.5781,0 -2.4218,-1.2656 -0.8438,-1.2657 -0.8438,-3.6563 0,-2.3906 0.8438,-3.6562 0.8437,-1.2656 2.4218,-1.2656 z m 8.4699,1.0156 q -0.9844,0 -1.4844,0.9765 -0.5,0.9766 -0.5,2.9297 0,1.9532 0.5,2.9297 0.5,0.9766 1.4844,0.9766 1,0 1.5,-0.9766 0.5,-0.9765 0.5,-2.9297 0,-1.9531 -0.5,-2.9297 -0.5,-0.9765 -1.5,-0.9765 z m 0,-1.0156 q 1.5937,0 2.4375,1.2656 0.8437,1.2656 0.8437,3.6562 0,2.3906 -0.8437,3.6563 -0.8438,1.2656 -2.4375,1.2656 -1.5782,0 -2.4219,-1.2656 -0.8438,-1.2657 -0.8438,-3.6563 0,-2.3906 0.8438,-3.6562 0.8437,-1.2656 2.4219,-1.2656 z m 8.4698,1.0156 q -0.9844,0 -1.4844,0.9765 -0.5,0.9766 -0.5,2.9297 0,1.9532 0.5,2.9297 0.5,0.9766 1.4844,0.9766 1,0 1.5,-0.9766 0.5,-0.9765 0.5,-2.9297 0,-1.9531 -0.5,-2.9297 -0.5,-0.9765 -1.5,-0.9765 z m 0,-1.0156 q 1.5937,0 2.4375,1.2656 0.8437,1.2656 0.8437,3.6562 0,2.3906 -0.8437,3.6563 -0.8438,1.2656 -2.4375,1.2656 -1.5782,0 -2.4219,-1.2656 -0.8438,-1.2657 -0.8438,-3.6563 0,-2.3906 0.8438,-3.6562 0.8437,-1.2656 2.4219,-1.2656 z"
         id="path145"
         inkscape:connector-curvature="0" />
    </g>
    <g
       transform="rotate(-90,111.58325,90.91655)"
       style="font-size:14.66670036px;font-family:SansSerif;color-interpolation:linearRGB;fill:#262626;stroke:#262626;color-rendering:optimizeQuality;image-rendering:optimizeQuality;text-rendering:geometricPrecision"
       id="g151">
      <path
         style="stroke:none"
         d="m -34.5312,-14.9375 h 6.9218 v 1.25 h -5.4375 v 3.2344 h 5.2031 v 1.25 h -5.2031 V -5.25 h 5.5625 V -4 h -7.0468 z m 16.0259,5.9844 V -4 h -1.3437 v -4.9062 q 0,-1.1719 -0.4532,-1.75 -0.4531,-0.5782 -1.375,-0.5782 -1.0781,0 -1.7109,0.6953 -0.6328,0.6953 -0.6328,1.8985 V -4 h -1.3594 v -8.2031 h 1.3594 v 1.2812 q 0.4844,-0.75 1.1406,-1.1172 0.6563,-0.3671 1.5156,-0.3671 1.4063,0 2.1329,0.875 0.7265,0.875 0.7265,2.5781 z m 9.4921,0.5156 v 0.6563 h -6.2031 q 0.0937,1.3906 0.8437,2.1171 0.75,0.7266 2.0782,0.7266 0.7812,0 1.5078,-0.1875 0.7265,-0.1875 1.4453,-0.5625 v 1.2656 q -0.7188,0.3125 -1.4844,0.4766 -0.7656,0.1641 -1.5469,0.1641 -1.9531,0 -3.1015,-1.1485 -1.1485,-1.1484 -1.1485,-3.0859 0,-2.0156 1.086,-3.2032 1.0859,-1.1874 2.9297,-1.1874 1.6562,0 2.625,1.0703 0.9687,1.0703 0.9687,2.8984 z m -1.3594,-0.3906 q -0.0156,-1.1094 -0.6171,-1.7735 -0.6016,-0.664 -1.6016,-0.664 -1.125,0 -1.8047,0.6406 -0.6797,0.6406 -0.7734,1.7969 z m 8.1108,-2.1094 q -0.2344,-0.1406 -0.5,-0.2031 -0.2656,-0.0625 -0.5937,-0.0625 -1.1407,0 -1.75,0.7422 -0.6094,0.7421 -0.6094,2.1328 V -4 h -1.3594 v -8.2031 h 1.3594 v 1.2812 q 0.4219,-0.75 1.1016,-1.1172 0.6796,-0.3671 1.664,-0.3671 0.1406,0 0.3047,0.0234 0.1641,0.0234 0.3672,0.0547 z m 6.6663,2.7344 q 0,-1.4531 -0.6016,-2.2578 -0.6015,-0.8047 -1.6953,-0.8047 -1.0937,0 -1.6953,0.8047 -0.6015,0.8047 -0.6015,2.2578 0,1.4687 0.6015,2.2734 0.6016,0.8047 1.6953,0.8047 1.0938,0 1.6953,-0.8047 0.6016,-0.8047 0.6016,-2.2734 z m 1.3438,3.1875 q 0,2.0937 -0.9297,3.1172 -0.9297,1.0234 -2.8516,1.0234 -0.7031,0 -1.3359,-0.1094 -0.6328,-0.1094 -1.2266,-0.3281 V -2.625 q 0.5938,0.3281 1.1719,0.4766 Q 1.1545,-2 1.7639,-2 3.092,-2 3.7483,-2.6875 4.4045,-3.375 4.4045,-4.7812 V -5.4375 Q 3.9826,-4.7188 3.3342,-4.3594 2.6858,-4 1.7795,-4 0.2639,-4 -0.658,-5.1484 q -0.9219,-1.1485 -0.9219,-3.0547 0,-1.8907 0.9219,-3.0469 0.9219,-1.1562 2.4375,-1.1562 0.9063,0 1.5547,0.3593 0.6484,0.3594 1.0703,1.0938 v -1.25 h 1.3438 z m 5.9751,1.7812 q -0.5781,1.4688 -1.1172,1.9141 -0.539,0.4453 -1.4453,0.4453 H 8.0828 V -2 h 0.7969 q 0.5468,0 0.8593,-0.2656 0.3125,-0.2656 0.6719,-1.25 l 0.25,-0.6094 -3.3125,-8.0781 h 1.4219 l 2.5625,6.4219 2.5625,-6.4219 h 1.4375 z M 24.8839,-15.375 q -0.9844,1.6719 -1.461,3.3203 -0.4765,1.6485 -0.4765,3.3516 0,1.6875 0.4765,3.3437 0.4766,1.6563 1.461,3.3438 H 23.712 q -1.1094,-1.7344 -1.6484,-3.3906 -0.5391,-1.6563 -0.5391,-3.2969 0,-1.6407 0.5391,-3.2969 0.539,-1.6562 1.6484,-3.375 z m 2.5304,0.4375 h 1.4844 v 10.1719 q 0,1.9844 -0.75,2.875 Q 27.3987,-1 25.7268,-1 h -0.5625 v -1.2344 h 0.4688 q 0.9843,0 1.3828,-0.5547 0.3984,-0.5547 0.3984,-1.9765 z m 4.0568,-0.4375 h 1.1719 q 1.0938,1.7188 1.6406,3.375 0.5469,1.6562 0.5469,3.2969 0,1.6406 -0.5469,3.2969 -0.5468,1.6562 -1.6406,3.3906 h -1.1719 q 0.9688,-1.6875 1.4532,-3.3438 0.4843,-1.6562 0.4843,-3.3437 0,-1.7031 -0.4843,-3.3516 -0.4844,-1.6484 -1.4532,-3.3203 z"
         id="path149"
         inkscape:connector-curvature="0" />
    </g>
    <g
       transform="translate(290.0003,28.25)"
       style="font-weight:bold;font-size:14.66670036px;font-family:SansSerif;color-interpolation:linearRGB;color-rendering:optimizeQuality;image-rendering:optimizeQuality;text-rendering:geometricPrecision"
       id="g155">
      <path
         style="stroke:none"
         d="m -108.9219,-14.9375 h 10.0781 v 2.1406 h -3.625 V -4 h -2.8281 v -8.7969 h -3.625 z m 11.185,2.7344 h 2.6094 V -4 h -2.6094 z m 0,-3.1875 h 2.6094 v 2.125 h -2.6094 z m 12.6175,4.5468 q 0.5,-0.7656 1.1875,-1.164 0.6875,-0.3984 1.5,-0.3984 1.4219,0 2.1562,0.875 0.7344,0.875 0.7344,2.5312 v 5 h -2.625 v -4.2812 q 0,-0.0938 0.0078,-0.1954 0.0078,-0.1015 0.0078,-0.289 0,-0.875 -0.2578,-1.2656 -0.2578,-0.3907 -0.8359,-0.3907 -0.75,0 -1.1563,0.6172 -0.4062,0.6172 -0.4218,1.7735 V -4 h -2.625 v -4.2812 q 0,-1.3594 -0.2344,-1.75 -0.2344,-0.3907 -0.8438,-0.3907 -0.75,0 -1.164,0.6172 -0.4141,0.6172 -0.4141,1.7735 V -4 h -2.625 v -8.2031 h 2.625 V -11 q 0.4844,-0.7031 1.1172,-1.0547 0.6328,-0.3515 1.3828,-0.3515 0.8438,0 1.5,0.414 0.6563,0.4141 0.9844,1.1484 z m 15.8654,2.7188 v 0.75 h -6.1406 q 0.0938,0.9219 0.6719,1.3828 0.5781,0.461 1.5937,0.461 0.8282,0 1.6954,-0.2422 0.8671,-0.2422 1.789,-0.7422 V -4.5 q -0.9375,0.3594 -1.8672,0.5391 -0.9297,0.1797 -1.8515,0.1797 -2.2344,0 -3.4688,-1.1329 -1.2344,-1.1328 -1.2344,-3.1797 0,-2 1.211,-3.1562 1.2109,-1.1562 3.3359,-1.1562 1.9375,0 3.1016,1.164 1.164,1.1641 1.164,3.1172 z M -71.9571,-9 q 0,-0.75 -0.4375,-1.2031 -0.4375,-0.4531 -1.1406,-0.4531 -0.75,0 -1.2266,0.4296 -0.4765,0.4297 -0.6015,1.2266 z m 8.5271,-3.2031 h 2.6094 l 2.0468,5.6719 2.0313,-5.6719 h 2.6406 L -57.3363,-4 h -2.875 z m 16.9912,0.25 v 2 q -0.8437,-0.3594 -1.625,-0.5313 -0.7812,-0.1718 -1.4843,-0.1718 -0.75,0 -1.1094,0.1874 -0.3594,0.1876 -0.3594,0.5782 0,0.3125 0.2735,0.4765 0.2734,0.1641 0.9765,0.2579 l 0.4688,0.0624 q 2.0156,0.25 2.7109,0.836 0.6953,0.5859 0.6953,1.8359 0,1.3125 -0.9687,1.9766 -0.9688,0.6641 -2.8907,0.6641 -0.8125,0 -1.6796,-0.1329 -0.8672,-0.1328 -1.7735,-0.3828 v -2 q 0.7813,0.3907 1.6016,0.5781 0.8203,0.1876 1.6797,0.1876 0.7656,0 1.1562,-0.211 0.3906,-0.2109 0.3906,-0.6328 0,-0.3438 -0.2734,-0.5156 -0.2734,-0.1719 -1.0703,-0.2813 l -0.4531,-0.0469 q -1.75,-0.2187 -2.4532,-0.8124 -0.7031,-0.5938 -0.7031,-1.8126 0,-1.2968 0.8906,-1.9296 0.8907,-0.6328 2.7344,-0.6328 0.7344,0 1.5313,0.1093 0.7968,0.1094 1.7343,0.3438 z m 7.5293,-2.9844 h 7.6094 v 2.1406 h -4.7813 v 2.0313 h 4.5 v 2.125 h -4.5 v 2.5156 h 4.9375 V -4 h -7.7656 z M -20.7728,-9 v 5 h -2.625 v -0.8125 -3.0156 q 0,-1.0625 -0.0468,-1.461 -0.0469,-0.3984 -0.1719,-0.5859 -0.1563,-0.2656 -0.4141,-0.4062 -0.2578,-0.1407 -0.6015,-0.1407 -0.8282,0 -1.2969,0.6328 -0.4688,0.6329 -0.4688,1.7579 V -4 h -2.6093 v -8.2031 h 2.6093 V -11 q 0.5938,-0.7188 1.2657,-1.0625 0.6718,-0.3437 1.4687,-0.3437 1.4219,0 2.1563,0.875 0.7343,0.875 0.7343,2.5312 z m 10.3872,0.875 v 0.75 h -6.1407 q 0.0938,0.9219 0.6719,1.3828 0.5781,0.461 1.5938,0.461 0.8281,0 1.6953,-0.2422 0.8672,-0.2422 1.789,-0.7422 V -4.5 q -0.9375,0.3594 -1.8671,0.5391 -0.9297,0.1797 -1.8516,0.1797 -2.2344,0 -3.4688,-1.1329 -1.2343,-1.1328 -1.2343,-3.1797 0,-2 1.2109,-3.1562 1.2109,-1.1562 3.3359,-1.1562 1.9375,0 3.1016,1.164 1.1641,1.1641 1.1641,3.1172 z M -13.0888,-9 q 0,-0.75 -0.4375,-1.2031 -0.4375,-0.4531 -1.1406,-0.4531 -0.75,0 -1.2265,0.4296 Q -16.37,-9.7969 -16.495,-9 Z m 10.5496,-0.9688 q -0.3437,-0.1562 -0.6875,-0.2343 -0.3437,-0.0781 -0.6875,-0.0781 -1.0156,0 -1.5625,0.6484 -0.5469,0.6484 -0.5469,1.8516 V -4 h -2.6093 v -8.2031 h 2.6093 v 1.3437 q 0.5157,-0.7968 1.1719,-1.1718 0.6563,-0.375 1.5625,-0.375 0.1406,0 0.2891,0.0156 0.1484,0.0156 0.4453,0.0468 z m 6.7123,4.5782 Q 3.6263,-4.6719 2.9778,-4.3359 2.3294,-4 1.47,-4 q -1.5,0 -2.4844,-1.1797 -0.9843,-1.1797 -0.9843,-3.0234 0,-1.8281 0.9843,-3.0078 0.9844,-1.1797 2.4844,-1.1797 0.8594,0 1.5078,0.3359 0.6485,0.3359 1.1953,1.0703 v -1.2187 h 2.6407 v 7.375 q 0,1.9843 -1.25,3.0234 -1.25,1.0391 -3.625,1.0391 -0.7657,0 -1.4844,-0.1172 Q -0.2644,-1 -0.9987,-1.2344 v -2.0468 q 0.6875,0.3906 1.3515,0.5859 Q 1.0169,-2.5 1.6731,-2.5 2.97,-2.5 3.5716,-3.0625 4.1731,-3.625 4.1731,-4.8281 Z M 2.4388,-10.5 q -0.8125,0 -1.2657,0.6016 -0.4531,0.6015 -0.4531,1.6953 0,1.1406 0.4375,1.7187 0.4375,0.5782 1.2813,0.5782 0.8281,0 1.2812,-0.6016 0.4531,-0.6016 0.4531,-1.6953 0,-1.0938 -0.4531,-1.6953 Q 3.2669,-10.5 2.4388,-10.5 Z m 5.5693,-1.7031 h 2.625 l 2.2031,5.5625 1.875,-5.5625 h 2.6094 l -3.4375,8.9843 q -0.5312,1.3594 -1.2187,1.9063 -0.6875,0.5469 -1.8282,0.5469 H 9.3206 v -1.7188 h 0.8281 q 0.6563,0 0.961,-0.2109 0.3047,-0.2109 0.4765,-0.7578 l 0.0782,-0.2344 z m 24.5156,7.6093 q -0.7812,0.3907 -1.6171,0.6016 -0.836,0.211 -1.7579,0.211 -2.7343,0 -4.3281,-1.5313 -1.5937,-1.5313 -1.5937,-4.1406 0,-2.625 1.5937,-4.1563 1.5938,-1.5312 4.3281,-1.5312 0.9219,0 1.7579,0.2109 0.8359,0.2109 1.6171,0.6172 v 2.25 q -0.7812,-0.5313 -1.5468,-0.7813 -0.7657,-0.25 -1.5938,-0.25 -1.5156,0 -2.3828,0.9688 -0.8672,0.9688 -0.8672,2.6719 0,1.6875 0.8672,2.6562 0.8672,0.9688 2.3828,0.9688 0.8281,0 1.5938,-0.25 0.7656,-0.25 1.5468,-0.7813 z m 5.8654,-5.9374 q -0.8593,0 -1.3203,0.625 -0.4609,0.625 -0.4609,1.8124 0,1.1719 0.4609,1.8047 0.461,0.6329 1.3203,0.6329 0.8594,0 1.3125,-0.6329 0.4532,-0.6328 0.4532,-1.8047 0,-1.1874 -0.4532,-1.8124 -0.4531,-0.625 -1.3125,-0.625 z m 0,-1.875 q 2.125,0 3.3125,1.1484 1.1875,1.1484 1.1875,3.164 0,2.0157 -1.1875,3.1641 -1.1875,1.1485 -3.3125,1.1485 -2.1093,0 -3.3125,-1.1485 -1.2031,-1.1484 -1.2031,-3.1641 0,-2.0156 1.2031,-3.164 1.2032,-1.1484 3.3125,-1.1484 z M 52.8019,-9 v 5 h -2.625 v -0.8125 -3.0156 q 0,-1.0625 -0.0469,-1.461 -0.0468,-0.3984 -0.1718,-0.5859 -0.1563,-0.2656 -0.4141,-0.4062 -0.2578,-0.1407 -0.6016,-0.1407 -0.8281,0 -1.2968,0.6328 -0.4688,0.6329 -0.4688,1.7579 V -4 h -2.6094 v -8.2031 h 2.6094 V -11 q 0.5938,-0.7188 1.2656,-1.0625 0.6719,-0.3437 1.4688,-0.3437 1.4219,0 2.1562,0.875 0.7344,0.875 0.7344,2.5312 z m 8.6059,-2.9531 v 2 q -0.8438,-0.3594 -1.625,-0.5313 -0.7813,-0.1718 -1.4844,-0.1718 -0.75,0 -1.1094,0.1874 -0.3593,0.1876 -0.3593,0.5782 0,0.3125 0.2734,0.4765 0.2734,0.1641 0.9766,0.2579 l 0.4687,0.0624 q 2.0156,0.25 2.7109,0.836 0.6954,0.5859 0.6954,1.8359 0,1.3125 -0.9688,1.9766 -0.9687,0.6641 -2.8906,0.6641 -0.8125,0 -1.6797,-0.1329 -0.8672,-0.1328 -1.7734,-0.3828 v -2 q 0.7812,0.3907 1.6015,0.5781 0.8203,0.1876 1.6797,0.1876 0.7656,0 1.1563,-0.211 0.3906,-0.2109 0.3906,-0.6328 0,-0.3438 -0.2735,-0.5156 -0.2734,-0.1719 -1.0703,-0.2813 l -0.4531,-0.0469 q -1.75,-0.2187 -2.4531,-0.8124 -0.7031,-0.5938 -0.7031,-1.8126 0,-1.2968 0.8906,-1.9296 0.8906,-0.6328 2.7344,-0.6328 0.7343,0 1.5312,0.1093 0.7969,0.1094 1.7344,0.3438 z m 2.2236,4.7656 v -5.0156 h 2.6406 v 0.8125 q 0,0.6718 -0.0078,1.6797 -0.0078,1.0078 -0.0078,1.3515 0,0.9844 0.0469,1.4219 0.0468,0.4375 0.1718,0.625 0.1719,0.2656 0.4297,0.4063 0.2578,0.1406 0.6016,0.1406 0.8125,0 1.2812,-0.6328 0.4688,-0.6328 0.4688,-1.7578 v -4.0469 h 2.625 V -4 h -2.625 v -1.1875 q -0.5938,0.7187 -1.2578,1.0625 -0.6641,0.3438 -1.461,0.3438 -1.4218,0 -2.164,-0.875 -0.7422,-0.875 -0.7422,-2.5313 z m 18.1215,-3.6563 q 0.5,-0.7656 1.1875,-1.164 0.6875,-0.3984 1.5,-0.3984 1.4219,0 2.1562,0.875 0.7344,0.875 0.7344,2.5312 v 5 h -2.625 v -4.2812 q 0,-0.0938 0.0078,-0.1954 0.0078,-0.1015 0.0078,-0.289 0,-0.875 -0.2578,-1.2656 -0.2578,-0.3907 -0.8359,-0.3907 -0.75,0 -1.1563,0.6172 -0.4062,0.6172 -0.4218,1.7735 V -4 h -2.625 v -4.2812 q 0,-1.3594 -0.2344,-1.75 -0.2344,-0.3907 -0.8438,-0.3907 -0.75,0 -1.164,0.6172 -0.4141,0.6172 -0.4141,1.7735 V -4 h -2.625 v -8.2031 h 2.625 V -11 q 0.4844,-0.7031 1.1172,-1.0547 0.6328,-0.3515 1.3828,-0.3515 0.8438,0 1.5,0.414 0.6563,0.4141 0.9844,1.1484 z m 15.8654,2.7188 v 0.75 h -6.1406 q 0.0938,0.9219 0.6719,1.3828 0.5781,0.461 1.5937,0.461 0.8282,0 1.6953,-0.2422 0.8672,-0.2422 1.7891,-0.7422 V -4.5 q -0.9375,0.3594 -1.8672,0.5391 -0.9297,0.1797 -1.8515,0.1797 -2.2344,0 -3.4688,-1.1329 -1.2344,-1.1328 -1.2344,-3.1797 0,-2 1.211,-3.1562 1.2109,-1.1562 3.3359,-1.1562 1.9375,0 3.1016,1.164 1.164,1.1641 1.164,3.1172 z M 94.9152,-9 q 0,-0.75 -0.4375,-1.2031 -0.4375,-0.4531 -1.1406,-0.4531 -0.75,0 -1.2266,0.4296 Q 91.634,-9.7969 91.509,-9 Z m 10.034,-2 v -4.3906 h 2.6406 V -4 h -2.6406 v -1.1875 q -0.5469,0.7187 -1.1954,1.0625 -0.6484,0.3438 -1.5078,0.3438 -1.5156,0 -2.4922,-1.211 -0.9765,-1.2109 -0.9765,-3.1016 0,-1.8906 0.9765,-3.1015 0.9766,-1.2109 2.4922,-1.2109 0.8438,0 1.5,0.3437 0.6563,0.3437 1.2032,1.0625 z m -1.7344,5.3125 q 0.8437,0 1.289,-0.6172 0.4454,-0.6172 0.4454,-1.7891 0,-1.1718 -0.4454,-1.789 -0.4453,-0.6172 -1.289,-0.6172 -0.8281,0 -1.2735,0.6172 -0.4453,0.6172 -0.4453,1.789 0,1.1719 0.4453,1.7891 0.4454,0.6172 1.2735,0.6172 z"
         id="path153"
         inkscape:connector-curvature="0" />
    </g>
    <g
       style="color-interpolation:linearRGB;fill:#0000ff;stroke:#0000ff;stroke-width:2.66669989;stroke-linecap:butt;stroke-linejoin:round;color-rendering:optimizeQuality;image-rendering:optimizeQuality;text-rendering:geometricPrecision"
       id="g297">
      <path
         d="m 73.62,374 32.24,-16.4388 30.225,-6.6451 30.225,-5.5966 31.6014,-5.7238 30.225,-5.7084 31.6014,-5.5783 32.24,-5.8999 29.5864,-5.137 32.3392,-4.2035 29.5864,-5.0344 30.9628,-5.5397 31.6014,-4.6102"
         style="fill:none;fill-rule:evenodd"
         id="path157"
         inkscape:connector-curvature="0" />
      <circle
         transform="translate(73.62,374)"
         style="fill:none;stroke-linejoin:miter"
         r="4"
         cx="0"
         cy="0"
         id="circle159" />
      <circle
         transform="translate(105.86,357.5612)"
         style="fill:none;stroke-linejoin:miter"
         r="4"
         cx="0"
         cy="0"
         id="circle161" />
      <circle
         transform="translate(136.085,350.9161)"
         style="fill:none;stroke-linejoin:miter"
         r="4"
         cx="0"
         cy="0"
         id="circle163" />
      <circle
         transform="translate(166.31,345.3195)"
         style="fill:none;stroke-linejoin:miter"
         r="4"
         cx="0"
         cy="0"
         id="circle165" />
      <circle
         transform="translate(197.9114,339.5957)"
         style="fill:none;stroke-linejoin:miter"
         r="4"
         cx="0"
         cy="0"
         id="circle167" />
      <circle
         transform="translate(228.1364,333.8873)"
         style="fill:none;stroke-linejoin:miter"
         r="4"
         cx="0"
         cy="0"
         id="circle169" />
      <circle
         transform="translate(259.7378,328.309)"
         style="fill:none;stroke-linejoin:miter"
         r="4"
         cx="0"
         cy="0"
         id="circle171" />
      <circle
         transform="translate(291.9778,322.4091)"
         style="fill:none;stroke-linejoin:miter"
         r="4"
         cx="0"
         cy="0"
         id="circle173" />
      <circle
         transform="translate(321.5642,317.2721)"
         style="fill:none;stroke-linejoin:miter"
         r="4"
         cx="0"
         cy="0"
         id="circle175" />
      <circle
         transform="translate(353.9034,313.0686)"
         style="fill:none;stroke-linejoin:miter"
         r="4"
         cx="0"
         cy="0"
         id="circle177" />
      <circle
         transform="translate(383.4898,308.0342)"
         style="fill:none;stroke-linejoin:miter"
         r="4"
         cx="0"
         cy="0"
         id="circle179" />
      <circle
         transform="translate(414.4526,302.4945)"
         style="fill:none;stroke-linejoin:miter"
         r="4"
         cx="0"
         cy="0"
         id="circle181" />
      <circle
         transform="translate(446.054,297.8843)"
         style="fill:none;stroke-linejoin:miter"
         r="4"
         cx="0"
         cy="0"
         id="circle183" />
      <path
         d="m 73.62,374 32.24,-19.0151 30.225,-13.8837 30.225,-10.1191 32.24,-7.8593 29.5864,-5.8324 32.24,-6.4802 30.3242,-4.8574 30.9628,-5.201 31.6014,-4.7 30.225,-4.8763 30.9628,-5.0538 31.6014,-5.5772"
         style="fill:none;fill-rule:evenodd;stroke:#ff0000"
         id="path185"
         inkscape:connector-curvature="0" />
      <path
         d="M -3,-3 V 3 H 3 V -3 Z"
         style="fill:none;stroke:#ff0000;stroke-linejoin:miter"
         transform="translate(73.62,374)"
         id="path187"
         inkscape:connector-curvature="0" />
      <path
         d="M -3,-3 V 3 H 3 V -3 Z"
         style="fill:none;stroke:#ff0000;stroke-linejoin:miter"
         transform="translate(105.86,354.9849)"
         id="path189"
         inkscape:connector-curvature="0" />
      <path
         d="M -3,-3 V 3 H 3 V -3 Z"
         style="fill:none;stroke:#ff0000;stroke-linejoin:miter"
         transform="translate(136.085,341.1012)"
         id="path191"
         inkscape:connector-curvature="0" />
      <path
         d="M -3,-3 V 3 H 3 V -3 Z"
         style="fill:none;stroke:#ff0000;stroke-linejoin:miter"
         transform="translate(166.31,330.9821)"
         id="path193"
         inkscape:connector-curvature="0" />
      <path
         d="M -3,-3 V 3 H 3 V -3 Z"
         style="fill:none;stroke:#ff0000;stroke-linejoin:miter"
         transform="translate(198.55,323.1228)"
         id="path195"
         inkscape:connector-curvature="0" />
      <path
         d="M -3,-3 V 3 H 3 V -3 Z"
         style="fill:none;stroke:#ff0000;stroke-linejoin:miter"
         transform="translate(228.1364,317.2904)"
         id="path197"
         inkscape:connector-curvature="0" />
      <path
         d="M -3,-3 V 3 H 3 V -3 Z"
         style="fill:none;stroke:#ff0000;stroke-linejoin:miter"
         transform="translate(260.3764,310.8102)"
         id="path199"
         inkscape:connector-curvature="0" />
      <path
         d="M -3,-3 V 3 H 3 V -3 Z"
         style="fill:none;stroke:#ff0000;stroke-linejoin:miter"
         transform="translate(290.7006,305.9528)"
         id="path201"
         inkscape:connector-curvature="0" />
      <path
         d="M -3,-3 V 3 H 3 V -3 Z"
         style="fill:none;stroke:#ff0000;stroke-linejoin:miter"
         transform="translate(321.6634,300.7518)"
         id="path203"
         inkscape:connector-curvature="0" />
      <path
         d="M -3,-3 V 3 H 3 V -3 Z"
         style="fill:none;stroke:#ff0000;stroke-linejoin:miter"
         transform="translate(353.2648,296.0518)"
         id="path205"
         inkscape:connector-curvature="0" />
      <path
         d="M -3,-3 V 3 H 3 V -3 Z"
         style="fill:none;stroke:#ff0000;stroke-linejoin:miter"
         transform="translate(383.4898,291.1755)"
         id="path207"
         inkscape:connector-curvature="0" />
      <path
         d="M -3,-3 V 3 H 3 V -3 Z"
         style="fill:none;stroke:#ff0000;stroke-linejoin:miter"
         transform="translate(414.4526,286.1217)"
         id="path209"
         inkscape:connector-curvature="0" />
      <path
         d="M -3,-3 V 3 H 3 V -3 Z"
         style="fill:none;stroke:#ff0000;stroke-linejoin:miter"
         transform="translate(446.054,280.5445)"
         id="path211"
         inkscape:connector-curvature="0" />
      <path
         d="m 73.62,374 32.24,-24.0797 30.225,-16.6647 30.225,-11.1006 32.24,-9.9136 30.9628,-6.7265 29.5864,-6.3469 30.9628,-5.504 31.6014,-4.9673 30.9628,-5.2633 32.3392,-4.9881 30.225,-4.8365 31.6014,-6.3415"
         style="fill:none;fill-rule:evenodd;stroke:#00ffff"
         id="path213"
         inkscape:connector-curvature="0" />
      <path
         d="M 0,-4 V 4 M -4,0 h 8 m -6.8284,-2.8284 5.6568,5.6568 m -5.6568,0 5.6568,-5.6568"
         style="fill:none;stroke:#00ffff;stroke-linejoin:miter"
         transform="translate(73.62,374)"
         id="path215"
         inkscape:connector-curvature="0" />
      <path
         d="M 0,-4 V 4 M -4,0 h 8 m -6.8284,-2.8284 5.6568,5.6568 m -5.6568,0 5.6568,-5.6568"
         style="fill:none;stroke:#00ffff;stroke-linejoin:miter"
         transform="translate(105.86,349.9203)"
         id="path217"
         inkscape:connector-curvature="0" />
      <path
         d="M 0,-4 V 4 M -4,0 h 8 m -6.8284,-2.8284 5.6568,5.6568 m -5.6568,0 5.6568,-5.6568"
         style="fill:none;stroke:#00ffff;stroke-linejoin:miter"
         transform="translate(136.085,333.2556)"
         id="path219"
         inkscape:connector-curvature="0" />
      <path
         d="M 0,-4 V 4 M -4,0 h 8 m -6.8284,-2.8284 5.6568,5.6568 m -5.6568,0 5.6568,-5.6568"
         style="fill:none;stroke:#00ffff;stroke-linejoin:miter"
         transform="translate(166.31,322.155)"
         id="path221"
         inkscape:connector-curvature="0" />
      <path
         d="M 0,-4 V 4 M -4,0 h 8 m -6.8284,-2.8284 5.6568,5.6568 m -5.6568,0 5.6568,-5.6568"
         style="fill:none;stroke:#00ffff;stroke-linejoin:miter"
         transform="translate(198.55,312.2414)"
         id="path223"
         inkscape:connector-curvature="0" />
      <path
         d="M 0,-4 V 4 M -4,0 h 8 m -6.8284,-2.8284 5.6568,5.6568 m -5.6568,0 5.6568,-5.6568"
         style="fill:none;stroke:#00ffff;stroke-linejoin:miter"
         transform="translate(229.5128,305.5149)"
         id="path225"
         inkscape:connector-curvature="0" />
      <path
         d="M 0,-4 V 4 M -4,0 h 8 m -6.8284,-2.8284 5.6568,5.6568 m -5.6568,0 5.6568,-5.6568"
         style="fill:none;stroke:#00ffff;stroke-linejoin:miter"
         transform="translate(259.0992,299.168)"
         id="path227"
         inkscape:connector-curvature="0" />
      <path
         d="M 0,-4 V 4 M -4,0 h 8 m -6.8284,-2.8284 5.6568,5.6568 m -5.6568,0 5.6568,-5.6568"
         style="fill:none;stroke:#00ffff;stroke-linejoin:miter"
         transform="translate(290.062,293.664)"
         id="path229"
         inkscape:connector-curvature="0" />
      <path
         d="M 0,-4 V 4 M -4,0 h 8 m -6.8284,-2.8284 5.6568,5.6568 m -5.6568,0 5.6568,-5.6568"
         style="fill:none;stroke:#00ffff;stroke-linejoin:miter"
         transform="translate(321.6634,288.6967)"
         id="path231"
         inkscape:connector-curvature="0" />
      <path
         d="M 0,-4 V 4 M -4,0 h 8 m -6.8284,-2.8284 5.6568,5.6568 m -5.6568,0 5.6568,-5.6568"
         style="fill:none;stroke:#00ffff;stroke-linejoin:miter"
         transform="translate(352.6262,283.4334)"
         id="path233"
         inkscape:connector-curvature="0" />
      <path
         d="M 0,-4 V 4 M -4,0 h 8 m -6.8284,-2.8284 5.6568,5.6568 m -5.6568,0 5.6568,-5.6568"
         style="fill:none;stroke:#00ffff;stroke-linejoin:miter"
         transform="translate(384.9654,278.4453)"
         id="path235"
         inkscape:connector-curvature="0" />
      <path
         d="M 0,-4 V 4 M -4,0 h 8 m -6.8284,-2.8284 5.6568,5.6568 m -5.6568,0 5.6568,-5.6568"
         style="fill:none;stroke:#00ffff;stroke-linejoin:miter"
         transform="translate(415.1904,273.6088)"
         id="path237"
         inkscape:connector-curvature="0" />
      <path
         d="M 0,-4 V 4 M -4,0 h 8 m -6.8284,-2.8284 5.6568,5.6568 m -5.6568,0 5.6568,-5.6568"
         style="fill:none;stroke:#00ffff;stroke-linejoin:miter"
         transform="translate(446.7918,267.2673)"
         id="path239"
         inkscape:connector-curvature="0" />
      <path
         d="m 73.62,374 32.24,-24.5751 30.225,-21.8059 30.225,-14.9311 32.24,-16.6681 30.225,-10.1045 32.24,-8.2506 29.5864,-6.7156 31.6014,-6.7571 30.3242,-5.8499 32.24,-6.5501 30.225,-6.3029 30.225,-5.591"
         style="fill:none;fill-rule:evenodd;stroke:#00ff00"
         id="path241"
         inkscape:connector-curvature="0" />
      <path
         d="m 0,-5.332 -4.6175,7.998 h 9.235 z"
         style="fill:none;stroke:#00ff00;stroke-linejoin:miter"
         transform="translate(73.62,374)"
         id="path243"
         inkscape:connector-curvature="0" />
      <path
         d="m 0,-5.332 -4.6175,7.998 h 9.235 z"
         style="fill:none;stroke:#00ff00;stroke-linejoin:miter"
         transform="translate(105.86,349.4249)"
         id="path245"
         inkscape:connector-curvature="0" />
      <path
         d="m 0,-5.332 -4.6175,7.998 h 9.235 z"
         style="fill:none;stroke:#00ff00;stroke-linejoin:miter"
         transform="translate(136.085,327.619)"
         id="path247"
         inkscape:connector-curvature="0" />
      <path
         d="m 0,-5.332 -4.6175,7.998 h 9.235 z"
         style="fill:none;stroke:#00ff00;stroke-linejoin:miter"
         transform="translate(166.31,312.6879)"
         id="path249"
         inkscape:connector-curvature="0" />
      <path
         d="m 0,-5.332 -4.6175,7.998 h 9.235 z"
         style="fill:none;stroke:#00ff00;stroke-linejoin:miter"
         transform="translate(198.55,296.0198)"
         id="path251"
         inkscape:connector-curvature="0" />
      <path
         d="m 0,-5.332 -4.6175,7.998 h 9.235 z"
         style="fill:none;stroke:#00ff00;stroke-linejoin:miter"
         transform="translate(228.775,285.9153)"
         id="path253"
         inkscape:connector-curvature="0" />
      <path
         d="m 0,-5.332 -4.6175,7.998 h 9.235 z"
         style="fill:none;stroke:#00ff00;stroke-linejoin:miter"
         transform="translate(261.015,277.6647)"
         id="path255"
         inkscape:connector-curvature="0" />
      <path
         d="m 0,-5.332 -4.6175,7.998 h 9.235 z"
         style="fill:none;stroke:#00ff00;stroke-linejoin:miter"
         transform="translate(290.6014,270.9491)"
         id="path257"
         inkscape:connector-curvature="0" />
      <path
         d="m 0,-5.332 -4.6175,7.998 h 9.235 z"
         style="fill:none;stroke:#00ff00;stroke-linejoin:miter"
         transform="translate(322.2028,264.192)"
         id="path259"
         inkscape:connector-curvature="0" />
      <path
         d="m 0,-5.332 -4.6175,7.998 h 9.235 z"
         style="fill:none;stroke:#00ff00;stroke-linejoin:miter"
         transform="translate(352.527,258.3421)"
         id="path261"
         inkscape:connector-curvature="0" />
      <path
         d="m 0,-5.332 -4.6175,7.998 h 9.235 z"
         style="fill:none;stroke:#00ff00;stroke-linejoin:miter"
         transform="translate(384.767,251.792)"
         id="path263"
         inkscape:connector-curvature="0" />
      <path
         d="m 0,-5.332 -4.6175,7.998 h 9.235 z"
         style="fill:none;stroke:#00ff00;stroke-linejoin:miter"
         transform="translate(414.992,245.4891)"
         id="path265"
         inkscape:connector-curvature="0" />
      <path
         d="m 0,-5.332 -4.6175,7.998 h 9.235 z"
         style="fill:none;stroke:#00ff00;stroke-linejoin:miter"
         transform="translate(445.217,239.8981)"
         id="path267"
         inkscape:connector-curvature="0" />
      <path
         d="m 73.62,374 32.24,-24.8787 30.225,-22.8746 30.225,-19.5913 32.24,-16.8796 30.225,-17.1392 32.24,-17.4641 30.225,-14.422 30.225,-14.9677 32.24,-13.76 30.225,-11.6005 30.225,-12.8511 32.24,-12.4003"
         style="fill:none;fill-rule:evenodd;stroke:#000000"
         id="path269"
         inkscape:connector-curvature="0" />
      <path
         d="m 0,5.332 -4.6175,-7.998 h 9.235 z"
         style="fill:none;stroke:#000000;stroke-linejoin:miter"
         transform="translate(73.62,374)"
         id="path271"
         inkscape:connector-curvature="0" />
      <path
         d="m 0,5.332 -4.6175,-7.998 h 9.235 z"
         style="fill:none;stroke:#000000;stroke-linejoin:miter"
         transform="translate(105.86,349.1213)"
         id="path273"
         inkscape:connector-curvature="0" />
      <path
         d="m 0,5.332 -4.6175,-7.998 h 9.235 z"
         style="fill:none;stroke:#000000;stroke-linejoin:miter"
         transform="translate(136.085,326.2467)"
         id="path275"
         inkscape:connector-curvature="0" />
      <path
         d="m 0,5.332 -4.6175,-7.998 h 9.235 z"
         style="fill:none;stroke:#000000;stroke-linejoin:miter"
         transform="translate(166.31,306.6554)"
         id="path277"
         inkscape:connector-curvature="0" />
      <path
         d="m 0,5.332 -4.6175,-7.998 h 9.235 z"
         style="fill:none;stroke:#000000;stroke-linejoin:miter"
         transform="translate(198.55,289.7758)"
         id="path279"
         inkscape:connector-curvature="0" />
      <path
         d="m 0,5.332 -4.6175,-7.998 h 9.235 z"
         style="fill:none;stroke:#000000;stroke-linejoin:miter"
         transform="translate(228.775,272.6366)"
         id="path281"
         inkscape:connector-curvature="0" />
      <path
         d="m 0,5.332 -4.6175,-7.998 h 9.235 z"
         style="fill:none;stroke:#000000;stroke-linejoin:miter"
         transform="translate(261.015,255.1725)"
         id="path283"
         inkscape:connector-curvature="0" />
      <path
         d="m 0,5.332 -4.6175,-7.998 h 9.235 z"
         style="fill:none;stroke:#000000;stroke-linejoin:miter"
         transform="translate(291.24,240.7505)"
         id="path285"
         inkscape:connector-curvature="0" />
      <path
         d="m 0,5.332 -4.6175,-7.998 h 9.235 z"
         style="fill:none;stroke:#000000;stroke-linejoin:miter"
         transform="translate(321.465,225.7828)"
         id="path287"
         inkscape:connector-curvature="0" />
      <path
         d="m 0,5.332 -4.6175,-7.998 h 9.235 z"
         style="fill:none;stroke:#000000;stroke-linejoin:miter"
         transform="translate(353.705,212.0228)"
         id="path289"
         inkscape:connector-curvature="0" />
      <path
         d="m 0,5.332 -4.6175,-7.998 h 9.235 z"
         style="fill:none;stroke:#000000;stroke-linejoin:miter"
         transform="translate(383.93,200.4223)"
         id="path291"
         inkscape:connector-curvature="0" />
      <path
         d="m 0,5.332 -4.6175,-7.998 h 9.235 z"
         style="fill:none;stroke:#000000;stroke-linejoin:miter"
         transform="translate(414.155,187.5712)"
         id="path293"
         inkscape:connector-curvature="0" />
      <path
         d="m 0,5.332 -4.6175,-7.998 h 9.235 z"
         style="fill:none;stroke:#000000;stroke-linejoin:miter"
         transform="translate(446.395,175.1709)"
         id="path295"
         inkscape:connector-curvature="0" />
    </g>
    <g
       style="color-interpolation:linearRGB;stroke-width:2.66669989;stroke-linecap:butt;stroke-linejoin:bevel;stroke-miterlimit:1;stroke-dasharray:8, 2, 4, 2;color-rendering:optimizeQuality;image-rendering:optimizeQuality;text-rendering:geometricPrecision"
       id="g301">
      <path
         d="m 73.62,374 32.24,-24.389 30.225,-23.8891 30.225,-25.7062 32.24,-26.4375 30.225,-23.1551 32.24,-26.3527 30.225,-24.8821 30.225,-23.2399 32.24,-24.6352 30.225,-24.2123 30.225,-25.7859 32.24,-24.2973"
         style="fill:none;fill-rule:evenodd"
         id="path299"
         inkscape:connector-curvature="0" />
    </g>
    <g
       style="color-interpolation:sRGB;fill:#ffffff;stroke:#ffffff;color-rendering:optimizeSpeed;image-rendering:optimizeSpeed;shape-rendering:crispEdges;text-rendering:optimizeSpeed"
       id="g305">
      <path
         style="stroke:none"
         d="M 186,138 V 42 H 91 v 96 z"
         id="path303"
         inkscape:connector-curvature="0" />
    </g>
    <g
       transform="translate(138,56)"
       style="font-family:mwb_cmmi10;color-interpolation:linearRGB;color-rendering:optimizeQuality;image-rendering:optimizeQuality;text-rendering:geometricPrecision"
       id="g309">
      <path
         style="stroke:none"
         d="m 3.5469,2.3438 q 0,-0.2657 0.1172,-0.7813 Q 3.7812,1.0469 3.9531,0.4609 4.125,-0.125 4.25,-0.5 4.2969,-1.0938 4.2969,-1.3906 4.2969,-2.1719 4.1406,-2.8359 3.9844,-3.5 3.5625,-3.9453 3.1406,-4.3906 2.3906,-4.3906 2,-4.3906 1.6016,-4.2266 1.2031,-4.0625 0.9219,-3.7578 0.6406,-3.4531 0.5312,-3.0625 0.5,-2.9844 0.4375,-2.9844 H 0.2812 q -0.0937,0 -0.0937,-0.1094 v -0.0468 q 0.1406,-0.5313 0.4844,-1.0313 0.3437,-0.5 0.8359,-0.8125 Q 2,-5.2969 2.5625,-5.2969 q 0.5625,0 0.9687,0.375 0.4063,0.375 0.6563,0.961 0.25,0.5859 0.3516,1.1875 0.1015,0.6015 0.1015,1.1328 Q 5.25,-3.2812 6,-4.75 L 6.1875,-5.1406 Q 6.2188,-5.1719 6.2656,-5.1719 H 6.4062 Q 6.5,-5.1719 6.5,-5.0625 6.5,-5.0469 6.4844,-5 l -0.1875,0.375 q -0.5157,1.0469 -0.9531,2.1094 -0.4376,1.0625 -0.75,2.0625 -0.0469,0.4062 -0.1797,1.1093 -0.1329,0.7032 -0.3203,1.3047 -0.1876,0.6016 -0.375,0.6329 -0.1719,0 -0.1719,-0.25 z"
         id="path307"
         inkscape:connector-curvature="0" />
    </g>
    <g
       transform="translate(145,56)"
       style="font-family:SansSerif;color-interpolation:linearRGB;color-rendering:optimizeQuality;image-rendering:optimizeQuality;text-rendering:geometricPrecision"
       id="g313">
      <path
         style="stroke:none"
         d="m 1.2656,-5.4531 h 7.5156 v 0.9843 H 1.2656 Z m 0,2.3906 h 7.5156 v 1 H 1.2656 Z m 12.6016,-4.9063 q -0.9063,0 -1.3672,0.8985 -0.4609,0.8984 -0.4609,2.7109 0,1.7969 0.4609,2.6953 0.4609,0.8985 1.3672,0.8985 0.9219,0 1.3828,-0.8985 0.4609,-0.8984 0.4609,-2.6953 0,-1.8125 -0.4609,-2.7109 -0.4609,-0.8985 -1.3828,-0.8985 z m 0,-0.9374 q 1.4687,0 2.25,1.164 0.7812,1.1641 0.7812,3.3828 0,2.2032 -0.7812,3.3672 -0.7813,1.1641 -2.25,1.1641 -1.4688,0 -2.2422,-1.1641 -0.7734,-1.164 -0.7734,-3.3672 0,-2.2187 0.7734,-3.3828 0.7734,-1.164 2.2422,-1.164 z m 5.1035,7.4218 h 1.2344 V 0 H 18.9707 Z M 22.9883,-1 h 1.9375 V -7.6719 L 22.8164,-7.25 V -8.3281 L 24.9102,-8.75 h 1.1875 V -1 h 1.9375 v 1 h -5.0469 z m 9.9629,-6.9688 q -0.9063,0 -1.3672,0.8985 -0.461,0.8984 -0.461,2.7109 0,1.7969 0.461,2.6953 0.4609,0.8985 1.3672,0.8985 0.9218,0 1.3828,-0.8985 0.4609,-0.8984 0.4609,-2.6953 0,-1.8125 -0.4609,-2.7109 -0.461,-0.8985 -1.3828,-0.8985 z m 0,-0.9374 q 1.4687,0 2.25,1.164 0.7812,1.1641 0.7812,3.3828 0,2.2032 -0.7812,3.3672 -0.7813,1.1641 -2.25,1.1641 -1.4688,0 -2.2422,-1.1641 -0.7735,-1.164 -0.7735,-3.3672 0,-2.2187 0.7735,-3.3828 0.7734,-1.164 2.2422,-1.164 z"
         id="path311"
         inkscape:connector-curvature="0" />
    </g>
    <g
       style="color-interpolation:linearRGB;fill:#0000ff;stroke:#0000ff;stroke-width:2.66669989;stroke-linecap:butt;stroke-linejoin:round;color-rendering:optimizeQuality;image-rendering:optimizeQuality;text-rendering:geometricPrecision"
       id="g319">
      <line
         y2="51.450802"
         style="fill:none"
         x1="95"
         x2="135"
         y1="51.450802"
         id="line315" />
      <circle
         transform="translate(115,51.4508)"
         style="fill:none;stroke-linejoin:miter"
         r="4"
         cx="0"
         cy="0"
         id="circle317" />
    </g>
    <g
       transform="translate(138,72)"
       style="font-family:mwb_cmmi10;color-interpolation:linearRGB;color-rendering:optimizeQuality;image-rendering:optimizeQuality;text-rendering:geometricPrecision"
       id="g323">
      <path
         style="stroke:none"
         d="m 3.5469,2.3438 q 0,-0.2657 0.1172,-0.7813 Q 3.7812,1.0469 3.9531,0.4609 4.125,-0.125 4.25,-0.5 4.2969,-1.0938 4.2969,-1.3906 4.2969,-2.1719 4.1406,-2.8359 3.9844,-3.5 3.5625,-3.9453 3.1406,-4.3906 2.3906,-4.3906 2,-4.3906 1.6016,-4.2266 1.2031,-4.0625 0.9219,-3.7578 0.6406,-3.4531 0.5312,-3.0625 0.5,-2.9844 0.4375,-2.9844 H 0.2812 q -0.0937,0 -0.0937,-0.1094 v -0.0468 q 0.1406,-0.5313 0.4844,-1.0313 0.3437,-0.5 0.8359,-0.8125 Q 2,-5.2969 2.5625,-5.2969 q 0.5625,0 0.9687,0.375 0.4063,0.375 0.6563,0.961 0.25,0.5859 0.3516,1.1875 0.1015,0.6015 0.1015,1.1328 Q 5.25,-3.2812 6,-4.75 L 6.1875,-5.1406 Q 6.2188,-5.1719 6.2656,-5.1719 H 6.4062 Q 6.5,-5.1719 6.5,-5.0625 6.5,-5.0469 6.4844,-5 l -0.1875,0.375 q -0.5157,1.0469 -0.9531,2.1094 -0.4376,1.0625 -0.75,2.0625 -0.0469,0.4062 -0.1797,1.1093 -0.1329,0.7032 -0.3203,1.3047 -0.1876,0.6016 -0.375,0.6329 -0.1719,0 -0.1719,-0.25 z"
         id="path321"
         inkscape:connector-curvature="0" />
    </g>
    <g
       transform="translate(145,72)"
       style="font-family:SansSerif;color-interpolation:linearRGB;color-rendering:optimizeQuality;image-rendering:optimizeQuality;text-rendering:geometricPrecision"
       id="g327">
      <path
         style="stroke:none"
         d="m 1.2656,-5.4531 h 7.5156 v 0.9843 H 1.2656 Z m 0,2.3906 h 7.5156 v 1 H 1.2656 Z m 12.6016,-4.9063 q -0.9063,0 -1.3672,0.8985 -0.4609,0.8984 -0.4609,2.7109 0,1.7969 0.4609,2.6953 0.4609,0.8985 1.3672,0.8985 0.9219,0 1.3828,-0.8985 0.4609,-0.8984 0.4609,-2.6953 0,-1.8125 -0.4609,-2.7109 -0.4609,-0.8985 -1.3828,-0.8985 z m 0,-0.9374 q 1.4687,0 2.25,1.164 0.7812,1.1641 0.7812,3.3828 0,2.2032 -0.7812,3.3672 -0.7813,1.1641 -2.25,1.1641 -1.4688,0 -2.2422,-1.1641 -0.7734,-1.164 -0.7734,-3.3672 0,-2.2187 0.7734,-3.3828 0.7734,-1.164 2.2422,-1.164 z m 5.1035,7.4218 h 1.2344 V 0 H 18.9707 Z M 23.8008,-1 h 4.1406 v 1 h -5.5625 v -1 q 0.6719,-0.6875 1.8359,-1.8672 1.1641,-1.1797 1.461,-1.5234 0.5781,-0.625 0.8047,-1.0703 0.2265,-0.4453 0.2265,-0.8672 0,-0.7031 -0.4922,-1.1407 -0.4921,-0.4374 -1.2734,-0.4374 -0.5625,0 -1.1797,0.1874 -0.6172,0.1876 -1.3203,0.5938 v -1.2031 q 0.7188,-0.2813 1.3359,-0.4297 0.6172,-0.1484 1.1329,-0.1484 1.3593,0 2.1718,0.6796 0.8125,0.6797 0.8125,1.8204 0,0.5312 -0.2031,1.0156 -0.2031,0.4844 -0.7344,1.1406 -0.1562,0.1719 -0.9375,0.9844 Q 25.2383,-2.4531 23.8008,-1 Z m 6.6347,-7.75 h 4.6407 v 1 h -3.5625 v 2.1406 q 0.2656,-0.0937 0.5234,-0.1328 0.2578,-0.039 0.5078,-0.039 1.4688,0 2.3281,0.8046 0.8594,0.8047 0.8594,2.1641 0,1.4219 -0.8828,2.2031 -0.8828,0.7813 -2.4766,0.7813 -0.5625,0 -1.1328,-0.0938 -0.5703,-0.0937 -1.1797,-0.2812 v -1.1875 q 0.5313,0.2812 1.0938,0.4218 0.5625,0.1407 1.1875,0.1407 1.0156,0 1.6094,-0.5313 0.5937,-0.5312 0.5937,-1.4531 0,-0.9063 -0.5937,-1.4375 -0.5938,-0.5312 -1.6094,-0.5312 -0.4688,0 -0.9453,0.1015 -0.4766,0.1016 -0.961,0.3203 z"
         id="path325"
         inkscape:connector-curvature="0" />
    </g>
    <g
       style="color-interpolation:linearRGB;fill:#ff0000;stroke:#ff0000;stroke-width:2.66669989;stroke-linecap:butt;stroke-linejoin:round;color-rendering:optimizeQuality;image-rendering:optimizeQuality;text-rendering:geometricPrecision"
       id="g333">
      <line
         y2="66.870499"
         style="fill:none"
         x1="95"
         x2="135"
         y1="66.870499"
         id="line329" />
      <path
         d="M -3,-3 V 3 H 3 V -3 Z"
         style="fill:none;stroke-linejoin:miter"
         transform="translate(115,66.8705)"
         id="path331"
         inkscape:connector-curvature="0" />
    </g>
    <g
       transform="translate(138,87)"
       style="font-family:mwb_cmmi10;color-interpolation:linearRGB;color-rendering:optimizeQuality;image-rendering:optimizeQuality;text-rendering:geometricPrecision"
       id="g337">
      <path
         style="stroke:none"
         d="m 3.5469,2.3438 q 0,-0.2657 0.1172,-0.7813 Q 3.7812,1.0469 3.9531,0.4609 4.125,-0.125 4.25,-0.5 4.2969,-1.0938 4.2969,-1.3906 4.2969,-2.1719 4.1406,-2.8359 3.9844,-3.5 3.5625,-3.9453 3.1406,-4.3906 2.3906,-4.3906 2,-4.3906 1.6016,-4.2266 1.2031,-4.0625 0.9219,-3.7578 0.6406,-3.4531 0.5312,-3.0625 0.5,-2.9844 0.4375,-2.9844 H 0.2812 q -0.0937,0 -0.0937,-0.1094 v -0.0468 q 0.1406,-0.5313 0.4844,-1.0313 0.3437,-0.5 0.8359,-0.8125 Q 2,-5.2969 2.5625,-5.2969 q 0.5625,0 0.9687,0.375 0.4063,0.375 0.6563,0.961 0.25,0.5859 0.3516,1.1875 0.1015,0.6015 0.1015,1.1328 Q 5.25,-3.2812 6,-4.75 L 6.1875,-5.1406 Q 6.2188,-5.1719 6.2656,-5.1719 H 6.4062 Q 6.5,-5.1719 6.5,-5.0625 6.5,-5.0469 6.4844,-5 l -0.1875,0.375 q -0.5157,1.0469 -0.9531,2.1094 -0.4376,1.0625 -0.75,2.0625 -0.0469,0.4062 -0.1797,1.1093 -0.1329,0.7032 -0.3203,1.3047 -0.1876,0.6016 -0.375,0.6329 -0.1719,0 -0.1719,-0.25 z"
         id="path335"
         inkscape:connector-curvature="0" />
    </g>
    <g
       transform="translate(145,87)"
       style="font-family:SansSerif;color-interpolation:linearRGB;color-rendering:optimizeQuality;image-rendering:optimizeQuality;text-rendering:geometricPrecision"
       id="g341">
      <path
         style="stroke:none"
         d="m 1.2656,-5.4531 h 7.5156 v 0.9843 H 1.2656 Z m 0,2.3906 h 7.5156 v 1 H 1.2656 Z m 12.6016,-4.9063 q -0.9063,0 -1.3672,0.8985 -0.4609,0.8984 -0.4609,2.7109 0,1.7969 0.4609,2.6953 0.4609,0.8985 1.3672,0.8985 0.9219,0 1.3828,-0.8985 0.4609,-0.8984 0.4609,-2.6953 0,-1.8125 -0.4609,-2.7109 -0.4609,-0.8985 -1.3828,-0.8985 z m 0,-0.9374 q 1.4687,0 2.25,1.164 0.7812,1.1641 0.7812,3.3828 0,2.2032 -0.7812,3.3672 -0.7813,1.1641 -2.25,1.1641 -1.4688,0 -2.2422,-1.1641 -0.7734,-1.164 -0.7734,-3.3672 0,-2.2187 0.7734,-3.3828 0.7734,-1.164 2.2422,-1.164 z m 5.1035,7.4218 h 1.2344 V 0 H 18.9707 Z M 22.8008,-8.75 h 4.6406 v 1 h -3.5625 v 2.1406 q 0.2656,-0.0937 0.5234,-0.1328 0.2579,-0.039 0.5079,-0.039 1.4687,0 2.3281,0.8046 0.8594,0.8047 0.8594,2.1641 0,1.4219 -0.8829,2.2031 -0.8828,0.7813 -2.4765,0.7813 -0.5625,0 -1.1328,-0.0938 -0.5703,-0.0937 -1.1797,-0.2812 v -1.1875 q 0.5312,0.2812 1.0937,0.4218 0.5625,0.1407 1.1875,0.1407 1.0157,0 1.6094,-0.5313 0.5938,-0.5312 0.5938,-1.4531 0,-0.9063 -0.5938,-1.4375 -0.5937,-0.5312 -1.6094,-0.5312 -0.4687,0 -0.9453,0.1015 -0.4765,0.1016 -0.9609,0.3203 z m 10.1504,0.7812 q -0.9063,0 -1.3672,0.8985 -0.461,0.8984 -0.461,2.7109 0,1.7969 0.461,2.6953 0.4609,0.8985 1.3672,0.8985 0.9218,0 1.3828,-0.8985 0.4609,-0.8984 0.4609,-2.6953 0,-1.8125 -0.4609,-2.7109 -0.461,-0.8985 -1.3828,-0.8985 z m 0,-0.9374 q 1.4687,0 2.25,1.164 0.7812,1.1641 0.7812,3.3828 0,2.2032 -0.7812,3.3672 -0.7813,1.1641 -2.25,1.1641 -1.4688,0 -2.2422,-1.1641 -0.7735,-1.164 -0.7735,-3.3672 0,-2.2187 0.7735,-3.3828 0.7734,-1.164 2.2422,-1.164 z"
         id="path339"
         inkscape:connector-curvature="0" />
    </g>
    <g
       style="color-interpolation:linearRGB;fill:#00ffff;stroke:#00ffff;stroke-width:2.66669989;stroke-linecap:butt;stroke-linejoin:round;color-rendering:optimizeQuality;image-rendering:optimizeQuality;text-rendering:geometricPrecision"
       id="g347">
      <line
         y2="82.290199"
         style="fill:none"
         x1="95"
         x2="135"
         y1="82.290199"
         id="line343" />
      <path
         d="M 0,-4 V 4 M -4,0 h 8 m -6.8284,-2.8284 5.6568,5.6568 m -5.6568,0 5.6568,-5.6568"
         style="fill:none;stroke-linejoin:miter"
         transform="translate(115,82.2902)"
         id="path345"
         inkscape:connector-curvature="0" />
    </g>
    <g
       transform="translate(138,103)"
       style="font-family:mwb_cmmi10;color-interpolation:linearRGB;color-rendering:optimizeQuality;image-rendering:optimizeQuality;text-rendering:geometricPrecision"
       id="g351">
      <path
         style="stroke:none"
         d="m 3.5469,2.3438 q 0,-0.2657 0.1172,-0.7813 Q 3.7812,1.0469 3.9531,0.4609 4.125,-0.125 4.25,-0.5 4.2969,-1.0938 4.2969,-1.3906 4.2969,-2.1719 4.1406,-2.8359 3.9844,-3.5 3.5625,-3.9453 3.1406,-4.3906 2.3906,-4.3906 2,-4.3906 1.6016,-4.2266 1.2031,-4.0625 0.9219,-3.7578 0.6406,-3.4531 0.5312,-3.0625 0.5,-2.9844 0.4375,-2.9844 H 0.2812 q -0.0937,0 -0.0937,-0.1094 v -0.0468 q 0.1406,-0.5313 0.4844,-1.0313 0.3437,-0.5 0.8359,-0.8125 Q 2,-5.2969 2.5625,-5.2969 q 0.5625,0 0.9687,0.375 0.4063,0.375 0.6563,0.961 0.25,0.5859 0.3516,1.1875 0.1015,0.6015 0.1015,1.1328 Q 5.25,-3.2812 6,-4.75 L 6.1875,-5.1406 Q 6.2188,-5.1719 6.2656,-5.1719 H 6.4062 Q 6.5,-5.1719 6.5,-5.0625 6.5,-5.0469 6.4844,-5 l -0.1875,0.375 q -0.5157,1.0469 -0.9531,2.1094 -0.4376,1.0625 -0.75,2.0625 -0.0469,0.4062 -0.1797,1.1093 -0.1329,0.7032 -0.3203,1.3047 -0.1876,0.6016 -0.375,0.6329 -0.1719,0 -0.1719,-0.25 z"
         id="path349"
         inkscape:connector-curvature="0" />
    </g>
    <g
       transform="translate(145,103)"
       style="font-family:SansSerif;color-interpolation:linearRGB;color-rendering:optimizeQuality;image-rendering:optimizeQuality;text-rendering:geometricPrecision"
       id="g355">
      <path
         style="stroke:none"
         d="m 1.2656,-5.4531 h 7.5156 v 0.9843 H 1.2656 Z m 0,2.3906 h 7.5156 v 1 H 1.2656 Z m 12.6016,-4.9063 q -0.9063,0 -1.3672,0.8985 -0.4609,0.8984 -0.4609,2.7109 0,1.7969 0.4609,2.6953 0.4609,0.8985 1.3672,0.8985 0.9219,0 1.3828,-0.8985 0.4609,-0.8984 0.4609,-2.6953 0,-1.8125 -0.4609,-2.7109 -0.4609,-0.8985 -1.3828,-0.8985 z m 0,-0.9374 q 1.4687,0 2.25,1.164 0.7812,1.1641 0.7812,3.3828 0,2.2032 -0.7812,3.3672 -0.7813,1.1641 -2.25,1.1641 -1.4688,0 -2.2422,-1.1641 -0.7734,-1.164 -0.7734,-3.3672 0,-2.2187 0.7734,-3.3828 0.7734,-1.164 2.2422,-1.164 z m 5.1035,7.4218 h 1.2344 V 0 H 18.9707 Z M 22.4883,-8.75 h 5.625 v 0.5 L 24.9414,0 H 23.707 l 2.9844,-7.75 h -4.2031 z m 7.9472,0 h 4.6407 v 1 h -3.5625 v 2.1406 q 0.2656,-0.0937 0.5234,-0.1328 0.2578,-0.039 0.5078,-0.039 1.4688,0 2.3281,0.8046 0.8594,0.8047 0.8594,2.1641 0,1.4219 -0.8828,2.2031 -0.8828,0.7813 -2.4766,0.7813 -0.5625,0 -1.1328,-0.0938 -0.5703,-0.0937 -1.1797,-0.2812 v -1.1875 q 0.5313,0.2812 1.0938,0.4218 0.5625,0.1407 1.1875,0.1407 1.0156,0 1.6094,-0.5313 0.5937,-0.5312 0.5937,-1.4531 0,-0.9063 -0.5937,-1.4375 -0.5938,-0.5312 -1.6094,-0.5312 -0.4688,0 -0.9453,0.1015 -0.4766,0.1016 -0.961,0.3203 z"
         id="path353"
         inkscape:connector-curvature="0" />
    </g>
    <g
       style="color-interpolation:linearRGB;fill:#00ff00;stroke:#00ff00;stroke-width:2.66669989;stroke-linecap:butt;stroke-linejoin:round;color-rendering:optimizeQuality;image-rendering:optimizeQuality;text-rendering:geometricPrecision"
       id="g361">
      <line
         y2="97.709801"
         style="fill:none"
         x1="95"
         x2="135"
         y1="97.709801"
         id="line357" />
      <path
         d="m 0,-5.332 -4.6175,7.998 h 9.235 z"
         style="fill:none;stroke-linejoin:miter"
         transform="translate(115,97.7098)"
         id="path359"
         inkscape:connector-curvature="0" />
    </g>
    <g
       transform="translate(138,118)"
       style="font-family:mwb_cmmi10;color-interpolation:linearRGB;color-rendering:optimizeQuality;image-rendering:optimizeQuality;text-rendering:geometricPrecision"
       id="g365">
      <path
         style="stroke:none"
         d="m 3.5469,2.3438 q 0,-0.2657 0.1172,-0.7813 Q 3.7812,1.0469 3.9531,0.4609 4.125,-0.125 4.25,-0.5 4.2969,-1.0938 4.2969,-1.3906 4.2969,-2.1719 4.1406,-2.8359 3.9844,-3.5 3.5625,-3.9453 3.1406,-4.3906 2.3906,-4.3906 2,-4.3906 1.6016,-4.2266 1.2031,-4.0625 0.9219,-3.7578 0.6406,-3.4531 0.5312,-3.0625 0.5,-2.9844 0.4375,-2.9844 H 0.2812 q -0.0937,0 -0.0937,-0.1094 v -0.0468 q 0.1406,-0.5313 0.4844,-1.0313 0.3437,-0.5 0.8359,-0.8125 Q 2,-5.2969 2.5625,-5.2969 q 0.5625,0 0.9687,0.375 0.4063,0.375 0.6563,0.961 0.25,0.5859 0.3516,1.1875 0.1015,0.6015 0.1015,1.1328 Q 5.25,-3.2812 6,-4.75 L 6.1875,-5.1406 Q 6.2188,-5.1719 6.2656,-5.1719 H 6.4062 Q 6.5,-5.1719 6.5,-5.0625 6.5,-5.0469 6.4844,-5 l -0.1875,0.375 q -0.5157,1.0469 -0.9531,2.1094 -0.4376,1.0625 -0.75,2.0625 -0.0469,0.4062 -0.1797,1.1093 -0.1329,0.7032 -0.3203,1.3047 -0.1876,0.6016 -0.375,0.6329 -0.1719,0 -0.1719,-0.25 z"
         id="path363"
         inkscape:connector-curvature="0" />
    </g>
    <g
       transform="translate(145,118)"
       style="font-family:SansSerif;color-interpolation:linearRGB;color-rendering:optimizeQuality;image-rendering:optimizeQuality;text-rendering:geometricPrecision"
       id="g369">
      <path
         style="stroke:none"
         d="m 1.2656,-5.4531 h 7.5156 v 0.9843 H 1.2656 Z m 0,2.3906 h 7.5156 v 1 H 1.2656 Z M 11.5391,-1 h 1.9375 V -7.6719 L 11.3672,-7.25 V -8.3281 L 13.4609,-8.75 h 1.1875 V -1 h 1.9375 v 1 h -5.0468 z m 7.4316,-0.4844 h 1.2344 V 0 h -1.2344 z m 6.3457,-6.4844 q -0.9062,0 -1.3672,0.8985 -0.4609,0.8984 -0.4609,2.7109 0,1.7969 0.4609,2.6953 0.461,0.8985 1.3672,0.8985 0.9219,0 1.3828,-0.8985 0.461,-0.8984 0.461,-2.6953 0,-1.8125 -0.461,-2.7109 -0.4609,-0.8985 -1.3828,-0.8985 z m 0,-0.9374 q 1.4688,0 2.25,1.164 0.7813,1.1641 0.7813,3.3828 0,2.2032 -0.7813,3.3672 -0.7812,1.1641 -2.25,1.1641 -1.4687,0 -2.2422,-1.1641 -0.7734,-1.164 -0.7734,-3.3672 0,-2.2187 0.7734,-3.3828 0.7735,-1.164 2.2422,-1.164 z m 7.6348,0.9374 q -0.9063,0 -1.3672,0.8985 -0.461,0.8984 -0.461,2.7109 0,1.7969 0.461,2.6953 0.4609,0.8985 1.3672,0.8985 0.9218,0 1.3828,-0.8985 0.4609,-0.8984 0.4609,-2.6953 0,-1.8125 -0.4609,-2.7109 -0.461,-0.8985 -1.3828,-0.8985 z m 0,-0.9374 q 1.4687,0 2.25,1.164 0.7812,1.1641 0.7812,3.3828 0,2.2032 -0.7812,3.3672 -0.7813,1.1641 -2.25,1.1641 -1.4688,0 -2.2422,-1.1641 -0.7735,-1.164 -0.7735,-3.3672 0,-2.2187 0.7735,-3.3828 0.7734,-1.164 2.2422,-1.164 z"
         id="path367"
         inkscape:connector-curvature="0" />
    </g>
    <g
       style="color-interpolation:linearRGB;stroke-width:2.66669989;stroke-linecap:butt;stroke-linejoin:round;color-rendering:optimizeQuality;image-rendering:optimizeQuality;text-rendering:geometricPrecision"
       id="g375">
      <line
         y2="113.1295"
         style="fill:none"
         x1="95"
         x2="135"
         y1="113.1295"
         id="line371" />
      <path
         d="m 0,5.332 -4.6175,-7.998 h 9.235 z"
         style="fill:none;stroke-linejoin:miter"
         transform="translate(115,113.1295)"
         id="path373"
         inkscape:connector-curvature="0" />
    </g>
    <g
       transform="translate(138,134)"
       style="font-family:mwb_cmmi10;color-interpolation:linearRGB;color-rendering:optimizeQuality;image-rendering:optimizeQuality;text-rendering:geometricPrecision"
       id="g379">
      <path
         style="stroke:none"
         d="m 3.5469,2.3438 q 0,-0.2657 0.1172,-0.7813 Q 3.7812,1.0469 3.9531,0.4609 4.125,-0.125 4.25,-0.5 4.2969,-1.0938 4.2969,-1.3906 4.2969,-2.1719 4.1406,-2.8359 3.9844,-3.5 3.5625,-3.9453 3.1406,-4.3906 2.3906,-4.3906 2,-4.3906 1.6016,-4.2266 1.2031,-4.0625 0.9219,-3.7578 0.6406,-3.4531 0.5312,-3.0625 0.5,-2.9844 0.4375,-2.9844 H 0.2812 q -0.0937,0 -0.0937,-0.1094 v -0.0468 q 0.1406,-0.5313 0.4844,-1.0313 0.3437,-0.5 0.8359,-0.8125 Q 2,-5.2969 2.5625,-5.2969 q 0.5625,0 0.9687,0.375 0.4063,0.375 0.6563,0.961 0.25,0.5859 0.3516,1.1875 0.1015,0.6015 0.1015,1.1328 Q 5.25,-3.2812 6,-4.75 L 6.1875,-5.1406 Q 6.2188,-5.1719 6.2656,-5.1719 H 6.4062 Q 6.5,-5.1719 6.5,-5.0625 6.5,-5.0469 6.4844,-5 l -0.1875,0.375 q -0.5157,1.0469 -0.9531,2.1094 -0.4376,1.0625 -0.75,2.0625 -0.0469,0.4062 -0.1797,1.1093 -0.1329,0.7032 -0.3203,1.3047 -0.1876,0.6016 -0.375,0.6329 -0.1719,0 -0.1719,-0.25 z"
         id="path377"
         inkscape:connector-curvature="0" />
    </g>
    <g
       transform="translate(145,134)"
       style="font-family:SansSerif;color-interpolation:linearRGB;color-rendering:optimizeQuality;image-rendering:optimizeQuality;text-rendering:geometricPrecision"
       id="g383">
      <path
         style="stroke:none"
         d="m 1.2656,-5.4531 h 7.5156 v 0.9843 H 1.2656 Z m 0,2.3906 h 7.5156 v 1 H 1.2656 Z M 11.5391,-1 h 1.9375 V -7.6719 L 11.3672,-7.25 V -8.3281 L 13.4609,-8.75 h 1.1875 V -1 h 1.9375 v 1 h -5.0468 z m 7.4316,-0.4844 h 1.2344 V 0 H 18.9707 Z M 22.9883,-1 h 1.9375 V -7.6719 L 22.8164,-7.25 V -8.3281 L 24.9102,-8.75 h 1.1875 V -1 h 1.9375 v 1 h -5.0469 z m 9.9629,-6.9688 q -0.9063,0 -1.3672,0.8985 -0.461,0.8984 -0.461,2.7109 0,1.7969 0.461,2.6953 0.4609,0.8985 1.3672,0.8985 0.9218,0 1.3828,-0.8985 0.4609,-0.8984 0.4609,-2.6953 0,-1.8125 -0.4609,-2.7109 -0.461,-0.8985 -1.3828,-0.8985 z m 0,-0.9374 q 1.4687,0 2.25,1.164 0.7812,1.1641 0.7812,3.3828 0,2.2032 -0.7812,3.3672 -0.7813,1.1641 -2.25,1.1641 -1.4688,0 -2.2422,-1.1641 -0.7735,-1.164 -0.7735,-3.3672 0,-2.2187 0.7735,-3.3828 0.7734,-1.164 2.2422,-1.164 z"
         id="path381"
         inkscape:connector-curvature="0" />
    </g>
    <g
       style="color-interpolation:linearRGB;stroke-width:2.66669989;stroke-linecap:butt;stroke-linejoin:bevel;stroke-miterlimit:1;stroke-dasharray:8, 2, 4, 2;color-rendering:optimizeQuality;image-rendering:optimizeQuality;text-rendering:geometricPrecision"
       id="g387">
      <line
         y2="128.54919"
         style="fill:none"
         x1="95"
         x2="135"
         y1="128.54919"
         id="line385" />
    </g>
    <g
       style="color-interpolation:linearRGB;fill:#262626;stroke:#262626;stroke-width:0.66670001;stroke-linecap:butt;color-rendering:optimizeQuality;image-rendering:optimizeQuality;text-rendering:geometricPrecision"
       id="g391">
      <path
         d="M 91,138 V 42 h 95 v 96 z"
         style="fill:none;fill-rule:evenodd"
         id="path389"
         inkscape:connector-curvature="0" />
    </g>
  </g>
</svg>
