<?xml version="1.0" encoding="UTF-8" standalone="no"?>
<svg
   xmlns:dc="http://purl.org/dc/elements/1.1/"
   xmlns:cc="http://creativecommons.org/ns#"
   xmlns:rdf="http://www.w3.org/1999/02/22-rdf-syntax-ns#"
   xmlns:svg="http://www.w3.org/2000/svg"
   xmlns="http://www.w3.org/2000/svg"
   xmlns:sodipodi="http://sodipodi.sourceforge.net/DTD/sodipodi-0.dtd"
   xmlns:inkscape="http://www.inkscape.org/namespaces/inkscape"
   style="font-style:normal;font-weight:normal;font-size:12px;font-family:Dialog;color-interpolation:auto;fill:#000000;fill-opacity:1;stroke:#000000;stroke-width:1;stroke-linecap:square;stroke-linejoin:miter;stroke-miterlimit:10;stroke-dasharray:none;stroke-dashoffset:0;stroke-opacity:1;color-rendering:auto;image-rendering:auto;shape-rendering:auto;text-rendering:auto"
   width="501.55042"
   height="402.375"
   version="1.1"
   id="svg219"
   sodipodi:docname="energyThreshold_02.svg"
   inkscape:version="0.92.4 (f8dce91, 2019-08-02)">
  <metadata
     id="metadata223">
    <rdf:RDF>
      <cc:Work
         rdf:about="">
        <dc:format>image/svg+xml</dc:format>
        <dc:type
           rdf:resource="http://purl.org/dc/dcmitype/StillImage" />
        <dc:title></dc:title>
      </cc:Work>
    </rdf:RDF>
  </metadata>
  <sodipodi:namedview
     pagecolor="#ffffff"
     bordercolor="#666666"
     borderopacity="1"
     objecttolerance="10"
     gridtolerance="10"
     guidetolerance="10"
     inkscape:pageopacity="0"
     inkscape:pageshadow="2"
     inkscape:window-width="759"
     inkscape:window-height="480"
     id="namedview221"
     showgrid="false"
     fit-margin-top="0"
     fit-margin-left="0"
     fit-margin-right="0"
     fit-margin-bottom="0"
     inkscape:zoom="0.56190476"
     inkscape:cx="265.7083"
     inkscape:cy="205.2344"
     inkscape:window-x="67"
     inkscape:window-y="27"
     inkscape:window-maximized="0"
     inkscape:current-layer="g217" />
  <!--Generated by the Batik Graphics2D SVG Generator-->
  <defs
     id="genericDefs" />
  <g
     id="g217"
     transform="translate(-14.2917,-12.8594)">
    <defs
       id="defs1">
      <clipPath
         clipPathUnits="userSpaceOnUse"
         id="clipPath1">
        <path
           d="M 0,0 H 560 V 420 H 0 Z"
           id="path3"
           inkscape:connector-curvature="0" />
      </clipPath>
    </defs>
    <g
       style="color-interpolation:sRGB;fill:#ffffff;stroke:#ffffff;color-rendering:optimizeSpeed;image-rendering:optimizeSpeed;shape-rendering:crispEdges;text-rendering:optimizeSpeed"
       id="g15">
      <path
         style="stroke:none"
         d="M 73,374 H 507 V 31 H 73 Z"
         id="path13"
         inkscape:connector-curvature="0" />
    </g>
    <g
       style="color-interpolation:linearRGB;fill:#262626;fill-opacity:0.14900004;stroke:#262626;stroke-width:0.66670001;stroke-linecap:butt;stroke-linejoin:round;stroke-opacity:0.14900004;color-rendering:optimizeQuality;image-rendering:optimizeQuality;text-rendering:geometricPrecision"
       id="g79">
      <line
         y2="31"
         style="fill:none"
         x1="73"
         x2="73"
         y1="374"
         id="line17" />
      <line
         y2="31"
         style="fill:none"
         x1="145.3333"
         x2="145.3333"
         y1="374"
         id="line19" />
      <line
         y2="31"
         style="fill:none"
         x1="217.6667"
         x2="217.6667"
         y1="374"
         id="line21" />
      <line
         y2="31"
         style="fill:none"
         x1="290"
         x2="290"
         y1="374"
         id="line23" />
      <line
         y2="31"
         style="fill:none"
         x1="362.33331"
         x2="362.33331"
         y1="374"
         id="line25" />
      <line
         y2="31"
         style="fill:none"
         x1="434.66669"
         x2="434.66669"
         y1="374"
         id="line27" />
      <line
         y2="31"
         style="fill:none"
         x1="507"
         x2="507"
         y1="374"
         id="line29" />
      <line
         y2="374"
         style="fill:none"
         x1="507"
         x2="73"
         y1="374"
         id="line31" />
      <line
         y2="325"
         style="fill:none"
         x1="507"
         x2="73"
         y1="325"
         id="line33" />
      <line
         y2="276"
         style="fill:none"
         x1="507"
         x2="73"
         y1="276"
         id="line35" />
      <line
         y2="227"
         style="fill:none"
         x1="507"
         x2="73"
         y1="227"
         id="line37" />
      <line
         y2="178"
         style="fill:none"
         x1="507"
         x2="73"
         y1="178"
         id="line39" />
      <line
         y2="129"
         style="fill:none"
         x1="507"
         x2="73"
         y1="129"
         id="line41" />
      <line
         y2="80"
         style="fill:none"
         x1="507"
         x2="73"
         y1="80"
         id="line43" />
      <line
         y2="31"
         style="fill:none"
         x1="507"
         x2="73"
         y1="31"
         id="line45" />
      <line
         x1="73"
         x2="507"
         y1="374"
         style="fill:none;fill-opacity:1;stroke-linecap:square;stroke-opacity:1"
         y2="374"
         id="line47" />
      <line
         x1="73"
         x2="507"
         y1="31"
         style="fill:none;fill-opacity:1;stroke-linecap:square;stroke-opacity:1"
         y2="31"
         id="line49" />
      <line
         x1="73"
         x2="73"
         y1="374"
         style="fill:none;fill-opacity:1;stroke-linecap:square;stroke-opacity:1"
         y2="369.66"
         id="line51" />
      <line
         x1="145.3333"
         x2="145.3333"
         y1="374"
         style="fill:none;fill-opacity:1;stroke-linecap:square;stroke-opacity:1"
         y2="369.66"
         id="line53" />
      <line
         x1="217.6667"
         x2="217.6667"
         y1="374"
         style="fill:none;fill-opacity:1;stroke-linecap:square;stroke-opacity:1"
         y2="369.66"
         id="line55" />
      <line
         x1="290"
         x2="290"
         y1="374"
         style="fill:none;fill-opacity:1;stroke-linecap:square;stroke-opacity:1"
         y2="369.66"
         id="line57" />
      <line
         x1="362.33331"
         x2="362.33331"
         y1="374"
         style="fill:none;fill-opacity:1;stroke-linecap:square;stroke-opacity:1"
         y2="369.66"
         id="line59" />
      <line
         x1="434.66669"
         x2="434.66669"
         y1="374"
         style="fill:none;fill-opacity:1;stroke-linecap:square;stroke-opacity:1"
         y2="369.66"
         id="line61" />
      <line
         x1="507"
         x2="507"
         y1="374"
         style="fill:none;fill-opacity:1;stroke-linecap:square;stroke-opacity:1"
         y2="369.66"
         id="line63" />
      <line
         x1="73"
         x2="73"
         y1="31"
         style="fill:none;fill-opacity:1;stroke-linecap:square;stroke-opacity:1"
         y2="35.34"
         id="line65" />
      <line
         x1="145.3333"
         x2="145.3333"
         y1="31"
         style="fill:none;fill-opacity:1;stroke-linecap:square;stroke-opacity:1"
         y2="35.34"
         id="line67" />
      <line
         x1="217.6667"
         x2="217.6667"
         y1="31"
         style="fill:none;fill-opacity:1;stroke-linecap:square;stroke-opacity:1"
         y2="35.34"
         id="line69" />
      <line
         x1="290"
         x2="290"
         y1="31"
         style="fill:none;fill-opacity:1;stroke-linecap:square;stroke-opacity:1"
         y2="35.34"
         id="line71" />
      <line
         x1="362.33331"
         x2="362.33331"
         y1="31"
         style="fill:none;fill-opacity:1;stroke-linecap:square;stroke-opacity:1"
         y2="35.34"
         id="line73" />
      <line
         x1="434.66669"
         x2="434.66669"
         y1="31"
         style="fill:none;fill-opacity:1;stroke-linecap:square;stroke-opacity:1"
         y2="35.34"
         id="line75" />
      <line
         x1="507"
         x2="507"
         y1="31"
         style="fill:none;fill-opacity:1;stroke-linecap:square;stroke-opacity:1"
         y2="35.34"
         id="line77" />
    </g>
    <g
       transform="translate(73,379.3333)"
       style="font-size:13.33329964px;font-family:SansSerif;color-interpolation:linearRGB;fill:#262626;stroke:#262626;color-rendering:optimizeQuality;image-rendering:optimizeQuality;text-rendering:geometricPrecision"
       id="g83">
      <path
         style="stroke:none"
         d="m -12.3594,8.9219 h 3.4219 v 1.0312 h -3.4219 z m 5.7725,3 h 2.0937 V 4.6875 L -6.7744,5.1406 V 3.9844 l 2.2656,-0.4688 h 1.2969 v 8.4063 h 2.0937 V 13 h -5.4687 z m 8.251,-0.5313 H 3.0079 V 13 H 1.6641 Z m 4.2473,-7.875 h 5.0313 V 4.6094 H 7.0833 V 6.9219 Q 7.3645,6.8281 7.6458,6.7812 7.927,6.7344 8.1927,6.7344 q 1.5937,0 2.5234,0.8672 0.9297,0.8672 0.9297,2.3515 0,1.5313 -0.9531,2.3828 -0.9532,0.8516 -2.6875,0.8516 -0.5938,0 -1.2188,-0.1016 -0.625,-0.1015 -1.2812,-0.3047 v -1.2968 q 0.5781,0.3125 1.1875,0.4687 0.6093,0.1563 1.2812,0.1563 1.1094,0 1.75,-0.5782 0.6406,-0.5781 0.6406,-1.5781 0,-0.9843 -0.6406,-1.5625 -0.6406,-0.5781 -1.75,-0.5781 -0.5156,0 -1.0234,0.1172 -0.5078,0.1172 -1.0391,0.3515 z"
         id="path81"
         inkscape:connector-curvature="0" />
    </g>
    <g
       transform="translate(145.3333,379.3333)"
       style="font-size:13.33329964px;font-family:SansSerif;color-interpolation:linearRGB;fill:#262626;stroke:#262626;color-rendering:optimizeQuality;image-rendering:optimizeQuality;text-rendering:geometricPrecision"
       id="g87">
      <path
         style="stroke:none"
         d="m -6.3594,8.9219 h 3.4219 v 1.0312 h -3.4219 z m 5.7725,3 H 1.5068 V 4.6875 L -0.7744,5.1406 V 3.9844 L 1.4912,3.5156 h 1.2969 v 8.4063 H 4.8818 V 13 h -5.4687 z"
         id="path85"
         inkscape:connector-curvature="0" />
    </g>
    <g
       transform="translate(217.6667,379.3333)"
       style="font-size:13.33329964px;font-family:SansSerif;color-interpolation:linearRGB;fill:#262626;stroke:#262626;color-rendering:optimizeQuality;image-rendering:optimizeQuality;text-rendering:geometricPrecision"
       id="g91">
      <path
         style="stroke:none"
         d="m -12.3594,8.9219 h 3.4219 v 1.0312 h -3.4219 z m 8.2881,-4.5625 q -0.9844,0 -1.4844,0.9765 -0.5,0.9766 -0.5,2.9297 0,1.9532 0.5,2.9297 0.5,0.9766 1.4844,0.9766 1,0 1.5,-0.9766 0.5,-0.9765 0.5,-2.9297 0,-1.9531 -0.5,-2.9297 -0.5,-0.9765 -1.5,-0.9765 z m 0,-1.0156 q 1.5937,0 2.4375,1.2656 0.8437,1.2656 0.8437,3.6562 0,2.3906 -0.8437,3.6563 -0.8438,1.2656 -2.4375,1.2656 -1.5781,0 -2.4219,-1.2656 -0.8437,-1.2657 -0.8437,-3.6563 0,-2.3906 0.8437,-3.6562 0.8438,-1.2656 2.4219,-1.2656 z m 5.7354,8.0468 H 3.0079 V 13 H 1.6641 Z m 4.2473,-7.875 h 5.0313 V 4.6094 H 7.0833 V 6.9219 Q 7.3645,6.8281 7.6458,6.7812 7.927,6.7344 8.1927,6.7344 q 1.5937,0 2.5234,0.8672 0.9297,0.8672 0.9297,2.3515 0,1.5313 -0.9531,2.3828 -0.9532,0.8516 -2.6875,0.8516 -0.5938,0 -1.2188,-0.1016 -0.625,-0.1015 -1.2812,-0.3047 v -1.2968 q 0.5781,0.3125 1.1875,0.4687 0.6093,0.1563 1.2812,0.1563 1.1094,0 1.75,-0.5782 0.6406,-0.5781 0.6406,-1.5781 0,-0.9843 -0.6406,-1.5625 -0.6406,-0.5781 -1.75,-0.5781 -0.5156,0 -1.0234,0.1172 -0.5078,0.1172 -1.0391,0.3515 z"
         id="path89"
         inkscape:connector-curvature="0" />
    </g>
    <g
       transform="translate(290,379.3333)"
       style="font-size:13.33329964px;font-family:SansSerif;color-interpolation:linearRGB;fill:#262626;stroke:#262626;color-rendering:optimizeQuality;image-rendering:optimizeQuality;text-rendering:geometricPrecision"
       id="g95">
      <path
         style="stroke:none"
         d="m -0.375,4.3594 q -0.9844,0 -1.4844,0.9765 -0.5,0.9766 -0.5,2.9297 0,1.9532 0.5,2.9297 0.5,0.9766 1.4844,0.9766 1,0 1.5,-0.9766 0.5,-0.9765 0.5,-2.9297 0,-1.9531 -0.5,-2.9297 -0.5,-0.9765 -1.5,-0.9765 z m 0,-1.0156 q 1.5938,0 2.4375,1.2656 0.8437,1.2656 0.8437,3.6562 0,2.3906 -0.8437,3.6563 -0.8437,1.2656 -2.4375,1.2656 -1.5781,0 -2.4219,-1.2656 -0.8437,-1.2657 -0.8437,-3.6563 0,-2.3906 0.8437,-3.6562 0.8438,-1.2656 2.4219,-1.2656 z"
         id="path93"
         inkscape:connector-curvature="0" />
    </g>
    <g
       transform="translate(362.3333,379.3333)"
       style="font-size:13.33329964px;font-family:SansSerif;color-interpolation:linearRGB;fill:#262626;stroke:#262626;color-rendering:optimizeQuality;image-rendering:optimizeQuality;text-rendering:geometricPrecision"
       id="g99">
      <path
         style="stroke:none"
         d="m -6.875,4.3594 q -0.9844,0 -1.4844,0.9765 -0.5,0.9766 -0.5,2.9297 0,1.9532 0.5,2.9297 0.5,0.9766 1.4844,0.9766 1,0 1.5,-0.9766 0.5,-0.9765 0.5,-2.9297 0,-1.9531 -0.5,-2.9297 -0.5,-0.9765 -1.5,-0.9765 z m 0,-1.0156 q 1.5938,0 2.4375,1.2656 0.8437,1.2656 0.8437,3.6562 0,2.3906 -0.8437,3.6563 -0.8437,1.2656 -2.4375,1.2656 -1.5781,0 -2.4219,-1.2656 -0.8437,-1.2657 -0.8437,-3.6563 0,-2.3906 0.8437,-3.6562 0.8438,-1.2656 2.4219,-1.2656 z m 5.7354,8.0468 H 0.2042 V 13 H -1.1396 Z M 3.1077,3.5156 H 8.139 V 4.6094 H 4.2796 V 6.9219 Q 4.5609,6.8281 4.8421,6.7812 5.1234,6.7344 5.389,6.7344 q 1.5937,0 2.5234,0.8672 0.9297,0.8672 0.9297,2.3515 0,1.5313 -0.9531,2.3828 -0.9531,0.8516 -2.6875,0.8516 -0.5938,0 -1.2188,-0.1016 -0.625,-0.1015 -1.2812,-0.3047 v -1.2968 q 0.5781,0.3125 1.1875,0.4687 0.6094,0.1563 1.2812,0.1563 1.1094,0 1.75,-0.5782 0.6407,-0.5781 0.6407,-1.5781 0,-0.9843 -0.6407,-1.5625 -0.6406,-0.5781 -1.75,-0.5781 -0.5156,0 -1.0234,0.1172 Q 3.639,8.0469 3.1077,8.2812 Z"
         id="path97"
         inkscape:connector-curvature="0" />
    </g>
    <g
       transform="translate(434.6667,379.3333)"
       style="font-size:13.33329964px;font-family:SansSerif;color-interpolation:linearRGB;fill:#262626;stroke:#262626;color-rendering:optimizeQuality;image-rendering:optimizeQuality;text-rendering:geometricPrecision"
       id="g103">
      <path
         style="stroke:none"
         d="m -2.8906,11.9219 h 2.0937 V 4.6875 L -3.0781,5.1406 V 3.9844 l 2.2656,-0.4688 h 1.2969 v 8.4063 H 2.5781 V 13 h -5.4687 z"
         id="path101"
         inkscape:connector-curvature="0" />
    </g>
    <g
       transform="translate(507,379.3333)"
       style="font-size:13.33329964px;font-family:SansSerif;color-interpolation:linearRGB;fill:#262626;stroke:#262626;color-rendering:optimizeQuality;image-rendering:optimizeQuality;text-rendering:geometricPrecision"
       id="g107">
      <path
         style="stroke:none"
         d="m -9.3906,11.9219 h 2.0937 V 4.6875 L -9.5781,5.1406 V 3.9844 l 2.2656,-0.4688 h 1.2969 v 8.4063 h 2.0937 V 13 h -5.4687 z m 8.251,-0.5313 H 0.2042 V 13 H -1.1396 Z M 3.1077,3.5156 H 8.139 V 4.6094 H 4.2796 V 6.9219 Q 4.5609,6.8281 4.8421,6.7812 5.1234,6.7344 5.389,6.7344 q 1.5937,0 2.5234,0.8672 0.9297,0.8672 0.9297,2.3515 0,1.5313 -0.9531,2.3828 -0.9531,0.8516 -2.6875,0.8516 -0.5938,0 -1.2188,-0.1016 -0.625,-0.1015 -1.2812,-0.3047 v -1.2968 q 0.5781,0.3125 1.1875,0.4687 0.6094,0.1563 1.2812,0.1563 1.1094,0 1.75,-0.5782 0.6407,-0.5781 0.6407,-1.5781 0,-0.9843 -0.6407,-1.5625 -0.6406,-0.5781 -1.75,-0.5781 -0.5156,0 -1.0234,0.1172 Q 3.639,8.0469 3.1077,8.2812 Z"
         id="path105"
         inkscape:connector-curvature="0" />
    </g>
    <g
       transform="translate(241,412)"
       style="font-size:14.66670036px;font-family:SansSerif;color-interpolation:linearRGB;fill:#262626;stroke:#262626;color-rendering:optimizeQuality;image-rendering:optimizeQuality;text-rendering:geometricPrecision"
       id="g111">
      <path
         style="stroke:none"
         d="m -0.0469,-10.9375 h 9.25 v 1.25 H 5.3281 V 0 H 3.8438 V -9.6875 H -0.0469 Z M 17.187,-4.9531 V 0 h -1.3438 v -4.9062 q 0,-1.1719 -0.4531,-1.75 -0.4531,-0.5782 -1.375,-0.5782 -1.0781,0 -1.7109,0.6953 -0.6328,0.6953 -0.6328,1.8985 V 0 H 10.312 v -11.3906 h 1.3594 v 4.4687 q 0.4843,-0.75 1.1406,-1.1172 0.6562,-0.3671 1.5156,-0.3671 1.4063,0 2.1328,0.875 0.7266,0.875 0.7266,2.5781 z m 7.2265,-1.9844 q -0.2344,-0.1406 -0.5,-0.2031 -0.2657,-0.0625 -0.5938,-0.0625 -1.1406,0 -1.75,0.7422 -0.6094,0.7421 -0.6094,2.1328 V 0 H 19.601 v -8.2031 h 1.3593 v 1.2812 q 0.4219,-0.75 1.1016,-1.1172 0.6797,-0.3671 1.6641,-0.3671 0.1406,0 0.3047,0.0234 0.164,0.0234 0.3671,0.0547 z m 8.2913,2.5 v 0.6563 h -6.2032 q 0.0938,1.3906 0.8438,2.1171 0.75,0.7266 2.0781,0.7266 0.7813,0 1.5078,-0.1875 0.7266,-0.1875 1.4453,-0.5625 v 1.2656 q -0.7187,0.3125 -1.4843,0.4766 -0.7657,0.1641 -1.5469,0.1641 -1.9531,0 -3.1016,-1.1485 -1.1484,-1.1484 -1.1484,-3.0859 0,-2.0156 1.0859,-3.2032 1.086,-1.1874 2.9297,-1.1874 1.6563,0 2.625,1.0703 0.9688,1.0703 0.9688,2.8984 z m -1.3594,-0.3906 q -0.0156,-1.1094 -0.6172,-1.7735 -0.6016,-0.664 -1.6016,-0.664 -1.125,0 -1.8047,0.6406 -0.6796,0.6406 -0.7734,1.7969 z m 8.5795,-3.1407 v 1.2813 q -0.5625,-0.2969 -1.1797,-0.4375 -0.6172,-0.1406 -1.2734,-0.1406 -1.0156,0 -1.5156,0.3047 -0.5,0.3047 -0.5,0.914 0,0.4688 0.3593,0.7344 0.3594,0.2656 1.4532,0.5156 l 0.4531,0.1094 q 1.4375,0.2969 2.039,0.8594 0.6016,0.5625 0.6016,1.5625 0,1.1406 -0.8984,1.8125 -0.8985,0.6719 -2.4922,0.6719 -0.6563,0 -1.3672,-0.1329 -0.7109,-0.1328 -1.5078,-0.3828 v -1.3906 q 0.75,0.3906 1.4765,0.5781 0.7266,0.1875 1.4297,0.1875 0.9532,0 1.4688,-0.3203 0.5156,-0.3203 0.5156,-0.914 0,-0.5469 -0.375,-0.8438 -0.375,-0.2969 -1.625,-0.5625 l -0.4687,-0.1094 q -1.25,-0.2656 -1.8047,-0.8125 -0.5547,-0.5468 -0.5547,-1.5 0,-1.1562 0.8203,-1.789 0.8203,-0.6328 2.3203,-0.6328 0.75,0 1.4141,0.1093 0.664,0.1094 1.2109,0.3281 z m 9.2296,3.0157 V 0 h -1.3437 v -4.9062 q 0,-1.1719 -0.4532,-1.75 -0.4531,-0.5782 -1.375,-0.5782 -1.0781,0 -1.7109,0.6953 -0.6328,0.6953 -0.6328,1.8985 V 0 h -1.3594 v -11.3906 h 1.3594 v 4.4687 q 0.4844,-0.75 1.1406,-1.1172 0.6563,-0.3671 1.5156,-0.3671 1.4063,0 2.1328,0.875 0.7266,0.875 0.7266,2.5781 z m 5.6484,-2.3125 q -1.0782,0 -1.711,0.8515 -0.6328,0.8516 -0.6328,2.3203 0,1.4688 0.625,2.3126 0.625,0.8437 1.7188,0.8437 1.0781,0 1.7031,-0.8437 0.625,-0.8438 0.625,-2.3126 0,-1.4531 -0.625,-2.3124 -0.625,-0.8594 -1.7031,-0.8594 z m 0,-1.1406 q 1.75,0 2.7578,1.1484 1.0078,1.1484 1.0078,3.164 0,2.0157 -1.0078,3.1641 -1.0078,1.1485 -2.7578,1.1485 -1.7657,0 -2.7657,-1.1485 -1,-1.1484 -1,-3.1641 0,-2.0156 1,-3.164 1,-1.1484 2.7657,-1.1484 z m 5.7794,-2.9844 h 1.3594 V 0 h -1.3594 z m 9.4782,4.4375 v -4.4375 h 1.3438 V 0 h -1.3438 v -1.2344 q -0.4219,0.7344 -1.0703,1.0938 -0.6484,0.3594 -1.5547,0.3594 -1.4844,0 -2.4219,-1.1876 -0.9375,-1.1874 -0.9375,-3.125 0,-1.9374 0.9375,-3.125 0.9375,-1.1874 2.4219,-1.1874 0.9063,0 1.5547,0.3593 0.6484,0.3594 1.0703,1.0938 z m -4.5937,2.8593 q 0,1.4844 0.6093,2.3282 0.6094,0.8437 1.6875,0.8437 1.0625,0 1.6797,-0.8437 0.6172,-0.8438 0.6172,-2.3282 0,-1.4843 -0.6172,-2.3281 -0.6172,-0.8437 -1.6797,-0.8437 -1.0781,0 -1.6875,0.8437 -0.6093,0.8438 -0.6093,2.3281 z m 16.3995,-7.2812 q -0.9843,1.6719 -1.4609,3.3203 -0.4766,1.6485 -0.4766,3.3516 0,1.6875 0.4766,3.3437 0.4766,1.6563 1.4609,3.3438 H 80.6945 Q 79.5851,0.25 79.046,-1.4062 q -0.539,-1.6563 -0.539,-3.2969 0,-1.6407 0.539,-3.2969 0.5391,-1.6562 1.6485,-3.375 z"
         id="path109"
         inkscape:connector-curvature="0" />
    </g>
    <g
       transform="translate(324,412)"
       style="font-size:14.66670036px;font-family:mwb_cmmi10;color-interpolation:linearRGB;fill:#262626;stroke:#262626;color-rendering:optimizeQuality;image-rendering:optimizeQuality;text-rendering:geometricPrecision"
       id="g115">
      <path
         style="stroke:none"
         d="m 4.4219,2.9375 q 0,-0.3437 0.1484,-0.9844 Q 4.7188,1.3125 4.9375,0.5859 5.1562,-0.1406 5.3125,-0.6094 5.375,-1.3594 5.375,-1.75 5.375,-2.7031 5.1797,-3.5391 4.9844,-4.375 4.4609,-4.9375 3.9375,-5.5 2.9844,-5.5 q -0.5,0 -0.9922,0.2188 Q 1.5,-5.0625 1.1484,-4.6875 0.7969,-4.3125 0.6562,-3.8281 0.625,-3.7344 0.5469,-3.7344 H 0.3594 q -0.125,0 -0.125,-0.1406 V -3.9219 Q 0.4062,-4.5938 0.8359,-5.2188 1.2656,-5.8438 1.8828,-6.2344 2.5,-6.625 3.1875,-6.625 q 0.7031,0 1.2187,0.4766 0.5157,0.4765 0.8204,1.2031 0.3046,0.7265 0.4453,1.4765 0.1406,0.75 0.1406,1.4063 0.75,-2.0469 1.6875,-3.875 l 0.2344,-0.4844 q 0.0312,-0.0469 0.0937,-0.0469 h 0.1875 q 0.1094,0 0.1094,0.1407 0,0.0312 -0.0312,0.0937 L 7.875,-5.7656 Q 7.2188,-4.4688 6.6719,-3.1406 6.125,-1.8125 5.75,-0.5781 5.6875,-0.0625 5.5234,0.8125 5.3594,1.6875 5.125,2.4453 4.8906,3.2031 4.6562,3.2344 q -0.2343,0 -0.2343,-0.2969 z"
         id="path113"
         inkscape:connector-curvature="0" />
    </g>
    <g
       transform="translate(332,412)"
       style="font-size:14.66670036px;font-family:SansSerif;color-interpolation:linearRGB;fill:#262626;stroke:#262626;color-rendering:optimizeQuality;image-rendering:optimizeQuality;text-rendering:geometricPrecision"
       id="g119">
      <path
         style="stroke:none"
         d="M 1.2031,-11.375 H 2.375 q 1.0938,1.7188 1.6406,3.375 0.5469,1.6562 0.5469,3.2969 0,1.6406 -0.5469,3.2969 Q 3.4688,0.25 2.375,1.9844 H 1.2031 q 0.9688,-1.6875 1.4531,-3.3438 0.4844,-1.6562 0.4844,-3.3437 0,-1.7031 -0.4844,-3.3516 -0.4843,-1.6484 -1.4531,-3.3203 z"
         id="path117"
         inkscape:connector-curvature="0" />
    </g>
    <g
       style="color-interpolation:linearRGB;fill:#262626;stroke:#262626;stroke-width:0.66670001;stroke-linejoin:round;color-rendering:optimizeQuality;image-rendering:optimizeQuality;text-rendering:geometricPrecision"
       id="g157">
      <line
         y2="31"
         style="fill:none"
         x1="73"
         x2="73"
         y1="374"
         id="line121" />
      <line
         y2="31"
         style="fill:none"
         x1="507"
         x2="507"
         y1="374"
         id="line123" />
      <line
         y2="374"
         style="fill:none"
         x1="73"
         x2="77.339996"
         y1="374"
         id="line125" />
      <line
         y2="325"
         style="fill:none"
         x1="73"
         x2="77.339996"
         y1="325"
         id="line127" />
      <line
         y2="276"
         style="fill:none"
         x1="73"
         x2="77.339996"
         y1="276"
         id="line129" />
      <line
         y2="227"
         style="fill:none"
         x1="73"
         x2="77.339996"
         y1="227"
         id="line131" />
      <line
         y2="178"
         style="fill:none"
         x1="73"
         x2="77.339996"
         y1="178"
         id="line133" />
      <line
         y2="129"
         style="fill:none"
         x1="73"
         x2="77.339996"
         y1="129"
         id="line135" />
      <line
         y2="80"
         style="fill:none"
         x1="73"
         x2="77.339996"
         y1="80"
         id="line137" />
      <line
         y2="31"
         style="fill:none"
         x1="73"
         x2="77.339996"
         y1="31"
         id="line139" />
      <line
         y2="374"
         style="fill:none"
         x1="507"
         x2="502.66"
         y1="374"
         id="line141" />
      <line
         y2="325"
         style="fill:none"
         x1="507"
         x2="502.66"
         y1="325"
         id="line143" />
      <line
         y2="276"
         style="fill:none"
         x1="507"
         x2="502.66"
         y1="276"
         id="line145" />
      <line
         y2="227"
         style="fill:none"
         x1="507"
         x2="502.66"
         y1="227"
         id="line147" />
      <line
         y2="178"
         style="fill:none"
         x1="507"
         x2="502.66"
         y1="178"
         id="line149" />
      <line
         y2="129"
         style="fill:none"
         x1="507"
         x2="502.66"
         y1="129"
         id="line151" />
      <line
         y2="80"
         style="fill:none"
         x1="507"
         x2="502.66"
         y1="80"
         id="line153" />
      <line
         y2="31"
         style="fill:none"
         x1="507"
         x2="502.66"
         y1="31"
         id="line155" />
    </g>
    <g
       transform="translate(67.6667,374)"
       style="font-size:13.33329964px;font-family:SansSerif;color-interpolation:linearRGB;fill:#262626;stroke:#262626;color-rendering:optimizeQuality;image-rendering:optimizeQuality;text-rendering:geometricPrecision"
       id="g161">
      <path
         style="stroke:none"
         d="m -4.875,-4.1406 q -0.9844,0 -1.4844,0.9765 -0.5,0.9766 -0.5,2.9297 0,1.9532 0.5,2.9297 0.5,0.9766 1.4844,0.9766 1,0 1.5,-0.9766 0.5,-0.9765 0.5,-2.9297 0,-1.9531 -0.5,-2.9297 -0.5,-0.9765 -1.5,-0.9765 z m 0,-1.0156 q 1.5938,0 2.4375,1.2656 0.8437,1.2656 0.8437,3.6562 0,2.3906 -0.8437,3.6563 -0.8437,1.2656 -2.4375,1.2656 -1.5781,0 -2.4219,-1.2656 -0.8437,-1.2657 -0.8437,-3.6563 0,-2.3906 0.8437,-3.6562 0.8438,-1.2656 2.4219,-1.2656 z"
         id="path159"
         inkscape:connector-curvature="0" />
    </g>
    <g
       transform="translate(67.6667,325)"
       style="font-size:13.33329964px;font-family:SansSerif;color-interpolation:linearRGB;fill:#262626;stroke:#262626;color-rendering:optimizeQuality;image-rendering:optimizeQuality;text-rendering:geometricPrecision"
       id="g165">
      <path
         style="stroke:none"
         d="m -32.3906,3.4219 h 2.0937 v -7.2344 l -2.2812,0.4531 v -1.1562 l 2.2656,-0.4688 h 1.2969 v 8.4063 h 2.0937 V 4.5 h -5.4687 z m 10.9854,-7.5625 q -0.9844,0 -1.4844,0.9765 -0.5,0.9766 -0.5,2.9297 0,1.9532 0.5,2.9297 0.5,0.9766 1.4844,0.9766 1,0 1.5,-0.9766 0.5,-0.9765 0.5,-2.9297 0,-1.9531 -0.5,-2.9297 -0.5,-0.9765 -1.5,-0.9765 z m 0,-1.0156 q 1.5938,0 2.4375,1.2656 0.8438,1.2656 0.8438,3.6562 0,2.3906 -0.8438,3.6563 -0.8437,1.2656 -2.4375,1.2656 -1.5781,0 -2.4219,-1.2656 -0.8437,-1.2657 -0.8437,-3.6563 0,-2.3906 0.8437,-3.6562 0.8438,-1.2656 2.4219,-1.2656 z m 8.4698,1.0156 q -0.9843,0 -1.4843,0.9765 -0.5,0.9766 -0.5,2.9297 0,1.9532 0.5,2.9297 0.5,0.9766 1.4843,0.9766 1,0 1.5,-0.9766 0.5,-0.9765 0.5,-2.9297 0,-1.9531 -0.5,-2.9297 -0.5,-0.9765 -1.5,-0.9765 z m 0,-1.0156 q 1.5938,0 2.4375,1.2656 0.8438,1.2656 0.8438,3.6562 0,2.3906 -0.8438,3.6563 -0.8437,1.2656 -2.4375,1.2656 -1.5781,0 -2.4218,-1.2656 -0.8438,-1.2657 -0.8438,-3.6563 0,-2.3906 0.8438,-3.6562 0.8437,-1.2656 2.4218,-1.2656 z m 8.4699,1.0156 q -0.9844,0 -1.4844,0.9765 -0.5,0.9766 -0.5,2.9297 0,1.9532 0.5,2.9297 0.5,0.9766 1.4844,0.9766 1,0 1.5,-0.9766 0.5,-0.9765 0.5,-2.9297 0,-1.9531 -0.5,-2.9297 -0.5,-0.9765 -1.5,-0.9765 z m 0,-1.0156 q 1.5937,0 2.4375,1.2656 0.8437,1.2656 0.8437,3.6562 0,2.3906 -0.8437,3.6563 -0.8438,1.2656 -2.4375,1.2656 -1.5782,0 -2.4219,-1.2656 -0.8438,-1.2657 -0.8438,-3.6563 0,-2.3906 0.8438,-3.6562 0.8437,-1.2656 2.4219,-1.2656 z"
         id="path163"
         inkscape:connector-curvature="0" />
    </g>
    <g
       transform="translate(67.6667,276)"
       style="font-size:13.33329964px;font-family:SansSerif;color-interpolation:linearRGB;fill:#262626;stroke:#262626;color-rendering:optimizeQuality;image-rendering:optimizeQuality;text-rendering:geometricPrecision"
       id="g169">
      <path
         style="stroke:none"
         d="m -31.5,3.4219 h 4.4688 V 4.5 h -6.0157 V 3.4219 q 0.7344,-0.75 1.9922,-2.0235 1.2578,-1.2734 1.5859,-1.6484 0.6094,-0.6875 0.8516,-1.1719 0.2422,-0.4843 0.2422,-0.9375 0,-0.7656 -0.5234,-1.2344 -0.5235,-0.4687 -1.3828,-0.4687 -0.6094,0 -1.2735,0.2031 -0.6641,0.2032 -1.4297,0.6406 v -1.2968 q 0.7813,-0.3125 1.4532,-0.4766 0.6718,-0.164 1.2187,-0.164 1.4844,0 2.3594,0.7421 0.875,0.7422 0.875,1.9766 0,0.5781 -0.2188,1.1016 -0.2187,0.5234 -0.7969,1.2265 -0.1562,0.1875 -1.0078,1.0703 -0.8515,0.8829 -2.3984,2.461 z m 10.0948,-7.5625 q -0.9844,0 -1.4844,0.9765 -0.5,0.9766 -0.5,2.9297 0,1.9532 0.5,2.9297 0.5,0.9766 1.4844,0.9766 1,0 1.5,-0.9766 0.5,-0.9765 0.5,-2.9297 0,-1.9531 -0.5,-2.9297 -0.5,-0.9765 -1.5,-0.9765 z m 0,-1.0156 q 1.5938,0 2.4375,1.2656 0.8438,1.2656 0.8438,3.6562 0,2.3906 -0.8438,3.6563 -0.8437,1.2656 -2.4375,1.2656 -1.5781,0 -2.4219,-1.2656 -0.8437,-1.2657 -0.8437,-3.6563 0,-2.3906 0.8437,-3.6562 0.8438,-1.2656 2.4219,-1.2656 z m 8.4698,1.0156 q -0.9843,0 -1.4843,0.9765 -0.5,0.9766 -0.5,2.9297 0,1.9532 0.5,2.9297 0.5,0.9766 1.4843,0.9766 1,0 1.5,-0.9766 0.5,-0.9765 0.5,-2.9297 0,-1.9531 -0.5,-2.9297 -0.5,-0.9765 -1.5,-0.9765 z m 0,-1.0156 q 1.5938,0 2.4375,1.2656 0.8438,1.2656 0.8438,3.6562 0,2.3906 -0.8438,3.6563 -0.8437,1.2656 -2.4375,1.2656 -1.5781,0 -2.4218,-1.2656 -0.8438,-1.2657 -0.8438,-3.6563 0,-2.3906 0.8438,-3.6562 0.8437,-1.2656 2.4218,-1.2656 z m 8.4699,1.0156 q -0.9844,0 -1.4844,0.9765 -0.5,0.9766 -0.5,2.9297 0,1.9532 0.5,2.9297 0.5,0.9766 1.4844,0.9766 1,0 1.5,-0.9766 0.5,-0.9765 0.5,-2.9297 0,-1.9531 -0.5,-2.9297 -0.5,-0.9765 -1.5,-0.9765 z m 0,-1.0156 q 1.5937,0 2.4375,1.2656 0.8437,1.2656 0.8437,3.6562 0,2.3906 -0.8437,3.6563 -0.8438,1.2656 -2.4375,1.2656 -1.5782,0 -2.4219,-1.2656 -0.8438,-1.2657 -0.8438,-3.6563 0,-2.3906 0.8438,-3.6562 0.8437,-1.2656 2.4219,-1.2656 z"
         id="path167"
         inkscape:connector-curvature="0" />
    </g>
    <g
       transform="translate(67.6667,227)"
       style="font-size:13.33329964px;font-family:SansSerif;color-interpolation:linearRGB;fill:#262626;stroke:#262626;color-rendering:optimizeQuality;image-rendering:optimizeQuality;text-rendering:geometricPrecision"
       id="g173">
      <path
         style="stroke:none"
         d="m -28.7188,-0.6094 q 0.9219,0.2032 1.4376,0.8203 0.5156,0.6172 0.5156,1.5391 0,1.3906 -0.9688,2.1641 -0.9687,0.7734 -2.75,0.7734 -0.5937,0 -1.2265,-0.1172 -0.6329,-0.1172 -1.3047,-0.3515 v -1.25 q 0.5468,0.3124 1.1797,0.4765 0.6328,0.1641 1.3203,0.1641 1.2031,0 1.8359,-0.4766 0.6328,-0.4766 0.6328,-1.3828 0,-0.8438 -0.5859,-1.3125 -0.586,-0.4687 -1.6328,-0.4687 h -1.1094 v -1.0626 h 1.1562 q 0.9532,0 1.4532,-0.375 0.5,-0.375 0.5,-1.0937 0,-0.7187 -0.5156,-1.1094 -0.5157,-0.3906 -1.4844,-0.3906 -0.5313,0 -1.1328,0.1094 -0.6016,0.1093 -1.3204,0.3593 V -4.75 q 0.7188,-0.2031 1.3594,-0.3047 0.6406,-0.1015 1.2032,-0.1015 1.4687,0 2.3203,0.664 0.8515,0.6641 0.8515,1.8047 0,0.7813 -0.4531,1.3281 -0.4531,0.5469 -1.2813,0.75 z m 7.3136,-3.5312 q -0.9844,0 -1.4844,0.9765 -0.5,0.9766 -0.5,2.9297 0,1.9532 0.5,2.9297 0.5,0.9766 1.4844,0.9766 1,0 1.5,-0.9766 0.5,-0.9765 0.5,-2.9297 0,-1.9531 -0.5,-2.9297 -0.5,-0.9765 -1.5,-0.9765 z m 0,-1.0156 q 1.5938,0 2.4375,1.2656 0.8438,1.2656 0.8438,3.6562 0,2.3906 -0.8438,3.6563 -0.8437,1.2656 -2.4375,1.2656 -1.5781,0 -2.4219,-1.2656 -0.8437,-1.2657 -0.8437,-3.6563 0,-2.3906 0.8437,-3.6562 0.8438,-1.2656 2.4219,-1.2656 z m 8.4698,1.0156 q -0.9843,0 -1.4843,0.9765 -0.5,0.9766 -0.5,2.9297 0,1.9532 0.5,2.9297 0.5,0.9766 1.4843,0.9766 1,0 1.5,-0.9766 0.5,-0.9765 0.5,-2.9297 0,-1.9531 -0.5,-2.9297 -0.5,-0.9765 -1.5,-0.9765 z m 0,-1.0156 q 1.5938,0 2.4375,1.2656 0.8438,1.2656 0.8438,3.6562 0,2.3906 -0.8438,3.6563 -0.8437,1.2656 -2.4375,1.2656 -1.5781,0 -2.4218,-1.2656 -0.8438,-1.2657 -0.8438,-3.6563 0,-2.3906 0.8438,-3.6562 0.8437,-1.2656 2.4218,-1.2656 z m 8.4699,1.0156 q -0.9844,0 -1.4844,0.9765 -0.5,0.9766 -0.5,2.9297 0,1.9532 0.5,2.9297 0.5,0.9766 1.4844,0.9766 1,0 1.5,-0.9766 0.5,-0.9765 0.5,-2.9297 0,-1.9531 -0.5,-2.9297 -0.5,-0.9765 -1.5,-0.9765 z m 0,-1.0156 q 1.5937,0 2.4375,1.2656 0.8437,1.2656 0.8437,3.6562 0,2.3906 -0.8437,3.6563 -0.8438,1.2656 -2.4375,1.2656 -1.5782,0 -2.4219,-1.2656 -0.8438,-1.2657 -0.8438,-3.6563 0,-2.3906 0.8438,-3.6562 0.8437,-1.2656 2.4219,-1.2656 z"
         id="path171"
         inkscape:connector-curvature="0" />
    </g>
    <g
       transform="translate(67.6667,178)"
       style="font-size:13.33329964px;font-family:SansSerif;color-interpolation:linearRGB;fill:#262626;stroke:#262626;color-rendering:optimizeQuality;image-rendering:optimizeQuality;text-rendering:geometricPrecision"
       id="g177">
      <path
         style="stroke:none"
         d="m -29.0938,-3.8594 -3.2343,5.0625 h 3.2343 z m -0.3281,-1.125 h 1.6094 v 6.1875 h 1.3594 v 1.0625 h -1.3594 V 4.5 h -1.2813 V 2.2656 h -4.2656 V 1.0312 Z m 8.0167,0.8438 q -0.9844,0 -1.4844,0.9765 -0.5,0.9766 -0.5,2.9297 0,1.9532 0.5,2.9297 0.5,0.9766 1.4844,0.9766 1,0 1.5,-0.9766 0.5,-0.9765 0.5,-2.9297 0,-1.9531 -0.5,-2.9297 -0.5,-0.9765 -1.5,-0.9765 z m 0,-1.0156 q 1.5938,0 2.4375,1.2656 0.8438,1.2656 0.8438,3.6562 0,2.3906 -0.8438,3.6563 -0.8437,1.2656 -2.4375,1.2656 -1.5781,0 -2.4219,-1.2656 -0.8437,-1.2657 -0.8437,-3.6563 0,-2.3906 0.8437,-3.6562 0.8438,-1.2656 2.4219,-1.2656 z m 8.4698,1.0156 q -0.9843,0 -1.4843,0.9765 -0.5,0.9766 -0.5,2.9297 0,1.9532 0.5,2.9297 0.5,0.9766 1.4843,0.9766 1,0 1.5,-0.9766 0.5,-0.9765 0.5,-2.9297 0,-1.9531 -0.5,-2.9297 -0.5,-0.9765 -1.5,-0.9765 z m 0,-1.0156 q 1.5938,0 2.4375,1.2656 0.8438,1.2656 0.8438,3.6562 0,2.3906 -0.8438,3.6563 -0.8437,1.2656 -2.4375,1.2656 -1.5781,0 -2.4218,-1.2656 -0.8438,-1.2657 -0.8438,-3.6563 0,-2.3906 0.8438,-3.6562 0.8437,-1.2656 2.4218,-1.2656 z m 8.4699,1.0156 q -0.9844,0 -1.4844,0.9765 -0.5,0.9766 -0.5,2.9297 0,1.9532 0.5,2.9297 0.5,0.9766 1.4844,0.9766 1,0 1.5,-0.9766 0.5,-0.9765 0.5,-2.9297 0,-1.9531 -0.5,-2.9297 -0.5,-0.9765 -1.5,-0.9765 z m 0,-1.0156 q 1.5937,0 2.4375,1.2656 0.8437,1.2656 0.8437,3.6562 0,2.3906 -0.8437,3.6563 -0.8438,1.2656 -2.4375,1.2656 -1.5782,0 -2.4219,-1.2656 -0.8438,-1.2657 -0.8438,-3.6563 0,-2.3906 0.8438,-3.6562 0.8437,-1.2656 2.4219,-1.2656 z"
         id="path175"
         inkscape:connector-curvature="0" />
    </g>
    <g
       transform="translate(67.6667,129)"
       style="font-size:13.33329964px;font-family:SansSerif;color-interpolation:linearRGB;fill:#262626;stroke:#262626;color-rendering:optimizeQuality;image-rendering:optimizeQuality;text-rendering:geometricPrecision"
       id="g181">
      <path
         style="stroke:none"
         d="m -32.5938,-4.9844 h 5.0313 v 1.0938 h -3.8594 v 2.3125 q 0.2813,-0.0938 0.5625,-0.1407 0.2813,-0.0468 0.5469,-0.0468 1.5937,0 2.5234,0.8672 0.9297,0.8672 0.9297,2.3515 0,1.5313 -0.9531,2.3828 -0.9531,0.8516 -2.6875,0.8516 -0.5938,0 -1.2188,-0.1016 Q -32.3438,4.4844 -33,4.2812 V 2.9844 q 0.5781,0.3125 1.1875,0.4687 0.6094,0.1563 1.2813,0.1563 1.1093,0 1.75,-0.5782 0.6406,-0.5781 0.6406,-1.5781 0,-0.9843 -0.6406,-1.5625 -0.6407,-0.5781 -1.75,-0.5781 -0.5157,0 -1.0235,0.1172 -0.5078,0.1172 -1.0391,0.3515 z m 11.1886,0.8438 q -0.9844,0 -1.4844,0.9765 -0.5,0.9766 -0.5,2.9297 0,1.9532 0.5,2.9297 0.5,0.9766 1.4844,0.9766 1,0 1.5,-0.9766 0.5,-0.9765 0.5,-2.9297 0,-1.9531 -0.5,-2.9297 -0.5,-0.9765 -1.5,-0.9765 z m 0,-1.0156 q 1.5938,0 2.4375,1.2656 0.8438,1.2656 0.8438,3.6562 0,2.3906 -0.8438,3.6563 -0.8437,1.2656 -2.4375,1.2656 -1.5781,0 -2.4219,-1.2656 -0.8437,-1.2657 -0.8437,-3.6563 0,-2.3906 0.8437,-3.6562 0.8438,-1.2656 2.4219,-1.2656 z m 8.4698,1.0156 q -0.9843,0 -1.4843,0.9765 -0.5,0.9766 -0.5,2.9297 0,1.9532 0.5,2.9297 0.5,0.9766 1.4843,0.9766 1,0 1.5,-0.9766 0.5,-0.9765 0.5,-2.9297 0,-1.9531 -0.5,-2.9297 -0.5,-0.9765 -1.5,-0.9765 z m 0,-1.0156 q 1.5938,0 2.4375,1.2656 0.8438,1.2656 0.8438,3.6562 0,2.3906 -0.8438,3.6563 -0.8437,1.2656 -2.4375,1.2656 -1.5781,0 -2.4218,-1.2656 -0.8438,-1.2657 -0.8438,-3.6563 0,-2.3906 0.8438,-3.6562 0.8437,-1.2656 2.4218,-1.2656 z m 8.4699,1.0156 q -0.9844,0 -1.4844,0.9765 -0.5,0.9766 -0.5,2.9297 0,1.9532 0.5,2.9297 0.5,0.9766 1.4844,0.9766 1,0 1.5,-0.9766 0.5,-0.9765 0.5,-2.9297 0,-1.9531 -0.5,-2.9297 -0.5,-0.9765 -1.5,-0.9765 z m 0,-1.0156 q 1.5937,0 2.4375,1.2656 0.8437,1.2656 0.8437,3.6562 0,2.3906 -0.8437,3.6563 -0.8438,1.2656 -2.4375,1.2656 -1.5782,0 -2.4219,-1.2656 -0.8438,-1.2657 -0.8438,-3.6563 0,-2.3906 0.8438,-3.6562 0.8437,-1.2656 2.4219,-1.2656 z"
         id="path179"
         inkscape:connector-curvature="0" />
    </g>
    <g
       transform="translate(67.6667,80)"
       style="font-size:13.33329964px;font-family:SansSerif;color-interpolation:linearRGB;fill:#262626;stroke:#262626;color-rendering:optimizeQuality;image-rendering:optimizeQuality;text-rendering:geometricPrecision"
       id="g185">
      <path
         style="stroke:none"
         d="m -29.7031,-0.75 q -0.875,0 -1.375,0.5938 -0.5,0.5937 -0.5,1.6093 0,1.0313 0.5,1.625 0.5,0.5938 1.375,0.5938 0.8593,0 1.3593,-0.5938 0.5,-0.5937 0.5,-1.625 0,-1.0156 -0.5,-1.6093 -0.5,-0.5938 -1.3593,-0.5938 z m 2.5469,-4.0156 v 1.1718 q -0.4844,-0.2343 -0.9766,-0.3515 -0.4922,-0.1172 -0.9766,-0.1172 -1.2656,0 -1.9375,0.8516 -0.6719,0.8515 -0.7656,2.5859 0.375,-0.5469 0.9375,-0.8438 0.5625,-0.2968 1.25,-0.2968 1.4219,0 2.25,0.8672 0.8281,0.8672 0.8281,2.3515 0,1.4688 -0.8672,2.3516 -0.8671,0.8828 -2.289,0.8828 -1.6563,0 -2.5235,-1.2656 -0.8672,-1.2657 -0.8672,-3.6563 0,-2.2344 1.0704,-3.5781 1.0703,-1.3437 2.8672,-1.3437 0.4687,0 0.9609,0.1015 0.4922,0.1016 1.0391,0.2891 z m 5.751,0.625 q -0.9844,0 -1.4844,0.9765 -0.5,0.9766 -0.5,2.9297 0,1.9532 0.5,2.9297 0.5,0.9766 1.4844,0.9766 1,0 1.5,-0.9766 0.5,-0.9765 0.5,-2.9297 0,-1.9531 -0.5,-2.9297 -0.5,-0.9765 -1.5,-0.9765 z m 0,-1.0156 q 1.5938,0 2.4375,1.2656 0.8438,1.2656 0.8438,3.6562 0,2.3906 -0.8438,3.6563 -0.8437,1.2656 -2.4375,1.2656 -1.5781,0 -2.4219,-1.2656 -0.8437,-1.2657 -0.8437,-3.6563 0,-2.3906 0.8437,-3.6562 0.8438,-1.2656 2.4219,-1.2656 z m 8.4698,1.0156 q -0.9843,0 -1.4843,0.9765 -0.5,0.9766 -0.5,2.9297 0,1.9532 0.5,2.9297 0.5,0.9766 1.4843,0.9766 1,0 1.5,-0.9766 0.5,-0.9765 0.5,-2.9297 0,-1.9531 -0.5,-2.9297 -0.5,-0.9765 -1.5,-0.9765 z m 0,-1.0156 q 1.5938,0 2.4375,1.2656 0.8438,1.2656 0.8438,3.6562 0,2.3906 -0.8438,3.6563 -0.8437,1.2656 -2.4375,1.2656 -1.5781,0 -2.4218,-1.2656 -0.8438,-1.2657 -0.8438,-3.6563 0,-2.3906 0.8438,-3.6562 0.8437,-1.2656 2.4218,-1.2656 z m 8.4699,1.0156 q -0.9844,0 -1.4844,0.9765 -0.5,0.9766 -0.5,2.9297 0,1.9532 0.5,2.9297 0.5,0.9766 1.4844,0.9766 1,0 1.5,-0.9766 0.5,-0.9765 0.5,-2.9297 0,-1.9531 -0.5,-2.9297 -0.5,-0.9765 -1.5,-0.9765 z m 0,-1.0156 q 1.5937,0 2.4375,1.2656 0.8437,1.2656 0.8437,3.6562 0,2.3906 -0.8437,3.6563 -0.8438,1.2656 -2.4375,1.2656 -1.5782,0 -2.4219,-1.2656 -0.8438,-1.2657 -0.8438,-3.6563 0,-2.3906 0.8438,-3.6562 0.8437,-1.2656 2.4219,-1.2656 z"
         id="path183"
         inkscape:connector-curvature="0" />
    </g>
    <g
       transform="translate(67.6667,31)"
       style="font-size:13.33329964px;font-family:SansSerif;color-interpolation:linearRGB;fill:#262626;stroke:#262626;color-rendering:optimizeQuality;image-rendering:optimizeQuality;text-rendering:geometricPrecision"
       id="g189">
      <path
         style="stroke:none"
         d="m -32.9375,-4.9844 h 6.0937 v 0.5469 L -30.2812,4.5 h -1.3438 l 3.25,-8.3906 h -4.5625 z m 11.5323,0.8438 q -0.9844,0 -1.4844,0.9765 -0.5,0.9766 -0.5,2.9297 0,1.9532 0.5,2.9297 0.5,0.9766 1.4844,0.9766 1,0 1.5,-0.9766 0.5,-0.9765 0.5,-2.9297 0,-1.9531 -0.5,-2.9297 -0.5,-0.9765 -1.5,-0.9765 z m 0,-1.0156 q 1.5938,0 2.4375,1.2656 0.8438,1.2656 0.8438,3.6562 0,2.3906 -0.8438,3.6563 -0.8437,1.2656 -2.4375,1.2656 -1.5781,0 -2.4219,-1.2656 -0.8437,-1.2657 -0.8437,-3.6563 0,-2.3906 0.8437,-3.6562 0.8438,-1.2656 2.4219,-1.2656 z m 8.4698,1.0156 q -0.9843,0 -1.4843,0.9765 -0.5,0.9766 -0.5,2.9297 0,1.9532 0.5,2.9297 0.5,0.9766 1.4843,0.9766 1,0 1.5,-0.9766 0.5,-0.9765 0.5,-2.9297 0,-1.9531 -0.5,-2.9297 -0.5,-0.9765 -1.5,-0.9765 z m 0,-1.0156 q 1.5938,0 2.4375,1.2656 0.8438,1.2656 0.8438,3.6562 0,2.3906 -0.8438,3.6563 -0.8437,1.2656 -2.4375,1.2656 -1.5781,0 -2.4218,-1.2656 -0.8438,-1.2657 -0.8438,-3.6563 0,-2.3906 0.8438,-3.6562 0.8437,-1.2656 2.4218,-1.2656 z m 8.4699,1.0156 q -0.9844,0 -1.4844,0.9765 -0.5,0.9766 -0.5,2.9297 0,1.9532 0.5,2.9297 0.5,0.9766 1.4844,0.9766 1,0 1.5,-0.9766 0.5,-0.9765 0.5,-2.9297 0,-1.9531 -0.5,-2.9297 -0.5,-0.9765 -1.5,-0.9765 z m 0,-1.0156 q 1.5937,0 2.4375,1.2656 0.8437,1.2656 0.8437,3.6562 0,2.3906 -0.8437,3.6563 -0.8438,1.2656 -2.4375,1.2656 -1.5782,0 -2.4219,-1.2656 -0.8438,-1.2657 -0.8438,-3.6563 0,-2.3906 0.8438,-3.6562 0.8437,-1.2656 2.4219,-1.2656 z"
         id="path187"
         inkscape:connector-curvature="0" />
    </g>
    <g
       transform="rotate(-90,116.08325,86.41655)"
       style="font-size:14.66670036px;font-family:SansSerif;color-interpolation:linearRGB;fill:#262626;stroke:#262626;color-rendering:optimizeQuality;image-rendering:optimizeQuality;text-rendering:geometricPrecision"
       id="g193">
      <path
         style="stroke:none"
         d="m -34.5312,-14.9375 h 6.9218 v 1.25 h -5.4375 v 3.2344 h 5.2031 v 1.25 h -5.2031 V -5.25 h 5.5625 V -4 h -7.0468 z m 16.0259,5.9844 V -4 h -1.3437 v -4.9062 q 0,-1.1719 -0.4532,-1.75 -0.4531,-0.5782 -1.375,-0.5782 -1.0781,0 -1.7109,0.6953 -0.6328,0.6953 -0.6328,1.8985 V -4 h -1.3594 v -8.2031 h 1.3594 v 1.2812 q 0.4844,-0.75 1.1406,-1.1172 0.6563,-0.3671 1.5156,-0.3671 1.4063,0 2.1329,0.875 0.7265,0.875 0.7265,2.5781 z m 9.4921,0.5156 v 0.6563 h -6.2031 q 0.0937,1.3906 0.8437,2.1171 0.75,0.7266 2.0782,0.7266 0.7812,0 1.5078,-0.1875 0.7265,-0.1875 1.4453,-0.5625 v 1.2656 q -0.7188,0.3125 -1.4844,0.4766 -0.7656,0.1641 -1.5469,0.1641 -1.9531,0 -3.1015,-1.1485 -1.1485,-1.1484 -1.1485,-3.0859 0,-2.0156 1.086,-3.2032 1.0859,-1.1874 2.9297,-1.1874 1.6562,0 2.625,1.0703 0.9687,1.0703 0.9687,2.8984 z m -1.3594,-0.3906 q -0.0156,-1.1094 -0.6171,-1.7735 -0.6016,-0.664 -1.6016,-0.664 -1.125,0 -1.8047,0.6406 -0.6797,0.6406 -0.7734,1.7969 z m 8.1108,-2.1094 q -0.2344,-0.1406 -0.5,-0.2031 -0.2656,-0.0625 -0.5937,-0.0625 -1.1407,0 -1.75,0.7422 -0.6094,0.7421 -0.6094,2.1328 V -4 h -1.3594 v -8.2031 h 1.3594 v 1.2812 q 0.4219,-0.75 1.1016,-1.1172 0.6796,-0.3671 1.664,-0.3671 0.1406,0 0.3047,0.0234 0.1641,0.0234 0.3672,0.0547 z m 6.6663,2.7344 q 0,-1.4531 -0.6016,-2.2578 -0.6015,-0.8047 -1.6953,-0.8047 -1.0937,0 -1.6953,0.8047 -0.6015,0.8047 -0.6015,2.2578 0,1.4687 0.6015,2.2734 0.6016,0.8047 1.6953,0.8047 1.0938,0 1.6953,-0.8047 0.6016,-0.8047 0.6016,-2.2734 z m 1.3438,3.1875 q 0,2.0937 -0.9297,3.1172 -0.9297,1.0234 -2.8516,1.0234 -0.7031,0 -1.3359,-0.1094 -0.6328,-0.1094 -1.2266,-0.3281 V -2.625 q 0.5938,0.3281 1.1719,0.4766 Q 1.1545,-2 1.7639,-2 3.092,-2 3.7483,-2.6875 4.4045,-3.375 4.4045,-4.7812 V -5.4375 Q 3.9826,-4.7188 3.3342,-4.3594 2.6858,-4 1.7795,-4 0.2639,-4 -0.658,-5.1484 q -0.9219,-1.1485 -0.9219,-3.0547 0,-1.8907 0.9219,-3.0469 0.9219,-1.1562 2.4375,-1.1562 0.9063,0 1.5547,0.3593 0.6484,0.3594 1.0703,1.0938 v -1.25 h 1.3438 z m 5.9751,1.7812 q -0.5781,1.4688 -1.1172,1.9141 -0.539,0.4453 -1.4453,0.4453 H 8.0828 V -2 h 0.7969 q 0.5468,0 0.8593,-0.2656 0.3125,-0.2656 0.6719,-1.25 l 0.25,-0.6094 -3.3125,-8.0781 h 1.4219 l 2.5625,6.4219 2.5625,-6.4219 h 1.4375 z M 24.8839,-15.375 q -0.9844,1.6719 -1.461,3.3203 -0.4765,1.6485 -0.4765,3.3516 0,1.6875 0.4765,3.3437 0.4766,1.6563 1.461,3.3438 H 23.712 q -1.1094,-1.7344 -1.6484,-3.3906 -0.5391,-1.6563 -0.5391,-3.2969 0,-1.6407 0.5391,-3.2969 0.539,-1.6562 1.6484,-3.375 z m 2.5304,0.4375 h 1.4844 v 10.1719 q 0,1.9844 -0.75,2.875 Q 27.3987,-1 25.7268,-1 h -0.5625 v -1.2344 h 0.4688 q 0.9843,0 1.3828,-0.5547 0.3984,-0.5547 0.3984,-1.9765 z m 4.0568,-0.4375 h 1.1719 q 1.0938,1.7188 1.6406,3.375 0.5469,1.6562 0.5469,3.2969 0,1.6406 -0.5469,3.2969 -0.5468,1.6562 -1.6406,3.3906 h -1.1719 q 0.9688,-1.6875 1.4532,-3.3438 0.4843,-1.6562 0.4843,-3.3437 0,-1.7031 -0.4843,-3.3516 -0.4844,-1.6484 -1.4532,-3.3203 z"
         id="path191"
         inkscape:connector-curvature="0" />
    </g>
    <g
       transform="translate(290.0003,28.25)"
       style="font-weight:bold;font-size:14.66670036px;font-family:SansSerif;color-interpolation:linearRGB;color-rendering:optimizeQuality;image-rendering:optimizeQuality;text-rendering:geometricPrecision"
       id="g197">
      <path
         style="stroke:none"
         d="m -83.125,-14.9375 h 7.6094 v 2.1406 h -4.7813 v 2.0313 h 4.5 v 2.125 h -4.5 v 2.5156 h 4.9375 V -4 H -83.125 Z M -64.9882,-9 v 5 h -2.625 v -0.8125 -3.0156 q 0,-1.0625 -0.0469,-1.461 -0.0469,-0.3984 -0.1719,-0.5859 -0.1562,-0.2656 -0.414,-0.4062 -0.2579,-0.1407 -0.6016,-0.1407 -0.8281,0 -1.2969,0.6328 -0.4687,0.6329 -0.4687,1.7579 V -4 h -2.6094 v -8.2031 h 2.6094 V -11 q 0.5937,-0.7188 1.2656,-1.0625 0.6719,-0.3437 1.4687,-0.3437 1.4219,0 2.1563,0.875 0.7344,0.875 0.7344,2.5312 z m 10.3871,0.875 v 0.75 h -6.1406 q 0.0937,0.9219 0.6718,1.3828 0.5782,0.461 1.5938,0.461 0.8281,0 1.6953,-0.2422 0.8672,-0.2422 1.7891,-0.7422 V -4.5 q -0.9375,0.3594 -1.8672,0.5391 -0.9297,0.1797 -1.8516,0.1797 -2.2344,0 -3.4687,-1.1329 -1.2344,-1.1328 -1.2344,-3.1797 0,-2 1.2109,-3.1562 1.211,-1.1562 3.336,-1.1562 1.9375,0 3.1015,1.164 1.1641,1.1641 1.1641,3.1172 z M -57.3042,-9 q 0,-0.75 -0.4375,-1.2031 -0.4375,-0.4531 -1.1407,-0.4531 -0.75,0 -1.2265,0.4296 -0.4766,0.4297 -0.6016,1.2266 z m 10.5495,-0.9688 q -0.3437,-0.1562 -0.6875,-0.2343 -0.3437,-0.0781 -0.6875,-0.0781 -1.0156,0 -1.5625,0.6484 -0.5468,0.6484 -0.5468,1.8516 V -4 h -2.6094 v -8.2031 h 2.6094 v 1.3437 q 0.5156,-0.7968 1.1718,-1.1718 0.6563,-0.375 1.5625,-0.375 0.1407,0 0.2891,0.0156 0.1484,0.0156 0.4453,0.0468 z m 6.7123,4.5782 q -0.5468,0.7187 -1.1953,1.0547 Q -41.8861,-4 -42.7455,-4 q -1.5,0 -2.4844,-1.1797 -0.9843,-1.1797 -0.9843,-3.0234 0,-1.8281 0.9843,-3.0078 0.9844,-1.1797 2.4844,-1.1797 0.8594,0 1.5078,0.3359 0.6485,0.3359 1.1953,1.0703 v -1.2187 h 2.6407 v 7.375 q 0,1.9843 -1.25,3.0234 -1.25,1.0391 -3.625,1.0391 -0.7657,0 -1.4844,-0.1172 Q -44.4799,-1 -45.2142,-1.2344 v -2.0468 q 0.6875,0.3906 1.3515,0.5859 0.6641,0.1953 1.3203,0.1953 1.2969,0 1.8985,-0.5625 0.6015,-0.5625 0.6015,-1.7656 z M -41.7767,-10.5 q -0.8125,0 -1.2657,0.6016 -0.4531,0.6015 -0.4531,1.6953 0,1.1406 0.4375,1.7187 0.4375,0.5782 1.2813,0.5782 0.8281,0 1.2812,-0.6016 0.4531,-0.6016 0.4531,-1.6953 0,-1.0938 -0.4531,-1.6953 -0.4531,-0.6016 -1.2812,-0.6016 z m 5.5693,-1.7031 h 2.625 l 2.2032,5.5625 1.875,-5.5625 h 2.6093 l -3.4375,8.9843 q -0.5312,1.3594 -1.2187,1.9063 -0.6875,0.5469 -1.8281,0.5469 h -1.5157 v -1.7188 h 0.8282 q 0.6562,0 0.9609,-0.2109 0.3047,-0.2109 0.4766,-0.7578 l 0.0781,-0.2344 z m 14.7032,0 h 2.6093 l 2.0469,5.6719 2.0313,-5.6719 h 2.6406 L -15.4105,-4 h -2.875 z m 16.9912,0.25 v 2 q -0.8437,-0.3594 -1.625,-0.5313 -0.7812,-0.1718 -1.4844,-0.1718 -0.75,0 -1.1093,0.1874 -0.3594,0.1876 -0.3594,0.5782 0,0.3125 0.2734,0.4765 0.2735,0.1641 0.9766,0.2579 l 0.4687,0.0624 q 2.0157,0.25 2.711,0.836 0.6953,0.5859 0.6953,1.8359 0,1.3125 -0.9688,1.9766 -0.9687,0.6641 -2.8906,0.6641 -0.8125,0 -1.6797,-0.1329 -0.8672,-0.1328 -1.7734,-0.3828 v -2 q 0.7812,0.3907 1.6016,0.5781 0.8203,0.1876 1.6796,0.1876 0.7657,0 1.1563,-0.211 0.3906,-0.2109 0.3906,-0.6328 0,-0.3438 -0.2734,-0.5156 -0.2735,-0.1719 -1.0703,-0.2813 l -0.4532,-0.0469 q -1.75,-0.2187 -2.4531,-0.8124 -0.7031,-0.5938 -0.7031,-1.8126 0,-1.2968 0.8906,-1.9296 0.8906,-0.6328 2.7344,-0.6328 0.7344,0 1.5312,0.1093 0.7969,0.1094 1.7344,0.3438 z m 6.2324,-2.9844 h 10.0781 v 2.1406 H 8.1725 V -4 H 5.3444 v -8.7969 H 1.7194 Z M 21.1387,-9 v 5 h -2.625 v -0.8125 -3 q 0,-1.0781 -0.0469,-1.4766 -0.0468,-0.3984 -0.1718,-0.5859 -0.1563,-0.2656 -0.4141,-0.4062 -0.2578,-0.1407 -0.6016,-0.1407 -0.8281,0 -1.2968,0.6328 -0.4688,0.6329 -0.4688,1.7579 V -4 h -2.6094 v -11.3906 h 2.6094 V -11 q 0.5938,-0.7188 1.2656,-1.0625 0.6719,-0.3437 1.4688,-0.3437 1.4219,0 2.1562,0.875 0.7344,0.875 0.7344,2.5312 z m 8.2934,-0.9688 q -0.3438,-0.1562 -0.6875,-0.2343 -0.3438,-0.0781 -0.6875,-0.0781 -1.0157,0 -1.5625,0.6484 -0.5469,0.6484 -0.5469,1.8516 V -4 h -2.6094 v -8.2031 h 2.6094 v 1.3437 q 0.5156,-0.7968 1.1719,-1.1718 0.6562,-0.375 1.5625,-0.375 0.1406,0 0.289,0.0156 0.1485,0.0156 0.4453,0.0468 z m 9.3217,1.8438 v 0.75 h -6.1407 q 0.0938,0.9219 0.6719,1.3828 0.5781,0.461 1.5938,0.461 0.8281,0 1.6953,-0.2422 0.8672,-0.2422 1.789,-0.7422 V -4.5 q -0.9375,0.3594 -1.8672,0.5391 -0.9296,0.1797 -1.8515,0.1797 -2.2344,0 -3.4688,-1.1329 -1.2343,-1.1328 -1.2343,-3.1797 0,-2 1.2109,-3.1562 1.2109,-1.1562 3.3359,-1.1562 1.9375,0 3.1016,1.164 1.1641,1.1641 1.1641,3.1172 z M 36.0506,-9 q 0,-0.75 -0.4375,-1.2031 -0.4375,-0.4531 -1.1406,-0.4531 -0.75,0 -1.2266,0.4296 Q 32.7694,-9.7969 32.6444,-9 Z m 10.8621,-2.9531 v 2 q -0.8437,-0.3594 -1.625,-0.5313 -0.7812,-0.1718 -1.4844,-0.1718 -0.75,0 -1.1093,0.1874 -0.3594,0.1876 -0.3594,0.5782 0,0.3125 0.2734,0.4765 0.2735,0.1641 0.9766,0.2579 l 0.4687,0.0624 q 2.0157,0.25 2.711,0.836 0.6953,0.5859 0.6953,1.8359 0,1.3125 -0.9688,1.9766 -0.9687,0.6641 -2.8906,0.6641 -0.8125,0 -1.6797,-0.1329 -0.8672,-0.1328 -1.7734,-0.3828 v -2 q 0.7812,0.3907 1.6015,0.5781 0.8204,0.1876 1.6797,0.1876 0.7657,0 1.1563,-0.211 0.3906,-0.2109 0.3906,-0.6328 0,-0.3438 -0.2734,-0.5156 -0.2735,-0.1719 -1.0703,-0.2813 l -0.4532,-0.0469 q -1.75,-0.2187 -2.4531,-0.8124 -0.7031,-0.5938 -0.7031,-1.8126 0,-1.2968 0.8906,-1.9296 0.8906,-0.6328 2.7344,-0.6328 0.7344,0 1.5312,0.1093 0.7969,0.1094 1.7344,0.3438 z M 57.4644,-9 v 5 h -2.625 v -0.8125 -3 q 0,-1.0781 -0.0468,-1.4766 -0.0469,-0.3984 -0.1719,-0.5859 -0.1563,-0.2656 -0.4141,-0.4062 -0.2578,-0.1407 -0.6015,-0.1407 -0.8282,0 -1.2969,0.6328 -0.4688,0.6329 -0.4688,1.7579 V -4 h -2.6093 v -11.3906 h 2.6093 V -11 q 0.5938,-0.7188 1.2657,-1.0625 0.6718,-0.3437 1.4687,-0.3437 1.4219,0 2.1563,0.875 0.7343,0.875 0.7343,2.5312 z m 6.0903,-1.5312 q -0.8594,0 -1.3203,0.625 -0.461,0.625 -0.461,1.8124 0,1.1719 0.461,1.8047 0.4609,0.6329 1.3203,0.6329 0.8594,0 1.3125,-0.6329 0.4531,-0.6328 0.4531,-1.8047 0,-1.1874 -0.4531,-1.8124 -0.4531,-0.625 -1.3125,-0.625 z m 0,-1.875 q 2.125,0 3.3125,1.1484 1.1875,1.1484 1.1875,3.164 0,2.0157 -1.1875,3.1641 -1.1875,1.1485 -3.3125,1.1485 -2.1094,0 -3.3125,-1.1485 -1.2031,-1.1484 -1.2031,-3.1641 0,-2.0156 1.2031,-3.164 1.2031,-1.1484 3.3125,-1.1484 z m 6.1784,-2.9844 h 2.6094 V -4 H 69.7331 Z M 80.335,-11 v -4.3906 h 2.6406 V -4 H 80.335 v -1.1875 q -0.5469,0.7187 -1.1953,1.0625 -0.6485,0.3438 -1.5078,0.3438 -1.5157,0 -2.4922,-1.211 -0.9766,-1.2109 -0.9766,-3.1016 0,-1.8906 0.9766,-3.1015 0.9765,-1.2109 2.4922,-1.2109 0.8437,0 1.5,0.3437 0.6562,0.3437 1.2031,1.0625 z m -1.7344,5.3125 q 0.8438,0 1.2891,-0.6172 0.4453,-0.6172 0.4453,-1.7891 0,-1.1718 -0.4453,-1.789 -0.4453,-0.6172 -1.2891,-0.6172 -0.8281,0 -1.2734,0.6172 -0.4453,0.6172 -0.4453,1.789 0,1.1719 0.4453,1.7891 0.4453,0.6172 1.2734,0.6172 z"
         id="path195"
         inkscape:connector-curvature="0" />
    </g>
    <g
       style="color-interpolation:linearRGB;fill:#ff0000;stroke:#ff0000;stroke-width:2.66669989;stroke-linecap:butt;stroke-linejoin:round;color-rendering:optimizeQuality;image-rendering:optimizeQuality;text-rendering:geometricPrecision"
       id="g215">
      <path
         d="m 73,333.9621 72.3333,-0.6453 72.3334,-14.2762 L 290,302.0435 362.3333,220.1277 434.6667,136.4808 507,41.2533"
         style="fill:none;fill-rule:evenodd"
         id="path199"
         inkscape:connector-curvature="0" />
      <circle
         transform="translate(73,333.9621)"
         style="fill:none;stroke-linejoin:miter"
         r="4"
         cx="0"
         cy="0"
         id="circle201" />
      <circle
         transform="translate(145.3333,333.3168)"
         style="fill:none;stroke-linejoin:miter"
         r="4"
         cx="0"
         cy="0"
         id="circle203" />
      <circle
         transform="translate(217.6667,319.0406)"
         style="fill:none;stroke-linejoin:miter"
         r="4"
         cx="0"
         cy="0"
         id="circle205" />
      <circle
         transform="translate(290,302.0435)"
         style="fill:none;stroke-linejoin:miter"
         r="4"
         cx="0"
         cy="0"
         id="circle207" />
      <circle
         transform="translate(362.3333,220.1277)"
         style="fill:none;stroke-linejoin:miter"
         r="4"
         cx="0"
         cy="0"
         id="circle209" />
      <circle
         transform="translate(434.6667,136.4808)"
         style="fill:none;stroke-linejoin:miter"
         r="4"
         cx="0"
         cy="0"
         id="circle211" />
      <circle
         transform="translate(507,41.2533)"
         style="fill:none;stroke-linejoin:miter"
         r="4"
         cx="0"
         cy="0"
         id="circle213" />
    </g>
  </g>
</svg>
